ISO-10303-21;
HEADER;
FILE_DESCRIPTION (( 'STEP AP203' ),
    '1' );
FILE_NAME ('JX1_Foot_R.STEP',
    '2026-09-24T05:38:31',
    ( '' ),
    ( '' ),
    'SwSTEP 2.0',
    'SolidWorks 2026',
    '' );
FILE_SCHEMA (( 'CONFIG_CONTROL_DESIGN' ));
ENDSEC;

DATA;
#1 = DIRECTION ( 'NONE',  ( 0.000000000000000000, -0.000000000000000000, 1.000000000000000000 ) ) ;
#2 = AXIS2_PLACEMENT_3D ( 'NONE', #443, #1009, #125 ) ;
#3 = ORIENTED_EDGE ( 'NONE', *, *, #388, .F. ) ;
#4 = VECTOR ( 'NONE', #1189, 1000.000000000000000 ) ;
#5 = ORIENTED_EDGE ( 'NONE', *, *, #226, .T. ) ;
#6 = VECTOR ( 'NONE', #672, 1000.000000000000000 ) ;
#7 = LINE ( 'NONE', #980, #1012 ) ;
#8 = VERTEX_POINT ( 'NONE', #883 ) ;
#9 = FACE_OUTER_BOUND ( 'NONE', #101, .T. ) ;
#10 = AXIS2_PLACEMENT_3D ( 'NONE', #1276, #916, #585 ) ;
#11 = EDGE_CURVE ( 'NONE', #1324, #1350, #779, .T. ) ;
#12 = FACE_OUTER_BOUND ( 'NONE', #939, .T. ) ;
#13 = EDGE_LOOP ( 'NONE', ( #170, #511 ) ) ;
#14 = DIRECTION ( 'NONE',  ( 0.000000000000000000, 0.000000000000000000, 1.000000000000000000 ) ) ;
#15 = VERTEX_POINT ( 'NONE', #228 ) ;
#16 = CARTESIAN_POINT ( 'NONE',  ( -33.00000000000000000, 52.00000000000000000, -42.00000000000000000 ) ) ;
#17 = FACE_OUTER_BOUND ( 'NONE', #74, .T. ) ;
#18 = EDGE_CURVE ( 'NONE', #160, #968, #221, .T. ) ;
#19 = EDGE_CURVE ( 'NONE', #828, #1196, #907, .T. ) ;
#20 = EDGE_CURVE ( 'NONE', #288, #181, #661, .T. ) ;
#21 = ORIENTED_EDGE ( 'NONE', *, *, #1236, .F. ) ;
#22 = VERTEX_POINT ( 'NONE', #1237 ) ;
#23 = CARTESIAN_POINT ( 'NONE',  ( -33.00000000000000000, -38.00000000000000000, -3.999999999999996447 ) ) ;
#24 = VERTEX_POINT ( 'NONE', #1004 ) ;
#25 = DIRECTION ( 'NONE',  ( 1.000000000000000000, -0.000000000000000000, -0.000000000000000000 ) ) ;
#26 = DIRECTION ( 'NONE',  ( 0.000000000000000000, 0.000000000000000000, 1.000000000000000000 ) ) ;
#27 = DIRECTION ( 'NONE',  ( 1.000000000000000000, 0.000000000000000000, 0.000000000000000000 ) ) ;
#28 = EDGE_CURVE ( 'NONE', #1344, #925, #130, .T. ) ;
#29 = CARTESIAN_POINT ( 'NONE',  ( -17.49999999999999645, 13.00000000000000000, -42.00000000000000000 ) ) ;
#30 = AXIS2_PLACEMENT_3D ( 'NONE', #596, #383, #1355 ) ;
#31 = ORIENTED_EDGE ( 'NONE', *, *, #358, .F. ) ;
#32 = DIRECTION ( 'NONE',  ( -0.000000000000000000, -0.000000000000000000, -1.000000000000000000 ) ) ;
#33 = VECTOR ( 'NONE', #89, 1000.000000000000000 ) ;
#34 = DIRECTION ( 'NONE',  ( -0.000000000000000000, 1.000000000000000000, -0.000000000000000000 ) ) ;
#35 = VECTOR ( 'NONE', #1339, 1000.000000000000000 ) ;
#36 = FACE_BOUND ( 'NONE', #1385, .T. ) ;
#37 = CARTESIAN_POINT ( 'NONE',  ( -25.50000000000000000, -13.00000000000000000, 3.000000000000000000 ) ) ;
#38 = LINE ( 'NONE', #803, #1249 ) ;
#39 = CC_DESIGN_DATE_AND_TIME_ASSIGNMENT ( #311, #512, ( #126 ) ) ;
#40 = CARTESIAN_POINT ( 'NONE',  ( 70.00000000000000000, 0.000000000000000000, -42.00000000000000000 ) ) ;
#41 = ORIENTED_EDGE ( 'NONE', *, *, #253, .F. ) ;
#42 = DIRECTION ( 'NONE',  ( -1.000000000000000000, -0.000000000000000000, -0.000000000000000000 ) ) ;
#43 = CARTESIAN_POINT ( 'NONE',  ( 25.50000000000000355, -13.00000000000000000, 3.000000000000000000 ) ) ;
#44 = CARTESIAN_POINT ( 'NONE',  ( 0.000000000000000000, 0.000000000000000000, -3.999999999999996447 ) ) ;
#45 = DIRECTION ( 'NONE',  ( 0.000000000000000000, 0.000000000000000000, 1.000000000000000000 ) ) ;
#46 = CARTESIAN_POINT ( 'NONE',  ( 25.50000000000000355, 8.000000000000000000, 10.00000000000000000 ) ) ;
#47 = VERTEX_POINT ( 'NONE', #650 ) ;
#48 = CARTESIAN_POINT ( 'NONE',  ( 135.0000000000000000, -25.50000000000000355, -42.00000000000000000 ) ) ;
#49 = CARTESIAN_POINT ( 'NONE',  ( -33.00000000000000000, -38.00000000000000000, -3.999999999999996447 ) ) ;
#50 = ORIENTED_EDGE ( 'NONE', *, *, #482, .F. ) ;
#51 = PLANE ( 'NONE',  #1295 ) ;
#52 = PERSON_AND_ORGANIZATION ( #400, #1133 ) ;
#53 = ORIENTED_EDGE ( 'NONE', *, *, #837, .F. ) ;
#54 = LINE ( 'NONE', #728, #97 ) ;
#55 = AXIS2_PLACEMENT_3D ( 'NONE', #881, #1219, #216 ) ;
#56 = CARTESIAN_POINT ( 'NONE',  ( -60.00000000000000000, -47.50000000000000000, -42.00000000000000000 ) ) ;
#57 = EDGE_CURVE ( 'NONE', #325, #47, #211, .T. ) ;
#58 = VECTOR ( 'NONE', #1145, 1000.000000000000000 ) ;
#59 = ORIENTED_EDGE ( 'NONE', *, *, #207, .T. ) ;
#60 = LINE ( 'NONE', #473, #446 ) ;
#61 = DIRECTION ( 'NONE',  ( -1.000000000000000000, 0.000000000000000000, -0.000000000000000000 ) ) ;
#62 = VECTOR ( 'NONE', #643, 1000.000000000000000 ) ;
#63 = CC_DESIGN_APPROVAL ( #491, ( #1100 ) ) ;
#64 = VERTEX_POINT ( 'NONE', #1023 ) ;
#65 = VERTEX_POINT ( 'NONE', #98 ) ;
#66 = LINE ( 'NONE', #860, #1251 ) ;
#67 = ADVANCED_FACE ( 'NONE', ( #545 ), #992, .F. ) ;
#68 = CARTESIAN_POINT ( 'NONE',  ( -33.00000000000000000, 52.00000000000000000, -3.999999999999996447 ) ) ;
#69 = DATE_TIME_ROLE ( 'creation_date' ) ;
#70 = ORIENTED_EDGE ( 'NONE', *, *, #114, .F. ) ;
#71 = LINE ( 'NONE', #286, #406 ) ;
#72 = DIRECTION ( 'NONE',  ( 0.7071067811865475727, 0.7071067811865475727, -0.000000000000000000 ) ) ;
#73 = DATE_AND_TIME ( #747, #1426 ) ;
#74 = EDGE_LOOP ( 'NONE', ( #264, #832, #1354, #339, #1417, #346 ) ) ;
#75 = DIRECTION ( 'NONE',  ( -0.000000000000000000, -1.000000000000000000, -0.000000000000000000 ) ) ;
#76 = DIRECTION ( 'NONE',  ( -0.000000000000000000, -0.000000000000000000, -1.000000000000000000 ) ) ;
#77 = VECTOR ( 'NONE', #32, 1000.000000000000000 ) ;
#78 = VECTOR ( 'NONE', #1294, 1000.000000000000000 ) ;
#79 = CIRCLE ( 'NONE', #10, 9.999999999999994671 ) ;
#80 = CC_DESIGN_PERSON_AND_ORGANIZATION_ASSIGNMENT ( #180, #391, ( #1245 ) ) ;
#81 = CALENDAR_DATE ( 2026, 24, 9 ) ;
#82 = EDGE_LOOP ( 'NONE', ( #1203, #348, #298, #1411, #843, #450 ) ) ;
#83 = VERTEX_POINT ( 'NONE', #330 ) ;
#84 = DIRECTION ( 'NONE',  ( -0.000000000000000000, -0.5812381937190963521, 0.8137334712067351150 ) ) ;
#85 = CARTESIAN_POINT ( 'NONE',  ( -33.00000000000000000, 52.00000000000000000, -3.999999999999996447 ) ) ;
#86 = EDGE_LOOP ( 'NONE', ( #206, #213, #578, #498 ) ) ;
#87 = ORIENTED_EDGE ( 'NONE', *, *, #608, .F. ) ;
#88 = ORIENTED_EDGE ( 'NONE', *, *, #368, .F. ) ;
#89 = DIRECTION ( 'NONE',  ( -1.000000000000000000, -0.000000000000000000, -0.000000000000000000 ) ) ;
#90 = EDGE_CURVE ( 'NONE', #64, #469, #899, .T. ) ;
#91 = DIRECTION ( 'NONE',  ( -0.7071067811865474617, 0.7071067811865474617, 0.000000000000000000 ) ) ;
#92 = VERTEX_POINT ( 'NONE', #337 ) ;
#93 = PLANE ( 'NONE',  #1334 ) ;
#94 = CARTESIAN_POINT ( 'NONE',  ( -47.00000000000000000, -52.00000000000000000, -3.999999999999996447 ) ) ;
#95 = EDGE_CURVE ( 'NONE', #1434, #742, #439, .T. ) ;
#96 = AXIS2_PLACEMENT_3D ( 'NONE', #134, #1348, #354 ) ;
#97 = VECTOR ( 'NONE', #1278, 1000.000000000000000 ) ;
#98 = CARTESIAN_POINT ( 'NONE',  ( -47.00000000000000000, -52.00000000000000000, -3.999999999999996447 ) ) ;
#99 = CC_DESIGN_APPROVAL ( #440, ( #179 ) ) ;
#100 = EDGE_LOOP ( 'NONE', ( #506, #106, #754, #1190 ) ) ;
#101 = EDGE_LOOP ( 'NONE', ( #261, #164, #1211, #306 ) ) ;
#102 = LINE ( 'NONE', #1239, #876 ) ;
#103 = FACE_OUTER_BOUND ( 'NONE', #1038, .T. ) ;
#104 = CARTESIAN_POINT ( 'NONE',  ( 135.0000000000000000, 25.50000000000000355, -42.00000000000000000 ) ) ;
#105 = EDGE_CURVE ( 'NONE', #441, #1340, #328, .T. ) ;
#106 = ORIENTED_EDGE ( 'NONE', *, *, #190, .F. ) ;
#107 = ORIENTED_EDGE ( 'NONE', *, *, #726, .T. ) ;
#108 = ORIENTED_EDGE ( 'NONE', *, *, #991, .T. ) ;
#109 = DIRECTION ( 'NONE',  ( -1.000000000000000000, 0.000000000000000000, -0.000000000000000000 ) ) ;
#110 = LINE ( 'NONE', #572, #564 ) ;
#111 = LINE ( 'NONE', #1115, #6 ) ;
#112 = DIRECTION ( 'NONE',  ( 1.000000000000000000, 0.000000000000000000, 0.000000000000000000 ) ) ;
#113 = VERTEX_POINT ( 'NONE', #1019 ) ;
#114 = EDGE_CURVE ( 'NONE', #113, #83, #562, .T. ) ;
#115 = ORIENTED_EDGE ( 'NONE', *, *, #1314, .T. ) ;
#116 = DIRECTION ( 'NONE',  ( 0.000000000000000000, 0.8137334712067350040, -0.5812381937190964631 ) ) ;
#117 = ORIENTED_EDGE ( 'NONE', *, *, #105, .T. ) ;
#118 = FACE_OUTER_BOUND ( 'NONE', #571, .T. ) ;
#119 = DIRECTION ( 'NONE',  ( -0.000000000000000000, -0.000000000000000000, -1.000000000000000000 ) ) ;
#120 = ORIENTED_EDGE ( 'NONE', *, *, #424, .F. ) ;
#121 = VECTOR ( 'NONE', #1376, 1000.000000000000114 ) ;
#122 = VECTOR ( 'NONE', #1309, 1000.000000000000114 ) ;
#123 = PLANE ( 'NONE',  #1041 ) ;
#124 = ORIENTED_EDGE ( 'NONE', *, *, #359, .T. ) ;
#125 = DIRECTION ( 'NONE',  ( -0.000000000000000000, 0.000000000000000000, 1.000000000000000000 ) ) ;
#126 = SECURITY_CLASSIFICATION ( '', '', #1290 ) ;
#127 = ADVANCED_FACE ( 'NONE', ( #118, #231 ), #911, .F. ) ;
#128 = PLANE ( 'NONE',  #637 ) ;
#129 = CARTESIAN_POINT ( 'NONE',  ( -25.50000000000000000, 0.000000000000000000, 0.000000000000000000 ) ) ;
#130 = LINE ( 'NONE', #553, #541 ) ;
#131 = EDGE_LOOP ( 'NONE', ( #933, #50, #1171, #310 ) ) ;
#132 = FACE_BOUND ( 'NONE', #788, .T. ) ;
#133 = ORIENTED_EDGE ( 'NONE', *, *, #1148, .F. ) ;
#134 = CARTESIAN_POINT ( 'NONE',  ( -33.00000000000000000, -52.00000000000000000, -3.999999999999996447 ) ) ;
#135 = LINE ( 'NONE', #695, #1087 ) ;
#136 = DIRECTION ( 'NONE',  ( 0.000000000000000000, 0.000000000000000000, -1.000000000000000000 ) ) ;
#137 = DIRECTION ( 'NONE',  ( -1.000000000000000000, 0.000000000000000000, -0.000000000000000000 ) ) ;
#138 = DIRECTION ( 'NONE',  ( -0.000000000000000000, -0.000000000000000000, -1.000000000000000000 ) ) ;
#139 = CARTESIAN_POINT ( 'NONE',  ( 17.50000000000000000, -13.00000000000000000, 3.000000000000000000 ) ) ;
#140 = EDGE_CURVE ( 'NONE', #1174, #434, #826, .T. ) ;
#141 = LINE ( 'NONE', #589, #266 ) ;
#142 = ORIENTED_EDGE ( 'NONE', *, *, #752, .F. ) ;
#143 = DIRECTION ( 'NONE',  ( -1.000000000000000000, -0.000000000000000000, -0.000000000000000000 ) ) ;
#144 = VECTOR ( 'NONE', #1337, 999.9999999999998863 ) ;
#145 = FACE_OUTER_BOUND ( 'NONE', #1231, .T. ) ;
#146 = AXIS2_PLACEMENT_3D ( 'NONE', #724, #730, #1064 ) ;
#147 = ORIENTED_EDGE ( 'NONE', *, *, #527, .T. ) ;
#148 = DIRECTION ( 'NONE',  ( 1.000000000000000000, 0.000000000000000000, 0.000000000000000000 ) ) ;
#149 = AXIS2_PLACEMENT_3D ( 'NONE', #232, #1234, #1020 ) ;
#150 = FACE_OUTER_BOUND ( 'NONE', #1362, .T. ) ;
#151 = AXIS2_PLACEMENT_3D ( 'NONE', #40, #476, #1143 ) ;
#152 = CARTESIAN_POINT ( 'NONE',  ( 80.00000000000000000, 1.224646799147352665E-15, -42.00000000000000000 ) ) ;
#153 = EDGE_LOOP ( 'NONE', ( #1307, #1166, #810, #1347, #691 ) ) ;
#154 = CARTESIAN_POINT ( 'NONE',  ( 135.0000000000000000, 25.50000000000000355, -50.00000000000000000 ) ) ;
#155 = DIRECTION ( 'NONE',  ( -0.000000000000000000, 1.000000000000000000, -0.000000000000000000 ) ) ;
#156 = ORIENTED_EDGE ( 'NONE', *, *, #703, .T. ) ;
#157 = MANIFOLD_SOLID_BREP ( 'Post_Med', #291 ) ;
#158 = CARTESIAN_POINT ( 'NONE',  ( 107.0000000000000142, 47.50000000000000000, -42.00000000000000000 ) ) ;
#159 = DIRECTION ( 'NONE',  ( 1.000000000000000000, 0.000000000000000000, 0.000000000000000000 ) ) ;
#160 = VERTEX_POINT ( 'NONE', #1226 ) ;
#161 = CARTESIAN_POINT ( 'NONE',  ( 25.50000000000000355, 4.898587196589412829E-16, -4.000000000000000000 ) ) ;
#162 = ORIENTED_EDGE ( 'NONE', *, *, #1117, .F. ) ;
#163 = EDGE_CURVE ( 'NONE', #194, #22, #110, .T. ) ;
#164 = ORIENTED_EDGE ( 'NONE', *, *, #284, .F. ) ;
#165 = DIRECTION ( 'NONE',  ( 0.000000000000000000, 0.000000000000000000, -1.000000000000000000 ) ) ;
#166 = DIRECTION ( 'NONE',  ( 0.000000000000000000, 0.000000000000000000, -1.000000000000000000 ) ) ;
#167 = VERTEX_POINT ( 'NONE', #1122 ) ;
#168 = DIRECTION ( 'NONE',  ( 0.000000000000000000, 0.000000000000000000, 1.000000000000000000 ) ) ;
#169 = EDGE_LOOP ( 'NONE', ( #761, #1168, #1402, #1423 ) ) ;
#170 = ORIENTED_EDGE ( 'NONE', *, *, #825, .F. ) ;
#171 = VECTOR ( 'NONE', #357, 1000.000000000000000 ) ;
#172 = EDGE_CURVE ( 'NONE', #917, #194, #770, .T. ) ;
#173 = CIRCLE ( 'NONE', #356, 6.999999999999999112 ) ;
#174 = CARTESIAN_POINT ( 'NONE',  ( -17.49999999999999645, 0.000000000000000000, 0.000000000000000000 ) ) ;
#175 = AXIS2_PLACEMENT_3D ( 'NONE', #723, #166, #823 ) ;
#176 = ADVANCED_FACE ( 'NONE', ( #9 ), #903, .F. ) ;
#177 = FACE_BOUND ( 'NONE', #374, .T. ) ;
#178 = VECTOR ( 'NONE', #751, 1000.000000000000114 ) ;
#179 = PRODUCT_DEFINITION_FORMATION_WITH_SPECIFIED_SOURCE ( 'ANY', '', #1245, .NOT_KNOWN. ) ;
#180 = PERSON_AND_ORGANIZATION ( #400, #1133 ) ;
#181 = VERTEX_POINT ( 'NONE', #1429 ) ;
#182 = DIRECTION ( 'NONE',  ( 0.000000000000000000, -0.000000000000000000, 1.000000000000000000 ) ) ;
#183 = FACE_OUTER_BOUND ( 'NONE', #100, .T. ) ;
#184 = ADVANCED_FACE ( 'NONE', ( #663 ), #431, .F. ) ;
#185 = DATE_AND_TIME ( #409, #1384 ) ;
#186 = VERTEX_POINT ( 'NONE', #654 ) ;
#187 = DIRECTION ( 'NONE',  ( -1.000000000000000000, -0.000000000000000000, -0.000000000000000000 ) ) ;
#188 = DIRECTION ( 'NONE',  ( -1.000000000000000000, 0.000000000000000000, 0.000000000000000000 ) ) ;
#189 = ADVANCED_FACE ( 'NONE', ( #103 ), #549, .F. ) ;
#190 = EDGE_CURVE ( 'NONE', #890, #531, #1058, .T. ) ;
#191 = ORIENTED_EDGE ( 'NONE', *, *, #960, .F. ) ;
#192 = PERSON_AND_ORGANIZATION_ROLE ( 'classification_officer' ) ;
#193 = EDGE_LOOP ( 'NONE', ( #993, #1054, #428, #1119 ) ) ;
#194 = VERTEX_POINT ( 'NONE', #499 ) ;
#195 = DIRECTION ( 'NONE',  ( 0.000000000000000000, 0.000000000000000000, 1.000000000000000000 ) ) ;
#196 = LINE ( 'NONE', #204, #801 ) ;
#197 = AXIS2_PLACEMENT_3D ( 'NONE', #976, #72, #91 ) ;
#198 = VECTOR ( 'NONE', #1139, 1000.000000000000000 ) ;
#199 = AXIS2_PLACEMENT_3D ( 'NONE', #1352, #1151, #1346 ) ;
#200 = EDGE_LOOP ( 'NONE', ( #949, #744, #1051, #623 ) ) ;
#201 = EDGE_CURVE ( 'NONE', #469, #547, #54, .T. ) ;
#202 = ORIENTED_EDGE ( 'NONE', *, *, #537, .T. ) ;
#203 = CARTESIAN_POINT ( 'NONE',  ( -47.00000000000000000, 52.00000000000000000, -3.999999999999996447 ) ) ;
#204 = CARTESIAN_POINT ( 'NONE',  ( -17.49999999999999645, 0.000000000000000000, 4.000000000000000000 ) ) ;
#205 = ORIENTED_EDGE ( 'NONE', *, *, #914, .T. ) ;
#206 = ORIENTED_EDGE ( 'NONE', *, *, #825, .T. ) ;
#207 = EDGE_CURVE ( 'NONE', #313, #1196, #940, .T. ) ;
#208 = EDGE_LOOP ( 'NONE', ( #41, #910, #1380, #851, #205, #1248, #31, #1113, #70, #484, #382, #849, #281, #1093, #1128, #1318 ) ) ;
#209 = FACE_OUTER_BOUND ( 'NONE', #1014, .T. ) ;
#210 = CARTESIAN_POINT ( 'NONE',  ( 25.50000000000000355, 13.00000000000000000, 3.000000000000000000 ) ) ;
#211 = LINE ( 'NONE', #998, #590 ) ;
#212 = ORIENTED_EDGE ( 'NONE', *, *, #1021, .F. ) ;
#213 = ORIENTED_EDGE ( 'NONE', *, *, #777, .T. ) ;
#214 = DIRECTION ( 'NONE',  ( -0.000000000000000000, -0.000000000000000000, -1.000000000000000000 ) ) ;
#215 = EDGE_CURVE ( 'NONE', #160, #1238, #934, .T. ) ;
#216 = DIRECTION ( 'NONE',  ( 0.000000000000000000, 0.000000000000000000, 1.000000000000000000 ) ) ;
#217 = EDGE_CURVE ( 'NONE', #786, #796, #1164, .T. ) ;
#218 = CARTESIAN_POINT ( 'NONE',  ( 25.50000000000000355, 13.00000000000000000, 3.000000000000000000 ) ) ;
#219 = VECTOR ( 'NONE', #1024, 1000.000000000000000 ) ;
#220 = VECTOR ( 'NONE', #239, 1000.000000000000000 ) ;
#221 = LINE ( 'NONE', #1243, #1328 ) ;
#222 = ORIENTED_EDGE ( 'NONE', *, *, #537, .F. ) ;
#223 = LINE ( 'NONE', #340, #338 ) ;
#224 = DIRECTION ( 'NONE',  ( -0.000000000000000000, 1.000000000000000000, -0.000000000000000000 ) ) ;
#225 = DIRECTION ( 'NONE',  ( 0.000000000000000000, -0.000000000000000000, -1.000000000000000000 ) ) ;
#226 = EDGE_CURVE ( 'NONE', #1045, #113, #467, .T. ) ;
#227 = CARTESIAN_POINT ( 'NONE',  ( -17.49999999999999645, -13.00000000000000000, -42.00000000000000000 ) ) ;
#228 = CARTESIAN_POINT ( 'NONE',  ( 25.50000000000000355, -13.00000000000000000, -42.00000000000000000 ) ) ;
#229 = ORIENTED_EDGE ( 'NONE', *, *, #18, .F. ) ;
#230 = CARTESIAN_POINT ( 'NONE',  ( 17.50000000000000000, -8.000000000000000000, 10.00000000000000000 ) ) ;
#231 = FACE_BOUND ( 'NONE', #13, .T. ) ;
#232 = CARTESIAN_POINT ( 'NONE',  ( -17.49999999999999645, 0.000000000000000000, 0.000000000000000000 ) ) ;
#233 = ADVANCED_FACE ( 'NONE', ( #279 ), #1027, .F. ) ;
#234 = ORIENTED_EDGE ( 'NONE', *, *, #1254, .F. ) ;
#235 = CARTESIAN_POINT ( 'NONE',  ( -47.00000000000000000, 52.00000000000000000, -42.00000000000000000 ) ) ;
#236 = EDGE_LOOP ( 'NONE', ( #397, #1391 ) ) ;
#237 = CARTESIAN_POINT ( 'NONE',  ( 70.00000000000000000, 0.000000000000000000, -42.00000000000000000 ) ) ;
#238 = ORIENTED_EDGE ( 'NONE', *, *, #954, .F. ) ;
#239 = DIRECTION ( 'NONE',  ( -1.000000000000000000, -0.000000000000000000, -0.000000000000000000 ) ) ;
#240 = CARTESIAN_POINT ( 'NONE',  ( 17.50000000000000000, 8.000000000000000000, 10.00000000000000000 ) ) ;
#241 = ORIENTED_EDGE ( 'NONE', *, *, #1029, .F. ) ;
#242 = LINE ( 'NONE', #235, #565 ) ;
#243 = AXIS2_PLACEMENT_3D ( 'NONE', #906, #575, #1022 ) ;
#244 = ORIENTED_EDGE ( 'NONE', *, *, #1005, .T. ) ;
#245 = VECTOR ( 'NONE', #414, 1000.000000000000000 ) ;
#246 = EDGE_CURVE ( 'NONE', #979, #22, #363, .T. ) ;
#247 = CYLINDRICAL_SURFACE ( 'NONE', #1227, 6.999999999999999112 ) ;
#248 = CARTESIAN_POINT ( 'NONE',  ( 25.50000000000000355, -8.000000000000000000, 10.00000000000000000 ) ) ;
#249 = FACE_OUTER_BOUND ( 'NONE', #82, .T. ) ;
#250 = FACE_OUTER_BOUND ( 'NONE', #1427, .T. ) ;
#251 = ORIENTED_EDGE ( 'NONE', *, *, #246, .F. ) ;
#252 = CARTESIAN_POINT ( 'NONE',  ( -33.00000000000000000, 52.00000000000000000, -3.999999999999996447 ) ) ;
#253 = EDGE_CURVE ( 'NONE', #22, #24, #950, .T. ) ;
#254 = LINE ( 'NONE', #479, #1184 ) ;
#255 = DIRECTION ( 'NONE',  ( -0.000000000000000000, -0.000000000000000000, -1.000000000000000000 ) ) ;
#256 = DIRECTION ( 'NONE',  ( -0.000000000000000000, -1.000000000000000000, -0.000000000000000000 ) ) ;
#257 = CARTESIAN_POINT ( 'NONE',  ( 17.50000000000000000, 13.00000000000000000, -42.00000000000000000 ) ) ;
#258 = ORIENTED_EDGE ( 'NONE', *, *, #1030, .F. ) ;
#259 = CARTESIAN_POINT ( 'NONE',  ( 107.0000000000000142, -47.50000000000000000, -42.00000000000000000 ) ) ;
#260 = PLANE ( 'NONE',  #522 ) ;
#261 = ORIENTED_EDGE ( 'NONE', *, *, #217, .T. ) ;
#262 = CARTESIAN_POINT ( 'NONE',  ( -17.49999999999999645, -13.00000000000000000, 3.000000000000000000 ) ) ;
#263 = ADVANCED_FACE ( 'NONE', ( #918 ), #928, .F. ) ;
#264 = ORIENTED_EDGE ( 'NONE', *, *, #1212, .T. ) ;
#265 = CARTESIAN_POINT ( 'NONE',  ( -25.50000000000000000, 13.00000000000000000, -42.00000000000000000 ) ) ;
#266 = VECTOR ( 'NONE', #1039, 1000.000000000000000 ) ;
#267 = ORIENTED_EDGE ( 'NONE', *, *, #20, .T. ) ;
#268 = LINE ( 'NONE', #1269, #77 ) ;
#269 = VECTOR ( 'NONE', #1165, 1000.000000000000000 ) ;
#270 = DIRECTION ( 'NONE',  ( 0.000000000000000000, -0.000000000000000000, 1.000000000000000000 ) ) ;
#271 =( GEOMETRIC_REPRESENTATION_CONTEXT ( 3 ) GLOBAL_UNCERTAINTY_ASSIGNED_CONTEXT ( ( #614 ) ) GLOBAL_UNIT_ASSIGNED_CONTEXT ( ( #380, #457, #304 ) ) REPRESENTATION_CONTEXT ( 'NONE', 'WORKASPACE' ) );
#272 = ORIENTED_EDGE ( 'NONE', *, *, #1169, .F. ) ;
#273 = PLANE ( 'NONE',  #591 ) ;
#274 = CYLINDRICAL_SURFACE ( 'NONE', #1353, 4.000000000000000000 ) ;
#275 = ADVANCED_FACE ( 'NONE', ( #1046 ), #1035, .F. ) ;
#276 = ORIENTED_EDGE ( 'NONE', *, *, #1126, .F. ) ;
#277 = CARTESIAN_POINT ( 'NONE',  ( 25.50000000000000355, 13.00000000000000000, -42.00000000000000000 ) ) ;
#278 = ORIENTED_EDGE ( 'NONE', *, *, #999, .F. ) ;
#279 = FACE_OUTER_BOUND ( 'NONE', #1425, .T. ) ;
#280 = LINE ( 'NONE', #43, #1040 ) ;
#281 = ORIENTED_EDGE ( 'NONE', *, *, #215, .T. ) ;
#282 = CARTESIAN_POINT ( 'NONE',  ( 17.50000000000000000, 0.000000000000000000, 0.000000000000000000 ) ) ;
#283 = ORIENTED_EDGE ( 'NONE', *, *, #309, .F. ) ;
#284 = EDGE_CURVE ( 'NONE', #735, #796, #268, .T. ) ;
#285 = DIRECTION ( 'NONE',  ( 0.000000000000000000, -0.000000000000000000, -1.000000000000000000 ) ) ;
#286 = CARTESIAN_POINT ( 'NONE',  ( -17.49999999999999645, -8.000000000000000000, 10.00000000000000000 ) ) ;
#287 = DIRECTION ( 'NONE',  ( 1.000000000000000000, 0.000000000000000000, 0.000000000000000000 ) ) ;
#288 = VERTEX_POINT ( 'NONE', #1172 ) ;
#289 = DATE_AND_TIME ( #1410, #502 ) ;
#290 = VERTEX_POINT ( 'NONE', #822 ) ;
#291 = CLOSED_SHELL ( 'NONE', ( #535, #184, #657, #1283, #666, #905, #425, #67, #648, #630, #326, #1062, #263, #766, #784, #1360, #842, #1406, #1390, #1289, #720, #795, #1110, #1431, #127, #401, #189, #737, #504, #1194, #413, #1138, #233, #176, #1420, #762, #1159, #952, #275, #886, #551, #1073, #324, #292 ) ) ;
#292 = ADVANCED_FACE ( 'NONE', ( #1262 ), #807, .T. ) ;
#293 = VECTOR ( 'NONE', #25, 1000.000000000000000 ) ;
#294 = DIRECTION ( 'NONE',  ( -0.000000000000000000, -0.000000000000000000, -1.000000000000000000 ) ) ;
#295 = AXIS2_PLACEMENT_3D ( 'NONE', #847, #418, #536 ) ;
#296 = CARTESIAN_POINT ( 'NONE',  ( -33.00000000000000000, -52.00000000000000000, -3.999999999999996447 ) ) ;
#297 = VECTOR ( 'NONE', #214, 1000.000000000000000 ) ;
#298 = ORIENTED_EDGE ( 'NONE', *, *, #201, .F. ) ;
#299 = APPLICATION_PROTOCOL_DEFINITION ( 'international standard', 'config_control_design', 1994, #715 ) ;
#300 = VERTEX_POINT ( 'NONE', #252 ) ;
#301 = CARTESIAN_POINT ( 'NONE',  ( -47.00000000000000000, 52.00000000000000000, -3.999999999999996447 ) ) ;
#302 = EDGE_CURVE ( 'NONE', #717, #15, #833, .T. ) ;
#303 = DIRECTION ( 'NONE',  ( 0.000000000000000000, 1.000000000000000000, -0.000000000000000000 ) ) ;
#304 =( NAMED_UNIT ( * ) SI_UNIT ( $, .STERADIAN. ) SOLID_ANGLE_UNIT ( ) );
#305 = ORIENTED_EDGE ( 'NONE', *, *, #1413, .T. ) ;
#306 = ORIENTED_EDGE ( 'NONE', *, *, #1257, .T. ) ;
#307 = CARTESIAN_POINT ( 'NONE',  ( 17.50000000000000000, 13.00000000000000000, 3.000000000000000000 ) ) ;
#308 = CYLINDRICAL_SURFACE ( 'NONE', #426, 6.999999999999999112 ) ;
#309 = EDGE_CURVE ( 'NONE', #633, #517, #601, .T. ) ;
#310 = ORIENTED_EDGE ( 'NONE', *, *, #935, .T. ) ;
#311 = DATE_AND_TIME ( #81, #947 ) ;
#312 = EDGE_LOOP ( 'NONE', ( #53, #5, #818, #600 ) ) ;
#313 = VERTEX_POINT ( 'NONE', #48 ) ;
#314 = DIRECTION ( 'NONE',  ( -0.000000000000000000, -0.000000000000000000, -1.000000000000000000 ) ) ;
#315 = FACE_BOUND ( 'NONE', #1240, .T. ) ;
#316 = VECTOR ( 'NONE', #138, 1000.000000000000000 ) ;
#317 = VECTOR ( 'NONE', #444, 1000.000000000000000 ) ;
#318 = VECTOR ( 'NONE', #1114, 1000.000000000000000 ) ;
#319 = EDGE_CURVE ( 'NONE', #1350, #463, #587, .T. ) ;
#320 = EDGE_LOOP ( 'NONE', ( #1338, #108, #1277, #713 ) ) ;
#321 = ORIENTED_EDGE ( 'NONE', *, *, #371, .T. ) ;
#322 = DIRECTION ( 'NONE',  ( -0.000000000000000000, -1.000000000000000000, -0.000000000000000000 ) ) ;
#323 = CARTESIAN_POINT ( 'NONE',  ( -75.00000000000000000, -32.50000000000000000, -50.00000000000000000 ) ) ;
#324 = ADVANCED_FACE ( 'NONE', ( #1416 ), #273, .F. ) ;
#325 = VERTEX_POINT ( 'NONE', #1393 ) ;
#326 = ADVANCED_FACE ( 'NONE', ( #1365 ), #1281, .F. ) ;
#327 = FACE_OUTER_BOUND ( 'NONE', #200, .T. ) ;
#328 = LINE ( 'NONE', #790, #1293 ) ;
#329 = CARTESIAN_POINT ( 'NONE',  ( -33.00000000000000000, -52.00000000000000000, -42.00000000000000000 ) ) ;
#330 = CARTESIAN_POINT ( 'NONE',  ( -33.00000000000000000, -38.00000000000000000, -42.00000000000000000 ) ) ;
#331 = LINE ( 'NONE', #774, #297 ) ;
#332 = EDGE_CURVE ( 'NONE', #1221, #186, #60, .T. ) ;
#333 = DIRECTION ( 'NONE',  ( -0.000000000000000000, -0.000000000000000000, -1.000000000000000000 ) ) ;
#334 = DIRECTION ( 'NONE',  ( -0.000000000000000000, 0.000000000000000000, 1.000000000000000000 ) ) ;
#335 = AXIS2_PLACEMENT_3D ( 'NONE', #227, #665, #1 ) ;
#336 = AXIS2_PLACEMENT_3D ( 'NONE', #574, #460, #225 ) ;
#337 = CARTESIAN_POINT ( 'NONE',  ( 25.50000000000000355, 0.000000000000000000, 4.000000000000000000 ) ) ;
#338 = VECTOR ( 'NONE', #887, 1000.000000000000000 ) ;
#339 = ORIENTED_EDGE ( 'NONE', *, *, #163, .F. ) ;
#340 = CARTESIAN_POINT ( 'NONE',  ( -60.00000000000000000, 47.50000000000000000, -50.00000000000000000 ) ) ;
#341 = LINE ( 'NONE', #1441, #220 ) ;
#342 = EDGE_CURVE ( 'NONE', #1324, #547, #1368, .T. ) ;
#343 = ORIENTED_EDGE ( 'NONE', *, *, #861, .F. ) ;
#344 = VERTEX_POINT ( 'NONE', #1150 ) ;
#345 = CYLINDRICAL_SURFACE ( 'NONE', #1158, 9.999999999999994671 ) ;
#346 = ORIENTED_EDGE ( 'NONE', *, *, #1078, .T. ) ;
#347 = LINE ( 'NONE', #912, #447 ) ;
#348 = ORIENTED_EDGE ( 'NONE', *, *, #1383, .F. ) ;
#349 = PLANE ( 'NONE',  #335 ) ;
#350 = EDGE_CURVE ( 'NONE', #539, #1268, #1125, .T. ) ;
#351 = DIRECTION ( 'NONE',  ( 0.7863183388224226356, 0.6178215519319035787, -0.000000000000000000 ) ) ;
#352 = VERTEX_POINT ( 'NONE', #1042 ) ;
#353 = LINE ( 'NONE', #488, #639 ) ;
#354 = DIRECTION ( 'NONE',  ( 0.000000000000000000, 0.000000000000000000, 1.000000000000000000 ) ) ;
#355 = CARTESIAN_POINT ( 'NONE',  ( 135.0000000000000000, 25.50000000000000355, -50.00000000000000000 ) ) ;
#356 = AXIS2_PLACEMENT_3D ( 'NONE', #373, #395, #937 ) ;
#357 = DIRECTION ( 'NONE',  ( -0.000000000000000000, 1.000000000000000000, -0.000000000000000000 ) ) ;
#358 = EDGE_CURVE ( 'NONE', #1340, #1045, #811, .T. ) ;
#359 = EDGE_CURVE ( 'NONE', #392, #979, #242, .T. ) ;
#360 = VECTOR ( 'NONE', #187, 1000.000000000000000 ) ;
#361 = DIRECTION ( 'NONE',  ( -1.000000000000000000, 0.000000000000000000, 0.000000000000000000 ) ) ;
#362 = ORIENTED_EDGE ( 'NONE', *, *, #853, .T. ) ;
#363 = LINE ( 'NONE', #377, #945 ) ;
#364 = CC_DESIGN_APPROVAL ( #472, ( #126 ) ) ;
#365 = DIRECTION ( 'NONE',  ( 0.000000000000000000, 0.000000000000000000, -1.000000000000000000 ) ) ;
#366 = FACE_OUTER_BOUND ( 'NONE', #153, .T. ) ;
#367 = CARTESIAN_POINT ( 'NONE',  ( -17.49999999999999645, -13.00000000000000000, -42.00000000000000000 ) ) ;
#368 = EDGE_CURVE ( 'NONE', #1006, #411, #38, .T. ) ;
#369 = FACE_OUTER_BOUND ( 'NONE', #974, .T. ) ;
#370 = DIRECTION ( 'NONE',  ( -0.000000000000000000, -0.000000000000000000, 1.000000000000000000 ) ) ;
#371 = EDGE_CURVE ( 'NONE', #1252, #806, #1266, .T. ) ;
#372 = DIRECTION ( 'NONE',  ( 1.000000000000000000, -0.000000000000000000, -0.000000000000000000 ) ) ;
#373 = CARTESIAN_POINT ( 'NONE',  ( 45.00000000000000000, 0.000000000000000000, -42.00000000000000000 ) ) ;
#374 = EDGE_LOOP ( 'NONE', ( #1095, #871, #546, #1034 ) ) ;
#375 = DIRECTION ( 'NONE',  ( 0.000000000000000000, 0.000000000000000000, 1.000000000000000000 ) ) ;
#376 = ORIENTED_EDGE ( 'NONE', *, *, #582, .T. ) ;
#377 = CARTESIAN_POINT ( 'NONE',  ( -47.00000000000000000, 38.00000000000000000, -42.00000000000000000 ) ) ;
#378 = FACE_OUTER_BOUND ( 'NONE', #312, .T. ) ;
#379 = DIRECTION ( 'NONE',  ( -0.000000000000000000, -0.000000000000000000, -1.000000000000000000 ) ) ;
#380 =( LENGTH_UNIT ( ) NAMED_UNIT ( * ) SI_UNIT ( .MILLI., .METRE. ) );
#381 = VECTOR ( 'NONE', #1371, 1000.000000000000000 ) ;
#382 = ORIENTED_EDGE ( 'NONE', *, *, #1264, .T. ) ;
#383 = DIRECTION ( 'NONE',  ( -0.6178215519319035787, -0.7863183388224226356, 0.000000000000000000 ) ) ;
#384 = CIRCLE ( 'NONE', #923, 4.000000000000000000 ) ;
#385 = CARTESIAN_POINT ( 'NONE',  ( 17.50000000000000000, 0.000000000000000000, 4.000000000000000000 ) ) ;
#386 = AXIS2_PLACEMENT_3D ( 'NONE', #909, #137, #812 ) ;
#387 = ORIENTED_EDGE ( 'NONE', *, *, #625, .T. ) ;
#388 = EDGE_CURVE ( 'NONE', #1196, #968, #1161, .T. ) ;
#389 = EDGE_CURVE ( 'NONE', #1008, #828, #568, .T. ) ;
#390 = CARTESIAN_POINT ( 'NONE',  ( -25.50000000000000000, 8.000000000000000000, 10.00000000000000000 ) ) ;
#391 = PERSON_AND_ORGANIZATION_ROLE ( 'design_owner' ) ;
#392 = VERTEX_POINT ( 'NONE', #16 ) ;
#393 = DIRECTION ( 'NONE',  ( 0.000000000000000000, -1.000000000000000000, 0.000000000000000000 ) ) ;
#394 = CARTESIAN_POINT ( 'NONE',  ( 135.0000000000000000, 25.50000000000000355, -42.00000000000000000 ) ) ;
#395 = DIRECTION ( 'NONE',  ( 0.000000000000000000, 0.000000000000000000, 1.000000000000000000 ) ) ;
#396 = APPROVAL_DATE_TIME ( #185, #491 ) ;
#397 = ORIENTED_EDGE ( 'NONE', *, *, #584, .T. ) ;
#398 = DIRECTION ( 'NONE',  ( -0.000000000000000000, -0.000000000000000000, 1.000000000000000000 ) ) ;
#399 = DIRECTION ( 'NONE',  ( -1.000000000000000000, -0.000000000000000000, -0.000000000000000000 ) ) ;
#400 = PERSON ( 'UNSPECIFIED', 'UNSPECIFIED', 'UNSPECIFIED', ('UNSPECIFIED'), ('UNSPECIFIED'), ('UNSPECIFIED') ) ;
#401 = ADVANCED_FACE ( 'NONE', ( #249, #36 ), #930, .T. ) ;
#402 = PERSON_AND_ORGANIZATION ( #400, #1133 ) ;
#403 = ORIENTED_EDGE ( 'NONE', *, *, #163, .T. ) ;
#404 = VECTOR ( 'NONE', #836, 1000.000000000000000 ) ;
#405 = DIRECTION ( 'NONE',  ( -1.000000000000000000, -0.000000000000000000, -0.000000000000000000 ) ) ;
#406 = VECTOR ( 'NONE', #75, 1000.000000000000000 ) ;
#407 = DIRECTION ( 'NONE',  ( 0.000000000000000000, 0.5812381937190964631, -0.8137334712067350040 ) ) ;
#408 = VECTOR ( 'NONE', #599, 999.9999999999998863 ) ;
#409 = CALENDAR_DATE ( 2026, 24, 9 ) ;
#410 = ORIENTED_EDGE ( 'NONE', *, *, #1030, .T. ) ;
#411 = VERTEX_POINT ( 'NONE', #240 ) ;
#412 = DIRECTION ( 'NONE',  ( 0.000000000000000000, 0.000000000000000000, 1.000000000000000000 ) ) ;
#413 = ADVANCED_FACE ( 'NONE', ( #778 ), #349, .F. ) ;
#414 = DIRECTION ( 'NONE',  ( 1.000000000000000000, -0.000000000000000000, -0.000000000000000000 ) ) ;
#415 = VERTEX_POINT ( 'NONE', #1116 ) ;
#416 = ORIENTED_EDGE ( 'NONE', *, *, #658, .F. ) ;
#417 = PLANE ( 'NONE',  #757 ) ;
#418 = DIRECTION ( 'NONE',  ( 0.000000000000000000, 0.000000000000000000, -1.000000000000000000 ) ) ;
#419 = ORIENTED_EDGE ( 'NONE', *, *, #319, .T. ) ;
#420 = ORIENTED_EDGE ( 'NONE', *, *, #726, .F. ) ;
#421 = CARTESIAN_POINT ( 'NONE',  ( -17.49999999999999645, -13.00000000000000000, 3.000000000000000000 ) ) ;
#422 = FACE_OUTER_BOUND ( 'NONE', #1291, .T. ) ;
#423 = VECTOR ( 'NONE', #1253, 1000.000000000000000 ) ;
#424 = EDGE_CURVE ( 'NONE', #92, #539, #872, .T. ) ;
#425 = ADVANCED_FACE ( 'NONE', ( #1003 ), #445, .F. ) ;
#426 = AXIS2_PLACEMENT_3D ( 'NONE', #1310, #76, #188 ) ;
#427 = EDGE_CURVE ( 'NONE', #806, #517, #1399, .T. ) ;
#428 = ORIENTED_EDGE ( 'NONE', *, *, #573, .F. ) ;
#429 = ORIENTED_EDGE ( 'NONE', *, *, #914, .F. ) ;
#430 = CARTESIAN_POINT ( 'NONE',  ( 135.0000000000000000, -25.50000000000000355, -50.00000000000000000 ) ) ;
#431 = CYLINDRICAL_SURFACE ( 'NONE', #55, 4.000000000000000000 ) ;
#432 = CARTESIAN_POINT ( 'NONE',  ( 25.50000000000000355, 0.000000000000000000, 0.000000000000000000 ) ) ;
#433 = DIRECTION ( 'NONE',  ( 0.000000000000000000, 0.000000000000000000, -1.000000000000000000 ) ) ;
#434 = VERTEX_POINT ( 'NONE', #679 ) ;
#435 = EDGE_CURVE ( 'NONE', #434, #1174, #755, .T. ) ;
#436 = ORIENTED_EDGE ( 'NONE', *, *, #1212, .F. ) ;
#437 = LINE ( 'NONE', #230, #684 ) ;
#438 = DIRECTION ( 'NONE',  ( -0.000000000000000000, -0.000000000000000000, 1.000000000000000000 ) ) ;
#439 = LINE ( 'NONE', #674, #706 ) ;
#440 = APPROVAL ( #1086, 'UNSPECIFIED' ) ;
#441 = VERTEX_POINT ( 'NONE', #462 ) ;
#442 = LINE ( 'NONE', #873, #449 ) ;
#443 = CARTESIAN_POINT ( 'NONE',  ( -17.49999999999999645, 0.000000000000000000, 0.000000000000000000 ) ) ;
#444 = DIRECTION ( 'NONE',  ( -1.000000000000000000, -0.000000000000000000, -0.000000000000000000 ) ) ;
#445 = PLANE ( 'NONE',  #1421 ) ;
#446 = VECTOR ( 'NONE', #1374, 1000.000000000000000 ) ;
#447 = VECTOR ( 'NONE', #1349, 1000.000000000000114 ) ;
#448 = ORIENTED_EDGE ( 'NONE', *, *, #559, .T. ) ;
#449 = VECTOR ( 'NONE', #1232, 1000.000000000000000 ) ;
#450 = ORIENTED_EDGE ( 'NONE', *, *, #982, .F. ) ;
#451 = LINE ( 'NONE', #1321, #989 ) ;
#452 = ORIENTED_EDGE ( 'NONE', *, *, #201, .T. ) ;
#453 = CARTESIAN_POINT ( 'NONE',  ( 25.50000000000000355, -13.00000000000000000, 3.000000000000000000 ) ) ;
#454 = EDGE_CURVE ( 'NONE', #1221, #24, #913, .T. ) ;
#455 = DIRECTION ( 'NONE',  ( 1.000000000000000000, 0.000000000000000000, 0.000000000000000000 ) ) ;
#456 = ORIENTED_EDGE ( 'NONE', *, *, #837, .T. ) ;
#457 =( NAMED_UNIT ( * ) PLANE_ANGLE_UNIT ( ) SI_UNIT ( $, .RADIAN. ) );
#458 = ORIENTED_EDGE ( 'NONE', *, *, #509, .T. ) ;
#459 = DIRECTION ( 'NONE',  ( -0.000000000000000000, 1.000000000000000000, -0.000000000000000000 ) ) ;
#460 = DIRECTION ( 'NONE',  ( 0.000000000000000000, -1.000000000000000000, 0.000000000000000000 ) ) ;
#461 = EDGE_CURVE ( 'NONE', #539, #92, #1330, .T. ) ;
#462 = CARTESIAN_POINT ( 'NONE',  ( -47.00000000000000000, -38.00000000000000000, -3.999999999999996447 ) ) ;
#463 = VERTEX_POINT ( 'NONE', #719 ) ;
#464 = ORIENTED_EDGE ( 'NONE', *, *, #389, .T. ) ;
#465 = LINE ( 'NONE', #46, #852 ) ;
#466 = ORIENTED_EDGE ( 'NONE', *, *, #689, .T. ) ;
#467 = LINE ( 'NONE', #259, #381 ) ;
#468 = CARTESIAN_POINT ( 'NONE',  ( -47.00000000000000000, 52.00000000000000000, -42.00000000000000000 ) ) ;
#469 = VERTEX_POINT ( 'NONE', #37 ) ;
#470 = FACE_OUTER_BOUND ( 'NONE', #86, .T. ) ;
#471 = AXIS2_PLACEMENT_3D ( 'NONE', #1432, #1437, #433 ) ;
#472 = APPROVAL ( #505, 'UNSPECIFIED' ) ;
#473 = CARTESIAN_POINT ( 'NONE',  ( -33.00000000000000000, 38.00000000000000000, -3.999999999999996447 ) ) ;
#474 = VECTOR ( 'NONE', #1335, 1000.000000000000000 ) ;
#475 = VECTOR ( 'NONE', #555, 1000.000000000000000 ) ;
#476 = DIRECTION ( 'NONE',  ( 0.000000000000000000, 0.000000000000000000, 1.000000000000000000 ) ) ;
#477 = ORIENTED_EDGE ( 'NONE', *, *, #435, .T. ) ;
#478 = CARTESIAN_POINT ( 'NONE',  ( -17.49999999999999645, 13.00000000000000000, 3.000000000000000000 ) ) ;
#479 = CARTESIAN_POINT ( 'NONE',  ( 17.50000000000000000, -13.00000000000000000, 3.000000000000000000 ) ) ;
#480 = EDGE_LOOP ( 'NONE', ( #749, #606, #921, #869 ) ) ;
#481 = DIRECTION ( 'NONE',  ( -1.000000000000000000, -0.000000000000000000, -0.000000000000000000 ) ) ;
#482 = EDGE_CURVE ( 'NONE', #15, #290, #824, .T. ) ;
#483 = DIRECTION ( 'NONE',  ( 1.000000000000000000, -0.000000000000000000, -0.000000000000000000 ) ) ;
#484 = ORIENTED_EDGE ( 'NONE', *, *, #1148, .T. ) ;
#485 = DIRECTION ( 'NONE',  ( -0.000000000000000000, -0.000000000000000000, -1.000000000000000000 ) ) ;
#486 = LINE ( 'NONE', #56, #1224 ) ;
#487 = DIRECTION ( 'NONE',  ( 0.000000000000000000, 0.000000000000000000, 1.000000000000000000 ) ) ;
#488 = CARTESIAN_POINT ( 'NONE',  ( -33.00000000000000000, -52.00000000000000000, -3.999999999999996447 ) ) ;
#489 = EDGE_LOOP ( 'NONE', ( #532, #1075, #212, #612 ) ) ;
#490 = CARTESIAN_POINT ( 'NONE',  ( 38.00000000000000000, 0.000000000000000000, -42.00000000000000000 ) ) ;
#491 = APPROVAL ( #632, 'UNSPECIFIED' ) ;
#492 = CARTESIAN_POINT ( 'NONE',  ( -25.50000000000000000, 13.00000000000000000, 3.000000000000000000 ) ) ;
#493 = ORIENTED_EDGE ( 'NONE', *, *, #1078, .F. ) ;
#494 = PLANE ( 'NONE',  #635 ) ;
#495 = ORIENTED_EDGE ( 'NONE', *, *, #19, .T. ) ;
#496 = APPROVAL_ROLE ( '' ) ;
#497 = VECTOR ( 'NONE', #953, 1000.000000000000000 ) ;
#498 = ORIENTED_EDGE ( 'NONE', *, *, #704, .F. ) ;
#499 = CARTESIAN_POINT ( 'NONE',  ( -33.00000000000000000, 47.50000000000000000, -42.00000000000000000 ) ) ;
#500 = AXIS2_PLACEMENT_3D ( 'NONE', #1028, #26, #159 ) ;
#501 = DIRECTION ( 'NONE',  ( -0.000000000000000000, -0.000000000000000000, -1.000000000000000000 ) ) ;
#502 = LOCAL_TIME ( 11, 8, 31.00000000000000000, #956 ) ;
#503 = LINE ( 'NONE', #1273, #1201 ) ;
#504 = ADVANCED_FACE ( 'NONE', ( #1065 ), #494, .F. ) ;
#505 = APPROVAL_STATUS ( 'not_yet_approved' ) ;
#506 = ORIENTED_EDGE ( 'NONE', *, *, #982, .T. ) ;
#507 = PLANE ( 'NONE',  #874 ) ;
#508 = DIRECTION ( 'NONE',  ( 1.000000000000000000, 0.000000000000000000, -0.000000000000000000 ) ) ;
#509 = EDGE_CURVE ( 'NONE', #1350, #1344, #1055, .T. ) ;
#510 = EDGE_CURVE ( 'NONE', #352, #83, #503, .T. ) ;
#511 = ORIENTED_EDGE ( 'NONE', *, *, #991, .F. ) ;
#512 = DATE_TIME_ROLE ( 'classification_date' ) ;
#513 = ORIENTED_EDGE ( 'NONE', *, *, #19, .F. ) ;
#514 = DIRECTION ( 'NONE',  ( 1.000000000000000000, 0.000000000000000000, 0.000000000000000000 ) ) ;
#515 = DIRECTION ( 'NONE',  ( -1.000000000000000000, 0.000000000000000000, -0.000000000000000000 ) ) ;
#516 = CARTESIAN_POINT ( 'NONE',  ( -33.00000000000000000, 38.00000000000000000, -42.00000000000000000 ) ) ;
#517 = VERTEX_POINT ( 'NONE', #583 ) ;
#518 = COORDINATED_UNIVERSAL_TIME_OFFSET ( 5, 30, .AHEAD. ) ;
#519 = EDGE_LOOP ( 'NONE', ( #120, #1178 ) ) ;
#520 = VECTOR ( 'NONE', #705, 1000.000000000000000 ) ;
#521 = FACE_OUTER_BOUND ( 'NONE', #1386, .T. ) ;
#522 = AXIS2_PLACEMENT_3D ( 'NONE', #941, #270, #701 ) ;
#523 = FACE_OUTER_BOUND ( 'NONE', #1089, .T. ) ;
#524 = AXIS2_PLACEMENT_3D ( 'NONE', #560, #1007, #1001 ) ;
#525 = PERSON_AND_ORGANIZATION ( #400, #1133 ) ;
#526 = ORIENTED_EDGE ( 'NONE', *, *, #1229, .F. ) ;
#527 = EDGE_CURVE ( 'NONE', #415, #47, #944, .T. ) ;
#528 = VERTEX_POINT ( 'NONE', #152 ) ;
#529 = CARTESIAN_POINT ( 'NONE',  ( -25.50000000000000000, -8.000000000000000000, 10.00000000000000000 ) ) ;
#530 = CARTESIAN_POINT ( 'NONE',  ( 107.0000000000000142, -47.50000000000000000, -42.00000000000000000 ) ) ;
#531 = VERTEX_POINT ( 'NONE', #390 ) ;
#532 = ORIENTED_EDGE ( 'NONE', *, *, #57, .T. ) ;
#533 = CARTESIAN_POINT ( 'NONE',  ( -17.49999999999999645, 8.000000000000000000, 10.00000000000000000 ) ) ;
#534 = PRODUCT_RELATED_PRODUCT_CATEGORY ( 'detail', '', ( #1245 ) ) ;
#535 = ADVANCED_FACE ( 'NONE', ( #470 ), #274, .F. ) ;
#536 = DIRECTION ( 'NONE',  ( -1.000000000000000000, 0.000000000000000000, -0.000000000000000000 ) ) ;
#537 = EDGE_CURVE ( 'NONE', #670, #1324, #1031, .T. ) ;
#538 = EDGE_LOOP ( 'NONE', ( #124, #908, #927, #156 ) ) ;
#539 = VERTEX_POINT ( 'NONE', #161 ) ;
#540 = CARTESIAN_POINT ( 'NONE',  ( 25.50000000000000355, 8.000000000000000000, 10.00000000000000000 ) ) ;
#541 = VECTOR ( 'NONE', #1329, 1000.000000000000000 ) ;
#542 = AXIS2_PLACEMENT_3D ( 'NONE', #1256, #714, #607 ) ;
#543 = CARTESIAN_POINT ( 'NONE',  ( -47.00000000000000000, -38.00000000000000000, -42.00000000000000000 ) ) ;
#544 = AXIS2_PLACEMENT_3D ( 'NONE', #771, #1101, #1002 ) ;
#545 = FACE_OUTER_BOUND ( 'NONE', #900, .T. ) ;
#546 = ORIENTED_EDGE ( 'NONE', *, *, #342, .T. ) ;
#547 = VERTEX_POINT ( 'NONE', #697 ) ;
#548 = CARTESIAN_POINT ( 'NONE',  ( -47.00000000000000000, 52.00000000000000000, -3.999999999999996447 ) ) ;
#549 = PLANE ( 'NONE',  #1312 ) ;
#550 = PLANE ( 'NONE',  #336 ) ;
#551 = ADVANCED_FACE ( 'NONE', ( #366 ), #51, .F. ) ;
#552 = EDGE_CURVE ( 'NONE', #1268, #965, #1130, .T. ) ;
#553 = CARTESIAN_POINT ( 'NONE',  ( -25.50000000000000000, 13.00000000000000000, 3.000000000000000000 ) ) ;
#554 = ORIENTED_EDGE ( 'NONE', *, *, #1209, .F. ) ;
#555 = DIRECTION ( 'NONE',  ( -1.000000000000000000, -0.000000000000000000, -0.000000000000000000 ) ) ;
#556 = CARTESIAN_POINT ( 'NONE',  ( -47.00000000000000000, -52.00000000000000000, -42.00000000000000000 ) ) ;
#557 = DIRECTION ( 'NONE',  ( -1.000000000000000000, 0.000000000000000000, -0.000000000000000000 ) ) ;
#558 = CARTESIAN_POINT ( 'NONE',  ( 135.0000000000000000, -25.50000000000000355, -50.00000000000000000 ) ) ;
#559 = EDGE_CURVE ( 'NONE', #646, #670, #1147, .T. ) ;
#560 = CARTESIAN_POINT ( 'NONE',  ( 70.00000000000000000, 0.000000000000000000, -50.00000000000000000 ) ) ;
#561 = ORIENTED_EDGE ( 'NONE', *, *, #894, .F. ) ;
#562 = LINE ( 'NONE', #1233, #1083 ) ;
#563 = CARTESIAN_POINT ( 'NONE',  ( -75.00000000000000000, -32.50000000000000000, -50.00000000000000000 ) ) ;
#564 = VECTOR ( 'NONE', #671, 1000.000000000000000 ) ;
#565 = VECTOR ( 'NONE', #143, 1000.000000000000000 ) ;
#566 = VECTOR ( 'NONE', #951, 1000.000000000000000 ) ;
#567 = ORIENTED_EDGE ( 'NONE', *, *, #454, .T. ) ;
#568 = LINE ( 'NONE', #1015, #219 ) ;
#569 = APPROVAL_PERSON_ORGANIZATION ( #402, #491, #605 ) ;
#570 = DIRECTION ( 'NONE',  ( 0.000000000000000000, -0.8137334712067350040, -0.5812381937190964631 ) ) ;
#571 = EDGE_LOOP ( 'NONE', ( #419, #1016, #1415, #448, #202, #943 ) ) ;
#572 = CARTESIAN_POINT ( 'NONE',  ( -60.00000000000000000, 47.50000000000000000, -42.00000000000000000 ) ) ;
#573 = EDGE_CURVE ( 'NONE', #870, #961, #800, .T. ) ;
#574 = CARTESIAN_POINT ( 'NONE',  ( -60.00000000000000000, 47.50000000000000000, -42.00000000000000000 ) ) ;
#575 = DIRECTION ( 'NONE',  ( 1.000000000000000000, 0.000000000000000000, 0.000000000000000000 ) ) ;
#576 = DIRECTION ( 'NONE',  ( -0.7071067811865474617, -0.7071067811865474617, -0.000000000000000000 ) ) ;
#577 = DIRECTION ( 'NONE',  ( -0.000000000000000000, -0.000000000000000000, -1.000000000000000000 ) ) ;
#578 = ORIENTED_EDGE ( 'NONE', *, *, #140, .F. ) ;
#579 = PLANE ( 'NONE',  #386 ) ;
#580 = DIRECTION ( 'NONE',  ( -0.000000000000000000, -1.000000000000000000, -0.000000000000000000 ) ) ;
#581 = PLANE ( 'NONE',  #175 ) ;
#582 = EDGE_CURVE ( 'NONE', #1252, #633, #173, .T. ) ;
#583 = CARTESIAN_POINT ( 'NONE',  ( 38.00000000000000000, 0.000000000000000000, -50.00000000000000000 ) ) ;
#584 = EDGE_CURVE ( 'NONE', #517, #806, #732, .T. ) ;
#585 = DIRECTION ( 'NONE',  ( 1.000000000000000000, 0.000000000000000000, 0.000000000000000000 ) ) ;
#586 = EDGE_LOOP ( 'NONE', ( #1433, #970, #1407, #410 ) ) ;
#587 = LINE ( 'NONE', #478, #1066 ) ;
#588 = CARTESIAN_POINT ( 'NONE',  ( -33.00000000000000000, 38.00000000000000000, -42.00000000000000000 ) ) ;
#589 = CARTESIAN_POINT ( 'NONE',  ( 25.50000000000000355, 13.00000000000000000, -42.00000000000000000 ) ) ;
#590 = VECTOR ( 'NONE', #576, 1000.000000000000114 ) ;
#591 = AXIS2_PLACEMENT_3D ( 'NONE', #44, #718, #515 ) ;
#592 = CARTESIAN_POINT ( 'NONE',  ( 25.50000000000000355, 4.898587196589412829E-16, -4.000000000000000000 ) ) ;
#593 = VECTOR ( 'NONE', #84, 999.9999999999998863 ) ;
#594 = DIRECTION ( 'NONE',  ( 0.000000000000000000, 0.5812381937190964631, -0.8137334712067350040 ) ) ;
#595 = ORIENTED_EDGE ( 'NONE', *, *, #510, .F. ) ;
#596 = CARTESIAN_POINT ( 'NONE',  ( 107.0000000000000142, 47.50000000000000000, -42.00000000000000000 ) ) ;
#597 = CARTESIAN_POINT ( 'NONE',  ( -33.00000000000000000, 38.00000000000000000, -3.999999999999996447 ) ) ;
#598 = CARTESIAN_POINT ( 'NONE',  ( -17.49999999999999645, 0.000000000000000000, 0.000000000000000000 ) ) ;
#599 = DIRECTION ( 'NONE',  ( -0.000000000000000000, -0.5812381937190963521, -0.8137334712067351150 ) ) ;
#600 = ORIENTED_EDGE ( 'NONE', *, *, #217, .F. ) ;
#601 = LINE ( 'NONE', #490, #316 ) ;
#602 = CARTESIAN_POINT ( 'NONE',  ( 80.00000000000000000, 1.224646799147352665E-15, -50.00000000000000000 ) ) ;
#603 = ORIENTED_EDGE ( 'NONE', *, *, #284, .T. ) ;
#604 = DIRECTION ( 'NONE',  ( -1.000000000000000000, -0.000000000000000000, -0.000000000000000000 ) ) ;
#605 = APPROVAL_ROLE ( '' ) ;
#606 = ORIENTED_EDGE ( 'NONE', *, *, #1325, .T. ) ;
#607 = DIRECTION ( 'NONE',  ( -1.000000000000000000, 0.000000000000000000, -0.000000000000000000 ) ) ;
#608 = EDGE_CURVE ( 'NONE', #186, #917, #809, .T. ) ;
#609 = FACE_BOUND ( 'NONE', #236, .T. ) ;
#610 = ORIENTED_EDGE ( 'NONE', *, *, #877, .F. ) ;
#611 = CARTESIAN_POINT ( 'NONE',  ( 25.50000000000000355, 0.000000000000000000, 0.000000000000000000 ) ) ;
#612 = ORIENTED_EDGE ( 'NONE', *, *, #942, .T. ) ;
#613 = VECTOR ( 'NONE', #577, 1000.000000000000000 ) ;
#614 = UNCERTAINTY_MEASURE_WITH_UNIT (LENGTH_MEASURE( 1.000000000000000082E-05 ), #380, 'distance_accuracy_value', 'NONE');
#615 = AXIS2_PLACEMENT_3D ( 'NONE', #1235, #14, #455 ) ;
#616 = EDGE_LOOP ( 'NONE', ( #1280, #234, #429, #1111 ) ) ;
#617 = VECTOR ( 'NONE', #34, 1000.000000000000000 ) ;
#618 = CARTESIAN_POINT ( 'NONE',  ( -60.00000000000000000, -47.50000000000000000, -50.00000000000000000 ) ) ;
#619 = VECTOR ( 'NONE', #1435, 1000.000000000000000 ) ;
#620 = EDGE_CURVE ( 'NONE', #15, #1396, #141, .T. ) ;
#621 = CARTESIAN_POINT ( 'NONE',  ( 107.0000000000000142, 47.50000000000000000, -50.00000000000000000 ) ) ;
#622 = DIRECTION ( 'NONE',  ( 0.000000000000000000, 0.000000000000000000, 1.000000000000000000 ) ) ;
#623 = ORIENTED_EDGE ( 'NONE', *, *, #1236, .T. ) ;
#624 = CARTESIAN_POINT ( 'NONE',  ( 25.50000000000000355, 13.00000000000000000, 3.000000000000000000 ) ) ;
#625 = EDGE_CURVE ( 'NONE', #796, #113, #817, .T. ) ;
#626 = CARTESIAN_POINT ( 'NONE',  ( -17.49999999999999645, 8.000000000000000000, 10.00000000000000000 ) ) ;
#627 = ORIENTED_EDGE ( 'NONE', *, *, #1272, .F. ) ;
#628 = CARTESIAN_POINT ( 'NONE',  ( 25.50000000000000355, -13.00000000000000000, -42.00000000000000000 ) ) ;
#629 = FACE_BOUND ( 'NONE', #957, .T. ) ;
#630 = ADVANCED_FACE ( 'NONE', ( #523 ), #1072, .F. ) ;
#631 = EDGE_LOOP ( 'NONE', ( #687, #1284, #1160, #416 ) ) ;
#632 = APPROVAL_STATUS ( 'not_yet_approved' ) ;
#633 = VERTEX_POINT ( 'NONE', #1193 ) ;
#634 = ORIENTED_EDGE ( 'NONE', *, *, #620, .F. ) ;
#635 = AXIS2_PLACEMENT_3D ( 'NONE', #1259, #1175, #61 ) ;
#636 = DIRECTION ( 'NONE',  ( 0.000000000000000000, -0.000000000000000000, -1.000000000000000000 ) ) ;
#637 = AXIS2_PLACEMENT_3D ( 'NONE', #453, #1220, #1430 ) ;
#638 = CARTESIAN_POINT ( 'NONE',  ( 25.50000000000000355, -13.00000000000000000, 3.000000000000000000 ) ) ;
#639 = VECTOR ( 'NONE', #483, 1000.000000000000000 ) ;
#640 = EDGE_CURVE ( 'NONE', #186, #300, #1182, .T. ) ;
#641 = ORIENTED_EDGE ( 'NONE', *, *, #226, .F. ) ;
#642 = ORIENTED_EDGE ( 'NONE', *, *, #359, .F. ) ;
#643 = DIRECTION ( 'NONE',  ( -0.000000000000000000, -1.000000000000000000, -0.000000000000000000 ) ) ;
#644 = PLANE ( 'NONE',  #295 ) ;
#645 = ORIENTED_EDGE ( 'NONE', *, *, #1288, .T. ) ;
#646 = VERTEX_POINT ( 'NONE', #959 ) ;
#647 = DIRECTION ( 'NONE',  ( -0.000000000000000000, -1.000000000000000000, -0.000000000000000000 ) ) ;
#648 = ADVANCED_FACE ( 'NONE', ( #1082 ), #1077, .F. ) ;
#649 = DIRECTION ( 'NONE',  ( -0.000000000000000000, 1.000000000000000000, -0.000000000000000000 ) ) ;
#650 = CARTESIAN_POINT ( 'NONE',  ( -75.00000000000000000, 32.50000000000000000, -50.00000000000000000 ) ) ;
#651 = ORIENTED_EDGE ( 'NONE', *, *, #552, .T. ) ;
#652 = LINE ( 'NONE', #421, #738 ) ;
#653 = VECTOR ( 'NONE', #351, 1000.000000000000114 ) ;
#654 = CARTESIAN_POINT ( 'NONE',  ( -33.00000000000000000, 38.00000000000000000, -3.999999999999996447 ) ) ;
#655 = AXIS2_PLACEMENT_3D ( 'NONE', #722, #1052, #165 ) ;
#656 = DIRECTION ( 'NONE',  ( -1.000000000000000000, 0.000000000000000000, -0.000000000000000000 ) ) ;
#657 = ADVANCED_FACE ( 'NONE', ( #422 ), #308, .F. ) ;
#658 = EDGE_CURVE ( 'NONE', #92, #965, #1414, .T. ) ;
#659 = CIRCLE ( 'NONE', #1382, 4.000000000000000000 ) ;
#660 = AXIS2_PLACEMENT_3D ( 'NONE', #1333, #880, #109 ) ;
#661 = LINE ( 'NONE', #667, #893 ) ;
#662 = LINE ( 'NONE', #1428, #318 ) ;
#663 = FACE_OUTER_BOUND ( 'NONE', #631, .T. ) ;
#664 = CARTESIAN_POINT ( 'NONE',  ( 70.00000000000000000, 0.000000000000000000, -42.00000000000000000 ) ) ;
#665 = DIRECTION ( 'NONE',  ( 0.000000000000000000, 1.000000000000000000, 0.000000000000000000 ) ) ;
#666 = ADVANCED_FACE ( 'NONE', ( #867, #177, #1097, #629, #315 ), #758, .T. ) ;
#667 = CARTESIAN_POINT ( 'NONE',  ( 25.50000000000000355, -8.000000000000000000, 10.00000000000000000 ) ) ;
#668 = ORIENTED_EDGE ( 'NONE', *, *, #1180, .T. ) ;
#669 = CARTESIAN_POINT ( 'NONE',  ( -25.50000000000000000, 0.000000000000000000, 4.000000000000000000 ) ) ;
#670 = VERTEX_POINT ( 'NONE', #1394 ) ;
#671 = DIRECTION ( 'NONE',  ( -1.000000000000000000, -0.000000000000000000, -0.000000000000000000 ) ) ;
#672 = DIRECTION ( 'NONE',  ( -0.000000000000000000, -1.000000000000000000, -0.000000000000000000 ) ) ;
#673 = ORIENTED_EDGE ( 'NONE', *, *, #253, .T. ) ;
#674 = CARTESIAN_POINT ( 'NONE',  ( -75.00000000000000000, -32.50000000000000000, -42.00000000000000000 ) ) ;
#675 = DIRECTION ( 'NONE',  ( -0.000000000000000000, 1.000000000000000000, -0.000000000000000000 ) ) ;
#676 = DIRECTION ( 'NONE',  ( -0.000000000000000000, -0.000000000000000000, -1.000000000000000000 ) ) ;
#677 = ORIENTED_EDGE ( 'NONE', *, *, #1254, .T. ) ;
#678 = LINE ( 'NONE', #783, #317 ) ;
#679 = CARTESIAN_POINT ( 'NONE',  ( -25.50000000000000000, 4.898587196589412829E-16, -4.000000000000000000 ) ) ;
#680 = VECTOR ( 'NONE', #256, 1000.000000000000000 ) ;
#681 = CIRCLE ( 'NONE', #500, 6.999999999999999112 ) ;
#682 = ORIENTED_EDGE ( 'NONE', *, *, #309, .T. ) ;
#683 = DIRECTION ( 'NONE',  ( -0.000000000000000000, -0.5812381937190963521, 0.8137334712067351150 ) ) ;
#684 = VECTOR ( 'NONE', #322, 1000.000000000000000 ) ;
#685 = EDGE_LOOP ( 'NONE', ( #760, #1222, #1176, #1135 ) ) ;
#686 = DIRECTION ( 'NONE',  ( -0.000000000000000000, -0.5812381937190963521, 0.8137334712067351150 ) ) ;
#687 = ORIENTED_EDGE ( 'NONE', *, *, #424, .T. ) ;
#688 = DIRECTION ( 'NONE',  ( 0.000000000000000000, 0.000000000000000000, -1.000000000000000000 ) ) ;
#689 = EDGE_CURVE ( 'NONE', #24, #917, #1207, .T. ) ;
#690 = CARTESIAN_POINT ( 'NONE',  ( -60.00000000000000000, 47.50000000000000000, -42.00000000000000000 ) ) ;
#691 = ORIENTED_EDGE ( 'NONE', *, *, #608, .T. ) ;
#692 = CARTESIAN_POINT ( 'NONE',  ( -47.00000000000000000, -38.00000000000000000, -42.00000000000000000 ) ) ;
#693 = EDGE_LOOP ( 'NONE', ( #1331, #845 ) ) ;
#694 = CARTESIAN_POINT ( 'NONE',  ( 25.50000000000000355, -13.00000000000000000, -42.00000000000000000 ) ) ;
#695 = CARTESIAN_POINT ( 'NONE',  ( 107.0000000000000142, -47.50000000000000000, -42.00000000000000000 ) ) ;
#696 = EDGE_CURVE ( 'NONE', #968, #8, #862, .T. ) ;
#697 = CARTESIAN_POINT ( 'NONE',  ( -25.50000000000000000, -13.00000000000000000, -42.00000000000000000 ) ) ;
#698 = CYLINDRICAL_SURFACE ( 'NONE', #1108, 4.000000000000000000 ) ;
#699 = EDGE_LOOP ( 'NONE', ( #1140, #493, #885, #1085 ) ) ;
#700 = CARTESIAN_POINT ( 'NONE',  ( -47.00000000000000000, -52.00000000000000000, -3.999999999999996447 ) ) ;
#701 = DIRECTION ( 'NONE',  ( 1.000000000000000000, 0.000000000000000000, -0.000000000000000000 ) ) ;
#702 = ORIENTED_EDGE ( 'NONE', *, *, #57, .F. ) ;
#703 = EDGE_CURVE ( 'NONE', #300, #392, #1320, .T. ) ;
#704 = EDGE_CURVE ( 'NONE', #1121, #1174, #196, .T. ) ;
#705 = DIRECTION ( 'NONE',  ( -0.000000000000000000, -0.000000000000000000, -1.000000000000000000 ) ) ;
#706 = VECTOR ( 'NONE', #1124, 1000.000000000000000 ) ;
#707 = AXIS2_PLACEMENT_3D ( 'NONE', #282, #27, #725 ) ;
#708 = VERTEX_POINT ( 'NONE', #963 ) ;
#709 = CARTESIAN_POINT ( 'NONE',  ( 52.00000000000000000, 8.572527594031472204E-16, -42.00000000000000000 ) ) ;
#710 = AXIS2_PLACEMENT_3D ( 'NONE', #1419, #1409, #508 ) ;
#711 = VECTOR ( 'NONE', #1267, 1000.000000000000000 ) ;
#712 = DIRECTION ( 'NONE',  ( -1.000000000000000000, 0.000000000000000000, 0.000000000000000000 ) ) ;
#713 = ORIENTED_EDGE ( 'NONE', *, *, #435, .F. ) ;
#714 = DIRECTION ( 'NONE',  ( 0.000000000000000000, 0.000000000000000000, -1.000000000000000000 ) ) ;
#715 = APPLICATION_CONTEXT ( 'configuration controlled 3d designs of mechanical parts and assemblies' ) ;
#716 = LINE ( 'NONE', #49, #566 ) ;
#717 = VERTEX_POINT ( 'NONE', #638 ) ;
#718 = DIRECTION ( 'NONE',  ( 0.000000000000000000, 0.000000000000000000, -1.000000000000000000 ) ) ;
#719 = CARTESIAN_POINT ( 'NONE',  ( -17.49999999999999645, 13.00000000000000000, 3.000000000000000000 ) ) ;
#720 = ADVANCED_FACE ( 'NONE', ( #1091 ), #644, .F. ) ;
#721 = ORIENTED_EDGE ( 'NONE', *, *, #1314, .F. ) ;
#722 = CARTESIAN_POINT ( 'NONE',  ( -47.00000000000000000, 38.00000000000000000, -3.999999999999996447 ) ) ;
#723 = CARTESIAN_POINT ( 'NONE',  ( 0.000000000000000000, 0.000000000000000000, -42.00000000000000000 ) ) ;
#724 = CARTESIAN_POINT ( 'NONE',  ( 135.0000000000000000, -25.50000000000000355, -42.00000000000000000 ) ) ;
#725 = DIRECTION ( 'NONE',  ( 0.000000000000000000, 0.000000000000000000, -1.000000000000000000 ) ) ;
#726 = EDGE_CURVE ( 'NONE', #47, #742, #981, .T. ) ;
#727 = ORIENTED_EDGE ( 'NONE', *, *, #1029, .T. ) ;
#728 = CARTESIAN_POINT ( 'NONE',  ( -25.50000000000000000, -13.00000000000000000, -42.00000000000000000 ) ) ;
#729 = LINE ( 'NONE', #301, #1316 ) ;
#730 = DIRECTION ( 'NONE',  ( -0.6178215519319035787, 0.7863183388224226356, 0.000000000000000000 ) ) ;
#731 = CARTESIAN_POINT ( 'NONE',  ( -17.49999999999999645, -13.00000000000000000, -42.00000000000000000 ) ) ;
#732 = CIRCLE ( 'NONE', #895, 6.999999999999999112 ) ;
#733 = PERSON_AND_ORGANIZATION ( #400, #1133 ) ;
#734 = VECTOR ( 'NONE', #649, 1000.000000000000000 ) ;
#735 = VERTEX_POINT ( 'NONE', #296 ) ;
#736 = CC_DESIGN_DATE_AND_TIME_ASSIGNMENT ( #73, #69, ( #1100 ) ) ;
#737 = ADVANCED_FACE ( 'NONE', ( #183 ), #741, .F. ) ;
#738 = VECTOR ( 'NONE', #1319, 1000.000000000000000 ) ;
#739 = LINE ( 'NONE', #1198, #1356 ) ;
#740 = EDGE_CURVE ( 'NONE', #528, #961, #855, .T. ) ;
#741 = PLANE ( 'NONE',  #897 ) ;
#742 = VERTEX_POINT ( 'NONE', #563 ) ;
#743 = APPLICATION_PROTOCOL_DEFINITION ( 'international standard', 'config_control_design', 1994, #1405 ) ;
#744 = ORIENTED_EDGE ( 'NONE', *, *, #1288, .F. ) ;
#745 = DIRECTION ( 'NONE',  ( 0.000000000000000000, 1.000000000000000000, 0.000000000000000000 ) ) ;
#746 = DIRECTION ( 'NONE',  ( 0.000000000000000000, 0.000000000000000000, 1.000000000000000000 ) ) ;
#747 = CALENDAR_DATE ( 2026, 24, 9 ) ;
#748 = ORIENTED_EDGE ( 'NONE', *, *, #1117, .T. ) ;
#749 = ORIENTED_EDGE ( 'NONE', *, *, #793, .T. ) ;
#750 = PLANE ( 'NONE',  #1296 ) ;
#751 = DIRECTION ( 'NONE',  ( -0.7863183388224226356, 0.6178215519319035787, -0.000000000000000000 ) ) ;
#752 = EDGE_CURVE ( 'NONE', #313, #160, #988, .T. ) ;
#753 = ORIENTED_EDGE ( 'NONE', *, *, #1439, .F. ) ;
#754 = ORIENTED_EDGE ( 'NONE', *, *, #1043, .F. ) ;
#755 = CIRCLE ( 'NONE', #243, 4.000000000000000000 ) ;
#756 = DIRECTION ( 'NONE',  ( 0.000000000000000000, 0.000000000000000000, -1.000000000000000000 ) ) ;
#757 = AXIS2_PLACEMENT_3D ( 'NONE', #394, #840, #195 ) ;
#758 = PLANE ( 'NONE',  #710 ) ;
#759 = APPROVAL_PERSON_ORGANIZATION ( #844, #440, #1177 ) ;
#760 = ORIENTED_EDGE ( 'NONE', *, *, #1169, .T. ) ;
#761 = ORIENTED_EDGE ( 'NONE', *, *, #767, .T. ) ;
#762 = ADVANCED_FACE ( 'NONE', ( #1322 ), #1010, .F. ) ;
#763 = ORIENTED_EDGE ( 'NONE', *, *, #350, .F. ) ;
#764 = CARTESIAN_POINT ( 'NONE',  ( -17.49999999999999645, -8.000000000000000000, 10.00000000000000000 ) ) ;
#765 = LINE ( 'NONE', #543, #1157 ) ;
#766 = ADVANCED_FACE ( 'NONE', ( #17 ), #550, .F. ) ;
#767 = EDGE_CURVE ( 'NONE', #83, #1340, #765, .T. ) ;
#768 = ORIENTED_EDGE ( 'NONE', *, *, #1305, .F. ) ;
#769 = CARTESIAN_POINT ( 'NONE',  ( -17.49999999999999645, -13.00000000000000000, 3.000000000000000000 ) ) ;
#770 = LINE ( 'NONE', #1137, #1377 ) ;
#771 = CARTESIAN_POINT ( 'NONE',  ( -47.00000000000000000, -38.00000000000000000, -3.999999999999996447 ) ) ;
#772 = CARTESIAN_POINT ( 'NONE',  ( -25.50000000000000000, -13.00000000000000000, 3.000000000000000000 ) ) ;
#773 = ORIENTED_EDGE ( 'NONE', *, *, #1005, .F. ) ;
#774 = CARTESIAN_POINT ( 'NONE',  ( -60.00000000000000000, -47.50000000000000000, -42.00000000000000000 ) ) ;
#775 = VECTOR ( 'NONE', #255, 1000.000000000000000 ) ;
#776 = FACE_OUTER_BOUND ( 'NONE', #884, .T. ) ;
#777 = EDGE_CURVE ( 'NONE', #1098, #434, #341, .T. ) ;
#778 = FACE_OUTER_BOUND ( 'NONE', #1230, .T. ) ;
#779 = LINE ( 'NONE', #1112, #171 ) ;
#780 = ORIENTED_EDGE ( 'NONE', *, *, #190, .T. ) ;
#781 = LINE ( 'NONE', #1440, #35 ) ;
#782 = DIRECTION ( 'NONE',  ( 1.000000000000000000, 0.000000000000000000, 0.000000000000000000 ) ) ;
#783 = CARTESIAN_POINT ( 'NONE',  ( -60.00000000000000000, 47.50000000000000000, -42.00000000000000000 ) ) ;
#784 = ADVANCED_FACE ( 'NONE', ( #776 ), #1327, .F. ) ;
#785 = DIRECTION ( 'NONE',  ( 0.7071067811865475727, -0.7071067811865475727, 0.000000000000000000 ) ) ;
#786 = VERTEX_POINT ( 'NONE', #556 ) ;
#787 = CARTESIAN_POINT ( 'NONE',  ( -47.00000000000000000, -52.00000000000000000, -42.00000000000000000 ) ) ;
#788 = EDGE_LOOP ( 'NONE', ( #1000, #651 ) ) ;
#789 = CARTESIAN_POINT ( 'NONE',  ( 17.50000000000000000, 4.898587196589412829E-16, -4.000000000000000000 ) ) ;
#790 = CARTESIAN_POINT ( 'NONE',  ( -47.00000000000000000, -38.00000000000000000, -3.999999999999996447 ) ) ;
#791 = LINE ( 'NONE', #94, #474 ) ;
#792 = CC_DESIGN_PERSON_AND_ORGANIZATION_ASSIGNMENT ( #52, #1403, ( #179 ) ) ;
#793 = EDGE_CURVE ( 'NONE', #441, #65, #791, .T. ) ;
#794 = DIRECTION ( 'NONE',  ( -0.000000000000000000, -1.000000000000000000, -0.000000000000000000 ) ) ;
#795 = ADVANCED_FACE ( 'NONE', ( #12 ), #128, .F. ) ;
#796 = VERTEX_POINT ( 'NONE', #329 ) ;
#797 = LINE ( 'NONE', #926, #711 ) ;
#798 = EDGE_LOOP ( 'NONE', ( #1298, #376, #682, #1261 ) ) ;
#799 = CARTESIAN_POINT ( 'NONE',  ( -25.50000000000000000, 8.000000000000000000, 10.00000000000000000 ) ) ;
#800 = CIRCLE ( 'NONE', #1223, 9.999999999999994671 ) ;
#801 = VECTOR ( 'NONE', #399, 1000.000000000000000 ) ;
#802 = VECTOR ( 'NONE', #398, 1000.000000000000000 ) ;
#803 = CARTESIAN_POINT ( 'NONE',  ( 17.50000000000000000, 8.000000000000000000, 10.00000000000000000 ) ) ;
#804 = AXIS2_PLACEMENT_3D ( 'NONE', #23, #361, #805 ) ;
#805 = DIRECTION ( 'NONE',  ( 0.000000000000000000, 0.000000000000000000, 1.000000000000000000 ) ) ;
#806 = VERTEX_POINT ( 'NONE', #1228 ) ;
#807 = PLANE ( 'NONE',  #542 ) ;
#808 = LINE ( 'NONE', #1258, #617 ) ;
#809 = LINE ( 'NONE', #1373, #775 ) ;
#810 = ORIENTED_EDGE ( 'NONE', *, *, #703, .F. ) ;
#811 = LINE ( 'NONE', #787, #680 ) ;
#812 = DIRECTION ( 'NONE',  ( -0.000000000000000000, 0.000000000000000000, 1.000000000000000000 ) ) ;
#813 = CARTESIAN_POINT ( 'NONE',  ( -33.00000000000000000, -52.00000000000000000, -42.00000000000000000 ) ) ;
#814 = EDGE_CURVE ( 'NONE', #22, #1080, #678, .T. ) ;
#815 = EDGE_CURVE ( 'NONE', #1396, #865, #1123, .T. ) ;
#816 = DIRECTION ( 'NONE',  ( -1.000000000000000000, -0.000000000000000000, -0.000000000000000000 ) ) ;
#817 = LINE ( 'NONE', #1265, #1084 ) ;
#818 = ORIENTED_EDGE ( 'NONE', *, *, #625, .F. ) ;
#819 = DIRECTION ( 'NONE',  ( -1.000000000000000000, -0.000000000000000000, -0.000000000000000000 ) ) ;
#820 = CARTESIAN_POINT ( 'NONE',  ( -75.00000000000000000, -32.50000000000000000, -42.00000000000000000 ) ) ;
#821 = ORIENTED_EDGE ( 'NONE', *, *, #207, .F. ) ;
#822 = CARTESIAN_POINT ( 'NONE',  ( 17.50000000000000000, -13.00000000000000000, -42.00000000000000000 ) ) ;
#823 = DIRECTION ( 'NONE',  ( -1.000000000000000000, 0.000000000000000000, -0.000000000000000000 ) ) ;
#824 = LINE ( 'NONE', #841, #1037 ) ;
#825 = EDGE_CURVE ( 'NONE', #1121, #1098, #1132, .T. ) ;
#826 = CIRCLE ( 'NONE', #1351, 4.000000000000000000 ) ;
#827 = AXIS2_PLACEMENT_3D ( 'NONE', #700, #148, #839 ) ;
#828 = VERTEX_POINT ( 'NONE', #1109 ) ;
#829 = AXIS2_PLACEMENT_3D ( 'NONE', #597, #1146, #1279 ) ;
#830 = VECTOR ( 'NONE', #1260, 1000.000000000000000 ) ;
#831 = CARTESIAN_POINT ( 'NONE',  ( -17.49999999999999645, -13.00000000000000000, -42.00000000000000000 ) ) ;
#832 = ORIENTED_EDGE ( 'NONE', *, *, #942, .F. ) ;
#833 = LINE ( 'NONE', #694, #58 ) ;
#834 = LINE ( 'NONE', #690, #198 ) ;
#835 = EDGE_LOOP ( 'NONE', ( #702, #436, #878, #3, #513, #627, #343, #420 ) ) ;
#836 = DIRECTION ( 'NONE',  ( -0.000000000000000000, -0.000000000000000000, -1.000000000000000000 ) ) ;
#837 = EDGE_CURVE ( 'NONE', #1045, #786, #111, .T. ) ;
#838 = ORIENTED_EDGE ( 'NONE', *, *, #1050, .F. ) ;
#839 = DIRECTION ( 'NONE',  ( 0.000000000000000000, 0.000000000000000000, -1.000000000000000000 ) ) ;
#840 = DIRECTION ( 'NONE',  ( -1.000000000000000000, 0.000000000000000000, 0.000000000000000000 ) ) ;
#841 = CARTESIAN_POINT ( 'NONE',  ( 25.50000000000000355, -13.00000000000000000, -42.00000000000000000 ) ) ;
#842 = ADVANCED_FACE ( 'NONE', ( #882, #888 ), #1131, .F. ) ;
#843 = ORIENTED_EDGE ( 'NONE', *, *, #1102, .F. ) ;
#844 = PERSON_AND_ORGANIZATION ( #400, #1133 ) ;
#845 = ORIENTED_EDGE ( 'NONE', *, *, #1229, .T. ) ;
#846 = LINE ( 'NONE', #1408, #360 ) ;
#847 = CARTESIAN_POINT ( 'NONE',  ( 25.50000000000000355, -8.000000000000000000, 10.00000000000000000 ) ) ;
#848 = VECTOR ( 'NONE', #675, 1000.000000000000000 ) ;
#849 = ORIENTED_EDGE ( 'NONE', *, *, #752, .T. ) ;
#850 = VECTOR ( 'NONE', #1250, 999.9999999999998863 ) ;
#851 = ORIENTED_EDGE ( 'NONE', *, *, #894, .T. ) ;
#852 = VECTOR ( 'NONE', #686, 999.9999999999998863 ) ;
#853 = EDGE_CURVE ( 'NONE', #344, #870, #904, .T. ) ;
#854 = CARTESIAN_POINT ( 'NONE',  ( -60.00000000000000000, 47.50000000000000000, -42.00000000000000000 ) ) ;
#855 = LINE ( 'NONE', #1300, #967 ) ;
#856 = ORIENTED_EDGE ( 'NONE', *, *, #368, .T. ) ;
#857 = PERSON_AND_ORGANIZATION ( #400, #1133 ) ;
#858 = ORIENTED_EDGE ( 'NONE', *, *, #584, .F. ) ;
#859 = ORIENTED_EDGE ( 'NONE', *, *, #1244, .T. ) ;
#860 = CARTESIAN_POINT ( 'NONE',  ( 107.0000000000000142, -47.50000000000000000, -42.00000000000000000 ) ) ;
#861 = EDGE_CURVE ( 'NONE', #742, #1088, #347, .T. ) ;
#862 = LINE ( 'NONE', #621, #178 ) ;
#863 = MECHANICAL_CONTEXT ( 'NONE', #715, 'mechanical' ) ;
#864 = ORIENTED_EDGE ( 'NONE', *, *, #114, .T. ) ;
#865 = VERTEX_POINT ( 'NONE', #210 ) ;
#866 = LINE ( 'NONE', #1292, #802 ) ;
#867 = FACE_OUTER_BOUND ( 'NONE', #208, .T. ) ;
#868 = EDGE_CURVE ( 'NONE', #181, #167, #1436, .T. ) ;
#869 = ORIENTED_EDGE ( 'NONE', *, *, #1336, .T. ) ;
#870 = VERTEX_POINT ( 'NONE', #1364 ) ;
#871 = ORIENTED_EDGE ( 'NONE', *, *, #11, .F. ) ;
#872 = CIRCLE ( 'NONE', #964, 4.000000000000000000 ) ;
#873 = CARTESIAN_POINT ( 'NONE',  ( 107.0000000000000142, -47.50000000000000000, -50.00000000000000000 ) ) ;
#874 = AXIS2_PLACEMENT_3D ( 'NONE', #628, #745, #182 ) ;
#875 = CARTESIAN_POINT ( 'NONE',  ( 25.50000000000000355, 0.000000000000000000, 4.000000000000000000 ) ) ;
#876 = VECTOR ( 'NONE', #1213, 1000.000000000000114 ) ;
#877 = EDGE_CURVE ( 'NONE', #1216, #1045, #135, .T. ) ;
#878 = ORIENTED_EDGE ( 'NONE', *, *, #696, .F. ) ;
#879 = ORIENTED_EDGE ( 'NONE', *, *, #1342, .F. ) ;
#880 = DIRECTION ( 'NONE',  ( 0.000000000000000000, 0.000000000000000000, -1.000000000000000000 ) ) ;
#881 = CARTESIAN_POINT ( 'NONE',  ( 25.50000000000000355, 0.000000000000000000, 0.000000000000000000 ) ) ;
#882 = FACE_OUTER_BOUND ( 'NONE', #1155, .T. ) ;
#883 = CARTESIAN_POINT ( 'NONE',  ( 107.0000000000000142, 47.50000000000000000, -50.00000000000000000 ) ) ;
#884 = EDGE_LOOP ( 'NONE', ( #1070, #1246, #362, #526 ) ) ;
#885 = ORIENTED_EDGE ( 'NONE', *, *, #215, .F. ) ;
#886 = ADVANCED_FACE ( 'NONE', ( #150 ), #1372, .F. ) ;
#887 = DIRECTION ( 'NONE',  ( -1.000000000000000000, -0.000000000000000000, -0.000000000000000000 ) ) ;
#888 = FACE_BOUND ( 'NONE', #519, .T. ) ;
#889 = CARTESIAN_POINT ( 'NONE',  ( -47.00000000000000000, 38.00000000000000000, -3.999999999999996447 ) ) ;
#890 = VERTEX_POINT ( 'NONE', #1153 ) ;
#891 = ORIENTED_EDGE ( 'NONE', *, *, #461, .T. ) ;
#892 = FACE_OUTER_BOUND ( 'NONE', #193, .T. ) ;
#893 = VECTOR ( 'NONE', #794, 1000.000000000000000 ) ;
#894 = EDGE_CURVE ( 'NONE', #415, #1434, #1270, .T. ) ;
#895 = AXIS2_PLACEMENT_3D ( 'NONE', #1287, #1359, #287 ) ;
#896 = DIRECTION ( 'NONE',  ( -0.000000000000000000, 0.000000000000000000, 1.000000000000000000 ) ) ;
#897 = AXIS2_PLACEMENT_3D ( 'NONE', #626, #1398, #407 ) ;
#898 = CARTESIAN_POINT ( 'NONE',  ( -75.00000000000000000, 32.50000000000000000, -42.00000000000000000 ) ) ;
#899 = LINE ( 'NONE', #772, #144 ) ;
#900 = EDGE_LOOP ( 'NONE', ( #107, #1092, #561, #147 ) ) ;
#901 = LINE ( 'NONE', #764, #475 ) ;
#902 = ORIENTED_EDGE ( 'NONE', *, *, #302, .T. ) ;
#903 = PLANE ( 'NONE',  #96 ) ;
#904 = LINE ( 'NONE', #997, #1067 ) ;
#905 = ADVANCED_FACE ( 'NONE', ( #1263, #1378, #609 ), #260, .F. ) ;
#906 = CARTESIAN_POINT ( 'NONE',  ( -25.50000000000000000, 0.000000000000000000, 0.000000000000000000 ) ) ;
#907 = LINE ( 'NONE', #558, #653 ) ;
#908 = ORIENTED_EDGE ( 'NONE', *, *, #1180, .F. ) ;
#909 = CARTESIAN_POINT ( 'NONE',  ( 17.50000000000000000, 0.000000000000000000, 0.000000000000000000 ) ) ;
#910 = ORIENTED_EDGE ( 'NONE', *, *, #814, .T. ) ;
#911 = PLANE ( 'NONE',  #2 ) ;
#912 = CARTESIAN_POINT ( 'NONE',  ( -60.00000000000000000, -47.50000000000000000, -50.00000000000000000 ) ) ;
#913 = LINE ( 'NONE', #889, #1422 ) ;
#914 = EDGE_CURVE ( 'NONE', #1434, #1216, #486, .T. ) ;
#915 = ORIENTED_EDGE ( 'NONE', *, *, #246, .T. ) ;
#916 = DIRECTION ( 'NONE',  ( 0.000000000000000000, 0.000000000000000000, 1.000000000000000000 ) ) ;
#917 = VERTEX_POINT ( 'NONE', #588 ) ;
#918 = FACE_OUTER_BOUND ( 'NONE', #699, .T. ) ;
#919 = CARTESIAN_POINT ( 'NONE',  ( -17.49999999999999645, 0.000000000000000000, 0.000000000000000000 ) ) ;
#920 = VECTOR ( 'NONE', #485, 1000.000000000000000 ) ;
#921 = ORIENTED_EDGE ( 'NONE', *, *, #954, .T. ) ;
#922 = DIRECTION ( 'NONE',  ( -0.000000000000000000, -0.5812381937190963521, -0.8137334712067351150 ) ) ;
#923 = AXIS2_PLACEMENT_3D ( 'NONE', #919, #1357, #365 ) ;
#924 = CIRCLE ( 'NONE', #524, 9.999999999999994671 ) ;
#925 = VERTEX_POINT ( 'NONE', #492 ) ;
#926 = CARTESIAN_POINT ( 'NONE',  ( -47.00000000000000000, -38.00000000000000000, -3.999999999999996447 ) ) ;
#927 = ORIENTED_EDGE ( 'NONE', *, *, #1094, .F. ) ;
#928 = PLANE ( 'NONE',  #30 ) ;
#929 = DIRECTION ( 'NONE',  ( -0.000000000000000000, -0.5812381937190963521, -0.8137334712067351150 ) ) ;
#930 = PLANE ( 'NONE',  #1379 ) ;
#931 = DIRECTION ( 'NONE',  ( -0.000000000000000000, -0.000000000000000000, -1.000000000000000000 ) ) ;
#932 = PLANE ( 'NONE',  #199 ) ;
#933 = ORIENTED_EDGE ( 'NONE', *, *, #1050, .T. ) ;
#934 = LINE ( 'NONE', #158, #121 ) ;
#935 = EDGE_CURVE ( 'NONE', #717, #977, #280, .T. ) ;
#936 = CARTESIAN_POINT ( 'NONE',  ( -60.00000000000000000, 47.50000000000000000, -42.00000000000000000 ) ) ;
#937 = DIRECTION ( 'NONE',  ( 1.000000000000000000, 0.000000000000000000, 0.000000000000000000 ) ) ;
#938 = CARTESIAN_POINT ( 'NONE',  ( 25.50000000000000355, -13.00000000000000000, 3.000000000000000000 ) ) ;
#939 = EDGE_LOOP ( 'NONE', ( #244, #1275, #753, #1032 ) ) ;
#940 = LINE ( 'NONE', #1285, #920 ) ;
#941 = CARTESIAN_POINT ( 'NONE',  ( 0.000000000000000000, 0.000000000000000000, -50.00000000000000000 ) ) ;
#942 = EDGE_CURVE ( 'NONE', #1080, #325, #1173, .T. ) ;
#943 = ORIENTED_EDGE ( 'NONE', *, *, #11, .T. ) ;
#944 = LINE ( 'NONE', #1381, #520 ) ;
#945 = VECTOR ( 'NONE', #1152, 1000.000000000000000 ) ;
#946 = AXIS2_PLACEMENT_3D ( 'NONE', #432, #656, #896 ) ;
#947 = LOCAL_TIME ( 11, 8, 31.00000000000000000, #1069 ) ;
#948 = SHAPE_DEFINITION_REPRESENTATION ( #1141, #994 ) ;
#949 = ORIENTED_EDGE ( 'NONE', *, *, #90, .T. ) ;
#950 = LINE ( 'NONE', #1179, #1313 ) ;
#951 = DIRECTION ( 'NONE',  ( -0.000000000000000000, 1.000000000000000000, -0.000000000000000000 ) ) ;
#952 = ADVANCED_FACE ( 'NONE', ( #378 ), #581, .T. ) ;
#953 = DIRECTION ( 'NONE',  ( -1.000000000000000000, -0.000000000000000000, -0.000000000000000000 ) ) ;
#954 = EDGE_CURVE ( 'NONE', #735, #352, #716, .T. ) ;
#955 = DESIGN_CONTEXT ( 'detailed design', #1405, 'design' ) ;
#956 = COORDINATED_UNIVERSAL_TIME_OFFSET ( 5, 30, .AHEAD. ) ;
#957 = EDGE_LOOP ( 'NONE', ( #191, #1438 ) ) ;
#958 = DIRECTION ( 'NONE',  ( 1.000000000000000000, -0.000000000000000000, -0.000000000000000000 ) ) ;
#959 = CARTESIAN_POINT ( 'NONE',  ( -17.49999999999999645, -8.000000000000000000, 10.00000000000000000 ) ) ;
#960 = EDGE_CURVE ( 'NONE', #633, #1252, #681, .T. ) ;
#961 = VERTEX_POINT ( 'NONE', #602 ) ;
#962 = CARTESIAN_POINT ( 'NONE',  ( -47.00000000000000000, 52.00000000000000000, -3.999999999999996447 ) ) ;
#963 = CARTESIAN_POINT ( 'NONE',  ( 17.50000000000000000, 13.00000000000000000, -42.00000000000000000 ) ) ;
#964 = AXIS2_PLACEMENT_3D ( 'NONE', #1242, #112, #1013 ) ;
#965 = VERTEX_POINT ( 'NONE', #385 ) ;
#966 = DATE_AND_TIME ( #973, #1401 ) ;
#967 = VECTOR ( 'NONE', #333, 1000.000000000000000 ) ;
#968 = VERTEX_POINT ( 'NONE', #355 ) ;
#969 = APPROVAL_PERSON_ORGANIZATION ( #525, #472, #496 ) ;
#970 = ORIENTED_EDGE ( 'NONE', *, *, #868, .F. ) ;
#971 = CARTESIAN_POINT ( 'NONE',  ( -17.49999999999999645, 4.898587196589412829E-16, -4.000000000000000000 ) ) ;
#972 = DIRECTION ( 'NONE',  ( -1.000000000000000000, -0.000000000000000000, -0.000000000000000000 ) ) ;
#973 = CALENDAR_DATE ( 2026, 24, 9 ) ;
#974 = EDGE_LOOP ( 'NONE', ( #727, #162, #1217, #859 ) ) ;
#975 = LINE ( 'NONE', #1090, #1400 ) ;
#976 = CARTESIAN_POINT ( 'NONE',  ( -60.00000000000000000, -47.50000000000000000, -42.00000000000000000 ) ) ;
#977 = VERTEX_POINT ( 'NONE', #139 ) ;
#978 = ORIENTED_EDGE ( 'NONE', *, *, #28, .T. ) ;
#979 = VERTEX_POINT ( 'NONE', #468 ) ;
#980 = CARTESIAN_POINT ( 'NONE',  ( -47.00000000000000000, 38.00000000000000000, -3.999999999999996447 ) ) ;
#981 = LINE ( 'NONE', #323, #78 ) ;
#982 = EDGE_CURVE ( 'NONE', #925, #531, #1036, .T. ) ;
#983 = VECTOR ( 'NONE', #922, 999.9999999999998863 ) ;
#984 = ORIENTED_EDGE ( 'NONE', *, *, #140, .T. ) ;
#985 = VECTOR ( 'NONE', #438, 1000.000000000000000 ) ;
#986 = DIRECTION ( 'NONE',  ( -1.000000000000000000, -0.000000000000000000, -0.000000000000000000 ) ) ;
#987 = CARTESIAN_POINT ( 'NONE',  ( -25.50000000000000000, 0.000000000000000000, 0.000000000000000000 ) ) ;
#988 = LINE ( 'NONE', #104, #734 ) ;
#989 = VECTOR ( 'NONE', #986, 1000.000000000000000 ) ;
#990 = EDGE_CURVE ( 'NONE', #1238, #194, #834, .T. ) ;
#991 = EDGE_CURVE ( 'NONE', #1098, #1121, #384, .T. ) ;
#992 = PLANE ( 'NONE',  #471 ) ;
#993 = ORIENTED_EDGE ( 'NONE', *, *, #1305, .T. ) ;
#994 = ADVANCED_BREP_SHAPE_REPRESENTATION ( 'JX1_Foot_R', ( #157, #1068 ), #271 ) ;
#995 = ORIENTED_EDGE ( 'NONE', *, *, #1257, .F. ) ;
#996 = FACE_OUTER_BOUND ( 'NONE', #480, .T. ) ;
#997 = CARTESIAN_POINT ( 'NONE',  ( 60.00000000000001421, 0.000000000000000000, -42.00000000000000000 ) ) ;
#998 = CARTESIAN_POINT ( 'NONE',  ( -75.00000000000000000, 32.50000000000000000, -50.00000000000000000 ) ) ;
#999 = EDGE_CURVE ( 'NONE', #194, #392, #808, .T. ) ;
#1000 = ORIENTED_EDGE ( 'NONE', *, *, #1060, .T. ) ;
#1001 = DIRECTION ( 'NONE',  ( 1.000000000000000000, 0.000000000000000000, 0.000000000000000000 ) ) ;
#1002 = DIRECTION ( 'NONE',  ( 0.000000000000000000, -0.000000000000000000, -1.000000000000000000 ) ) ;
#1003 = FACE_OUTER_BOUND ( 'NONE', #489, .T. ) ;
#1004 = CARTESIAN_POINT ( 'NONE',  ( -47.00000000000000000, 38.00000000000000000, -42.00000000000000000 ) ) ;
#1005 = EDGE_CURVE ( 'NONE', #167, #977, #254, .T. ) ;
#1006 = VERTEX_POINT ( 'NONE', #307 ) ;
#1007 = DIRECTION ( 'NONE',  ( 0.000000000000000000, 0.000000000000000000, 1.000000000000000000 ) ) ;
#1008 = VERTEX_POINT ( 'NONE', #1299 ) ;
#1009 = DIRECTION ( 'NONE',  ( -1.000000000000000000, 0.000000000000000000, -0.000000000000000000 ) ) ;
#1010 = PLANE ( 'NONE',  #544 ) ;
#1011 = AXIS2_PLACEMENT_3D ( 'NONE', #664, #1241, #1214 ) ;
#1012 = VECTOR ( 'NONE', #647, 1000.000000000000000 ) ;
#1013 = DIRECTION ( 'NONE',  ( 0.000000000000000000, 0.000000000000000000, -1.000000000000000000 ) ) ;
#1014 = EDGE_LOOP ( 'NONE', ( #856, #258, #721, #748 ) ) ;
#1015 = CARTESIAN_POINT ( 'NONE',  ( 107.0000000000000142, -47.50000000000000000, -42.00000000000000000 ) ) ;
#1016 = ORIENTED_EDGE ( 'NONE', *, *, #1043, .T. ) ;
#1017 = CARTESIAN_POINT ( 'NONE',  ( -25.50000000000000000, 13.00000000000000000, -42.00000000000000000 ) ) ;
#1018 = ORIENTED_EDGE ( 'NONE', *, *, #358, .T. ) ;
#1019 = CARTESIAN_POINT ( 'NONE',  ( -33.00000000000000000, -47.50000000000000000, -42.00000000000000000 ) ) ;
#1020 = DIRECTION ( 'NONE',  ( 0.000000000000000000, 0.000000000000000000, -1.000000000000000000 ) ) ;
#1021 = EDGE_CURVE ( 'NONE', #1080, #415, #1071, .T. ) ;
#1022 = DIRECTION ( 'NONE',  ( 0.000000000000000000, 0.000000000000000000, -1.000000000000000000 ) ) ;
#1023 = CARTESIAN_POINT ( 'NONE',  ( -25.50000000000000000, -8.000000000000000000, 10.00000000000000000 ) ) ;
#1024 = DIRECTION ( 'NONE',  ( -0.000000000000000000, -0.000000000000000000, -1.000000000000000000 ) ) ;
#1025 = LINE ( 'NONE', #257, #1204 ) ;
#1026 = ORIENTED_EDGE ( 'NONE', *, *, #1200, .F. ) ;
#1027 = PLANE ( 'NONE',  #827 ) ;
#1028 = CARTESIAN_POINT ( 'NONE',  ( 45.00000000000000000, 0.000000000000000000, -42.00000000000000000 ) ) ;
#1029 = EDGE_CURVE ( 'NONE', #708, #1006, #866, .T. ) ;
#1030 = EDGE_CURVE ( 'NONE', #288, #411, #846, .T. ) ;
#1031 = LINE ( 'NONE', #731, #404 ) ;
#1032 = ORIENTED_EDGE ( 'NONE', *, *, #868, .T. ) ;
#1033 = PLANE ( 'NONE',  #804 ) ;
#1034 = ORIENTED_EDGE ( 'NONE', *, *, #1383, .T. ) ;
#1035 = PLANE ( 'NONE',  #655 ) ;
#1036 = LINE ( 'NONE', #799, #850 ) ;
#1037 = VECTOR ( 'NONE', #481, 1000.000000000000000 ) ;
#1038 = EDGE_LOOP ( 'NONE', ( #978, #554, #1149, #458 ) ) ;
#1039 = DIRECTION ( 'NONE',  ( -0.000000000000000000, 1.000000000000000000, -0.000000000000000000 ) ) ;
#1040 = VECTOR ( 'NONE', #816, 1000.000000000000000 ) ;
#1041 = AXIS2_PLACEMENT_3D ( 'NONE', #769, #116, #1225 ) ;
#1042 = CARTESIAN_POINT ( 'NONE',  ( -33.00000000000000000, -38.00000000000000000, -3.999999999999996447 ) ) ;
#1043 = EDGE_CURVE ( 'NONE', #463, #890, #1096, .T. ) ;
#1044 = CARTESIAN_POINT ( 'NONE',  ( 25.50000000000000355, 0.000000000000000000, 0.000000000000000000 ) ) ;
#1045 = VERTEX_POINT ( 'NONE', #1388 ) ;
#1046 = FACE_OUTER_BOUND ( 'NONE', #1345, .T. ) ;
#1047 = DIRECTION ( 'NONE',  ( 0.7071067811865474617, -0.7071067811865474617, -0.000000000000000000 ) ) ;
#1048 = CARTESIAN_POINT ( 'NONE',  ( -17.49999999999999645, 13.00000000000000000, -42.00000000000000000 ) ) ;
#1049 = EDGE_LOOP ( 'NONE', ( #1367, #21, #276, #780 ) ) ;
#1050 = EDGE_CURVE ( 'NONE', #977, #290, #739, .T. ) ;
#1051 = ORIENTED_EDGE ( 'NONE', *, *, #559, .F. ) ;
#1052 = DIRECTION ( 'NONE',  ( 1.000000000000000000, 0.000000000000000000, 0.000000000000000000 ) ) ;
#1053 = CARTESIAN_POINT ( 'NONE',  ( -75.00000000000000000, -32.50000000000000000, -42.00000000000000000 ) ) ;
#1054 = ORIENTED_EDGE ( 'NONE', *, *, #740, .T. ) ;
#1055 = LINE ( 'NONE', #1048, #497 ) ;
#1056 = COORDINATED_UNIVERSAL_TIME_OFFSET ( 5, 30, .AHEAD. ) ;
#1057 = ORIENTED_EDGE ( 'NONE', *, *, #620, .T. ) ;
#1058 = LINE ( 'NONE', #1387, #1183 ) ;
#1059 = CC_DESIGN_PERSON_AND_ORGANIZATION_ASSIGNMENT ( #1195, #192, ( #126 ) ) ;
#1060 = EDGE_CURVE ( 'NONE', #965, #1268, #659, .T. ) ;
#1061 = DIRECTION ( 'NONE',  ( -0.000000000000000000, -1.000000000000000000, -0.000000000000000000 ) ) ;
#1062 = ADVANCED_FACE ( 'NONE', ( #521 ), #417, .F. ) ;
#1063 = EDGE_LOOP ( 'NONE', ( #768, #879 ) ) ;
#1064 = DIRECTION ( 'NONE',  ( -0.7863183388224226356, -0.6178215519319035787, 0.000000000000000000 ) ) ;
#1065 = FACE_OUTER_BOUND ( 'NONE', #1049, .T. ) ;
#1066 = VECTOR ( 'NONE', #370, 1000.000000000000000 ) ;
#1067 = VECTOR ( 'NONE', #119, 1000.000000000000000 ) ;
#1068 = AXIS2_PLACEMENT_3D ( 'NONE', #1395, #622, #1074 ) ;
#1069 = COORDINATED_UNIVERSAL_TIME_OFFSET ( 5, 30, .AHEAD. ) ;
#1070 = ORIENTED_EDGE ( 'NONE', *, *, #740, .F. ) ;
#1071 = LINE ( 'NONE', #1392, #122 ) ;
#1072 = PLANE ( 'NONE',  #1271 ) ;
#1073 = ADVANCED_FACE ( 'NONE', ( #1303 ), #750, .F. ) ;
#1074 = DIRECTION ( 'NONE',  ( 1.000000000000000000, 0.000000000000000000, 0.000000000000000000 ) ) ;
#1075 = ORIENTED_EDGE ( 'NONE', *, *, #527, .F. ) ;
#1076 = DIRECTION ( 'NONE',  ( 0.000000000000000000, -1.000000000000000000, 0.000000000000000000 ) ) ;
#1077 = PLANE ( 'NONE',  #197 ) ;
#1078 = EDGE_CURVE ( 'NONE', #1238, #8, #975, .T. ) ;
#1079 = COORDINATED_UNIVERSAL_TIME_OFFSET ( 5, 30, .AHEAD. ) ;
#1080 = VERTEX_POINT ( 'NONE', #854 ) ;
#1081 = CARTESIAN_POINT ( 'NONE',  ( -17.49999999999999645, 0.000000000000000000, 4.000000000000000000 ) ) ;
#1082 = FACE_OUTER_BOUND ( 'NONE', #616, .T. ) ;
#1083 = VECTOR ( 'NONE', #459, 1000.000000000000000 ) ;
#1084 = VECTOR ( 'NONE', #1304, 1000.000000000000000 ) ;
#1085 = ORIENTED_EDGE ( 'NONE', *, *, #18, .T. ) ;
#1086 = APPROVAL_STATUS ( 'not_yet_approved' ) ;
#1087 = VECTOR ( 'NONE', #372, 1000.000000000000000 ) ;
#1088 = VERTEX_POINT ( 'NONE', #618 ) ;
#1089 = EDGE_LOOP ( 'NONE', ( #1208, #1144, #133, #641, #610, #677 ) ) ;
#1090 = CARTESIAN_POINT ( 'NONE',  ( 107.0000000000000142, 47.50000000000000000, -42.00000000000000000 ) ) ;
#1091 = FACE_OUTER_BOUND ( 'NONE', #586, .T. ) ;
#1092 = ORIENTED_EDGE ( 'NONE', *, *, #95, .F. ) ;
#1093 = ORIENTED_EDGE ( 'NONE', *, *, #990, .T. ) ;
#1094 = EDGE_CURVE ( 'NONE', #300, #1134, #729, .T. ) ;
#1095 = ORIENTED_EDGE ( 'NONE', *, *, #509, .F. ) ;
#1096 = LINE ( 'NONE', #533, #593 ) ;
#1097 = FACE_BOUND ( 'NONE', #1063, .T. ) ;
#1098 = VERTEX_POINT ( 'NONE', #971 ) ;
#1099 = CARTESIAN_POINT ( 'NONE',  ( -47.00000000000000000, 38.00000000000000000, -3.999999999999996447 ) ) ;
#1100 = PRODUCT_DEFINITION ( 'UNKNOWN', '', #179, #955 ) ;
#1101 = DIRECTION ( 'NONE',  ( 0.000000000000000000, -1.000000000000000000, 0.000000000000000000 ) ) ;
#1102 = EDGE_CURVE ( 'NONE', #531, #64, #1206, .T. ) ;
#1103 = ORIENTED_EDGE ( 'NONE', *, *, #1413, .F. ) ;
#1104 = VECTOR ( 'NONE', #819, 1000.000000000000000 ) ;
#1105 = EDGE_LOOP ( 'NONE', ( #495, #821, #1142, #464 ) ) ;
#1106 = VECTOR ( 'NONE', #972, 1000.000000000000000 ) ;
#1107 = PLANE ( 'NONE',  #660 ) ;
#1108 = AXIS2_PLACEMENT_3D ( 'NONE', #1044, #1369, #375 ) ;
#1109 = CARTESIAN_POINT ( 'NONE',  ( 107.0000000000000142, -47.50000000000000000, -50.00000000000000000 ) ) ;
#1110 = ADVANCED_FACE ( 'NONE', ( #1412 ), #507, .F. ) ;
#1111 = ORIENTED_EDGE ( 'NONE', *, *, #95, .T. ) ;
#1112 = CARTESIAN_POINT ( 'NONE',  ( -17.49999999999999645, 13.00000000000000000, -42.00000000000000000 ) ) ;
#1113 = ORIENTED_EDGE ( 'NONE', *, *, #767, .F. ) ;
#1114 = DIRECTION ( 'NONE',  ( -0.000000000000000000, -0.000000000000000000, -1.000000000000000000 ) ) ;
#1115 = CARTESIAN_POINT ( 'NONE',  ( -47.00000000000000000, -52.00000000000000000, -42.00000000000000000 ) ) ;
#1116 = CARTESIAN_POINT ( 'NONE',  ( -75.00000000000000000, 32.50000000000000000, -42.00000000000000000 ) ) ;
#1117 = EDGE_CURVE ( 'NONE', #865, #1006, #1192, .T. ) ;
#1118 = EDGE_LOOP ( 'NONE', ( #278, #403, #251, #642 ) ) ;
#1119 = ORIENTED_EDGE ( 'NONE', *, *, #853, .F. ) ;
#1120 = LINE ( 'NONE', #548, #619 ) ;
#1121 = VERTEX_POINT ( 'NONE', #1081 ) ;
#1122 = CARTESIAN_POINT ( 'NONE',  ( 17.50000000000000000, -8.000000000000000000, 10.00000000000000000 ) ) ;
#1123 = LINE ( 'NONE', #218, #985 ) ;
#1124 = DIRECTION ( 'NONE',  ( -0.000000000000000000, -0.000000000000000000, -1.000000000000000000 ) ) ;
#1125 = LINE ( 'NONE', #592, #1104 ) ;
#1126 = EDGE_CURVE ( 'NONE', #890, #646, #71, .T. ) ;
#1127 = DIRECTION ( 'NONE',  ( -1.000000000000000000, 0.000000000000000000, 0.000000000000000000 ) ) ;
#1128 = ORIENTED_EDGE ( 'NONE', *, *, #172, .F. ) ;
#1129 = DIRECTION ( 'NONE',  ( -0.000000000000000000, -0.000000000000000000, -1.000000000000000000 ) ) ;
#1130 = CIRCLE ( 'NONE', #707, 4.000000000000000000 ) ;
#1131 = PLANE ( 'NONE',  #946 ) ;
#1132 = CIRCLE ( 'NONE', #149, 4.000000000000000000 ) ;
#1133 = ORGANIZATION ( 'UNSPECIFIED', 'UNSPECIFIED', '' ) ;
#1134 = VERTEX_POINT ( 'NONE', #962 ) ;
#1135 = ORIENTED_EDGE ( 'NONE', *, *, #1094, .T. ) ;
#1136 = DIRECTION ( 'NONE',  ( -0.000000000000000000, -0.000000000000000000, -1.000000000000000000 ) ) ;
#1137 = CARTESIAN_POINT ( 'NONE',  ( -33.00000000000000000, 52.00000000000000000, -42.00000000000000000 ) ) ;
#1138 = ADVANCED_FACE ( 'NONE', ( #1397 ), #1181, .F. ) ;
#1139 = DIRECTION ( 'NONE',  ( -1.000000000000000000, -0.000000000000000000, -0.000000000000000000 ) ) ;
#1140 = ORIENTED_EDGE ( 'NONE', *, *, #696, .T. ) ;
#1141 = PRODUCT_DEFINITION_SHAPE ( 'NONE', 'NONE',  #1100 ) ;
#1142 = ORIENTED_EDGE ( 'NONE', *, *, #1264, .F. ) ;
#1143 = DIRECTION ( 'NONE',  ( 1.000000000000000000, 0.000000000000000000, 0.000000000000000000 ) ) ;
#1144 = ORIENTED_EDGE ( 'NONE', *, *, #389, .F. ) ;
#1145 = DIRECTION ( 'NONE',  ( -0.000000000000000000, -0.000000000000000000, -1.000000000000000000 ) ) ;
#1146 = DIRECTION ( 'NONE',  ( 0.000000000000000000, 1.000000000000000000, -0.000000000000000000 ) ) ;
#1147 = LINE ( 'NONE', #262, #983 ) ;
#1148 = EDGE_CURVE ( 'NONE', #113, #1008, #66, .T. ) ;
#1149 = ORIENTED_EDGE ( 'NONE', *, *, #319, .F. ) ;
#1150 = CARTESIAN_POINT ( 'NONE',  ( 60.00000000000001421, 0.000000000000000000, -42.00000000000000000 ) ) ;
#1151 = DIRECTION ( 'NONE',  ( 0.000000000000000000, -1.000000000000000000, 0.000000000000000000 ) ) ;
#1152 = DIRECTION ( 'NONE',  ( -0.000000000000000000, -1.000000000000000000, -0.000000000000000000 ) ) ;
#1153 = CARTESIAN_POINT ( 'NONE',  ( -17.49999999999999645, 8.000000000000000000, 10.00000000000000000 ) ) ;
#1154 = AXIS2_PLACEMENT_3D ( 'NONE', #611, #1167, #136 ) ;
#1155 = EDGE_LOOP ( 'NONE', ( #1404, #115, #267, #1308, #902, #1057 ) ) ;
#1156 = DIRECTION ( 'NONE',  ( 1.000000000000000000, 0.000000000000000000, 0.000000000000000000 ) ) ;
#1157 = VECTOR ( 'NONE', #1341, 1000.000000000000000 ) ;
#1158 = AXIS2_PLACEMENT_3D ( 'NONE', #237, #676, #1127 ) ;
#1159 = ADVANCED_FACE ( 'NONE', ( #996 ), #1107, .F. ) ;
#1160 = ORIENTED_EDGE ( 'NONE', *, *, #1060, .F. ) ;
#1161 = LINE ( 'NONE', #154, #848 ) ;
#1162 = LINE ( 'NONE', #938, #408 ) ;
#1163 = ORIENTED_EDGE ( 'NONE', *, *, #960, .T. ) ;
#1164 = LINE ( 'NONE', #813, #293 ) ;
#1165 = DIRECTION ( 'NONE',  ( -1.000000000000000000, -0.000000000000000000, -0.000000000000000000 ) ) ;
#1166 = ORIENTED_EDGE ( 'NONE', *, *, #999, .T. ) ;
#1167 = DIRECTION ( 'NONE',  ( 1.000000000000000000, 0.000000000000000000, 0.000000000000000000 ) ) ;
#1168 = ORIENTED_EDGE ( 'NONE', *, *, #105, .F. ) ;
#1169 = EDGE_CURVE ( 'NONE', #1134, #1221, #7, .T. ) ;
#1170 = LINE ( 'NONE', #1017, #830 ) ;
#1171 = ORIENTED_EDGE ( 'NONE', *, *, #302, .F. ) ;
#1172 = CARTESIAN_POINT ( 'NONE',  ( 25.50000000000000355, 8.000000000000000000, 10.00000000000000000 ) ) ;
#1173 = LINE ( 'NONE', #936, #1274 ) ;
#1174 = VERTEX_POINT ( 'NONE', #669 ) ;
#1175 = DIRECTION ( 'NONE',  ( 0.000000000000000000, 0.000000000000000000, -1.000000000000000000 ) ) ;
#1176 = ORIENTED_EDGE ( 'NONE', *, *, #640, .T. ) ;
#1177 = APPROVAL_ROLE ( '' ) ;
#1178 = ORIENTED_EDGE ( 'NONE', *, *, #461, .F. ) ;
#1179 = CARTESIAN_POINT ( 'NONE',  ( -47.00000000000000000, 38.00000000000000000, -42.00000000000000000 ) ) ;
#1180 = EDGE_CURVE ( 'NONE', #1134, #979, #1120, .T. ) ;
#1181 = CYLINDRICAL_SURFACE ( 'NONE', #1424, 4.000000000000000000 ) ;
#1182 = LINE ( 'NONE', #85, #4 ) ;
#1183 = VECTOR ( 'NONE', #42, 1000.000000000000000 ) ;
#1184 = VECTOR ( 'NONE', #929, 999.9999999999998863 ) ;
#1185 = APPROVAL_DATE_TIME ( #289, #472 ) ;
#1186 = ORIENTED_EDGE ( 'NONE', *, *, #388, .T. ) ;
#1187 = CARTESIAN_POINT ( 'NONE',  ( 17.50000000000000000, 0.000000000000000000, 0.000000000000000000 ) ) ;
#1188 = CC_DESIGN_PERSON_AND_ORGANIZATION_ASSIGNMENT ( #733, #1306, ( #179 ) ) ;
#1189 = DIRECTION ( 'NONE',  ( -0.000000000000000000, 1.000000000000000000, -0.000000000000000000 ) ) ;
#1190 = ORIENTED_EDGE ( 'NONE', *, *, #1209, .T. ) ;
#1191 = EDGE_LOOP ( 'NONE', ( #763, #891, #1370, #1315 ) ) ;
#1192 = LINE ( 'NONE', #624, #33 ) ;
#1193 = CARTESIAN_POINT ( 'NONE',  ( 38.00000000000000000, 0.000000000000000000, -42.00000000000000000 ) ) ;
#1194 = ADVANCED_FACE ( 'NONE', ( #327 ), #123, .F. ) ;
#1195 = PERSON_AND_ORGANIZATION ( #400, #1133 ) ;
#1196 = VERTEX_POINT ( 'NONE', #430 ) ;
#1197 = ORIENTED_EDGE ( 'NONE', *, *, #1244, .F. ) ;
#1198 = CARTESIAN_POINT ( 'NONE',  ( 17.50000000000000000, -13.00000000000000000, -42.00000000000000000 ) ) ;
#1199 = DIRECTION ( 'NONE',  ( -0.000000000000000000, -0.000000000000000000, -1.000000000000000000 ) ) ;
#1200 = EDGE_CURVE ( 'NONE', #411, #167, #437, .T. ) ;
#1201 = VECTOR ( 'NONE', #379, 1000.000000000000000 ) ;
#1202 = VECTOR ( 'NONE', #1061, 1000.000000000000000 ) ;
#1203 = ORIENTED_EDGE ( 'NONE', *, *, #28, .F. ) ;
#1204 = VECTOR ( 'NONE', #155, 1000.000000000000000 ) ;
#1205 = ORIENTED_EDGE ( 'NONE', *, *, #793, .F. ) ;
#1206 = LINE ( 'NONE', #529, #62 ) ;
#1207 = LINE ( 'NONE', #516, #245 ) ;
#1208 = ORIENTED_EDGE ( 'NONE', *, *, #1272, .T. ) ;
#1209 = EDGE_CURVE ( 'NONE', #463, #925, #451, .T. ) ;
#1210 = ORIENTED_EDGE ( 'NONE', *, *, #332, .F. ) ;
#1211 = ORIENTED_EDGE ( 'NONE', *, *, #1325, .F. ) ;
#1212 = EDGE_CURVE ( 'NONE', #8, #325, #223, .T. ) ;
#1213 = DIRECTION ( 'NONE',  ( 0.7863183388224226356, 0.6178215519319035787, -0.000000000000000000 ) ) ;
#1214 = DIRECTION ( 'NONE',  ( -1.000000000000000000, 0.000000000000000000, 0.000000000000000000 ) ) ;
#1215 = ORIENTED_EDGE ( 'NONE', *, *, #482, .T. ) ;
#1216 = VERTEX_POINT ( 'NONE', #1418 ) ;
#1217 = ORIENTED_EDGE ( 'NONE', *, *, #815, .F. ) ;
#1218 = CARTESIAN_POINT ( 'NONE',  ( 107.0000000000000142, 47.50000000000000000, -42.00000000000000000 ) ) ;
#1219 = DIRECTION ( 'NONE',  ( -1.000000000000000000, -0.000000000000000000, -0.000000000000000000 ) ) ;
#1220 = DIRECTION ( 'NONE',  ( 0.000000000000000000, 0.8137334712067350040, -0.5812381937190964631 ) ) ;
#1221 = VERTEX_POINT ( 'NONE', #1099 ) ;
#1222 = ORIENTED_EDGE ( 'NONE', *, *, #332, .T. ) ;
#1223 = AXIS2_PLACEMENT_3D ( 'NONE', #1389, #45, #1156 ) ;
#1224 = VECTOR ( 'NONE', #1047, 1000.000000000000114 ) ;
#1225 = DIRECTION ( 'NONE',  ( 0.000000000000000000, 0.5812381937190964631, 0.8137334712067350040 ) ) ;
#1226 = CARTESIAN_POINT ( 'NONE',  ( 135.0000000000000000, 25.50000000000000355, -42.00000000000000000 ) ) ;
#1227 = AXIS2_PLACEMENT_3D ( 'NONE', #1361, #1136, #712 ) ;
#1228 = CARTESIAN_POINT ( 'NONE',  ( 52.00000000000000000, 8.572527594031472204E-16, -50.00000000000000000 ) ) ;
#1229 = EDGE_CURVE ( 'NONE', #961, #870, #924, .T. ) ;
#1230 = EDGE_LOOP ( 'NONE', ( #452, #1302, #222, #645 ) ) ;
#1231 = EDGE_LOOP ( 'NONE', ( #387, #864, #595, #238, #603 ) ) ;
#1232 = DIRECTION ( 'NONE',  ( 1.000000000000000000, -0.000000000000000000, -0.000000000000000000 ) ) ;
#1233 = CARTESIAN_POINT ( 'NONE',  ( -33.00000000000000000, -38.00000000000000000, -42.00000000000000000 ) ) ;
#1234 = DIRECTION ( 'NONE',  ( 1.000000000000000000, 0.000000000000000000, 0.000000000000000000 ) ) ;
#1235 = CARTESIAN_POINT ( 'NONE',  ( 45.00000000000000000, 0.000000000000000000, -50.00000000000000000 ) ) ;
#1236 = EDGE_CURVE ( 'NONE', #646, #64, #901, .T. ) ;
#1237 = CARTESIAN_POINT ( 'NONE',  ( -47.00000000000000000, 47.50000000000000000, -42.00000000000000000 ) ) ;
#1238 = VERTEX_POINT ( 'NONE', #1218 ) ;
#1239 = CARTESIAN_POINT ( 'NONE',  ( 135.0000000000000000, -25.50000000000000355, -42.00000000000000000 ) ) ;
#1240 = EDGE_LOOP ( 'NONE', ( #1215, #305, #1197, #634 ) ) ;
#1241 = DIRECTION ( 'NONE',  ( -0.000000000000000000, -0.000000000000000000, -1.000000000000000000 ) ) ;
#1242 = CARTESIAN_POINT ( 'NONE',  ( 25.50000000000000355, 0.000000000000000000, 0.000000000000000000 ) ) ;
#1243 = CARTESIAN_POINT ( 'NONE',  ( 135.0000000000000000, 25.50000000000000355, -42.00000000000000000 ) ) ;
#1244 = EDGE_CURVE ( 'NONE', #1396, #708, #781, .T. ) ;
#1245 = PRODUCT ( 'JX1_Foot_R', 'JX1_Foot_R', '', ( #863 ) ) ;
#1246 = ORIENTED_EDGE ( 'NONE', *, *, #1342, .T. ) ;
#1247 = FACE_OUTER_BOUND ( 'NONE', #798, .T. ) ;
#1248 = ORIENTED_EDGE ( 'NONE', *, *, #877, .T. ) ;
#1249 = VECTOR ( 'NONE', #683, 999.9999999999998863 ) ;
#1250 = DIRECTION ( 'NONE',  ( -0.000000000000000000, -0.5812381937190963521, 0.8137334712067351150 ) ) ;
#1251 = VECTOR ( 'NONE', #958, 1000.000000000000000 ) ;
#1252 = VERTEX_POINT ( 'NONE', #1326 ) ;
#1253 = DIRECTION ( 'NONE',  ( -1.000000000000000000, -0.000000000000000000, -0.000000000000000000 ) ) ;
#1254 = EDGE_CURVE ( 'NONE', #1216, #1088, #331, .T. ) ;
#1255 = FACE_OUTER_BOUND ( 'NONE', #1191, .T. ) ;
#1256 = CARTESIAN_POINT ( 'NONE',  ( 0.000000000000000000, 0.000000000000000000, -42.00000000000000000 ) ) ;
#1257 = EDGE_CURVE ( 'NONE', #65, #786, #662, .T. ) ;
#1258 = CARTESIAN_POINT ( 'NONE',  ( -33.00000000000000000, 52.00000000000000000, -42.00000000000000000 ) ) ;
#1259 = CARTESIAN_POINT ( 'NONE',  ( -17.49999999999999645, -8.000000000000000000, 10.00000000000000000 ) ) ;
#1260 = DIRECTION ( 'NONE',  ( -0.000000000000000000, 1.000000000000000000, -0.000000000000000000 ) ) ;
#1261 = ORIENTED_EDGE ( 'NONE', *, *, #427, .F. ) ;
#1262 = FACE_OUTER_BOUND ( 'NONE', #1118, .T. ) ;
#1263 = FACE_OUTER_BOUND ( 'NONE', #835, .T. ) ;
#1264 = EDGE_CURVE ( 'NONE', #1008, #313, #102, .T. ) ;
#1265 = CARTESIAN_POINT ( 'NONE',  ( -33.00000000000000000, -38.00000000000000000, -42.00000000000000000 ) ) ;
#1266 = LINE ( 'NONE', #709, #613 ) ;
#1267 = DIRECTION ( 'NONE',  ( -1.000000000000000000, -0.000000000000000000, -0.000000000000000000 ) ) ;
#1268 = VERTEX_POINT ( 'NONE', #789 ) ;
#1269 = CARTESIAN_POINT ( 'NONE',  ( -33.00000000000000000, -52.00000000000000000, -3.999999999999996447 ) ) ;
#1270 = LINE ( 'NONE', #1053, #1202 ) ;
#1271 = AXIS2_PLACEMENT_3D ( 'NONE', #530, #303, #746 ) ;
#1272 = EDGE_CURVE ( 'NONE', #1088, #828, #442, .T. ) ;
#1273 = CARTESIAN_POINT ( 'NONE',  ( -33.00000000000000000, -38.00000000000000000, -3.999999999999996447 ) ) ;
#1274 = VECTOR ( 'NONE', #501, 1000.000000000000000 ) ;
#1275 = ORIENTED_EDGE ( 'NONE', *, *, #935, .F. ) ;
#1276 = CARTESIAN_POINT ( 'NONE',  ( 70.00000000000000000, 0.000000000000000000, -42.00000000000000000 ) ) ;
#1277 = ORIENTED_EDGE ( 'NONE', *, *, #704, .T. ) ;
#1278 = DIRECTION ( 'NONE',  ( -0.000000000000000000, -0.000000000000000000, -1.000000000000000000 ) ) ;
#1279 = DIRECTION ( 'NONE',  ( 0.000000000000000000, 0.000000000000000000, 1.000000000000000000 ) ) ;
#1280 = ORIENTED_EDGE ( 'NONE', *, *, #861, .T. ) ;
#1281 = PLANE ( 'NONE',  #146 ) ;
#1282 = CARTESIAN_POINT ( 'NONE',  ( -33.00000000000000000, 52.00000000000000000, -3.999999999999996447 ) ) ;
#1283 = ADVANCED_FACE ( 'NONE', ( #892 ), #345, .F. ) ;
#1284 = ORIENTED_EDGE ( 'NONE', *, *, #350, .T. ) ;
#1285 = CARTESIAN_POINT ( 'NONE',  ( 135.0000000000000000, -25.50000000000000355, -42.00000000000000000 ) ) ;
#1286 = DIRECTION ( 'NONE',  ( -1.000000000000000000, -0.000000000000000000, -0.000000000000000000 ) ) ;
#1287 = CARTESIAN_POINT ( 'NONE',  ( 45.00000000000000000, 0.000000000000000000, -50.00000000000000000 ) ) ;
#1288 = EDGE_CURVE ( 'NONE', #670, #469, #652, .T. ) ;
#1289 = ADVANCED_FACE ( 'NONE', ( #209 ), #93, .F. ) ;
#1290 = SECURITY_CLASSIFICATION_LEVEL ( 'unclassified' ) ;
#1291 = EDGE_LOOP ( 'NONE', ( #1163, #321, #858, #283 ) ) ;
#1292 = CARTESIAN_POINT ( 'NONE',  ( 17.50000000000000000, 13.00000000000000000, 3.000000000000000000 ) ) ;
#1293 = VECTOR ( 'NONE', #1129, 1000.000000000000000 ) ;
#1294 = DIRECTION ( 'NONE',  ( -0.000000000000000000, -1.000000000000000000, -0.000000000000000000 ) ) ;
#1295 = AXIS2_PLACEMENT_3D ( 'NONE', #1282, #1366, #487 ) ;
#1296 = AXIS2_PLACEMENT_3D ( 'NONE', #203, #1076, #636 ) ;
#1297 = PERSON_AND_ORGANIZATION_ROLE ( 'creator' ) ;
#1298 = ORIENTED_EDGE ( 'NONE', *, *, #371, .F. ) ;
#1299 = CARTESIAN_POINT ( 'NONE',  ( 107.0000000000000142, -47.50000000000000000, -42.00000000000000000 ) ) ;
#1300 = CARTESIAN_POINT ( 'NONE',  ( 80.00000000000000000, 1.224646799147352665E-15, -42.00000000000000000 ) ) ;
#1301 = APPROVAL_DATE_TIME ( #966, #440 ) ;
#1302 = ORIENTED_EDGE ( 'NONE', *, *, #342, .F. ) ;
#1303 = FACE_OUTER_BOUND ( 'NONE', #538, .T. ) ;
#1304 = DIRECTION ( 'NONE',  ( -0.000000000000000000, 1.000000000000000000, -0.000000000000000000 ) ) ;
#1305 = EDGE_CURVE ( 'NONE', #344, #528, #1317, .T. ) ;
#1306 = PERSON_AND_ORGANIZATION_ROLE ( 'design_supplier' ) ;
#1307 = ORIENTED_EDGE ( 'NONE', *, *, #172, .T. ) ;
#1308 = ORIENTED_EDGE ( 'NONE', *, *, #1439, .T. ) ;
#1309 = DIRECTION ( 'NONE',  ( -0.7071067811865474617, -0.7071067811865474617, -0.000000000000000000 ) ) ;
#1310 = CARTESIAN_POINT ( 'NONE',  ( 45.00000000000000000, 0.000000000000000000, -42.00000000000000000 ) ) ;
#1311 = CC_DESIGN_PERSON_AND_ORGANIZATION_ASSIGNMENT ( #857, #1297, ( #1100 ) ) ;
#1312 = AXIS2_PLACEMENT_3D ( 'NONE', #1363, #393, #285 ) ;
#1313 = VECTOR ( 'NONE', #580, 1000.000000000000000 ) ;
#1314 = EDGE_CURVE ( 'NONE', #865, #288, #465, .T. ) ;
#1315 = ORIENTED_EDGE ( 'NONE', *, *, #552, .F. ) ;
#1316 = VECTOR ( 'NONE', #1286, 1000.000000000000000 ) ;
#1317 = CIRCLE ( 'NONE', #151, 9.999999999999994671 ) ;
#1318 = ORIENTED_EDGE ( 'NONE', *, *, #689, .F. ) ;
#1319 = DIRECTION ( 'NONE',  ( -1.000000000000000000, -0.000000000000000000, -0.000000000000000000 ) ) ;
#1320 = LINE ( 'NONE', #68, #1332 ) ;
#1321 = CARTESIAN_POINT ( 'NONE',  ( -17.49999999999999645, 13.00000000000000000, 3.000000000000000000 ) ) ;
#1322 = FACE_OUTER_BOUND ( 'NONE', #169, .T. ) ;
#1323 = DIRECTION ( 'NONE',  ( -0.000000000000000000, -0.000000000000000000, -1.000000000000000000 ) ) ;
#1324 = VERTEX_POINT ( 'NONE', #831 ) ;
#1325 = EDGE_CURVE ( 'NONE', #65, #735, #353, .T. ) ;
#1326 = CARTESIAN_POINT ( 'NONE',  ( 52.00000000000000000, 8.572527594031472204E-16, -42.00000000000000000 ) ) ;
#1327 = CYLINDRICAL_SURFACE ( 'NONE', #1011, 9.999999999999994671 ) ;
#1328 = VECTOR ( 'NONE', #1323, 1000.000000000000000 ) ;
#1329 = DIRECTION ( 'NONE',  ( -0.000000000000000000, -0.000000000000000000, 1.000000000000000000 ) ) ;
#1330 = CIRCLE ( 'NONE', #1154, 4.000000000000000000 ) ;
#1331 = ORIENTED_EDGE ( 'NONE', *, *, #573, .T. ) ;
#1332 = VECTOR ( 'NONE', #1199, 1000.000000000000000 ) ;
#1333 = CARTESIAN_POINT ( 'NONE',  ( 0.000000000000000000, 0.000000000000000000, -3.999999999999996447 ) ) ;
#1334 = AXIS2_PLACEMENT_3D ( 'NONE', #540, #570, #594 ) ;
#1335 = DIRECTION ( 'NONE',  ( -0.000000000000000000, -1.000000000000000000, -0.000000000000000000 ) ) ;
#1336 = EDGE_CURVE ( 'NONE', #352, #441, #797, .T. ) ;
#1337 = DIRECTION ( 'NONE',  ( -0.000000000000000000, -0.5812381937190963521, -0.8137334712067351150 ) ) ;
#1338 = ORIENTED_EDGE ( 'NONE', *, *, #777, .F. ) ;
#1339 = DIRECTION ( 'NONE',  ( -1.000000000000000000, -0.000000000000000000, -0.000000000000000000 ) ) ;
#1340 = VERTEX_POINT ( 'NONE', #692 ) ;
#1341 = DIRECTION ( 'NONE',  ( -1.000000000000000000, -0.000000000000000000, -0.000000000000000000 ) ) ;
#1342 = EDGE_CURVE ( 'NONE', #528, #344, #79, .T. ) ;
#1343 = DIRECTION ( 'NONE',  ( 0.7071067811865474617, 0.7071067811865474617, 0.000000000000000000 ) ) ;
#1344 = VERTEX_POINT ( 'NONE', #265 ) ;
#1345 = EDGE_LOOP ( 'NONE', ( #915, #673, #1375, #272, #668 ) ) ;
#1346 = DIRECTION ( 'NONE',  ( 0.000000000000000000, -0.000000000000000000, -1.000000000000000000 ) ) ;
#1347 = ORIENTED_EDGE ( 'NONE', *, *, #640, .F. ) ;
#1348 = DIRECTION ( 'NONE',  ( 0.000000000000000000, 1.000000000000000000, -0.000000000000000000 ) ) ;
#1349 = DIRECTION ( 'NONE',  ( 0.7071067811865474617, -0.7071067811865474617, -0.000000000000000000 ) ) ;
#1350 = VERTEX_POINT ( 'NONE', #29 ) ;
#1351 = AXIS2_PLACEMENT_3D ( 'NONE', #987, #782, #688 ) ;
#1352 = CARTESIAN_POINT ( 'NONE',  ( 25.50000000000000355, 13.00000000000000000, 3.000000000000000000 ) ) ;
#1353 = AXIS2_PLACEMENT_3D ( 'NONE', #598, #604, #168 ) ;
#1354 = ORIENTED_EDGE ( 'NONE', *, *, #814, .F. ) ;
#1355 = DIRECTION ( 'NONE',  ( 0.7863183388224226356, -0.6178215519319035787, 0.000000000000000000 ) ) ;
#1356 = VECTOR ( 'NONE', #314, 1000.000000000000000 ) ;
#1357 = DIRECTION ( 'NONE',  ( 1.000000000000000000, 0.000000000000000000, 0.000000000000000000 ) ) ;
#1358 = CC_DESIGN_SECURITY_CLASSIFICATION ( #126, ( #179 ) ) ;
#1359 = DIRECTION ( 'NONE',  ( 0.000000000000000000, 0.000000000000000000, 1.000000000000000000 ) ) ;
#1360 = ADVANCED_FACE ( 'NONE', ( #1247 ), #247, .F. ) ;
#1361 = CARTESIAN_POINT ( 'NONE',  ( 45.00000000000000000, 0.000000000000000000, -42.00000000000000000 ) ) ;
#1362 = EDGE_LOOP ( 'NONE', ( #466, #87, #1210, #567 ) ) ;
#1363 = CARTESIAN_POINT ( 'NONE',  ( -17.49999999999999645, 13.00000000000000000, 3.000000000000000000 ) ) ;
#1364 = CARTESIAN_POINT ( 'NONE',  ( 60.00000000000001421, 0.000000000000000000, -50.00000000000000000 ) ) ;
#1365 = FACE_OUTER_BOUND ( 'NONE', #1105, .T. ) ;
#1366 = DIRECTION ( 'NONE',  ( -1.000000000000000000, 0.000000000000000000, 0.000000000000000000 ) ) ;
#1367 = ORIENTED_EDGE ( 'NONE', *, *, #1102, .T. ) ;
#1368 = LINE ( 'NONE', #367, #423 ) ;
#1369 = DIRECTION ( 'NONE',  ( -1.000000000000000000, -0.000000000000000000, -0.000000000000000000 ) ) ;
#1370 = ORIENTED_EDGE ( 'NONE', *, *, #658, .T. ) ;
#1371 = DIRECTION ( 'NONE',  ( 1.000000000000000000, -0.000000000000000000, -0.000000000000000000 ) ) ;
#1372 = PLANE ( 'NONE',  #829 ) ;
#1373 = CARTESIAN_POINT ( 'NONE',  ( -33.00000000000000000, 38.00000000000000000, -3.999999999999996447 ) ) ;
#1374 = DIRECTION ( 'NONE',  ( 1.000000000000000000, -0.000000000000000000, -0.000000000000000000 ) ) ;
#1375 = ORIENTED_EDGE ( 'NONE', *, *, #454, .F. ) ;
#1376 = DIRECTION ( 'NONE',  ( -0.7863183388224226356, 0.6178215519319035787, -0.000000000000000000 ) ) ;
#1377 = VECTOR ( 'NONE', #224, 1000.000000000000000 ) ;
#1378 = FACE_BOUND ( 'NONE', #693, .T. ) ;
#1379 = AXIS2_PLACEMENT_3D ( 'NONE', #129, #557, #334 ) ;
#1380 = ORIENTED_EDGE ( 'NONE', *, *, #1021, .T. ) ;
#1381 = CARTESIAN_POINT ( 'NONE',  ( -75.00000000000000000, 32.50000000000000000, -42.00000000000000000 ) ) ;
#1382 = AXIS2_PLACEMENT_3D ( 'NONE', #1187, #514, #756 ) ;
#1383 = EDGE_CURVE ( 'NONE', #547, #1344, #1170, .T. ) ;
#1384 = LOCAL_TIME ( 11, 8, 31.00000000000000000, #1056 ) ;
#1385 = EDGE_LOOP ( 'NONE', ( #984, #477 ) ) ;
#1386 = EDGE_LOOP ( 'NONE', ( #1186, #229, #142, #59 ) ) ;
#1387 = CARTESIAN_POINT ( 'NONE',  ( -17.49999999999999645, 8.000000000000000000, 10.00000000000000000 ) ) ;
#1388 = CARTESIAN_POINT ( 'NONE',  ( -47.00000000000000000, -47.50000000000000000, -42.00000000000000000 ) ) ;
#1389 = CARTESIAN_POINT ( 'NONE',  ( 70.00000000000000000, 0.000000000000000000, -50.00000000000000000 ) ) ;
#1390 = ADVANCED_FACE ( 'NONE', ( #369 ), #932, .F. ) ;
#1391 = ORIENTED_EDGE ( 'NONE', *, *, #427, .T. ) ;
#1392 = CARTESIAN_POINT ( 'NONE',  ( -75.00000000000000000, 32.50000000000000000, -42.00000000000000000 ) ) ;
#1393 = CARTESIAN_POINT ( 'NONE',  ( -60.00000000000000000, 47.50000000000000000, -50.00000000000000000 ) ) ;
#1394 = CARTESIAN_POINT ( 'NONE',  ( -17.49999999999999645, -13.00000000000000000, 3.000000000000000000 ) ) ;
#1395 = CARTESIAN_POINT ( 'NONE',  ( 0.000000000000000000, 0.000000000000000000, 0.000000000000000000 ) ) ;
#1396 = VERTEX_POINT ( 'NONE', #277 ) ;
#1397 = FACE_OUTER_BOUND ( 'NONE', #320, .T. ) ;
#1398 = DIRECTION ( 'NONE',  ( 0.000000000000000000, -0.8137334712067350040, -0.5812381937190964631 ) ) ;
#1399 = CIRCLE ( 'NONE', #615, 6.999999999999999112 ) ;
#1400 = VECTOR ( 'NONE', #294, 1000.000000000000000 ) ;
#1401 = LOCAL_TIME ( 11, 8, 31.00000000000000000, #518 ) ;
#1402 = ORIENTED_EDGE ( 'NONE', *, *, #1336, .F. ) ;
#1403 = PERSON_AND_ORGANIZATION_ROLE ( 'creator' ) ;
#1404 = ORIENTED_EDGE ( 'NONE', *, *, #815, .T. ) ;
#1405 = APPLICATION_CONTEXT ( 'configuration controlled 3d designs of mechanical parts and assemblies' ) ;
#1406 = ADVANCED_FACE ( 'NONE', ( #250, #132 ), #579, .T. ) ;
#1407 = ORIENTED_EDGE ( 'NONE', *, *, #20, .F. ) ;
#1408 = CARTESIAN_POINT ( 'NONE',  ( 25.50000000000000355, 8.000000000000000000, 10.00000000000000000 ) ) ;
#1409 = DIRECTION ( 'NONE',  ( 0.000000000000000000, -0.000000000000000000, 1.000000000000000000 ) ) ;
#1410 = CALENDAR_DATE ( 2026, 24, 9 ) ;
#1411 = ORIENTED_EDGE ( 'NONE', *, *, #90, .F. ) ;
#1412 = FACE_OUTER_BOUND ( 'NONE', #131, .T. ) ;
#1413 = EDGE_CURVE ( 'NONE', #290, #708, #1025, .T. ) ;
#1414 = LINE ( 'NONE', #875, #1106 ) ;
#1415 = ORIENTED_EDGE ( 'NONE', *, *, #1126, .T. ) ;
#1416 = FACE_OUTER_BOUND ( 'NONE', #685, .T. ) ;
#1417 = ORIENTED_EDGE ( 'NONE', *, *, #990, .F. ) ;
#1418 = CARTESIAN_POINT ( 'NONE',  ( -60.00000000000000000, -47.50000000000000000, -42.00000000000000000 ) ) ;
#1419 = CARTESIAN_POINT ( 'NONE',  ( 0.000000000000000000, 0.000000000000000000, -42.00000000000000000 ) ) ;
#1420 = ADVANCED_FACE ( 'NONE', ( #145 ), #1033, .F. ) ;
#1421 = AXIS2_PLACEMENT_3D ( 'NONE', #898, #785, #1343 ) ;
#1422 = VECTOR ( 'NONE', #931, 1000.000000000000000 ) ;
#1423 = ORIENTED_EDGE ( 'NONE', *, *, #510, .T. ) ;
#1424 = AXIS2_PLACEMENT_3D ( 'NONE', #174, #405, #412 ) ;
#1425 = EDGE_LOOP ( 'NONE', ( #1018, #456, #995, #1205, #117 ) ) ;
#1426 = LOCAL_TIME ( 11, 8, 31.00000000000000000, #1079 ) ;
#1427 = EDGE_LOOP ( 'NONE', ( #241, #1103, #838, #773, #1026, #88 ) ) ;
#1428 = CARTESIAN_POINT ( 'NONE',  ( -47.00000000000000000, -52.00000000000000000, -3.999999999999996447 ) ) ;
#1429 = CARTESIAN_POINT ( 'NONE',  ( 25.50000000000000355, -8.000000000000000000, 10.00000000000000000 ) ) ;
#1430 = DIRECTION ( 'NONE',  ( 0.000000000000000000, 0.5812381937190964631, 0.8137334712067350040 ) ) ;
#1431 = ADVANCED_FACE ( 'NONE', ( #1255 ), #698, .F. ) ;
#1432 = CARTESIAN_POINT ( 'NONE',  ( -75.00000000000000000, -32.50000000000000000, -42.00000000000000000 ) ) ;
#1433 = ORIENTED_EDGE ( 'NONE', *, *, #1200, .T. ) ;
#1434 = VERTEX_POINT ( 'NONE', #820 ) ;
#1435 = DIRECTION ( 'NONE',  ( -0.000000000000000000, -0.000000000000000000, -1.000000000000000000 ) ) ;
#1436 = LINE ( 'NONE', #248, #269 ) ;
#1437 = DIRECTION ( 'NONE',  ( 1.000000000000000000, 0.000000000000000000, 0.000000000000000000 ) ) ;
#1438 = ORIENTED_EDGE ( 'NONE', *, *, #582, .F. ) ;
#1439 = EDGE_CURVE ( 'NONE', #181, #717, #1162, .T. ) ;
#1440 = CARTESIAN_POINT ( 'NONE',  ( 25.50000000000000355, 13.00000000000000000, -42.00000000000000000 ) ) ;
#1441 = CARTESIAN_POINT ( 'NONE',  ( -17.49999999999999645, 4.898587196589412829E-16, -4.000000000000000000 ) ) ;
ENDSEC;
END-ISO-10303-21;
