ISO-10303-21;
HEADER;
FILE_DESCRIPTION (( 'STEP AP203' ),
    '1' );
FILE_NAME ('JX1_Forearm_R.STEP',
    '2026-09-24T05:40:15',
    ( '' ),
    ( '' ),
    'SwSTEP 2.0',
    'SolidWorks 2026',
    '' );
FILE_SCHEMA (( 'CONFIG_CONTROL_DESIGN' ));
ENDSEC;

DATA;
#1 = CARTESIAN_POINT ( 'NONE',  ( 24.00000000000000000, -25.50000000000000000, 28.00000000000000000 ) ) ;
#2 = AXIS2_PLACEMENT_3D ( 'NONE', #918, #837, #19 ) ;
#3 = CIRCLE ( 'NONE', #550, 1.700000000000000178 ) ;
#4 = PLANE ( 'NONE',  #350 ) ;
#5 = EDGE_CURVE ( 'NONE', #481, #496, #372, .T. ) ;
#6 = AXIS2_PLACEMENT_3D ( 'NONE', #154, #390, #757 ) ;
#7 = ORIENTED_EDGE ( 'NONE', *, *, #484, .F. ) ;
#8 = DIRECTION ( 'NONE',  ( -0.000000000000000000, 1.000000000000000000, -0.000000000000000000 ) ) ;
#9 = CARTESIAN_POINT ( 'NONE',  ( -7.999999999999996447, -25.50000000000000000, -15.55640646055101861 ) ) ;
#10 = EDGE_LOOP ( 'NONE', ( #815, #466 ) ) ;
#11 = CARTESIAN_POINT ( 'NONE',  ( 0.000000000000000000, -25.50000000000000000, 12.15000000000000036 ) ) ;
#12 = ORIENTED_EDGE ( 'NONE', *, *, #280, .F. ) ;
#13 = CARTESIAN_POINT ( 'NONE',  ( -16.00000000000000000, -25.50000000000000000, 1.699999999999998179 ) ) ;
#14 = CARTESIAN_POINT ( 'NONE',  ( 4.898587196589412829E-16, -27.69999999999999929, 4.000000000000000000 ) ) ;
#15 = ORIENTED_EDGE ( 'NONE', *, *, #738, .T. ) ;
#16 = DIRECTION ( 'NONE',  ( -0.000000000000000000, 1.000000000000000000, -0.000000000000000000 ) ) ;
#17 = PRODUCT_DEFINITION_SHAPE ( 'NONE', 'NONE',  #475 ) ;
#18 = CIRCLE ( 'NONE', #116, 12.15000000000000036 ) ;
#19 = DIRECTION ( 'NONE',  ( 0.000000000000000000, 0.000000000000000000, 1.000000000000000000 ) ) ;
#20 = EDGE_CURVE ( 'NONE', #404, #114, #848, .T. ) ;
#21 = AXIS2_PLACEMENT_3D ( 'NONE', #774, #100, #469 ) ;
#22 = UNCERTAINTY_MEASURE_WITH_UNIT (LENGTH_MEASURE( 1.000000000000000082E-05 ), #534, 'distance_accuracy_value', 'NONE');
#23 = CARTESIAN_POINT ( 'NONE',  ( 24.00000000000000000, -25.50000000000000000, 28.00000000000000000 ) ) ;
#24 =( GEOMETRIC_REPRESENTATION_CONTEXT ( 3 ) GLOBAL_UNCERTAINTY_ASSIGNED_CONTEXT ( ( #22 ) ) GLOBAL_UNIT_ASSIGNED_CONTEXT ( ( #534, #838, #175 ) ) REPRESENTATION_CONTEXT ( 'NONE', 'WORKASPACE' ) );
#25 = DIRECTION ( 'NONE',  ( 1.000000000000000000, 0.000000000000000000, 0.000000000000000000 ) ) ;
#26 = CC_DESIGN_DATE_AND_TIME_ASSIGNMENT ( #30, #554, ( #475 ) ) ;
#27 = COORDINATED_UNIVERSAL_TIME_OFFSET ( 5, 30, .AHEAD. ) ;
#28 = CYLINDRICAL_SURFACE ( 'NONE', #539, 1.700000000000000178 ) ;
#29 = ORIENTED_EDGE ( 'NONE', *, *, #680, .T. ) ;
#30 = DATE_AND_TIME ( #108, #225 ) ;
#31 = DIRECTION ( 'NONE',  ( 0.000000000000000000, 1.000000000000000000, 0.000000000000000000 ) ) ;
#32 = EDGE_LOOP ( 'NONE', ( #279, #801, #359, #178 ) ) ;
#33 = ORIENTED_EDGE ( 'NONE', *, *, #651, .F. ) ;
#34 = AXIS2_PLACEMENT_3D ( 'NONE', #820, #892, #72 ) ;
#35 = ORIENTED_EDGE ( 'NONE', *, *, #315, .F. ) ;
#36 = EDGE_CURVE ( 'NONE', #792, #212, #169, .T. ) ;
#37 = SHAPE_DEFINITION_REPRESENTATION ( #17, #789 ) ;
#38 = CIRCLE ( 'NONE', #144, 1.700000000000000178 ) ;
#39 = DIRECTION ( 'NONE',  ( 0.000000000000000000, 1.000000000000000000, 0.000000000000000000 ) ) ;
#40 = CARTESIAN_POINT ( 'NONE',  ( 3.000000000000000000, 3.673940397442059868E-16, -186.0000000000000000 ) ) ;
#41 = CARTESIAN_POINT ( 'NONE',  ( 0.000000000000000000, 0.000000000000000000, -186.0000000000000000 ) ) ;
#42 = EDGE_LOOP ( 'NONE', ( #577, #124 ) ) ;
#43 = VERTEX_POINT ( 'NONE', #756 ) ;
#44 = PERSON_AND_ORGANIZATION_ROLE ( 'creator' ) ;
#45 = DIRECTION ( 'NONE',  ( -0.000000000000000000, 1.000000000000000000, -0.000000000000000000 ) ) ;
#46 = CARTESIAN_POINT ( 'NONE',  ( -16.00000000000000000, -31.50000000000000000, -1.700000000000002176 ) ) ;
#47 = VERTEX_POINT ( 'NONE', #775 ) ;
#48 = CALENDAR_DATE ( 2026, 24, 9 ) ;
#49 = CARTESIAN_POINT ( 'NONE',  ( -24.00000000000000000, 22.00000000000000000, -180.0000000000000000 ) ) ;
#50 = CARTESIAN_POINT ( 'NONE',  ( 0.000000000000000000, -27.69999999999999929, -4.000000000000000000 ) ) ;
#51 = ORIENTED_EDGE ( 'NONE', *, *, #935, .F. ) ;
#52 = EDGE_CURVE ( 'NONE', #739, #304, #311, .T. ) ;
#53 = DIRECTION ( 'NONE',  ( 0.000000000000000000, 1.000000000000000000, 0.000000000000000000 ) ) ;
#54 = VECTOR ( 'NONE', #729, 1000.000000000000000 ) ;
#55 = ORIENTED_EDGE ( 'NONE', *, *, #910, .T. ) ;
#56 = CIRCLE ( 'NONE', #351, 12.15000000000000036 ) ;
#57 = CIRCLE ( 'NONE', #525, 3.000000000000000000 ) ;
#58 = CARTESIAN_POINT ( 'NONE',  ( 0.000000000000000000, -27.69999999999999929, 0.000000000000000000 ) ) ;
#59 = LINE ( 'NONE', #672, #386 ) ;
#60 = ORIENTED_EDGE ( 'NONE', *, *, #666, .F. ) ;
#61 = DIRECTION ( 'NONE',  ( -0.000000000000000000, -1.000000000000000000, -0.000000000000000000 ) ) ;
#62 = DIRECTION ( 'NONE',  ( 0.000000000000000000, 0.000000000000000000, -1.000000000000000000 ) ) ;
#63 = DIRECTION ( 'NONE',  ( 0.000000000000000000, 0.000000000000000000, 1.000000000000000000 ) ) ;
#64 = EDGE_LOOP ( 'NONE', ( #165, #761, #242, #544 ) ) ;
#65 = EDGE_CURVE ( 'NONE', #75, #944, #707, .T. ) ;
#66 = LINE ( 'NONE', #1, #842 ) ;
#67 = CARTESIAN_POINT ( 'NONE',  ( 8.000000000000001776, -25.50000000000000000, -13.85640646055101755 ) ) ;
#68 = EDGE_CURVE ( 'NONE', #843, #478, #332, .T. ) ;
#69 = DIRECTION ( 'NONE',  ( -0.000000000000000000, -1.000000000000000000, -0.000000000000000000 ) ) ;
#70 = EDGE_LOOP ( 'NONE', ( #927, #517 ) ) ;
#71 = CIRCLE ( 'NONE', #220, 12.15000000000000036 ) ;
#72 = DIRECTION ( 'NONE',  ( 0.000000000000000000, 0.000000000000000000, -1.000000000000000000 ) ) ;
#73 = PLANE ( 'NONE',  #368 ) ;
#74 = CYLINDRICAL_SURFACE ( 'NONE', #893, 4.000000000000000000 ) ;
#75 = VERTEX_POINT ( 'NONE', #647 ) ;
#76 = FACE_OUTER_BOUND ( 'NONE', #950, .T. ) ;
#77 = EDGE_LOOP ( 'NONE', ( #233, #96, #196, #803 ) ) ;
#78 = DIRECTION ( 'NONE',  ( 0.000000000000000000, 1.000000000000000000, 0.000000000000000000 ) ) ;
#79 = ORIENTED_EDGE ( 'NONE', *, *, #511, .F. ) ;
#80 = CARTESIAN_POINT ( 'NONE',  ( 24.00000000000000000, -31.50000000000000000, -186.0000000000000000 ) ) ;
#81 = ADVANCED_FACE ( 'NONE', ( #266 ), #877, .F. ) ;
#82 = DIRECTION ( 'NONE',  ( 0.000000000000000000, 0.000000000000000000, -1.000000000000000000 ) ) ;
#83 = DIRECTION ( 'NONE',  ( 0.000000000000000000, 1.000000000000000000, 0.000000000000000000 ) ) ;
#84 = DIRECTION ( 'NONE',  ( -0.000000000000000000, -1.000000000000000000, -0.000000000000000000 ) ) ;
#85 = APPROVAL ( #255, 'UNSPECIFIED' ) ;
#86 = CARTESIAN_POINT ( 'NONE',  ( 0.000000000000000000, -31.50000000000000000, 0.000000000000000000 ) ) ;
#87 = ORIENTED_EDGE ( 'NONE', *, *, #166, .T. ) ;
#88 = FACE_BOUND ( 'NONE', #10, .T. ) ;
#89 = AXIS2_PLACEMENT_3D ( 'NONE', #735, #113, #205 ) ;
#90 = LINE ( 'NONE', #387, #239 ) ;
#91 = CIRCLE ( 'NONE', #949, 4.000000000000000000 ) ;
#92 = EDGE_LOOP ( 'NONE', ( #573, #422, #829, #622 ) ) ;
#93 = ORIENTED_EDGE ( 'NONE', *, *, #666, .T. ) ;
#94 = DIRECTION ( 'NONE',  ( 0.000000000000000000, 1.000000000000000000, 0.000000000000000000 ) ) ;
#95 = FACE_OUTER_BOUND ( 'NONE', #111, .T. ) ;
#96 = ORIENTED_EDGE ( 'NONE', *, *, #806, .T. ) ;
#97 = PERSON_AND_ORGANIZATION ( #859, #767 ) ;
#98 = CARTESIAN_POINT ( 'NONE',  ( -3.000000000000000000, 0.000000000000000000, -186.0000000000000000 ) ) ;
#99 = EDGE_CURVE ( 'NONE', #970, #626, #781, .T. ) ;
#100 = DIRECTION ( 'NONE',  ( -0.000000000000000000, -1.000000000000000000, -0.000000000000000000 ) ) ;
#101 = DIRECTION ( 'NONE',  ( -0.000000000000000000, -1.000000000000000000, -0.000000000000000000 ) ) ;
#102 = DIRECTION ( 'NONE',  ( 0.000000000000000000, 0.000000000000000000, 1.000000000000000000 ) ) ;
#103 = LINE ( 'NONE', #768, #383 ) ;
#104 = CARTESIAN_POINT ( 'NONE',  ( 0.000000000000000000, -25.50000000000000000, 0.000000000000000000 ) ) ;
#105 = DIRECTION ( 'NONE',  ( 0.000000000000000000, 1.000000000000000000, 0.000000000000000000 ) ) ;
#106 = PERSON_AND_ORGANIZATION_ROLE ( 'design_owner' ) ;
#107 = CIRCLE ( 'NONE', #617, 4.000000000000000000 ) ;
#108 = CALENDAR_DATE ( 2026, 24, 9 ) ;
#109 = CARTESIAN_POINT ( 'NONE',  ( 0.000000000000000000, 0.000000000000000000, -186.0000000000000000 ) ) ;
#110 = EDGE_CURVE ( 'NONE', #673, #629, #659, .T. ) ;
#111 = EDGE_LOOP ( 'NONE', ( #646, #442, #244, #663 ) ) ;
#112 = PLANE ( 'NONE',  #931 ) ;
#113 = DIRECTION ( 'NONE',  ( -0.000000000000000000, -1.000000000000000000, -0.000000000000000000 ) ) ;
#114 = VERTEX_POINT ( 'NONE', #40 ) ;
#115 = COORDINATED_UNIVERSAL_TIME_OFFSET ( 5, 30, .AHEAD. ) ;
#116 = AXIS2_PLACEMENT_3D ( 'NONE', #104, #152, #688 ) ;
#117 = AXIS2_PLACEMENT_3D ( 'NONE', #470, #102, #845 ) ;
#118 = ADVANCED_FACE ( 'NONE', ( #340 ), #867, .F. ) ;
#119 = CARTESIAN_POINT ( 'NONE',  ( -3.000000000000000000, 0.000000000000000000, -180.0000000000000000 ) ) ;
#120 = DIRECTION ( 'NONE',  ( 0.000000000000000000, 0.000000000000000000, 1.000000000000000000 ) ) ;
#121 = ORIENTED_EDGE ( 'NONE', *, *, #690, .F. ) ;
#122 = DIRECTION ( 'NONE',  ( 0.000000000000000000, -0.000000000000000000, 1.000000000000000000 ) ) ;
#123 = FACE_BOUND ( 'NONE', #70, .T. ) ;
#124 = ORIENTED_EDGE ( 'NONE', *, *, #914, .T. ) ;
#125 = EDGE_LOOP ( 'NONE', ( #190, #765, #414, #121, #733, #87 ) ) ;
#126 = CYLINDRICAL_SURFACE ( 'NONE', #240, 4.000000000000000000 ) ;
#127 = VERTEX_POINT ( 'NONE', #80 ) ;
#128 = ORIENTED_EDGE ( 'NONE', *, *, #498, .F. ) ;
#129 = ADVANCED_FACE ( 'NONE', ( #76 ), #594, .F. ) ;
#130 = LINE ( 'NONE', #278, #147 ) ;
#131 = ORIENTED_EDGE ( 'NONE', *, *, #430, .T. ) ;
#132 = AXIS2_PLACEMENT_3D ( 'NONE', #421, #265, #790 ) ;
#133 = CARTESIAN_POINT ( 'NONE',  ( -16.00000000000000000, -25.50000000000000000, -1.959434878635765131E-15 ) ) ;
#134 = CARTESIAN_POINT ( 'NONE',  ( 8.000000000000001776, -25.50000000000000000, -13.85640646055101755 ) ) ;
#135 = EDGE_CURVE ( 'NONE', #819, #922, #816, .T. ) ;
#136 = DIRECTION ( 'NONE',  ( -0.000000000000000000, -1.000000000000000000, -0.000000000000000000 ) ) ;
#137 = ORIENTED_EDGE ( 'NONE', *, *, #786, .F. ) ;
#138 = DIRECTION ( 'NONE',  ( 0.000000000000000000, 0.000000000000000000, 1.000000000000000000 ) ) ;
#139 = DIRECTION ( 'NONE',  ( 1.000000000000000000, 0.000000000000000000, 0.000000000000000000 ) ) ;
#140 = ORIENTED_EDGE ( 'NONE', *, *, #20, .F. ) ;
#141 = DIRECTION ( 'NONE',  ( -0.000000000000000000, -1.000000000000000000, -0.000000000000000000 ) ) ;
#142 = LINE ( 'NONE', #373, #464 ) ;
#143 = EDGE_LOOP ( 'NONE', ( #588, #595, #184, #252 ) ) ;
#144 = AXIS2_PLACEMENT_3D ( 'NONE', #674, #210, #896 ) ;
#145 = CYLINDRICAL_SURFACE ( 'NONE', #961, 1.700000000000000178 ) ;
#146 = DIRECTION ( 'NONE',  ( 0.000000000000000000, 0.000000000000000000, 1.000000000000000000 ) ) ;
#147 = VECTOR ( 'NONE', #441, 1000.000000000000000 ) ;
#148 = CARTESIAN_POINT ( 'NONE',  ( -24.00000000000000000, -25.50000000000000000, 28.00000000000000000 ) ) ;
#149 = ORIENTED_EDGE ( 'NONE', *, *, #65, .F. ) ;
#150 = EDGE_CURVE ( 'NONE', #792, #919, #375, .T. ) ;
#151 = CARTESIAN_POINT ( 'NONE',  ( 0.000000000000000000, 0.000000000000000000, -186.0000000000000000 ) ) ;
#152 = DIRECTION ( 'NONE',  ( 0.000000000000000000, 1.000000000000000000, 0.000000000000000000 ) ) ;
#153 = DIRECTION ( 'NONE',  ( -0.000000000000000000, -0.000000000000000000, -1.000000000000000000 ) ) ;
#154 = CARTESIAN_POINT ( 'NONE',  ( 16.00000000000000000, -31.50000000000000000, 0.000000000000000000 ) ) ;
#155 = ORIENTED_EDGE ( 'NONE', *, *, #264, .T. ) ;
#156 = CYLINDRICAL_SURFACE ( 'NONE', #728, 1.700000000000000178 ) ;
#157 = DIRECTION ( 'NONE',  ( -0.000000000000000000, -1.000000000000000000, -0.000000000000000000 ) ) ;
#158 = ORIENTED_EDGE ( 'NONE', *, *, #591, .F. ) ;
#159 = DIRECTION ( 'NONE',  ( 0.000000000000000000, 0.000000000000000000, 1.000000000000000000 ) ) ;
#160 = CIRCLE ( 'NONE', #844, 1.700000000000000178 ) ;
#161 = AXIS2_PLACEMENT_3D ( 'NONE', #361, #655, #596 ) ;
#162 = DIRECTION ( 'NONE',  ( 0.000000000000000000, 0.000000000000000000, -1.000000000000000000 ) ) ;
#163 = AXIS2_PLACEMENT_3D ( 'NONE', #86, #381, #529 ) ;
#164 = APPLICATION_PROTOCOL_DEFINITION ( 'international standard', 'config_control_design', 1994, #665 ) ;
#165 = ORIENTED_EDGE ( 'NONE', *, *, #264, .F. ) ;
#166 = EDGE_CURVE ( 'NONE', #919, #748, #66, .T. ) ;
#167 = DIRECTION ( 'NONE',  ( -0.000000000000000000, -1.000000000000000000, -0.000000000000000000 ) ) ;
#168 = CARTESIAN_POINT ( 'NONE',  ( 8.000000000000001776, -31.50000000000000000, 13.85640646055101755 ) ) ;
#169 = LINE ( 'NONE', #457, #269 ) ;
#170 = DIRECTION ( 'NONE',  ( 0.000000000000000000, 1.000000000000000000, 0.000000000000000000 ) ) ;
#171 = APPROVAL ( #793, 'UNSPECIFIED' ) ;
#172 = FACE_OUTER_BOUND ( 'NONE', #675, .T. ) ;
#173 = EDGE_CURVE ( 'NONE', #304, #114, #412, .T. ) ;
#174 = CARTESIAN_POINT ( 'NONE',  ( 8.000000000000001776, -31.50000000000000000, -13.85640646055101755 ) ) ;
#175 =( NAMED_UNIT ( * ) SI_UNIT ( $, .STERADIAN. ) SOLID_ANGLE_UNIT ( ) );
#176 = ADVANCED_FACE ( 'NONE', ( #957 ), #285, .F. ) ;
#177 = AXIS2_PLACEMENT_3D ( 'NONE', #566, #717, #791 ) ;
#178 = ORIENTED_EDGE ( 'NONE', *, *, #249, .F. ) ;
#179 = DIRECTION ( 'NONE',  ( 0.000000000000000000, 1.000000000000000000, 0.000000000000000000 ) ) ;
#180 = EDGE_CURVE ( 'NONE', #189, #773, #872, .T. ) ;
#181 = ORIENTED_EDGE ( 'NONE', *, *, #341, .F. ) ;
#182 = ORIENTED_EDGE ( 'NONE', *, *, #150, .F. ) ;
#183 = PLANE ( 'NONE',  #132 ) ;
#184 = ORIENTED_EDGE ( 'NONE', *, *, #173, .F. ) ;
#185 = ORIENTED_EDGE ( 'NONE', *, *, #824, .F. ) ;
#186 = APPROVAL_ROLE ( '' ) ;
#187 = ORIENTED_EDGE ( 'NONE', *, *, #736, .F. ) ;
#188 = DIRECTION ( 'NONE',  ( 1.000000000000000000, 0.000000000000000000, 0.000000000000000000 ) ) ;
#189 = VERTEX_POINT ( 'NONE', #909 ) ;
#190 = ORIENTED_EDGE ( 'NONE', *, *, #766, .T. ) ;
#191 = CIRCLE ( 'NONE', #745, 1.700000000000000178 ) ;
#192 = FACE_OUTER_BOUND ( 'NONE', #77, .T. ) ;
#193 = EDGE_CURVE ( 'NONE', #808, #432, #38, .T. ) ;
#194 = CC_DESIGN_APPROVAL ( #171, ( #475 ) ) ;
#195 = ORIENTED_EDGE ( 'NONE', *, *, #658, .T. ) ;
#196 = ORIENTED_EDGE ( 'NONE', *, *, #5, .T. ) ;
#197 = ORIENTED_EDGE ( 'NONE', *, *, #209, .T. ) ;
#198 = DIRECTION ( 'NONE',  ( 0.000000000000000000, 0.000000000000000000, 1.000000000000000000 ) ) ;
#199 = VERTEX_POINT ( 'NONE', #213 ) ;
#200 = LINE ( 'NONE', #431, #54 ) ;
#201 = ADVANCED_FACE ( 'NONE', ( #453 ), #145, .F. ) ;
#202 = CARTESIAN_POINT ( 'NONE',  ( -24.00000000000000000, -25.50000000000000000, -180.0000000000000000 ) ) ;
#203 = EDGE_LOOP ( 'NONE', ( #320, #903, #51, #362 ) ) ;
#204 = DIRECTION ( 'NONE',  ( -0.000000000000000000, -0.000000000000000000, -1.000000000000000000 ) ) ;
#205 = DIRECTION ( 'NONE',  ( 0.000000000000000000, 0.000000000000000000, -1.000000000000000000 ) ) ;
#206 = ADVANCED_FACE ( 'NONE', ( #598 ), #967, .F. ) ;
#207 = DIRECTION ( 'NONE',  ( 1.000000000000000000, 0.000000000000000000, 0.000000000000000000 ) ) ;
#208 = VERTEX_POINT ( 'NONE', #295 ) ;
#209 = EDGE_CURVE ( 'NONE', #432, #808, #433, .T. ) ;
#210 = DIRECTION ( 'NONE',  ( 0.000000000000000000, 1.000000000000000000, 0.000000000000000000 ) ) ;
#211 = CARTESIAN_POINT ( 'NONE',  ( 8.000000000000001776, -31.50000000000000000, 12.15640646055101648 ) ) ;
#212 = VERTEX_POINT ( 'NONE', #582 ) ;
#213 = CARTESIAN_POINT ( 'NONE',  ( 24.00000000000000000, -25.50000000000000355, -180.0000000000000000 ) ) ;
#214 = CARTESIAN_POINT ( 'NONE',  ( 0.000000000000000000, -25.50000000000000000, 0.000000000000000000 ) ) ;
#215 = EDGE_LOOP ( 'NONE', ( #181, #197, #195, #724 ) ) ;
#216 = FACE_OUTER_BOUND ( 'NONE', #215, .T. ) ;
#217 = CARTESIAN_POINT ( 'NONE',  ( -24.00000000000000000, -31.50000000000000000, 28.00000000000000000 ) ) ;
#218 = CLOSED_SHELL ( 'NONE', ( #176, #885, #400, #201, #352, #296, #600, #81, #865, #698, #624, #589, #831, #118, #415, #221, #551, #531, #282, #238, #129, #606, #406, #897, #460, #716, #206 ) ) ;
#219 = EDGE_LOOP ( 'NONE', ( #330, #650 ) ) ;
#220 = AXIS2_PLACEMENT_3D ( 'NONE', #392, #276, #943 ) ;
#221 = ADVANCED_FACE ( 'NONE', ( #216 ), #657, .F. ) ;
#222 = CIRCLE ( 'NONE', #764, 3.000000000000000000 ) ;
#223 = DIRECTION ( 'NONE',  ( -0.000000000000000000, -1.000000000000000000, -0.000000000000000000 ) ) ;
#224 = FACE_BOUND ( 'NONE', #42, .T. ) ;
#225 = LOCAL_TIME ( 11, 10, 15.00000000000000000, #701 ) ;
#226 = DIRECTION ( 'NONE',  ( 0.000000000000000000, 1.000000000000000000, 0.000000000000000000 ) ) ;
#227 = ORIENTED_EDGE ( 'NONE', *, *, #939, .F. ) ;
#228 = CARTESIAN_POINT ( 'NONE',  ( 24.00000000000000000, 22.00000000000000000, -186.0000000000000000 ) ) ;
#229 = EDGE_LOOP ( 'NONE', ( #568, #771, #182, #912 ) ) ;
#230 = DIRECTION ( 'NONE',  ( 0.000000000000000000, 0.000000000000000000, -1.000000000000000000 ) ) ;
#231 = PRODUCT_RELATED_PRODUCT_CATEGORY ( 'detail', '', ( #487 ) ) ;
#232 = DIRECTION ( 'NONE',  ( 0.000000000000000000, -0.000000000000000000, 1.000000000000000000 ) ) ;
#233 = ORIENTED_EDGE ( 'NONE', *, *, #882, .F. ) ;
#234 = CARTESIAN_POINT ( 'NONE',  ( 8.000000000000001776, -31.50000000000000000, 13.85640646055101755 ) ) ;
#235 = CARTESIAN_POINT ( 'NONE',  ( 16.00000000000000000, -25.50000000000000000, 1.700000000000000178 ) ) ;
#236 = DIRECTION ( 'NONE',  ( 0.000000000000000000, 1.000000000000000000, 0.000000000000000000 ) ) ;
#237 = VECTOR ( 'NONE', #467, 1000.000000000000000 ) ;
#238 = ADVANCED_FACE ( 'NONE', ( #518 ), #449, .F. ) ;
#239 = VECTOR ( 'NONE', #681, 1000.000000000000000 ) ;
#240 = AXIS2_PLACEMENT_3D ( 'NONE', #494, #942, #272 ) ;
#241 = FACE_OUTER_BOUND ( 'NONE', #559, .T. ) ;
#242 = ORIENTED_EDGE ( 'NONE', *, *, #766, .F. ) ;
#243 = CC_DESIGN_SECURITY_CLASSIFICATION ( #878, ( #826 ) ) ;
#244 = ORIENTED_EDGE ( 'NONE', *, *, #731, .F. ) ;
#245 = CARTESIAN_POINT ( 'NONE',  ( -24.00000000000000000, 22.00000000000000000, -180.0000000000000000 ) ) ;
#246 = CARTESIAN_POINT ( 'NONE',  ( 16.00000000000000000, -25.50000000000000000, 0.000000000000000000 ) ) ;
#247 = DESIGN_CONTEXT ( 'detailed design', #720, 'design' ) ;
#248 = EDGE_CURVE ( 'NONE', #626, #944, #437, .T. ) ;
#249 = EDGE_CURVE ( 'NONE', #944, #75, #270, .T. ) ;
#250 = COORDINATED_UNIVERSAL_TIME_OFFSET ( 5, 30, .AHEAD. ) ;
#251 = AXIS2_PLACEMENT_3D ( 'NONE', #900, #308, #904 ) ;
#252 = ORIENTED_EDGE ( 'NONE', *, *, #52, .F. ) ;
#253 = AXIS2_PLACEMENT_3D ( 'NONE', #940, #562, #120 ) ;
#254 = ORIENTED_EDGE ( 'NONE', *, *, #135, .F. ) ;
#255 = APPROVAL_STATUS ( 'not_yet_approved' ) ;
#256 = AXIS2_PLACEMENT_3D ( 'NONE', #234, #312, #691 ) ;
#257 = LINE ( 'NONE', #348, #661 ) ;
#258 = EDGE_LOOP ( 'NONE', ( #408, #581 ) ) ;
#259 = DIRECTION ( 'NONE',  ( -0.000000000000000000, -1.000000000000000000, -0.000000000000000000 ) ) ;
#260 = DIRECTION ( 'NONE',  ( 0.000000000000000000, 0.000000000000000000, 1.000000000000000000 ) ) ;
#261 = DIRECTION ( 'NONE',  ( 0.000000000000000000, 1.000000000000000000, 0.000000000000000000 ) ) ;
#262 = DIRECTION ( 'NONE',  ( -1.000000000000000000, -0.000000000000000000, -0.000000000000000000 ) ) ;
#263 = ORIENTED_EDGE ( 'NONE', *, *, #68, .F. ) ;
#264 = EDGE_CURVE ( 'NONE', #452, #212, #103, .T. ) ;
#265 = DIRECTION ( 'NONE',  ( 0.000000000000000000, -1.000000000000000000, 0.000000000000000000 ) ) ;
#266 = FACE_OUTER_BOUND ( 'NONE', #879, .T. ) ;
#267 = CARTESIAN_POINT ( 'NONE',  ( -24.00000000000000000, -31.50000000000000000, -186.0000000000000000 ) ) ;
#268 = ORIENTED_EDGE ( 'NONE', *, *, #964, .F. ) ;
#269 = VECTOR ( 'NONE', #84, 1000.000000000000000 ) ;
#270 = CIRCLE ( 'NONE', #445, 1.700000000000000178 ) ;
#271 = PERSON_AND_ORGANIZATION ( #859, #767 ) ;
#272 = DIRECTION ( 'NONE',  ( 0.000000000000000000, 0.000000000000000000, -1.000000000000000000 ) ) ;
#273 = EDGE_LOOP ( 'NONE', ( #155, #376, #187, #185, #742, #374 ) ) ;
#274 = CIRCLE ( 'NONE', #6, 1.700000000000000178 ) ;
#275 = CARTESIAN_POINT ( 'NONE',  ( -16.00000000000000000, -31.50000000000000000, -1.959434878635765131E-15 ) ) ;
#276 = DIRECTION ( 'NONE',  ( 0.000000000000000000, 1.000000000000000000, 0.000000000000000000 ) ) ;
#277 = VERTEX_POINT ( 'NONE', #915 ) ;
#278 = CARTESIAN_POINT ( 'NONE',  ( 8.000000000000001776, -25.50000000000000000, -12.15640646055101648 ) ) ;
#279 = ORIENTED_EDGE ( 'NONE', *, *, #248, .F. ) ;
#280 = EDGE_CURVE ( 'NONE', #899, #277, #366, .T. ) ;
#281 = DIRECTION ( 'NONE',  ( 0.000000000000000000, 1.000000000000000000, 0.000000000000000000 ) ) ;
#282 = ADVANCED_FACE ( 'NONE', ( #172 ), #28, .F. ) ;
#283 = LINE ( 'NONE', #958, #463 ) ;
#284 = ORIENTED_EDGE ( 'NONE', *, *, #654, .T. ) ;
#285 = CYLINDRICAL_SURFACE ( 'NONE', #322, 3.000000000000000000 ) ;
#286 = DIRECTION ( 'NONE',  ( -0.000000000000000000, 1.000000000000000000, -0.000000000000000000 ) ) ;
#287 = VECTOR ( 'NONE', #378, 1000.000000000000000 ) ;
#288 = CARTESIAN_POINT ( 'NONE',  ( 24.00000000000000000, -31.50000000000000000, 28.00000000000000000 ) ) ;
#289 = VECTOR ( 'NONE', #541, 1000.000000000000000 ) ;
#290 = ORIENTED_EDGE ( 'NONE', *, *, #357, .T. ) ;
#291 = LOCAL_TIME ( 11, 10, 15.00000000000000000, #115 ) ;
#292 = DIRECTION ( 'NONE',  ( 0.000000000000000000, 1.000000000000000000, 0.000000000000000000 ) ) ;
#293 = CARTESIAN_POINT ( 'NONE',  ( 8.000000000000001776, -31.50000000000000000, 15.55640646055101683 ) ) ;
#294 = EDGE_LOOP ( 'NONE', ( #530, #871 ) ) ;
#295 = CARTESIAN_POINT ( 'NONE',  ( -7.999999999999996447, -31.50000000000000000, -15.55640646055101861 ) ) ;
#296 = ADVANCED_FACE ( 'NONE', ( #849 ), #156, .F. ) ;
#297 = DIRECTION ( 'NONE',  ( 0.000000000000000000, 1.000000000000000000, 0.000000000000000000 ) ) ;
#298 = ORIENTED_EDGE ( 'NONE', *, *, #658, .F. ) ;
#299 = EDGE_CURVE ( 'NONE', #970, #75, #616, .T. ) ;
#300 = FACE_OUTER_BOUND ( 'NONE', #880, .T. ) ;
#301 = ORIENTED_EDGE ( 'NONE', *, *, #394, .F. ) ;
#302 = DIRECTION ( 'NONE',  ( 0.000000000000000000, 0.000000000000000000, 1.000000000000000000 ) ) ;
#303 = CARTESIAN_POINT ( 'NONE',  ( 24.00000000000000000, -25.50000000000000000, 28.00000000000000000 ) ) ;
#304 = VERTEX_POINT ( 'NONE', #98 ) ;
#305 = PERSON_AND_ORGANIZATION ( #859, #767 ) ;
#306 = AXIS2_PLACEMENT_3D ( 'NONE', #174, #105, #709 ) ;
#307 = VERTEX_POINT ( 'NONE', #545 ) ;
#308 = DIRECTION ( 'NONE',  ( 0.000000000000000000, 1.000000000000000000, 0.000000000000000000 ) ) ;
#309 = AXIS2_PLACEMENT_3D ( 'NONE', #619, #458, #613 ) ;
#310 = DIRECTION ( 'NONE',  ( -1.000000000000000000, 0.000000000000000000, 0.000000000000000000 ) ) ;
#311 = LINE ( 'NONE', #119, #396 ) ;
#312 = DIRECTION ( 'NONE',  ( 0.000000000000000000, 1.000000000000000000, 0.000000000000000000 ) ) ;
#313 = DIRECTION ( 'NONE',  ( 0.000000000000000000, 0.000000000000000000, 1.000000000000000000 ) ) ;
#314 = PLANE ( 'NONE',  #309 ) ;
#315 = EDGE_CURVE ( 'NONE', #439, #208, #536, .T. ) ;
#316 = DIRECTION ( 'NONE',  ( 0.000000000000000000, 1.000000000000000000, 0.000000000000000000 ) ) ;
#317 = DIRECTION ( 'NONE',  ( 0.000000000000000000, 1.000000000000000000, 0.000000000000000000 ) ) ;
#318 = ORIENTED_EDGE ( 'NONE', *, *, #612, .T. ) ;
#319 = FACE_OUTER_BOUND ( 'NONE', #92, .T. ) ;
#320 = ORIENTED_EDGE ( 'NONE', *, *, #501, .T. ) ;
#321 = DIRECTION ( 'NONE',  ( -0.000000000000000000, -1.000000000000000000, -0.000000000000000000 ) ) ;
#322 = AXIS2_PLACEMENT_3D ( 'NONE', #652, #811, #514 ) ;
#323 = CYLINDRICAL_SURFACE ( 'NONE', #549, 1.700000000000000178 ) ;
#324 = CIRCLE ( 'NONE', #369, 1.700000000000000178 ) ;
#325 = LINE ( 'NONE', #245, #552 ) ;
#326 = EDGE_CURVE ( 'NONE', #739, #404, #521, .T. ) ;
#327 = ORIENTED_EDGE ( 'NONE', *, *, #501, .F. ) ;
#328 = LINE ( 'NONE', #13, #398 ) ;
#329 = EDGE_CURVE ( 'NONE', #773, #843, #328, .T. ) ;
#330 = ORIENTED_EDGE ( 'NONE', *, *, #371, .T. ) ;
#331 = APPROVAL_STATUS ( 'not_yet_approved' ) ;
#332 = CIRCLE ( 'NONE', #471, 1.700000000000000178 ) ;
#333 = AXIS2_PLACEMENT_3D ( 'NONE', #911, #83, #232 ) ;
#334 = VECTOR ( 'NONE', #894, 1000.000000000000000 ) ;
#335 = ORIENTED_EDGE ( 'NONE', *, *, #99, .F. ) ;
#336 = APPROVAL_DATE_TIME ( #854, #888 ) ;
#337 = VERTEX_POINT ( 'NONE', #472 ) ;
#338 = APPROVAL_PERSON_ORGANIZATION ( #497, #888, #620 ) ;
#339 = LINE ( 'NONE', #725, #963 ) ;
#340 = FACE_OUTER_BOUND ( 'NONE', #229, .T. ) ;
#341 = EDGE_CURVE ( 'NONE', #432, #933, #923, .T. ) ;
#342 = CARTESIAN_POINT ( 'NONE',  ( 16.00000000000000000, -31.50000000000000000, -1.700000000000000178 ) ) ;
#343 = EDGE_LOOP ( 'NONE', ( #158, #864 ) ) ;
#344 = ORIENTED_EDGE ( 'NONE', *, *, #572, .F. ) ;
#345 = DIRECTION ( 'NONE',  ( 0.000000000000000000, 0.000000000000000000, 1.000000000000000000 ) ) ;
#346 = EDGE_LOOP ( 'NONE', ( #447, #93, #975, #35 ) ) ;
#347 = EDGE_LOOP ( 'NONE', ( #632, #528 ) ) ;
#348 = CARTESIAN_POINT ( 'NONE',  ( 24.00000000000000000, 22.00000000000000000, -180.0000000000000000 ) ) ;
#349 = LINE ( 'NONE', #642, #473 ) ;
#350 = AXIS2_PLACEMENT_3D ( 'NONE', #533, #310, #461 ) ;
#351 = AXIS2_PLACEMENT_3D ( 'NONE', #802, #31, #721 ) ;
#352 = ADVANCED_FACE ( 'NONE', ( #95 ), #455, .F. ) ;
#353 = LOCAL_TIME ( 11, 10, 15.00000000000000000, #250 ) ;
#354 = DIRECTION ( 'NONE',  ( 1.000000000000000000, -0.000000000000000000, -0.000000000000000000 ) ) ;
#355 = VERTEX_POINT ( 'NONE', #14 ) ;
#356 = DIRECTION ( 'NONE',  ( 0.000000000000000000, 1.000000000000000000, 0.000000000000000000 ) ) ;
#357 = EDGE_CURVE ( 'NONE', #462, #337, #930, .T. ) ;
#358 = DIRECTION ( 'NONE',  ( 1.000000000000000000, 0.000000000000000000, 0.000000000000000000 ) ) ;
#359 = ORIENTED_EDGE ( 'NONE', *, *, #299, .T. ) ;
#360 = DIRECTION ( 'NONE',  ( 0.000000000000000000, 0.000000000000000000, -1.000000000000000000 ) ) ;
#361 = CARTESIAN_POINT ( 'NONE',  ( 0.000000000000000000, -27.69999999999999929, 0.000000000000000000 ) ) ;
#362 = ORIENTED_EDGE ( 'NONE', *, *, #5, .F. ) ;
#363 = CARTESIAN_POINT ( 'NONE',  ( -8.000000000000007105, -25.50000000000000000, 13.85640646055101577 ) ) ;
#364 = FACE_OUTER_BOUND ( 'NONE', #513, .T. ) ;
#365 = CARTESIAN_POINT ( 'NONE',  ( -16.00000000000000000, -31.50000000000000000, 1.699999999999998179 ) ) ;
#366 = CIRCLE ( 'NONE', #920, 1.700000000000000178 ) ;
#367 = ORIENTED_EDGE ( 'NONE', *, *, #280, .T. ) ;
#368 = AXIS2_PLACEMENT_3D ( 'NONE', #599, #510, #519 ) ;
#369 = AXIS2_PLACEMENT_3D ( 'NONE', #677, #170, #913 ) ;
#370 = CARTESIAN_POINT ( 'NONE',  ( -24.00000000000000000, -25.50000000000000000, 28.00000000000000000 ) ) ;
#371 = EDGE_CURVE ( 'NONE', #753, #861, #160, .T. ) ;
#372 = LINE ( 'NONE', #833, #237 ) ;
#373 = CARTESIAN_POINT ( 'NONE',  ( 4.898587196589412829E-16, -25.50000000000000000, 4.000000000000000000 ) ) ;
#374 = ORIENTED_EDGE ( 'NONE', *, *, #868, .T. ) ;
#375 = LINE ( 'NONE', #740, #287 ) ;
#376 = ORIENTED_EDGE ( 'NONE', *, *, #36, .F. ) ;
#377 = CARTESIAN_POINT ( 'NONE',  ( 16.00000000000000000, -25.50000000000000000, -1.700000000000000178 ) ) ;
#378 = DIRECTION ( 'NONE',  ( 1.000000000000000000, 0.000000000000000000, 0.000000000000000000 ) ) ;
#379 = FACE_OUTER_BOUND ( 'NONE', #125, .T. ) ;
#380 = ORIENTED_EDGE ( 'NONE', *, *, #425, .T. ) ;
#381 = DIRECTION ( 'NONE',  ( 0.000000000000000000, 1.000000000000000000, 0.000000000000000000 ) ) ;
#382 = EDGE_LOOP ( 'NONE', ( #928, #268, #7, #500 ) ) ;
#383 = VECTOR ( 'NONE', #402, 1000.000000000000000 ) ;
#384 = AXIS2_PLACEMENT_3D ( 'NONE', #411, #39, #706 ) ;
#385 = CARTESIAN_POINT ( 'NONE',  ( 0.000000000000000000, -27.69999999999999929, 0.000000000000000000 ) ) ;
#386 = VECTOR ( 'NONE', #69, 1000.000000000000000 ) ;
#387 = CARTESIAN_POINT ( 'NONE',  ( 8.000000000000001776, -25.50000000000000000, 15.55640646055101683 ) ) ;
#388 = EDGE_CURVE ( 'NONE', #922, #670, #18, .T. ) ;
#389 = CARTESIAN_POINT ( 'NONE',  ( 3.000000000000000000, 3.673940397442059868E-16, -180.0000000000000000 ) ) ;
#390 = DIRECTION ( 'NONE',  ( 0.000000000000000000, 1.000000000000000000, 0.000000000000000000 ) ) ;
#391 = DIRECTION ( 'NONE',  ( 0.000000000000000000, 0.000000000000000000, -1.000000000000000000 ) ) ;
#392 = CARTESIAN_POINT ( 'NONE',  ( 0.000000000000000000, -27.69999999999999929, 0.000000000000000000 ) ) ;
#393 = CARTESIAN_POINT ( 'NONE',  ( -7.999999999999996447, -25.50000000000000000, -15.55640646055101861 ) ) ;
#394 = EDGE_CURVE ( 'NONE', #626, #970, #640, .T. ) ;
#395 = DIRECTION ( 'NONE',  ( -0.000000000000000000, -0.000000000000000000, -1.000000000000000000 ) ) ;
#396 = VECTOR ( 'NONE', #204, 1000.000000000000000 ) ;
#397 = CARTESIAN_POINT ( 'NONE',  ( -8.000000000000007105, -25.50000000000000000, 12.15640646055101470 ) ) ;
#398 = VECTOR ( 'NONE', #321, 1000.000000000000000 ) ;
#399 = FACE_OUTER_BOUND ( 'NONE', #823, .T. ) ;
#400 = ADVANCED_FACE ( 'NONE', ( #241 ), #323, .F. ) ;
#401 = APPLICATION_PROTOCOL_DEFINITION ( 'international standard', 'config_control_design', 1994, #720 ) ;
#402 = DIRECTION ( 'NONE',  ( 0.000000000000000000, 0.000000000000000000, 1.000000000000000000 ) ) ;
#403 = CC_DESIGN_DATE_AND_TIME_ASSIGNMENT ( #945, #564, ( #878 ) ) ;
#404 = VERTEX_POINT ( 'NONE', #832 ) ;
#405 = PERSON_AND_ORGANIZATION_ROLE ( 'design_supplier' ) ;
#406 = ADVANCED_FACE ( 'NONE', ( #465, #399 ), #769, .T. ) ;
#407 = FACE_BOUND ( 'NONE', #887, .T. ) ;
#408 = ORIENTED_EDGE ( 'NONE', *, *, #935, .T. ) ;
#409 = EDGE_LOOP ( 'NONE', ( #426, #805, #973, #635 ) ) ;
#410 = CALENDAR_DATE ( 2026, 24, 9 ) ;
#411 = CARTESIAN_POINT ( 'NONE',  ( -16.00000000000000000, -31.50000000000000000, -1.959434878635765131E-15 ) ) ;
#412 = CIRCLE ( 'NONE', #960, 3.000000000000000000 ) ;
#413 = VECTOR ( 'NONE', #61, 1000.000000000000000 ) ;
#414 = ORIENTED_EDGE ( 'NONE', *, *, #841, .F. ) ;
#415 = ADVANCED_FACE ( 'NONE', ( #379 ), #4, .F. ) ;
#416 = PERSON_AND_ORGANIZATION ( #859, #767 ) ;
#417 = CC_DESIGN_APPROVAL ( #85, ( #878 ) ) ;
#418 = LINE ( 'NONE', #571, #643 ) ;
#419 = DIRECTION ( 'NONE',  ( 0.000000000000000000, 1.000000000000000000, 0.000000000000000000 ) ) ;
#420 = LINE ( 'NONE', #303, #813 ) ;
#421 = CARTESIAN_POINT ( 'NONE',  ( -24.00000000000000000, 22.00000000000000000, -180.0000000000000000 ) ) ;
#422 = ORIENTED_EDGE ( 'NONE', *, *, #690, .T. ) ;
#423 = DIRECTION ( 'NONE',  ( -1.000000000000000000, 0.000000000000000000, -0.000000000000000000 ) ) ;
#424 = EDGE_LOOP ( 'NONE', ( #784, #827, #149, #895 ) ) ;
#425 = EDGE_CURVE ( 'NONE', #899, #753, #537, .T. ) ;
#426 = ORIENTED_EDGE ( 'NONE', *, *, #736, .T. ) ;
#427 = EDGE_LOOP ( 'NONE', ( #704, #575 ) ) ;
#428 = FACE_BOUND ( 'NONE', #959, .T. ) ;
#429 = VERTEX_POINT ( 'NONE', #760 ) ;
#430 = EDGE_CURVE ( 'NONE', #277, #861, #90, .T. ) ;
#431 = CARTESIAN_POINT ( 'NONE',  ( 8.000000000000001776, -25.50000000000000000, -15.55640646055101683 ) ) ;
#432 = VERTEX_POINT ( 'NONE', #235 ) ;
#433 = CIRCLE ( 'NONE', #251, 1.700000000000000178 ) ;
#434 = AXIS2_PLACEMENT_3D ( 'NONE', #543, #16, #682 ) ;
#435 = DIRECTION ( 'NONE',  ( 0.000000000000000000, 0.000000000000000000, 1.000000000000000000 ) ) ;
#436 = ORIENTED_EDGE ( 'NONE', *, *, #193, .F. ) ;
#437 = LINE ( 'NONE', #734, #413 ) ;
#438 = DIRECTION ( 'NONE',  ( 0.000000000000000000, 0.000000000000000000, -1.000000000000000000 ) ) ;
#439 = VERTEX_POINT ( 'NONE', #9 ) ;
#440 = DIRECTION ( 'NONE',  ( -1.000000000000000000, 0.000000000000000000, 0.000000000000000000 ) ) ;
#441 = DIRECTION ( 'NONE',  ( -0.000000000000000000, -1.000000000000000000, -0.000000000000000000 ) ) ;
#442 = ORIENTED_EDGE ( 'NONE', *, *, #329, .T. ) ;
#443 = EDGE_CURVE ( 'NONE', #819, #429, #71, .T. ) ;
#444 = DIRECTION ( 'NONE',  ( 1.000000000000000000, 0.000000000000000000, 0.000000000000000000 ) ) ;
#445 = AXIS2_PLACEMENT_3D ( 'NONE', #509, #316, #699 ) ;
#446 = CARTESIAN_POINT ( 'NONE',  ( -24.00000000000000000, -25.50000000000000000, -180.0000000000000000 ) ) ;
#447 = ORIENTED_EDGE ( 'NONE', *, *, #591, .T. ) ;
#448 = LOCAL_TIME ( 11, 10, 15.00000000000000000, #27 ) ;
#449 = CYLINDRICAL_SURFACE ( 'NONE', #660, 1.700000000000000178 ) ;
#450 = FACE_OUTER_BOUND ( 'NONE', #835, .T. ) ;
#451 = DIRECTION ( 'NONE',  ( 0.000000000000000000, 1.000000000000000000, 0.000000000000000000 ) ) ;
#452 = VERTEX_POINT ( 'NONE', #267 ) ;
#453 = FACE_OUTER_BOUND ( 'NONE', #424, .T. ) ;
#454 = DIRECTION ( 'NONE',  ( -0.000000000000000000, -1.000000000000000000, -0.000000000000000000 ) ) ;
#455 = CYLINDRICAL_SURFACE ( 'NONE', #21, 1.700000000000000178 ) ;
#456 = EDGE_CURVE ( 'NONE', #563, #933, #905, .T. ) ;
#457 = CARTESIAN_POINT ( 'NONE',  ( -24.00000000000000000, -25.50000000000000000, 28.00000000000000000 ) ) ;
#458 = DIRECTION ( 'NONE',  ( 0.000000000000000000, 0.000000000000000000, -1.000000000000000000 ) ) ;
#459 = VERTEX_POINT ( 'NONE', #502 ) ;
#460 = ADVANCED_FACE ( 'NONE', ( #800, #123 ), #869, .T. ) ;
#461 = DIRECTION ( 'NONE',  ( 0.000000000000000000, 0.000000000000000000, 1.000000000000000000 ) ) ;
#462 = VERTEX_POINT ( 'NONE', #812 ) ;
#463 = VECTOR ( 'NONE', #818, 1000.000000000000000 ) ;
#464 = VECTOR ( 'NONE', #971, 1000.000000000000000 ) ;
#465 = FACE_BOUND ( 'NONE', #535, .T. ) ;
#466 = ORIENTED_EDGE ( 'NONE', *, *, #68, .T. ) ;
#467 = DIRECTION ( 'NONE',  ( -0.000000000000000000, -1.000000000000000000, -0.000000000000000000 ) ) ;
#468 = DIRECTION ( 'NONE',  ( 0.000000000000000000, 0.000000000000000000, 1.000000000000000000 ) ) ;
#469 = DIRECTION ( 'NONE',  ( 0.000000000000000000, 0.000000000000000000, -1.000000000000000000 ) ) ;
#470 = CARTESIAN_POINT ( 'NONE',  ( 0.000000000000000000, 0.000000000000000000, 0.000000000000000000 ) ) ;
#471 = AXIS2_PLACEMENT_3D ( 'NONE', #275, #883, #638 ) ;
#472 = CARTESIAN_POINT ( 'NONE',  ( 8.000000000000001776, -25.50000000000000000, -15.55640646055101683 ) ) ;
#473 = VECTOR ( 'NONE', #262, 1000.000000000000000 ) ;
#474 = AXIS2_PLACEMENT_3D ( 'NONE', #938, #627, #932 ) ;
#475 = PRODUCT_DEFINITION ( 'UNKNOWN', '', #826, #247 ) ;
#476 = ORIENTED_EDGE ( 'NONE', *, *, #806, .F. ) ;
#477 = CARTESIAN_POINT ( 'NONE',  ( -16.00000000000000000, -25.50000000000000000, -1.959434878635765131E-15 ) ) ;
#478 = VERTEX_POINT ( 'NONE', #46 ) ;
#479 = EDGE_LOOP ( 'NONE', ( #137, #290, #505, #683 ) ) ;
#480 = COORDINATED_UNIVERSAL_TIME_OFFSET ( 5, 30, .AHEAD. ) ;
#481 = VERTEX_POINT ( 'NONE', #50 ) ;
#482 = DIRECTION ( 'NONE',  ( -0.000000000000000000, -1.000000000000000000, -0.000000000000000000 ) ) ;
#483 = VERTEX_POINT ( 'NONE', #797 ) ;
#484 = EDGE_CURVE ( 'NONE', #686, #689, #349, .T. ) ;
#485 = ORIENTED_EDGE ( 'NONE', *, *, #443, .F. ) ;
#486 = CARTESIAN_POINT ( 'NONE',  ( -8.000000000000007105, -25.50000000000000000, 15.55640646055101506 ) ) ;
#487 = PRODUCT ( 'JX1_Forearm_R', 'JX1_Forearm_R', '', ( #763 ) ) ;
#488 = FACE_OUTER_BOUND ( 'NONE', #479, .T. ) ;
#489 = AXIS2_PLACEMENT_3D ( 'NONE', #755, #226, #313 ) ;
#490 = CIRCLE ( 'NONE', #161, 12.15000000000000036 ) ;
#491 = ORIENTED_EDGE ( 'NONE', *, *, #868, .F. ) ;
#492 = CALENDAR_DATE ( 2026, 24, 9 ) ;
#493 = CIRCLE ( 'NONE', #163, 4.000000000000000000 ) ;
#494 = CARTESIAN_POINT ( 'NONE',  ( 0.000000000000000000, -25.50000000000000000, 0.000000000000000000 ) ) ;
#495 = EDGE_LOOP ( 'NONE', ( #491, #614, #684, #726 ) ) ;
#496 = VERTEX_POINT ( 'NONE', #884 ) ;
#497 = PERSON_AND_ORGANIZATION ( #859, #767 ) ;
#498 = EDGE_CURVE ( 'NONE', #337, #629, #200, .T. ) ;
#499 = CARTESIAN_POINT ( 'NONE',  ( -7.999999999999996447, -25.50000000000000000, -12.15640646055101826 ) ) ;
#500 = ORIENTED_EDGE ( 'NONE', *, *, #841, .T. ) ;
#501 = EDGE_CURVE ( 'NONE', #481, #355, #708, .T. ) ;
#502 = CARTESIAN_POINT ( 'NONE',  ( -7.999999999999996447, -25.50000000000000000, -12.15640646055101826 ) ) ;
#503 = ORIENTED_EDGE ( 'NONE', *, *, #972, .F. ) ;
#504 = LINE ( 'NONE', #649, #586 ) ;
#505 = ORIENTED_EDGE ( 'NONE', *, *, #498, .T. ) ;
#506 = CYLINDRICAL_SURFACE ( 'NONE', #630, 1.700000000000000178 ) ;
#507 = DIRECTION ( 'NONE',  ( -0.000000000000000000, -1.000000000000000000, -0.000000000000000000 ) ) ;
#508 = ORIENTED_EDGE ( 'NONE', *, *, #357, .F. ) ;
#509 = CARTESIAN_POINT ( 'NONE',  ( -8.000000000000007105, -31.50000000000000000, 13.85640646055101577 ) ) ;
#510 = DIRECTION ( 'NONE',  ( 0.000000000000000000, 1.000000000000000000, 0.000000000000000000 ) ) ;
#511 = EDGE_CURVE ( 'NONE', #307, #208, #191, .T. ) ;
#512 = CARTESIAN_POINT ( 'NONE',  ( 0.000000000000000000, 0.000000000000000000, -180.0000000000000000 ) ) ;
#513 = EDGE_LOOP ( 'NONE', ( #776, #485, #524, #678 ) ) ;
#514 = DIRECTION ( 'NONE',  ( -1.000000000000000000, 0.000000000000000000, 0.000000000000000000 ) ) ;
#515 = FACE_OUTER_BOUND ( 'NONE', #64, .T. ) ;
#516 = CARTESIAN_POINT ( 'NONE',  ( -24.00000000000000000, -31.50000000000000000, -186.0000000000000000 ) ) ;
#517 = ORIENTED_EDGE ( 'NONE', *, *, #651, .T. ) ;
#518 = FACE_OUTER_BOUND ( 'NONE', #32, .T. ) ;
#519 = DIRECTION ( 'NONE',  ( 0.000000000000000000, -0.000000000000000000, 1.000000000000000000 ) ) ;
#520 = AXIS2_PLACEMENT_3D ( 'NONE', #780, #261, #850 ) ;
#521 = CIRCLE ( 'NONE', #692, 3.000000000000000000 ) ;
#522 = CARTESIAN_POINT ( 'NONE',  ( 24.00000000000000000, 22.00000000000000000, -180.0000000000000000 ) ) ;
#523 = AXIS2_PLACEMENT_3D ( 'NONE', #952, #179, #198 ) ;
#524 = ORIENTED_EDGE ( 'NONE', *, *, #135, .T. ) ;
#525 = AXIS2_PLACEMENT_3D ( 'NONE', #512, #63, #139 ) ;
#526 = DIRECTION ( 'NONE',  ( -0.000000000000000000, -0.000000000000000000, -1.000000000000000000 ) ) ;
#527 = FACE_BOUND ( 'NONE', #258, .T. ) ;
#528 = ORIENTED_EDGE ( 'NONE', *, *, #700, .F. ) ;
#529 = DIRECTION ( 'NONE',  ( 0.000000000000000000, 0.000000000000000000, 1.000000000000000000 ) ) ;
#530 = ORIENTED_EDGE ( 'NONE', *, *, #65, .T. ) ;
#531 = ADVANCED_FACE ( 'NONE', ( #889 ), #653, .F. ) ;
#532 = FACE_BOUND ( 'NONE', #294, .T. ) ;
#533 = CARTESIAN_POINT ( 'NONE',  ( 24.00000000000000000, -25.50000000000000000, 28.00000000000000000 ) ) ;
#534 =( LENGTH_UNIT ( ) NAMED_UNIT ( * ) SI_UNIT ( .MILLI., .METRE. ) );
#535 = EDGE_LOOP ( 'NONE', ( #327, #476 ) ) ;
#536 = LINE ( 'NONE', #393, #855 ) ;
#537 = LINE ( 'NONE', #916, #875 ) ;
#538 = EDGE_LOOP ( 'NONE', ( #60, #55, #553, #79 ) ) ;
#539 = AXIS2_PLACEMENT_3D ( 'NONE', #777, #167, #546 ) ;
#540 = CC_DESIGN_APPROVAL ( #888, ( #826 ) ) ;
#541 = DIRECTION ( 'NONE',  ( -0.000000000000000000, -1.000000000000000000, -0.000000000000000000 ) ) ;
#542 = ORIENTED_EDGE ( 'NONE', *, *, #425, .F. ) ;
#543 = CARTESIAN_POINT ( 'NONE',  ( 0.000000000000000000, -27.69999999999999929, 0.000000000000000000 ) ) ;
#544 = ORIENTED_EDGE ( 'NONE', *, *, #783, .F. ) ;
#545 = CARTESIAN_POINT ( 'NONE',  ( -7.999999999999996447, -31.50000000000000000, -12.15640646055101826 ) ) ;
#546 = DIRECTION ( 'NONE',  ( 0.000000000000000000, 0.000000000000000000, -1.000000000000000000 ) ) ;
#547 = PERSON_AND_ORGANIZATION_ROLE ( 'creator' ) ;
#548 = CARTESIAN_POINT ( 'NONE',  ( 8.000000000000001776, -31.50000000000000000, -15.55640646055101683 ) ) ;
#549 = AXIS2_PLACEMENT_3D ( 'NONE', #779, #608, #162 ) ;
#550 = AXIS2_PLACEMENT_3D ( 'NONE', #477, #787, #857 ) ;
#551 = ADVANCED_FACE ( 'NONE', ( #488 ), #506, .F. ) ;
#552 = VECTOR ( 'NONE', #395, 1000.000000000000000 ) ;
#553 = ORIENTED_EDGE ( 'NONE', *, *, #315, .T. ) ;
#554 = DATE_TIME_ROLE ( 'creation_date' ) ;
#555 = CARTESIAN_POINT ( 'NONE',  ( -24.00000000000000000, -25.50000000000000000, -180.0000000000000000 ) ) ;
#556 = EDGE_CURVE ( 'NONE', #429, #670, #558, .T. ) ;
#557 = EDGE_LOOP ( 'NONE', ( #891, #839 ) ) ;
#558 = LINE ( 'NONE', #862, #810 ) ;
#559 = EDGE_LOOP ( 'NONE', ( #367, #131, #953, #542 ) ) ;
#560 = ORIENTED_EDGE ( 'NONE', *, *, #193, .T. ) ;
#561 = FACE_BOUND ( 'NONE', #602, .T. ) ;
#562 = DIRECTION ( 'NONE',  ( 0.000000000000000000, 1.000000000000000000, 0.000000000000000000 ) ) ;
#563 = VERTEX_POINT ( 'NONE', #342 ) ;
#564 = DATE_TIME_ROLE ( 'classification_date' ) ;
#565 = FACE_BOUND ( 'NONE', #347, .T. ) ;
#566 = CARTESIAN_POINT ( 'NONE',  ( 16.00000000000000000, -31.50000000000000000, 0.000000000000000000 ) ) ;
#567 = EDGE_LOOP ( 'NONE', ( #335, #301 ) ) ;
#568 = ORIENTED_EDGE ( 'NONE', *, *, #783, .T. ) ;
#569 = DATE_AND_TIME ( #410, #847 ) ;
#570 = APPROVAL_PERSON_ORGANIZATION ( #719, #85, #705 ) ;
#571 = CARTESIAN_POINT ( 'NONE',  ( 16.00000000000000000, -25.50000000000000000, -1.700000000000000178 ) ) ;
#572 = EDGE_CURVE ( 'NONE', #629, #673, #762, .T. ) ;
#573 = ORIENTED_EDGE ( 'NONE', *, *, #809, .F. ) ;
#574 = ORIENTED_EDGE ( 'NONE', *, *, #612, .F. ) ;
#575 = ORIENTED_EDGE ( 'NONE', *, *, #778, .F. ) ;
#576 = FACE_OUTER_BOUND ( 'NONE', #273, .T. ) ;
#577 = ORIENTED_EDGE ( 'NONE', *, *, #456, .T. ) ;
#578 = CC_DESIGN_PERSON_AND_ORGANIZATION_ASSIGNMENT ( #713, #625, ( #878 ) ) ;
#579 = DIRECTION ( 'NONE',  ( 0.000000000000000000, 0.000000000000000000, 1.000000000000000000 ) ) ;
#580 = DIRECTION ( 'NONE',  ( -0.000000000000000000, -0.000000000000000000, -1.000000000000000000 ) ) ;
#581 = ORIENTED_EDGE ( 'NONE', *, *, #770, .T. ) ;
#582 = CARTESIAN_POINT ( 'NONE',  ( -24.00000000000000000, -31.50000000000000000, 28.00000000000000000 ) ) ;
#583 = DIRECTION ( 'NONE',  ( 0.000000000000000000, 0.000000000000000000, -1.000000000000000000 ) ) ;
#584 = EDGE_CURVE ( 'NONE', #919, #199, #420, .T. ) ;
#585 = AXIS2_PLACEMENT_3D ( 'NONE', #669, #526, #440 ) ;
#586 = VECTOR ( 'NONE', #587, 1000.000000000000000 ) ;
#587 = DIRECTION ( 'NONE',  ( 0.000000000000000000, 0.000000000000000000, -1.000000000000000000 ) ) ;
#588 = ORIENTED_EDGE ( 'NONE', *, *, #326, .T. ) ;
#589 = ADVANCED_FACE ( 'NONE', ( #515, #224, #821, #836, #88, #532, #817, #527 ), #73, .F. ) ;
#590 = DIRECTION ( 'NONE',  ( -0.000000000000000000, -1.000000000000000000, -0.000000000000000000 ) ) ;
#591 = EDGE_CURVE ( 'NONE', #439, #459, #876, .T. ) ;
#592 = DIRECTION ( 'NONE',  ( 0.000000000000000000, 0.000000000000000000, 1.000000000000000000 ) ) ;
#593 = ORIENTED_EDGE ( 'NONE', *, *, #456, .F. ) ;
#594 = CYLINDRICAL_SURFACE ( 'NONE', #34, 1.700000000000000178 ) ;
#595 = ORIENTED_EDGE ( 'NONE', *, *, #20, .T. ) ;
#596 = DIRECTION ( 'NONE',  ( 0.000000000000000000, 0.000000000000000000, 1.000000000000000000 ) ) ;
#597 = ORIENTED_EDGE ( 'NONE', *, *, #341, .T. ) ;
#598 = FACE_OUTER_BOUND ( 'NONE', #788, .T. ) ;
#599 = CARTESIAN_POINT ( 'NONE',  ( 0.000000000000000000, -31.50000000000000000, 0.000000000000000000 ) ) ;
#600 = ADVANCED_FACE ( 'NONE', ( #450 ), #750, .F. ) ;
#601 = CARTESIAN_POINT ( 'NONE',  ( 8.000000000000001776, -25.50000000000000000, 12.15640646055101648 ) ) ;
#602 = EDGE_LOOP ( 'NONE', ( #12, #227 ) ) ;
#603 = AXIS2_PLACEMENT_3D ( 'NONE', #907, #236, #607 ) ;
#604 = CARTESIAN_POINT ( 'NONE',  ( 16.00000000000000000, -25.50000000000000000, 0.000000000000000000 ) ) ;
#605 = CYLINDRICAL_SURFACE ( 'NONE', #948, 12.15000000000000036 ) ;
#606 = ADVANCED_FACE ( 'NONE', ( #364 ), #605, .F. ) ;
#607 = DIRECTION ( 'NONE',  ( 0.000000000000000000, 0.000000000000000000, 1.000000000000000000 ) ) ;
#608 = DIRECTION ( 'NONE',  ( -0.000000000000000000, -1.000000000000000000, -0.000000000000000000 ) ) ;
#609 = CARTESIAN_POINT ( 'NONE',  ( -8.000000000000007105, -31.50000000000000000, 15.55640646055101506 ) ) ;
#610 = DIRECTION ( 'NONE',  ( -0.000000000000000000, -1.000000000000000000, -0.000000000000000000 ) ) ;
#611 = DIRECTION ( 'NONE',  ( 0.000000000000000000, 0.000000000000000000, 1.000000000000000000 ) ) ;
#612 = EDGE_CURVE ( 'NONE', #337, #462, #846, .T. ) ;
#613 = DIRECTION ( 'NONE',  ( -1.000000000000000000, 0.000000000000000000, -0.000000000000000000 ) ) ;
#614 = ORIENTED_EDGE ( 'NONE', *, *, #751, .F. ) ;
#615 = AXIS2_PLACEMENT_3D ( 'NONE', #41, #804, #423 ) ;
#616 = LINE ( 'NONE', #397, #947 ) ;
#617 = AXIS2_PLACEMENT_3D ( 'NONE', #752, #78, #435 ) ;
#618 = DIRECTION ( 'NONE',  ( 0.000000000000000000, 0.000000000000000000, -1.000000000000000000 ) ) ;
#619 = CARTESIAN_POINT ( 'NONE',  ( 0.000000000000000000, 0.000000000000000000, -180.0000000000000000 ) ) ;
#620 = APPROVAL_ROLE ( '' ) ;
#621 = CARTESIAN_POINT ( 'NONE',  ( -7.999999999999996447, -25.50000000000000000, -13.85640646055101932 ) ) ;
#622 = ORIENTED_EDGE ( 'NONE', *, *, #824, .T. ) ;
#623 = EDGE_LOOP ( 'NONE', ( #436, #722 ) ) ;
#624 = ADVANCED_FACE ( 'NONE', ( #428, #561, #565, #407, #702, #639, #799, #637 ), #112, .T. ) ;
#625 = PERSON_AND_ORGANIZATION_ROLE ( 'classification_officer' ) ;
#626 = VERTEX_POINT ( 'NONE', #486 ) ;
#627 = DIRECTION ( 'NONE',  ( 0.000000000000000000, 1.000000000000000000, 0.000000000000000000 ) ) ;
#628 = AXIS2_PLACEMENT_3D ( 'NONE', #370, #360, #962 ) ;
#629 = VERTEX_POINT ( 'NONE', #548 ) ;
#630 = AXIS2_PLACEMENT_3D ( 'NONE', #134, #259, #62 ) ;
#631 = CIRCLE ( 'NONE', #256, 1.700000000000000178 ) ;
#632 = ORIENTED_EDGE ( 'NONE', *, *, #180, .F. ) ;
#633 = SECURITY_CLASSIFICATION_LEVEL ( 'unclassified' ) ;
#634 = LINE ( 'NONE', #446, #334 ) ;
#635 = ORIENTED_EDGE ( 'NONE', *, *, #809, .T. ) ;
#636 = PERSON_AND_ORGANIZATION ( #859, #767 ) ;
#637 = FACE_BOUND ( 'NONE', #567, .T. ) ;
#638 = DIRECTION ( 'NONE',  ( 0.000000000000000000, 0.000000000000000000, 1.000000000000000000 ) ) ;
#639 = FACE_BOUND ( 'NONE', #623, .T. ) ;
#640 = CIRCLE ( 'NONE', #489, 1.700000000000000178 ) ;
#641 = CARTESIAN_POINT ( 'NONE',  ( -8.000000000000007105, -31.50000000000000000, 13.85640646055101577 ) ) ;
#642 = CARTESIAN_POINT ( 'NONE',  ( -24.00000000000000000, 22.00000000000000000, -180.0000000000000000 ) ) ;
#643 = VECTOR ( 'NONE', #794, 1000.000000000000000 ) ;
#644 = ORIENTED_EDGE ( 'NONE', *, *, #786, .T. ) ;
#645 = VECTOR ( 'NONE', #580, 1000.000000000000000 ) ;
#646 = ORIENTED_EDGE ( 'NONE', *, *, #180, .T. ) ;
#647 = CARTESIAN_POINT ( 'NONE',  ( -8.000000000000007105, -31.50000000000000000, 12.15640646055101470 ) ) ;
#648 = DIRECTION ( 'NONE',  ( 0.000000000000000000, 0.000000000000000000, 1.000000000000000000 ) ) ;
#649 = CARTESIAN_POINT ( 'NONE',  ( 24.00000000000000000, -31.50000000000000000, 28.00000000000000000 ) ) ;
#650 = ORIENTED_EDGE ( 'NONE', *, *, #972, .T. ) ;
#651 = EDGE_CURVE ( 'NONE', #114, #304, #222, .T. ) ;
#652 = CARTESIAN_POINT ( 'NONE',  ( 0.000000000000000000, 0.000000000000000000, -180.0000000000000000 ) ) ;
#653 = CYLINDRICAL_SURFACE ( 'NONE', #89, 1.700000000000000178 ) ;
#654 = EDGE_CURVE ( 'NONE', #670, #922, #56, .T. ) ;
#655 = DIRECTION ( 'NONE',  ( 0.000000000000000000, 1.000000000000000000, 0.000000000000000000 ) ) ;
#656 = ORIENTED_EDGE ( 'NONE', *, *, #700, .T. ) ;
#657 = CYLINDRICAL_SURFACE ( 'NONE', #795, 1.700000000000000178 ) ;
#658 = EDGE_CURVE ( 'NONE', #808, #563, #418, .T. ) ;
#659 = CIRCLE ( 'NONE', #306, 1.700000000000000178 ) ;
#660 = AXIS2_PLACEMENT_3D ( 'NONE', #749, #830, #230 ) ;
#661 = VECTOR ( 'NONE', #45, 1000.000000000000000 ) ;
#662 = CARTESIAN_POINT ( 'NONE',  ( 0.000000000000000000, -27.69999999999999929, 12.15000000000000036 ) ) ;
#663 = ORIENTED_EDGE ( 'NONE', *, *, #852, .F. ) ;
#664 = CARTESIAN_POINT ( 'NONE',  ( 0.000000000000000000, -27.69999999999999929, 12.15000000000000036 ) ) ;
#665 = APPLICATION_CONTEXT ( 'configuration controlled 3d designs of mechanical parts and assemblies' ) ;
#666 = EDGE_CURVE ( 'NONE', #459, #307, #881, .T. ) ;
#667 = CARTESIAN_POINT ( 'NONE',  ( 24.00000000000000000, -25.50000000000000000, -180.0000000000000000 ) ) ;
#668 = ORIENTED_EDGE ( 'NONE', *, *, #443, .T. ) ;
#669 = CARTESIAN_POINT ( 'NONE',  ( 0.000000000000000000, 0.000000000000000000, -180.0000000000000000 ) ) ;
#670 = VERTEX_POINT ( 'NONE', #946 ) ;
#671 = EDGE_CURVE ( 'NONE', #452, #127, #339, .T. ) ;
#672 = CARTESIAN_POINT ( 'NONE',  ( -24.00000000000000000, -31.50000000000000000, -180.0000000000000000 ) ) ;
#673 = VERTEX_POINT ( 'NONE', #714 ) ;
#674 = CARTESIAN_POINT ( 'NONE',  ( 16.00000000000000000, -25.50000000000000000, 0.000000000000000000 ) ) ;
#675 = EDGE_LOOP ( 'NONE', ( #870, #656, #908, #263 ) ) ;
#676 = AXIS2_PLACEMENT_3D ( 'NONE', #58, #356, #648 ) ;
#677 = CARTESIAN_POINT ( 'NONE',  ( 8.000000000000001776, -25.50000000000000000, 13.85640646055101755 ) ) ;
#678 = ORIENTED_EDGE ( 'NONE', *, *, #388, .T. ) ;
#679 = APPROVAL_PERSON_ORGANIZATION ( #305, #171, #186 ) ;
#680 = EDGE_CURVE ( 'NONE', #208, #307, #782, .T. ) ;
#681 = DIRECTION ( 'NONE',  ( -0.000000000000000000, -1.000000000000000000, -0.000000000000000000 ) ) ;
#682 = DIRECTION ( 'NONE',  ( 0.000000000000000000, 0.000000000000000000, 1.000000000000000000 ) ) ;
#683 = ORIENTED_EDGE ( 'NONE', *, *, #110, .F. ) ;
#684 = ORIENTED_EDGE ( 'NONE', *, *, #951, .F. ) ;
#685 = CYLINDRICAL_SURFACE ( 'NONE', #434, 12.15000000000000036 ) ;
#686 = VERTEX_POINT ( 'NONE', #874 ) ;
#687 = DIRECTION ( 'NONE',  ( -0.000000000000000000, -1.000000000000000000, -0.000000000000000000 ) ) ;
#688 = DIRECTION ( 'NONE',  ( 0.000000000000000000, 0.000000000000000000, 1.000000000000000000 ) ) ;
#689 = VERTEX_POINT ( 'NONE', #49 ) ;
#690 = EDGE_CURVE ( 'NONE', #199, #686, #257, .T. ) ;
#691 = DIRECTION ( 'NONE',  ( 0.000000000000000000, 0.000000000000000000, 1.000000000000000000 ) ) ;
#692 = AXIS2_PLACEMENT_3D ( 'NONE', #840, #159, #25 ) ;
#693 = AXIS2_PLACEMENT_3D ( 'NONE', #968, #297, #146 ) ;
#694 = CARTESIAN_POINT ( 'NONE',  ( 8.000000000000001776, -25.50000000000000000, 13.85640646055101755 ) ) ;
#695 = VECTOR ( 'NONE', #822, 1000.000000000000000 ) ;
#696 = CARTESIAN_POINT ( 'NONE',  ( 16.00000000000000000, -25.50000000000000000, 1.700000000000000178 ) ) ;
#697 = CALENDAR_DATE ( 2026, 24, 9 ) ;
#698 = ADVANCED_FACE ( 'NONE', ( #192 ), #126, .F. ) ;
#699 = DIRECTION ( 'NONE',  ( 0.000000000000000000, 0.000000000000000000, 1.000000000000000000 ) ) ;
#700 = EDGE_CURVE ( 'NONE', #773, #189, #3, .T. ) ;
#701 = COORDINATED_UNIVERSAL_TIME_OFFSET ( 5, 30, .AHEAD. ) ;
#702 = FACE_OUTER_BOUND ( 'NONE', #409, .T. ) ;
#703 = VERTEX_POINT ( 'NONE', #555 ) ;
#704 = ORIENTED_EDGE ( 'NONE', *, *, #326, .F. ) ;
#705 = APPROVAL_ROLE ( '' ) ;
#706 = DIRECTION ( 'NONE',  ( 0.000000000000000000, 0.000000000000000000, 1.000000000000000000 ) ) ;
#707 = CIRCLE ( 'NONE', #727, 1.700000000000000178 ) ;
#708 = CIRCLE ( 'NONE', #676, 4.000000000000000000 ) ;
#709 = DIRECTION ( 'NONE',  ( 0.000000000000000000, 0.000000000000000000, 1.000000000000000000 ) ) ;
#710 = VECTOR ( 'NONE', #8, 1000.000000000000000 ) ;
#711 = DIRECTION ( 'NONE',  ( -0.000000000000000000, 1.000000000000000000, -0.000000000000000000 ) ) ;
#712 = ORIENTED_EDGE ( 'NONE', *, *, #430, .F. ) ;
#713 = PERSON_AND_ORGANIZATION ( #859, #767 ) ;
#714 = CARTESIAN_POINT ( 'NONE',  ( 8.000000000000001776, -31.50000000000000000, -12.15640646055101648 ) ) ;
#715 = DIRECTION ( 'NONE',  ( 0.000000000000000000, 0.000000000000000000, 1.000000000000000000 ) ) ;
#716 = ADVANCED_FACE ( 'NONE', ( #860 ), #183, .F. ) ;
#717 = DIRECTION ( 'NONE',  ( 0.000000000000000000, 1.000000000000000000, 0.000000000000000000 ) ) ;
#718 = ORIENTED_EDGE ( 'NONE', *, *, #654, .F. ) ;
#719 = PERSON_AND_ORGANIZATION ( #859, #767 ) ;
#720 = APPLICATION_CONTEXT ( 'configuration controlled 3d designs of mechanical parts and assemblies' ) ;
#721 = DIRECTION ( 'NONE',  ( 0.000000000000000000, 0.000000000000000000, 1.000000000000000000 ) ) ;
#722 = ORIENTED_EDGE ( 'NONE', *, *, #209, .F. ) ;
#723 = ORIENTED_EDGE ( 'NONE', *, *, #388, .F. ) ;
#724 = ORIENTED_EDGE ( 'NONE', *, *, #914, .F. ) ;
#725 = CARTESIAN_POINT ( 'NONE',  ( 24.00000000000000000, -31.50000000000000000, -186.0000000000000000 ) ) ;
#726 = ORIENTED_EDGE ( 'NONE', *, *, #671, .F. ) ;
#727 = AXIS2_PLACEMENT_3D ( 'NONE', #641, #419, #715 ) ;
#728 = AXIS2_PLACEMENT_3D ( 'NONE', #621, #610, #391 ) ;
#729 = DIRECTION ( 'NONE',  ( -0.000000000000000000, -1.000000000000000000, -0.000000000000000000 ) ) ;
#730 = VECTOR ( 'NONE', #507, 1000.000000000000000 ) ;
#731 = EDGE_CURVE ( 'NONE', #478, #843, #796, .T. ) ;
#732 = DIRECTION ( 'NONE',  ( -1.000000000000000000, 0.000000000000000000, 0.000000000000000000 ) ) ;
#733 = ORIENTED_EDGE ( 'NONE', *, *, #584, .F. ) ;
#734 = CARTESIAN_POINT ( 'NONE',  ( -8.000000000000007105, -25.50000000000000000, 15.55640646055101506 ) ) ;
#735 = CARTESIAN_POINT ( 'NONE',  ( -7.999999999999996447, -25.50000000000000000, -13.85640646055101932 ) ) ;
#736 = EDGE_CURVE ( 'NONE', #703, #792, #634, .T. ) ;
#737 = LINE ( 'NONE', #516, #695 ) ;
#738 = EDGE_CURVE ( 'NONE', #429, #819, #490, .T. ) ;
#739 = VERTEX_POINT ( 'NONE', #828 ) ;
#740 = CARTESIAN_POINT ( 'NONE',  ( -24.00000000000000000, -25.50000000000000000, 28.00000000000000000 ) ) ;
#741 = LINE ( 'NONE', #667, #746 ) ;
#742 = ORIENTED_EDGE ( 'NONE', *, *, #964, .T. ) ;
#743 = DIRECTION ( 'NONE',  ( 0.000000000000000000, 0.000000000000000000, -1.000000000000000000 ) ) ;
#744 = AXIS2_PLACEMENT_3D ( 'NONE', #246, #101, #618 ) ;
#745 = AXIS2_PLACEMENT_3D ( 'NONE', #954, #281, #579 ) ;
#746 = VECTOR ( 'NONE', #732, 1000.000000000000000 ) ;
#747 = PLANE ( 'NONE',  #785 ) ;
#748 = VERTEX_POINT ( 'NONE', #288 ) ;
#749 = CARTESIAN_POINT ( 'NONE',  ( -8.000000000000007105, -25.50000000000000000, 13.85640646055101577 ) ) ;
#750 = CYLINDRICAL_SURFACE ( 'NONE', #906, 1.700000000000000178 ) ;
#751 = EDGE_CURVE ( 'NONE', #43, #47, #283, .T. ) ;
#752 = CARTESIAN_POINT ( 'NONE',  ( 0.000000000000000000, -27.69999999999999929, 0.000000000000000000 ) ) ;
#753 = VERTEX_POINT ( 'NONE', #211 ) ;
#754 = CC_DESIGN_PERSON_AND_ORGANIZATION_ASSIGNMENT ( #416, #405, ( #826 ) ) ;
#755 = CARTESIAN_POINT ( 'NONE',  ( -8.000000000000007105, -25.50000000000000000, 13.85640646055101577 ) ) ;
#756 = CARTESIAN_POINT ( 'NONE',  ( 24.00000000000000000, 22.00000000000000000, -186.0000000000000000 ) ) ;
#757 = DIRECTION ( 'NONE',  ( 0.000000000000000000, 0.000000000000000000, 1.000000000000000000 ) ) ;
#758 = EDGE_LOOP ( 'NONE', ( #29, #863 ) ) ;
#759 = VECTOR ( 'NONE', #153, 1000.000000000000000 ) ;
#760 = CARTESIAN_POINT ( 'NONE',  ( 1.487945860964034377E-15, -27.69999999999999929, -12.15000000000000036 ) ) ;
#761 = ORIENTED_EDGE ( 'NONE', *, *, #671, .T. ) ;
#762 = CIRCLE ( 'NONE', #253, 1.700000000000000178 ) ;
#763 = MECHANICAL_CONTEXT ( 'NONE', #665, 'mechanical' ) ;
#764 = AXIS2_PLACEMENT_3D ( 'NONE', #109, #345, #188 ) ;
#765 = ORIENTED_EDGE ( 'NONE', *, *, #951, .T. ) ;
#766 = EDGE_CURVE ( 'NONE', #748, #127, #504, .T. ) ;
#767 = ORGANIZATION ( 'UNSPECIFIED', 'UNSPECIFIED', '' ) ;
#768 = CARTESIAN_POINT ( 'NONE',  ( -24.00000000000000000, -31.50000000000000000, -180.0000000000000000 ) ) ;
#769 = PLANE ( 'NONE',  #333 ) ;
#770 = EDGE_CURVE ( 'NONE', #483, #496, #91, .T. ) ;
#771 = ORIENTED_EDGE ( 'NONE', *, *, #166, .F. ) ;
#772 = CARTESIAN_POINT ( 'NONE',  ( 16.00000000000000000, -31.50000000000000000, 1.700000000000000178 ) ) ;
#773 = VERTEX_POINT ( 'NONE', #807 ) ;
#774 = CARTESIAN_POINT ( 'NONE',  ( -16.00000000000000000, -25.50000000000000000, -1.959434878635765131E-15 ) ) ;
#775 = CARTESIAN_POINT ( 'NONE',  ( -24.00000000000000000, 22.00000000000000000, -186.0000000000000000 ) ) ;
#776 = ORIENTED_EDGE ( 'NONE', *, *, #556, .F. ) ;
#777 = CARTESIAN_POINT ( 'NONE',  ( -16.00000000000000000, -25.50000000000000000, -1.959434878635765131E-15 ) ) ;
#778 = EDGE_CURVE ( 'NONE', #404, #739, #57, .T. ) ;
#779 = CARTESIAN_POINT ( 'NONE',  ( 8.000000000000001776, -25.50000000000000000, 13.85640646055101755 ) ) ;
#780 = CARTESIAN_POINT ( 'NONE',  ( -8.000000000000007105, -25.50000000000000000, 13.85640646055101577 ) ) ;
#781 = CIRCLE ( 'NONE', #520, 1.700000000000000178 ) ;
#782 = CIRCLE ( 'NONE', #474, 1.700000000000000178 ) ;
#783 = EDGE_CURVE ( 'NONE', #212, #748, #902, .T. ) ;
#784 = ORIENTED_EDGE ( 'NONE', *, *, #99, .T. ) ;
#785 = AXIS2_PLACEMENT_3D ( 'NONE', #202, #358, #814 ) ;
#786 = EDGE_CURVE ( 'NONE', #462, #673, #130, .T. ) ;
#787 = DIRECTION ( 'NONE',  ( 0.000000000000000000, 1.000000000000000000, 0.000000000000000000 ) ) ;
#788 = EDGE_LOOP ( 'NONE', ( #140, #798, #956, #33 ) ) ;
#789 = ADVANCED_BREP_SHAPE_REPRESENTATION ( 'JX1_Forearm_R', ( #901, #117 ), #24 ) ;
#790 = DIRECTION ( 'NONE',  ( 0.000000000000000000, -0.000000000000000000, -1.000000000000000000 ) ) ;
#791 = DIRECTION ( 'NONE',  ( 0.000000000000000000, 0.000000000000000000, 1.000000000000000000 ) ) ;
#792 = VERTEX_POINT ( 'NONE', #148 ) ;
#793 = APPROVAL_STATUS ( 'not_yet_approved' ) ;
#794 = DIRECTION ( 'NONE',  ( -0.000000000000000000, -1.000000000000000000, -0.000000000000000000 ) ) ;
#795 = AXIS2_PLACEMENT_3D ( 'NONE', #604, #590, #974 ) ;
#796 = CIRCLE ( 'NONE', #384, 1.700000000000000178 ) ;
#797 = CARTESIAN_POINT ( 'NONE',  ( 4.898587196589412829E-16, -31.50000000000000000, 4.000000000000000000 ) ) ;
#798 = ORIENTED_EDGE ( 'NONE', *, *, #778, .T. ) ;
#799 = FACE_BOUND ( 'NONE', #343, .T. ) ;
#800 = FACE_OUTER_BOUND ( 'NONE', #495, .T. ) ;
#801 = ORIENTED_EDGE ( 'NONE', *, *, #394, .T. ) ;
#802 = CARTESIAN_POINT ( 'NONE',  ( 0.000000000000000000, -25.50000000000000000, 0.000000000000000000 ) ) ;
#803 = ORIENTED_EDGE ( 'NONE', *, *, #770, .F. ) ;
#804 = DIRECTION ( 'NONE',  ( 0.000000000000000000, 0.000000000000000000, -1.000000000000000000 ) ) ;
#805 = ORIENTED_EDGE ( 'NONE', *, *, #150, .T. ) ;
#806 = EDGE_CURVE ( 'NONE', #355, #481, #107, .T. ) ;
#807 = CARTESIAN_POINT ( 'NONE',  ( -16.00000000000000000, -25.50000000000000000, 1.699999999999998179 ) ) ;
#808 = VERTEX_POINT ( 'NONE', #377 ) ;
#809 = EDGE_CURVE ( 'NONE', #199, #703, #741, .T. ) ;
#810 = VECTOR ( 'NONE', #711, 1000.000000000000000 ) ;
#811 = DIRECTION ( 'NONE',  ( -0.000000000000000000, -0.000000000000000000, -1.000000000000000000 ) ) ;
#812 = CARTESIAN_POINT ( 'NONE',  ( 8.000000000000001776, -25.50000000000000000, -12.15640646055101648 ) ) ;
#813 = VECTOR ( 'NONE', #583, 1000.000000000000000 ) ;
#814 = DIRECTION ( 'NONE',  ( 0.000000000000000000, 0.000000000000000000, -1.000000000000000000 ) ) ;
#815 = ORIENTED_EDGE ( 'NONE', *, *, #731, .T. ) ;
#816 = LINE ( 'NONE', #664, #853 ) ;
#817 = FACE_BOUND ( 'NONE', #219, .T. ) ;
#818 = DIRECTION ( 'NONE',  ( -1.000000000000000000, -0.000000000000000000, -0.000000000000000000 ) ) ;
#819 = VERTEX_POINT ( 'NONE', #662 ) ;
#820 = CARTESIAN_POINT ( 'NONE',  ( 8.000000000000001776, -25.50000000000000000, 13.85640646055101755 ) ) ;
#821 = FACE_BOUND ( 'NONE', #557, .T. ) ;
#822 = DIRECTION ( 'NONE',  ( -0.000000000000000000, -1.000000000000000000, -0.000000000000000000 ) ) ;
#823 = EDGE_LOOP ( 'NONE', ( #668, #15 ) ) ;
#824 = EDGE_CURVE ( 'NONE', #689, #703, #59, .T. ) ;
#825 = DIRECTION ( 'NONE',  ( -0.000000000000000000, 1.000000000000000000, -0.000000000000000000 ) ) ;
#826 = PRODUCT_DEFINITION_FORMATION_WITH_SPECIFIED_SOURCE ( 'ANY', '', #487, .NOT_KNOWN. ) ;
#827 = ORIENTED_EDGE ( 'NONE', *, *, #248, .T. ) ;
#828 = CARTESIAN_POINT ( 'NONE',  ( -3.000000000000000000, 0.000000000000000000, -180.0000000000000000 ) ) ;
#829 = ORIENTED_EDGE ( 'NONE', *, *, #484, .T. ) ;
#830 = DIRECTION ( 'NONE',  ( -0.000000000000000000, -1.000000000000000000, -0.000000000000000000 ) ) ;
#831 = ADVANCED_FACE ( 'NONE', ( #576 ), #747, .F. ) ;
#832 = CARTESIAN_POINT ( 'NONE',  ( 3.000000000000000000, 3.673940397442059868E-16, -180.0000000000000000 ) ) ;
#833 = CARTESIAN_POINT ( 'NONE',  ( 0.000000000000000000, -25.50000000000000000, -4.000000000000000000 ) ) ;
#834 = FACE_BOUND ( 'NONE', #427, .T. ) ;
#835 = EDGE_LOOP ( 'NONE', ( #318, #644, #344, #128 ) ) ;
#836 = FACE_BOUND ( 'NONE', #758, .T. ) ;
#837 = DIRECTION ( 'NONE',  ( 0.000000000000000000, 1.000000000000000000, 0.000000000000000000 ) ) ;
#838 =( NAMED_UNIT ( * ) PLANE_ANGLE_UNIT ( ) SI_UNIT ( $, .RADIAN. ) );
#839 = ORIENTED_EDGE ( 'NONE', *, *, #110, .T. ) ;
#840 = CARTESIAN_POINT ( 'NONE',  ( 0.000000000000000000, 0.000000000000000000, -180.0000000000000000 ) ) ;
#841 = EDGE_CURVE ( 'NONE', #686, #43, #955, .T. ) ;
#842 = VECTOR ( 'NONE', #141, 1000.000000000000000 ) ;
#843 = VERTEX_POINT ( 'NONE', #365 ) ;
#844 = AXIS2_PLACEMENT_3D ( 'NONE', #168, #317, #611 ) ;
#845 = DIRECTION ( 'NONE',  ( 1.000000000000000000, 0.000000000000000000, 0.000000000000000000 ) ) ;
#846 = CIRCLE ( 'NONE', #523, 1.700000000000000178 ) ;
#847 = LOCAL_TIME ( 11, 10, 15.00000000000000000, #480 ) ;
#848 = LINE ( 'NONE', #389, #759 ) ;
#849 = FACE_OUTER_BOUND ( 'NONE', #346, .T. ) ;
#850 = DIRECTION ( 'NONE',  ( 0.000000000000000000, 0.000000000000000000, 1.000000000000000000 ) ) ;
#851 = DIRECTION ( 'NONE',  ( -0.000000000000000000, -1.000000000000000000, -0.000000000000000000 ) ) ;
#852 = EDGE_CURVE ( 'NONE', #189, #478, #890, .T. ) ;
#853 = VECTOR ( 'NONE', #825, 1000.000000000000000 ) ;
#854 = DATE_AND_TIME ( #492, #353 ) ;
#855 = VECTOR ( 'NONE', #687, 1000.000000000000000 ) ;
#856 = VECTOR ( 'NONE', #482, 1000.000000000000000 ) ;
#857 = DIRECTION ( 'NONE',  ( 0.000000000000000000, 0.000000000000000000, 1.000000000000000000 ) ) ;
#858 = VECTOR ( 'NONE', #207, 1000.000000000000000 ) ;
#859 = PERSON ( 'UNSPECIFIED', 'UNSPECIFIED', 'UNSPECIFIED', ('UNSPECIFIED'), ('UNSPECIFIED'), ('UNSPECIFIED') ) ;
#860 = FACE_OUTER_BOUND ( 'NONE', #382, .T. ) ;
#861 = VERTEX_POINT ( 'NONE', #293 ) ;
#862 = CARTESIAN_POINT ( 'NONE',  ( 1.487945860964034377E-15, -27.69999999999999929, -12.15000000000000036 ) ) ;
#863 = ORIENTED_EDGE ( 'NONE', *, *, #511, .T. ) ;
#864 = ORIENTED_EDGE ( 'NONE', *, *, #910, .F. ) ;
#865 = ADVANCED_FACE ( 'NONE', ( #898 ), #74, .F. ) ;
#866 = CARTESIAN_POINT ( 'NONE',  ( 0.000000000000000000, -25.50000000000000000, 0.000000000000000000 ) ) ;
#867 = PLANE ( 'NONE',  #628 ) ;
#868 = EDGE_CURVE ( 'NONE', #47, #452, #737, .T. ) ;
#869 = PLANE ( 'NONE',  #615 ) ;
#870 = ORIENTED_EDGE ( 'NONE', *, *, #329, .F. ) ;
#871 = ORIENTED_EDGE ( 'NONE', *, *, #249, .T. ) ;
#872 = CIRCLE ( 'NONE', #917, 1.700000000000000178 ) ;
#873 = CC_DESIGN_PERSON_AND_ORGANIZATION_ASSIGNMENT ( #97, #106, ( #487 ) ) ;
#874 = CARTESIAN_POINT ( 'NONE',  ( 24.00000000000000000, 22.00000000000000000, -180.0000000000000000 ) ) ;
#875 = VECTOR ( 'NONE', #157, 1000.000000000000000 ) ;
#876 = CIRCLE ( 'NONE', #693, 1.700000000000000178 ) ;
#877 = CYLINDRICAL_SURFACE ( 'NONE', #744, 1.700000000000000178 ) ;
#878 = SECURITY_CLASSIFICATION ( '', '', #633 ) ;
#879 = EDGE_LOOP ( 'NONE', ( #560, #597, #593, #298 ) ) ;
#880 = EDGE_LOOP ( 'NONE', ( #936, #941, #284, #254 ) ) ;
#881 = LINE ( 'NONE', #499, #856 ) ;
#882 = EDGE_CURVE ( 'NONE', #355, #483, #142, .T. ) ;
#883 = DIRECTION ( 'NONE',  ( 0.000000000000000000, 1.000000000000000000, 0.000000000000000000 ) ) ;
#884 = CARTESIAN_POINT ( 'NONE',  ( 0.000000000000000000, -31.50000000000000000, -4.000000000000000000 ) ) ;
#885 = ADVANCED_FACE ( 'NONE', ( #300 ), #685, .F. ) ;
#886 = CARTESIAN_POINT ( 'NONE',  ( 0.000000000000000000, -31.50000000000000000, 0.000000000000000000 ) ) ;
#887 = EDGE_LOOP ( 'NONE', ( #574, #508 ) ) ;
#888 = APPROVAL ( #331, 'UNSPECIFIED' ) ;
#889 = FACE_OUTER_BOUND ( 'NONE', #538, .T. ) ;
#890 = LINE ( 'NONE', #965, #730 ) ;
#891 = ORIENTED_EDGE ( 'NONE', *, *, #572, .T. ) ;
#892 = DIRECTION ( 'NONE',  ( -0.000000000000000000, -1.000000000000000000, -0.000000000000000000 ) ) ;
#893 = AXIS2_PLACEMENT_3D ( 'NONE', #214, #136, #438 ) ;
#894 = DIRECTION ( 'NONE',  ( 0.000000000000000000, 0.000000000000000000, 1.000000000000000000 ) ) ;
#895 = ORIENTED_EDGE ( 'NONE', *, *, #299, .F. ) ;
#896 = DIRECTION ( 'NONE',  ( 0.000000000000000000, 0.000000000000000000, 1.000000000000000000 ) ) ;
#897 = ADVANCED_FACE ( 'NONE', ( #319, #834 ), #314, .F. ) ;
#898 = FACE_OUTER_BOUND ( 'NONE', #203, .T. ) ;
#899 = VERTEX_POINT ( 'NONE', #601 ) ;
#900 = CARTESIAN_POINT ( 'NONE',  ( 16.00000000000000000, -25.50000000000000000, 0.000000000000000000 ) ) ;
#901 = MANIFOLD_SOLID_BREP ( 'Hand_Plate', #218 ) ;
#902 = LINE ( 'NONE', #217, #858 ) ;
#903 = ORIENTED_EDGE ( 'NONE', *, *, #882, .T. ) ;
#904 = DIRECTION ( 'NONE',  ( 0.000000000000000000, 0.000000000000000000, 1.000000000000000000 ) ) ;
#905 = CIRCLE ( 'NONE', #177, 1.700000000000000178 ) ;
#906 = AXIS2_PLACEMENT_3D ( 'NONE', #67, #454, #82 ) ;
#907 = CARTESIAN_POINT ( 'NONE',  ( -7.999999999999996447, -25.50000000000000000, -13.85640646055101932 ) ) ;
#908 = ORIENTED_EDGE ( 'NONE', *, *, #852, .T. ) ;
#909 = CARTESIAN_POINT ( 'NONE',  ( -16.00000000000000000, -25.50000000000000000, -1.700000000000002176 ) ) ;
#910 = EDGE_CURVE ( 'NONE', #459, #439, #934, .T. ) ;
#911 = CARTESIAN_POINT ( 'NONE',  ( 0.000000000000000000, -27.69999999999999929, 0.000000000000000000 ) ) ;
#912 = ORIENTED_EDGE ( 'NONE', *, *, #36, .T. ) ;
#913 = DIRECTION ( 'NONE',  ( 0.000000000000000000, 0.000000000000000000, 1.000000000000000000 ) ) ;
#914 = EDGE_CURVE ( 'NONE', #933, #563, #274, .T. ) ;
#915 = CARTESIAN_POINT ( 'NONE',  ( 8.000000000000001776, -25.50000000000000000, 15.55640646055101683 ) ) ;
#916 = CARTESIAN_POINT ( 'NONE',  ( 8.000000000000001776, -25.50000000000000000, 12.15640646055101648 ) ) ;
#917 = AXIS2_PLACEMENT_3D ( 'NONE', #133, #292, #138 ) ;
#918 = CARTESIAN_POINT ( 'NONE',  ( 8.000000000000001776, -25.50000000000000000, -13.85640646055101755 ) ) ;
#919 = VERTEX_POINT ( 'NONE', #23 ) ;
#920 = AXIS2_PLACEMENT_3D ( 'NONE', #694, #94, #468 ) ;
#921 = LINE ( 'NONE', #228, #710 ) ;
#922 = VERTEX_POINT ( 'NONE', #11 ) ;
#923 = LINE ( 'NONE', #696, #289 ) ;
#924 = CARTESIAN_POINT ( 'NONE',  ( -8.000000000000007105, -25.50000000000000000, 12.15640646055101470 ) ) ;
#925 = APPROVAL_DATE_TIME ( #929, #171 ) ;
#926 = CC_DESIGN_PERSON_AND_ORGANIZATION_ASSIGNMENT ( #271, #547, ( #826 ) ) ;
#927 = ORIENTED_EDGE ( 'NONE', *, *, #173, .T. ) ;
#928 = ORIENTED_EDGE ( 'NONE', *, *, #751, .T. ) ;
#929 = DATE_AND_TIME ( #697, #291 ) ;
#930 = CIRCLE ( 'NONE', #2, 1.700000000000000178 ) ;
#931 = AXIS2_PLACEMENT_3D ( 'NONE', #866, #53, #122 ) ;
#932 = DIRECTION ( 'NONE',  ( 0.000000000000000000, 0.000000000000000000, 1.000000000000000000 ) ) ;
#933 = VERTEX_POINT ( 'NONE', #772 ) ;
#934 = CIRCLE ( 'NONE', #603, 1.700000000000000178 ) ;
#935 = EDGE_CURVE ( 'NONE', #496, #483, #493, .T. ) ;
#936 = ORIENTED_EDGE ( 'NONE', *, *, #738, .F. ) ;
#937 = APPROVAL_DATE_TIME ( #569, #85 ) ;
#938 = CARTESIAN_POINT ( 'NONE',  ( -7.999999999999996447, -31.50000000000000000, -13.85640646055101932 ) ) ;
#939 = EDGE_CURVE ( 'NONE', #277, #899, #324, .T. ) ;
#940 = CARTESIAN_POINT ( 'NONE',  ( 8.000000000000001776, -31.50000000000000000, -13.85640646055101755 ) ) ;
#941 = ORIENTED_EDGE ( 'NONE', *, *, #556, .T. ) ;
#942 = DIRECTION ( 'NONE',  ( -0.000000000000000000, -1.000000000000000000, -0.000000000000000000 ) ) ;
#943 = DIRECTION ( 'NONE',  ( 0.000000000000000000, 0.000000000000000000, 1.000000000000000000 ) ) ;
#944 = VERTEX_POINT ( 'NONE', #609 ) ;
#945 = DATE_AND_TIME ( #48, #448 ) ;
#946 = CARTESIAN_POINT ( 'NONE',  ( 1.487945860964034377E-15, -25.50000000000000000, -12.15000000000000036 ) ) ;
#947 = VECTOR ( 'NONE', #851, 1000.000000000000000 ) ;
#948 = AXIS2_PLACEMENT_3D ( 'NONE', #385, #286, #260 ) ;
#949 = AXIS2_PLACEMENT_3D ( 'NONE', #886, #451, #592 ) ;
#950 = EDGE_LOOP ( 'NONE', ( #712, #966, #380, #503 ) ) ;
#951 = EDGE_CURVE ( 'NONE', #127, #43, #921, .T. ) ;
#952 = CARTESIAN_POINT ( 'NONE',  ( 8.000000000000001776, -25.50000000000000000, -13.85640646055101755 ) ) ;
#953 = ORIENTED_EDGE ( 'NONE', *, *, #371, .F. ) ;
#954 = CARTESIAN_POINT ( 'NONE',  ( -7.999999999999996447, -31.50000000000000000, -13.85640646055101932 ) ) ;
#955 = LINE ( 'NONE', #522, #645 ) ;
#956 = ORIENTED_EDGE ( 'NONE', *, *, #52, .T. ) ;
#957 = FACE_OUTER_BOUND ( 'NONE', #143, .T. ) ;
#958 = CARTESIAN_POINT ( 'NONE',  ( -24.00000000000000000, 22.00000000000000000, -186.0000000000000000 ) ) ;
#959 = EDGE_LOOP ( 'NONE', ( #723, #718 ) ) ;
#960 = AXIS2_PLACEMENT_3D ( 'NONE', #151, #302, #444 ) ;
#961 = AXIS2_PLACEMENT_3D ( 'NONE', #363, #223, #743 ) ;
#962 = DIRECTION ( 'NONE',  ( -1.000000000000000000, 0.000000000000000000, -0.000000000000000000 ) ) ;
#963 = VECTOR ( 'NONE', #354, 1000.000000000000000 ) ;
#964 = EDGE_CURVE ( 'NONE', #689, #47, #325, .T. ) ;
#965 = CARTESIAN_POINT ( 'NONE',  ( -16.00000000000000000, -25.50000000000000000, -1.700000000000002176 ) ) ;
#966 = ORIENTED_EDGE ( 'NONE', *, *, #939, .T. ) ;
#967 = CYLINDRICAL_SURFACE ( 'NONE', #585, 3.000000000000000000 ) ;
#968 = CARTESIAN_POINT ( 'NONE',  ( -7.999999999999996447, -25.50000000000000000, -13.85640646055101932 ) ) ;
#969 = CC_DESIGN_PERSON_AND_ORGANIZATION_ASSIGNMENT ( #636, #44, ( #475 ) ) ;
#970 = VERTEX_POINT ( 'NONE', #924 ) ;
#971 = DIRECTION ( 'NONE',  ( -0.000000000000000000, -1.000000000000000000, -0.000000000000000000 ) ) ;
#972 = EDGE_CURVE ( 'NONE', #861, #753, #631, .T. ) ;
#973 = ORIENTED_EDGE ( 'NONE', *, *, #584, .T. ) ;
#974 = DIRECTION ( 'NONE',  ( 0.000000000000000000, 0.000000000000000000, -1.000000000000000000 ) ) ;
#975 = ORIENTED_EDGE ( 'NONE', *, *, #680, .F. ) ;
ENDSEC;
END-ISO-10303-21;
