ISO-10303-21;
HEADER;
FILE_DESCRIPTION (( 'STEP AP203' ),
    '1' );
FILE_NAME ('JX1_AnkleCrank.STEP',
    '2026-09-24T05:38:45',
    ( '' ),
    ( '' ),
    'SwSTEP 2.0',
    'SolidWorks 2026',
    '' );
FILE_SCHEMA (( 'CONFIG_CONTROL_DESIGN' ));
ENDSEC;

DATA;
#1 = EDGE_LOOP ( 'NONE', ( #612, #694, #339, #840 ) ) ;
#2 = AXIS2_PLACEMENT_3D ( 'NONE', #733, #242, #86 ) ;
#3 = CIRCLE ( 'NONE', #741, 1.700000000000000178 ) ;
#4 = CIRCLE ( 'NONE', #365, 1.700000000000000178 ) ;
#5 = FACE_OUTER_BOUND ( 'NONE', #1, .T. ) ;
#6 = ORIENTED_EDGE ( 'NONE', *, *, #634, .T. ) ;
#7 = PRODUCT_RELATED_PRODUCT_CATEGORY ( 'detail', '', ( #923 ) ) ;
#8 = DIRECTION ( 'NONE',  ( 1.000000000000000000, 0.000000000000000000, -0.000000000000000000 ) ) ;
#9 = DIRECTION ( 'NONE',  ( -0.2873478855663454401, 0.9578262852211513190, 0.000000000000000000 ) ) ;
#10 = ORIENTED_EDGE ( 'NONE', *, *, #282, .T. ) ;
#11 = APPROVAL_ROLE ( '' ) ;
#12 = ADVANCED_FACE ( 'NONE', ( #122 ), #354, .F. ) ;
#13 = CARTESIAN_POINT ( 'NONE',  ( 19.59999999999999787, 28.00000000000000000, 6.000000000000000000 ) ) ;
#14 = EDGE_CURVE ( 'NONE', #912, #784, #19, .T. ) ;
#15 = CARTESIAN_POINT ( 'NONE',  ( -23.00000000000000000, 2.816687638038912352E-15, 0.000000000000000000 ) ) ;
#16 = ORIENTED_EDGE ( 'NONE', *, *, #595, .F. ) ;
#17 = CARTESIAN_POINT ( 'NONE',  ( -19.59999999999999787, 28.00000000000000000, 0.000000000000000000 ) ) ;
#18 = EDGE_CURVE ( 'NONE', #784, #912, #878, .T. ) ;
#19 = CIRCLE ( 'NONE', #167, 1.700000000000000178 ) ;
#20 = DIRECTION ( 'NONE',  ( -0.000000000000000000, -0.000000000000000000, -1.000000000000000000 ) ) ;
#21 = ORIENTED_EDGE ( 'NONE', *, *, #886, .T. ) ;
#22 = AXIS2_PLACEMENT_3D ( 'NONE', #896, #457, #902 ) ;
#23 = CIRCLE ( 'NONE', #728, 2.500000000000002220 ) ;
#24 = CARTESIAN_POINT ( 'NONE',  ( -24.69999999999999929, 2.816687638038912352E-15, 6.000000000000000000 ) ) ;
#25 = EDGE_CURVE ( 'NONE', #32, #484, #205, .T. ) ;
#26 = DIRECTION ( 'NONE',  ( 0.000000000000000000, 0.000000000000000000, 1.000000000000000000 ) ) ;
#27 = EDGE_LOOP ( 'NONE', ( #523, #130 ) ) ;
#28 = CARTESIAN_POINT ( 'NONE',  ( 23.00000000000000000, 0.000000000000000000, 0.000000000000000000 ) ) ;
#29 = ORIENTED_EDGE ( 'NONE', *, *, #295, .T. ) ;
#30 = DIRECTION ( 'NONE',  ( 0.000000000000000000, 0.000000000000000000, 1.000000000000000000 ) ) ;
#31 = DIRECTION ( 'NONE',  ( -0.000000000000000000, -0.000000000000000000, -1.000000000000000000 ) ) ;
#32 = VERTEX_POINT ( 'NONE', #286 ) ;
#33 = CIRCLE ( 'NONE', #2, 1.700000000000000178 ) ;
#34 = AXIS2_PLACEMENT_3D ( 'NONE', #926, #493, #779 ) ;
#35 = AXIS2_PLACEMENT_3D ( 'NONE', #874, #514, #287 ) ;
#36 = CARTESIAN_POINT ( 'NONE',  ( 19.59999999999999787, -28.00000000000000000, 6.000000000000000000 ) ) ;
#37 = DIRECTION ( 'NONE',  ( 0.000000000000000000, 0.000000000000000000, -1.000000000000000000 ) ) ;
#38 = EDGE_LOOP ( 'NONE', ( #175, #187 ) ) ;
#39 = LINE ( 'NONE', #106, #199 ) ;
#40 = DIRECTION ( 'NONE',  ( -0.000000000000000000, -0.000000000000000000, -1.000000000000000000 ) ) ;
#41 = DIRECTION ( 'NONE',  ( -0.9578262852211514300, 0.2873478855663454956, 0.000000000000000000 ) ) ;
#42 = CARTESIAN_POINT ( 'NONE',  ( 11.50000000000000178, 19.91858428704208706, 6.000000000000000000 ) ) ;
#43 = ORIENTED_EDGE ( 'NONE', *, *, #673, .F. ) ;
#44 = AXIS2_PLACEMENT_3D ( 'NONE', #419, #503, #638 ) ;
#45 = CARTESIAN_POINT ( 'NONE',  ( -52.50000000000000711, 0.000000000000000000, 0.000000000000000000 ) ) ;
#46 = VECTOR ( 'NONE', #637, 1000.000000000000227 ) ;
#47 = ORIENTED_EDGE ( 'NONE', *, *, #469, .T. ) ;
#48 = LINE ( 'NONE', #620, #422 ) ;
#49 = CARTESIAN_POINT ( 'NONE',  ( 23.00000000000000000, 0.000000000000000000, 6.000000000000000000 ) ) ;
#50 = ORIENTED_EDGE ( 'NONE', *, *, #424, .T. ) ;
#51 = DIRECTION ( 'NONE',  ( 1.000000000000000000, 0.000000000000000000, 0.000000000000000000 ) ) ;
#52 = CARTESIAN_POINT ( 'NONE',  ( -59.00000000000000711, 9.000000000000000000, 6.000000000000000000 ) ) ;
#53 = VERTEX_POINT ( 'NONE', #338 ) ;
#54 = ORIENTED_EDGE ( 'NONE', *, *, #820, .F. ) ;
#55 = FACE_OUTER_BOUND ( 'NONE', #375, .T. ) ;
#56 = DIRECTION ( 'NONE',  ( -0.000000000000000000, -0.000000000000000000, -1.000000000000000000 ) ) ;
#57 = VECTOR ( 'NONE', #528, 1000.000000000000000 ) ;
#58 = AXIS2_PLACEMENT_3D ( 'NONE', #42, #325, #181 ) ;
#59 = CARTESIAN_POINT ( 'NONE',  ( 0.000000000000000000, 0.000000000000000000, 2.200000000000000178 ) ) ;
#60 = LOCAL_TIME ( 11, 8, 45.00000000000000000, #499 ) ;
#61 = ORIENTED_EDGE ( 'NONE', *, *, #490, .F. ) ;
#62 = CARTESIAN_POINT ( 'NONE',  ( 11.50000000000000178, 19.91858428704208706, 0.000000000000000000 ) ) ;
#63 = ORIENTED_EDGE ( 'NONE', *, *, #397, .T. ) ;
#64 = EDGE_CURVE ( 'NONE', #228, #897, #489, .T. ) ;
#65 = DIRECTION ( 'NONE',  ( -0.000000000000000000, -0.000000000000000000, -1.000000000000000000 ) ) ;
#66 = ORIENTED_EDGE ( 'NONE', *, *, #141, .T. ) ;
#67 = CYLINDRICAL_SURFACE ( 'NONE', #274, 17.15000000000000213 ) ;
#68 = CYLINDRICAL_SURFACE ( 'NONE', #216, 1.700000000000000178 ) ;
#69 = ADVANCED_FACE ( 'NONE', ( #861 ), #927, .F. ) ;
#70 = LINE ( 'NONE', #659, #501 ) ;
#71 = ORIENTED_EDGE ( 'NONE', *, *, #573, .F. ) ;
#72 = DIRECTION ( 'NONE',  ( -1.000000000000000000, 0.000000000000000000, 0.000000000000000000 ) ) ;
#73 = VECTOR ( 'NONE', #250, 1000.000000000000000 ) ;
#74 = AXIS2_PLACEMENT_3D ( 'NONE', #212, #585, #582 ) ;
#75 = CARTESIAN_POINT ( 'NONE',  ( -9.799999999999993605, 19.91858428704209061, 0.000000000000000000 ) ) ;
#76 = EDGE_LOOP ( 'NONE', ( #786, #96 ) ) ;
#77 = DATE_AND_TIME ( #157, #60 ) ;
#78 = CARTESIAN_POINT ( 'NONE',  ( -59.00000000000000711, -9.000000000000000000, 0.000000000000000000 ) ) ;
#79 = CARTESIAN_POINT ( 'NONE',  ( -9.800000000000009592, -19.91858428704208350, 6.000000000000000000 ) ) ;
#80 = EDGE_LOOP ( 'NONE', ( #916, #10 ) ) ;
#81 = CALENDAR_DATE ( 2026, 24, 9 ) ;
#82 = LINE ( 'NONE', #24, #57 ) ;
#83 = LINE ( 'NONE', #578, #648 ) ;
#84 = ORIENTED_EDGE ( 'NONE', *, *, #573, .T. ) ;
#85 = PERSON_AND_ORGANIZATION_ROLE ( 'classification_officer' ) ;
#86 = DIRECTION ( 'NONE',  ( 1.000000000000000000, 0.000000000000000000, 0.000000000000000000 ) ) ;
#87 = VECTOR ( 'NONE', #535, 1000.000000000000000 ) ;
#88 = DIRECTION ( 'NONE',  ( -0.000000000000000000, -0.000000000000000000, -1.000000000000000000 ) ) ;
#89 = ORIENTED_EDGE ( 'NONE', *, *, #724, .F. ) ;
#90 = AXIS2_PLACEMENT_3D ( 'NONE', #265, #704, #552 ) ;
#91 = AXIS2_PLACEMENT_3D ( 'NONE', #441, #370, #227 ) ;
#92 = LINE ( 'NONE', #807, #799 ) ;
#93 = ORIENTED_EDGE ( 'NONE', *, *, #101, .T. ) ;
#94 = CARTESIAN_POINT ( 'NONE',  ( 17.15000000000000213, 2.100269260537711104E-15, 0.000000000000000000 ) ) ;
#95 = FACE_OUTER_BOUND ( 'NONE', #529, .T. ) ;
#96 = ORIENTED_EDGE ( 'NONE', *, *, #928, .F. ) ;
#97 = EDGE_CURVE ( 'NONE', #455, #745, #421, .T. ) ;
#98 = FACE_OUTER_BOUND ( 'NONE', #100, .T. ) ;
#99 = DIRECTION ( 'NONE',  ( 0.000000000000000000, 0.000000000000000000, 1.000000000000000000 ) ) ;
#100 = EDGE_LOOP ( 'NONE', ( #131, #326, #54, #748 ) ) ;
#101 = EDGE_CURVE ( 'NONE', #745, #455, #627, .T. ) ;
#102 = AXIS2_PLACEMENT_3D ( 'NONE', #36, #41, #759 ) ;
#103 = CIRCLE ( 'NONE', #454, 1.700000000000000178 ) ;
#104 = ADVANCED_FACE ( 'NONE', ( #717 ), #68, .F. ) ;
#105 = APPROVAL_PERSON_ORGANIZATION ( #482, #744, #433 ) ;
#106 = CARTESIAN_POINT ( 'NONE',  ( 17.15000000000000213, 2.100269260537711104E-15, 2.200000000000000178 ) ) ;
#107 = CARTESIAN_POINT ( 'NONE',  ( 19.59999999999999787, 28.00000000000000000, 0.000000000000000000 ) ) ;
#108 = CARTESIAN_POINT ( 'NONE',  ( -13.20000000000000995, -19.91858428704208350, 6.000000000000000000 ) ) ;
#109 = EDGE_CURVE ( 'NONE', #53, #276, #311, .T. ) ;
#110 = CARTESIAN_POINT ( 'NONE',  ( -11.50000000000001066, -19.91858428704208350, 0.000000000000000000 ) ) ;
#111 = EDGE_LOOP ( 'NONE', ( #360, #246, #307, #712 ) ) ;
#112 = MECHANICAL_CONTEXT ( 'NONE', #831, 'mechanical' ) ;
#113 = DIRECTION ( 'NONE',  ( 0.000000000000000000, 0.000000000000000000, 1.000000000000000000 ) ) ;
#114 = ADVANCED_FACE ( 'NONE', ( #811 ), #743, .F. ) ;
#115 = CARTESIAN_POINT ( 'NONE',  ( 11.50000000000000178, -19.91858428704208706, 0.000000000000000000 ) ) ;
#116 = ORIENTED_EDGE ( 'NONE', *, *, #531, .F. ) ;
#117 = AXIS2_PLACEMENT_3D ( 'NONE', #577, #915, #776 ) ;
#118 = CARTESIAN_POINT ( 'NONE',  ( -21.30000000000000071, 3.024877593893962183E-15, 0.000000000000000000 ) ) ;
#119 = DIRECTION ( 'NONE',  ( -0.000000000000000000, -0.000000000000000000, -1.000000000000000000 ) ) ;
#120 = AXIS2_PLACEMENT_3D ( 'NONE', #613, #901, #681 ) ;
#121 = CIRCLE ( 'NONE', #349, 1.700000000000000178 ) ;
#122 = FACE_OUTER_BOUND ( 'NONE', #644, .T. ) ;
#123 = EDGE_CURVE ( 'NONE', #224, #758, #517, .T. ) ;
#124 = EDGE_LOOP ( 'NONE', ( #586, #515 ) ) ;
#125 = CARTESIAN_POINT ( 'NONE',  ( 11.50000000000000178, -19.91858428704208706, 0.000000000000000000 ) ) ;
#126 = DIRECTION ( 'NONE',  ( 0.000000000000000000, -1.000000000000000000, 0.000000000000000000 ) ) ;
#127 = ORIENTED_EDGE ( 'NONE', *, *, #447, .F. ) ;
#128 = ORIENTED_EDGE ( 'NONE', *, *, #226, .F. ) ;
#129 = FACE_BOUND ( 'NONE', #38, .T. ) ;
#130 = ORIENTED_EDGE ( 'NONE', *, *, #101, .F. ) ;
#131 = ORIENTED_EDGE ( 'NONE', *, *, #324, .T. ) ;
#132 = EDGE_CURVE ( 'NONE', #400, #891, #33, .T. ) ;
#133 = DIRECTION ( 'NONE',  ( -1.000000000000000000, 0.000000000000000000, 0.000000000000000000 ) ) ;
#134 = LINE ( 'NONE', #52, #153 ) ;
#135 = AXIS2_PLACEMENT_3D ( 'NONE', #890, #40, #403 ) ;
#136 = EDGE_LOOP ( 'NONE', ( #164, #127, #71, #383 ) ) ;
#137 = AXIS2_PLACEMENT_3D ( 'NONE', #15, #722, #300 ) ;
#138 = CARTESIAN_POINT ( 'NONE',  ( -59.00000000000000711, -9.000000000000000000, 6.000000000000000000 ) ) ;
#139 = ORIENTED_EDGE ( 'NONE', *, *, #132, .T. ) ;
#140 = CARTESIAN_POINT ( 'NONE',  ( 19.59999999999999787, 28.00000000000000000, 6.000000000000000000 ) ) ;
#141 = EDGE_CURVE ( 'NONE', #486, #442, #658, .T. ) ;
#142 = DIRECTION ( 'NONE',  ( 1.000000000000000000, 0.000000000000000000, 0.000000000000000000 ) ) ;
#143 = CARTESIAN_POINT ( 'NONE',  ( -21.30000000000000071, 3.024877593893962183E-15, 6.000000000000000000 ) ) ;
#144 = ORIENTED_EDGE ( 'NONE', *, *, #711, .F. ) ;
#145 = DIRECTION ( 'NONE',  ( 1.000000000000000000, 0.000000000000000000, -0.000000000000000000 ) ) ;
#146 = DIRECTION ( 'NONE',  ( 0.000000000000000000, 0.000000000000000000, 1.000000000000000000 ) ) ;
#147 = EDGE_CURVE ( 'NONE', #784, #553, #794, .T. ) ;
#148 = UNCERTAINTY_MEASURE_WITH_UNIT (LENGTH_MEASURE( 1.000000000000000082E-05 ), #688, 'distance_accuracy_value', 'NONE');
#149 = CYLINDRICAL_SURFACE ( 'NONE', #545, 1.700000000000000178 ) ;
#150 = VERTEX_POINT ( 'NONE', #17 ) ;
#151 = APPROVAL_DATE_TIME ( #77, #172 ) ;
#152 = FACE_OUTER_BOUND ( 'NONE', #178, .T. ) ;
#153 = VECTOR ( 'NONE', #119, 1000.000000000000000 ) ;
#154 = LOCAL_TIME ( 11, 8, 45.00000000000000000, #264 ) ;
#155 = CYLINDRICAL_SURFACE ( 'NONE', #754, 2.500000000000002220 ) ;
#156 = ORIENTED_EDGE ( 'NONE', *, *, #443, .F. ) ;
#157 = CALENDAR_DATE ( 2026, 24, 9 ) ;
#158 = DIRECTION ( 'NONE',  ( -0.000000000000000000, -0.000000000000000000, -1.000000000000000000 ) ) ;
#159 = CARTESIAN_POINT ( 'NONE',  ( 23.00000000000000000, 0.000000000000000000, 0.000000000000000000 ) ) ;
#160 = VERTEX_POINT ( 'NONE', #667 ) ;
#161 = DATE_AND_TIME ( #727, #814 ) ;
#162 = DIRECTION ( 'NONE',  ( 0.000000000000000000, 0.000000000000000000, 1.000000000000000000 ) ) ;
#163 = CARTESIAN_POINT ( 'NONE',  ( -11.49999999999999467, 19.91858428704209061, 0.000000000000000000 ) ) ;
#164 = ORIENTED_EDGE ( 'NONE', *, *, #563, .T. ) ;
#165 = CARTESIAN_POINT ( 'NONE',  ( -59.00000000000000711, 9.000000000000000000, 0.000000000000000000 ) ) ;
#166 = EDGE_CURVE ( 'NONE', #537, #381, #82, .T. ) ;
#167 = AXIS2_PLACEMENT_3D ( 'NONE', #49, #851, #932 ) ;
#168 = VERTEX_POINT ( 'NONE', #165 ) ;
#169 = AXIS2_PLACEMENT_3D ( 'NONE', #221, #145, #575 ) ;
#170 = AXIS2_PLACEMENT_3D ( 'NONE', #695, #347, #51 ) ;
#171 = DIRECTION ( 'NONE',  ( 0.000000000000000000, 0.000000000000000000, 1.000000000000000000 ) ) ;
#172 = APPROVAL ( #656, 'UNSPECIFIED' ) ;
#173 = DIRECTION ( 'NONE',  ( -1.000000000000000000, 0.000000000000000000, 0.000000000000000000 ) ) ;
#174 = VERTEX_POINT ( 'NONE', #373 ) ;
#175 = ORIENTED_EDGE ( 'NONE', *, *, #705, .T. ) ;
#176 = PLANE ( 'NONE',  #102 ) ;
#177 = LINE ( 'NONE', #597, #557 ) ;
#178 = EDGE_LOOP ( 'NONE', ( #412, #924, #505, #266 ) ) ;
#179 = EDGE_CURVE ( 'NONE', #897, #263, #92, .T. ) ;
#180 = CARTESIAN_POINT ( 'NONE',  ( 11.50000000000000178, -19.91858428704208706, 6.000000000000000000 ) ) ;
#181 = DIRECTION ( 'NONE',  ( 1.000000000000000000, 0.000000000000000000, 0.000000000000000000 ) ) ;
#182 = ADVANCED_FACE ( 'NONE', ( #590 ), #308, .F. ) ;
#183 = AXIS2_PLACEMENT_3D ( 'NONE', #670, #113, #889 ) ;
#184 = CC_DESIGN_SECURITY_CLASSIFICATION ( #467, ( #679 ) ) ;
#185 = DIRECTION ( 'NONE',  ( -0.000000000000000000, -0.000000000000000000, -1.000000000000000000 ) ) ;
#186 = LINE ( 'NONE', #816, #753 ) ;
#187 = ORIENTED_EDGE ( 'NONE', *, *, #852, .T. ) ;
#188 = DIRECTION ( 'NONE',  ( -0.000000000000000000, -0.000000000000000000, -1.000000000000000000 ) ) ;
#189 = FACE_OUTER_BOUND ( 'NONE', #437, .T. ) ;
#190 = CARTESIAN_POINT ( 'NONE',  ( 13.20000000000000107, 19.91858428704208706, 6.000000000000000000 ) ) ;
#191 = ORIENTED_EDGE ( 'NONE', *, *, #595, .T. ) ;
#192 = DIRECTION ( 'NONE',  ( 0.000000000000000000, 0.000000000000000000, -1.000000000000000000 ) ) ;
#193 = FACE_BOUND ( 'NONE', #124, .T. ) ;
#194 = EDGE_CURVE ( 'NONE', #832, #224, #877, .T. ) ;
#195 = VERTEX_POINT ( 'NONE', #653 ) ;
#196 = ORIENTED_EDGE ( 'NONE', *, *, #447, .T. ) ;
#197 = DATE_TIME_ROLE ( 'creation_date' ) ;
#198 = CARTESIAN_POINT ( 'NONE',  ( -11.49999999999999467, 19.91858428704209061, 6.000000000000000000 ) ) ;
#199 = VECTOR ( 'NONE', #402, 1000.000000000000000 ) ;
#200 = EDGE_LOOP ( 'NONE', ( #630, #43, #793, #196 ) ) ;
#201 = EDGE_CURVE ( 'NONE', #553, #174, #271, .T. ) ;
#202 = VERTEX_POINT ( 'NONE', #596 ) ;
#203 = LINE ( 'NONE', #209, #829 ) ;
#204 = LINE ( 'NONE', #417, #438 ) ;
#205 = LINE ( 'NONE', #350, #796 ) ;
#206 = ADVANCED_FACE ( 'NONE', ( #152 ), #222, .F. ) ;
#207 = ORIENTED_EDGE ( 'NONE', *, *, #166, .T. ) ;
#208 = ADVANCED_FACE ( 'NONE', ( #364 ), #649, .F. ) ;
#209 = CARTESIAN_POINT ( 'NONE',  ( -17.15000000000000213, 0.000000000000000000, 2.200000000000000178 ) ) ;
#210 = DIRECTION ( 'NONE',  ( 0.000000000000000000, 0.000000000000000000, 1.000000000000000000 ) ) ;
#211 = ORIENTED_EDGE ( 'NONE', *, *, #194, .F. ) ;
#212 = CARTESIAN_POINT ( 'NONE',  ( 0.000000000000000000, 0.000000000000000000, 0.000000000000000000 ) ) ;
#213 = ORIENTED_EDGE ( 'NONE', *, *, #424, .F. ) ;
#214 = PRODUCT_DEFINITION ( 'UNKNOWN', '', #679, #734 ) ;
#215 = LINE ( 'NONE', #280, #600 ) ;
#216 = AXIS2_PLACEMENT_3D ( 'NONE', #292, #158, #887 ) ;
#217 = VERTEX_POINT ( 'NONE', #729 ) ;
#218 = AXIS2_PLACEMENT_3D ( 'NONE', #159, #735, #219 ) ;
#219 = DIRECTION ( 'NONE',  ( 1.000000000000000000, 0.000000000000000000, 0.000000000000000000 ) ) ;
#220 = ORIENTED_EDGE ( 'NONE', *, *, #908, .T. ) ;
#221 = CARTESIAN_POINT ( 'NONE',  ( -59.00000000000000711, 9.000000000000000000, 6.000000000000000000 ) ) ;
#222 = CYLINDRICAL_SURFACE ( 'NONE', #346, 1.700000000000000178 ) ;
#223 = CARTESIAN_POINT ( 'NONE',  ( -11.50000000000001066, -19.91858428704208350, 6.000000000000000000 ) ) ;
#224 = VERTEX_POINT ( 'NONE', #581 ) ;
#225 = CARTESIAN_POINT ( 'NONE',  ( 19.59999999999999787, -28.00000000000000000, 6.000000000000000000 ) ) ;
#226 = EDGE_CURVE ( 'NONE', #270, #263, #873, .T. ) ;
#227 = DIRECTION ( 'NONE',  ( 1.000000000000000000, 0.000000000000000000, 0.000000000000000000 ) ) ;
#228 = VERTEX_POINT ( 'NONE', #78 ) ;
#229 = PERSON_AND_ORGANIZATION ( #418, #693 ) ;
#230 = DIRECTION ( 'NONE',  ( -0.000000000000000000, -0.000000000000000000, -1.000000000000000000 ) ) ;
#231 = AXIS2_PLACEMENT_3D ( 'NONE', #28, #162, #520 ) ;
#232 = CIRCLE ( 'NONE', #58, 1.700000000000000178 ) ;
#233 = ADVANCED_FACE ( 'NONE', ( #369 ), #802, .F. ) ;
#234 = VECTOR ( 'NONE', #591, 1000.000000000000000 ) ;
#235 = DIRECTION ( 'NONE',  ( 1.000000000000000000, 0.000000000000000000, 0.000000000000000000 ) ) ;
#236 = VERTEX_POINT ( 'NONE', #749 ) ;
#237 = CARTESIAN_POINT ( 'NONE',  ( 11.50000000000000178, 19.91858428704208706, 6.000000000000000000 ) ) ;
#238 = EDGE_CURVE ( 'NONE', #635, #150, #384, .T. ) ;
#239 = FACE_OUTER_BOUND ( 'NONE', #313, .T. ) ;
#240 = ORIENTED_EDGE ( 'NONE', *, *, #502, .T. ) ;
#241 = MANIFOLD_SOLID_BREP ( 'Pilot_Recess', #725 ) ;
#242 = DIRECTION ( 'NONE',  ( 0.000000000000000000, 0.000000000000000000, 1.000000000000000000 ) ) ;
#243 = ORIENTED_EDGE ( 'NONE', *, *, #179, .F. ) ;
#244 = DIRECTION ( 'NONE',  ( 0.4343654320899896226, -0.9007367381234522297, 0.000000000000000000 ) ) ;
#245 = DIRECTION ( 'NONE',  ( 0.000000000000000000, -1.000000000000000000, 0.000000000000000000 ) ) ;
#246 = ORIENTED_EDGE ( 'NONE', *, *, #531, .T. ) ;
#247 = VECTOR ( 'NONE', #366, 1000.000000000000000 ) ;
#248 = EDGE_CURVE ( 'NONE', #217, #420, #327, .T. ) ;
#249 = DIRECTION ( 'NONE',  ( 0.000000000000000000, 1.000000000000000000, 0.000000000000000000 ) ) ;
#250 = DIRECTION ( 'NONE',  ( -0.9007367381234522297, -0.4343654320899896781, 0.000000000000000000 ) ) ;
#251 = ORIENTED_EDGE ( 'NONE', *, *, #773, .T. ) ;
#252 = DIRECTION ( 'NONE',  ( -0.000000000000000000, -0.000000000000000000, -1.000000000000000000 ) ) ;
#253 = FACE_OUTER_BOUND ( 'NONE', #288, .T. ) ;
#254 = ORIENTED_EDGE ( 'NONE', *, *, #682, .F. ) ;
#255 = CARTESIAN_POINT ( 'NONE',  ( 19.59999999999999787, -28.00000000000000000, 0.000000000000000000 ) ) ;
#256 = CARTESIAN_POINT ( 'NONE',  ( -19.59999999999999787, 28.00000000000000000, 0.000000000000000000 ) ) ;
#257 = EDGE_CURVE ( 'NONE', #195, #812, #3, .T. ) ;
#258 = AXIS2_PLACEMENT_3D ( 'NONE', #59, #269, #780 ) ;
#259 = AXIS2_PLACEMENT_3D ( 'NONE', #198, #414, #911 ) ;
#260 = ORIENTED_EDGE ( 'NONE', *, *, #820, .T. ) ;
#261 = CARTESIAN_POINT ( 'NONE',  ( -50.00000000000000000, 0.000000000000000000, 6.000000000000000000 ) ) ;
#262 = CARTESIAN_POINT ( 'NONE',  ( 0.000000000000000000, 0.000000000000000000, 2.200000000000000178 ) ) ;
#263 = VERTEX_POINT ( 'NONE', #255 ) ;
#264 = COORDINATED_UNIVERSAL_TIME_OFFSET ( 5, 30, .AHEAD. ) ;
#265 = CARTESIAN_POINT ( 'NONE',  ( -11.50000000000001066, -19.91858428704208350, 6.000000000000000000 ) ) ;
#266 = ORIENTED_EDGE ( 'NONE', *, *, #791, .F. ) ;
#267 = APPROVAL_STATUS ( 'not_yet_approved' ) ;
#268 = FACE_BOUND ( 'NONE', #619, .T. ) ;
#269 = DIRECTION ( 'NONE',  ( 0.000000000000000000, 0.000000000000000000, 1.000000000000000000 ) ) ;
#270 = VERTEX_POINT ( 'NONE', #314 ) ;
#271 = CIRCLE ( 'NONE', #231, 1.700000000000000178 ) ;
#272 = CALENDAR_DATE ( 2026, 24, 9 ) ;
#273 = FACE_BOUND ( 'NONE', #817, .T. ) ;
#274 = AXIS2_PLACEMENT_3D ( 'NONE', #618, #934, #720 ) ;
#275 = ADVANCED_FACE ( 'NONE', ( #538 ), #675, .F. ) ;
#276 = VERTEX_POINT ( 'NONE', #45 ) ;
#277 = ADVANCED_FACE ( 'NONE', ( #98 ), #470, .F. ) ;
#278 = EDGE_LOOP ( 'NONE', ( #626, #93, #335, #770 ) ) ;
#279 = APPROVAL_STATUS ( 'not_yet_approved' ) ;
#280 = CARTESIAN_POINT ( 'NONE',  ( 19.59999999999999787, -28.00000000000000000, 6.000000000000000000 ) ) ;
#281 = ORIENTED_EDGE ( 'NONE', *, *, #846, .F. ) ;
#282 = EDGE_CURVE ( 'NONE', #160, #276, #304, .T. ) ;
#283 = ORIENTED_EDGE ( 'NONE', *, *, #513, .F. ) ;
#284 = PERSON_AND_ORGANIZATION ( #418, #693 ) ;
#285 = DIRECTION ( 'NONE',  ( -0.000000000000000000, 0.000000000000000000, 1.000000000000000000 ) ) ;
#286 = CARTESIAN_POINT ( 'NONE',  ( 9.800000000000000711, -19.91858428704208706, 6.000000000000000000 ) ) ;
#287 = DIRECTION ( 'NONE',  ( 1.000000000000000000, 0.000000000000000000, 0.000000000000000000 ) ) ;
#288 = EDGE_LOOP ( 'NONE', ( #836, #731, #900, #765 ) ) ;
#289 = FACE_OUTER_BOUND ( 'NONE', #200, .T. ) ;
#290 = AXIS2_PLACEMENT_3D ( 'NONE', #296, #444, #435 ) ;
#291 = AXIS2_PLACEMENT_3D ( 'NONE', #757, #465, #907 ) ;
#292 = CARTESIAN_POINT ( 'NONE',  ( -11.49999999999999467, 19.91858428704209061, 6.000000000000000000 ) ) ;
#293 = LOCAL_TIME ( 11, 8, 45.00000000000000000, #623 ) ;
#294 = ORIENTED_EDGE ( 'NONE', *, *, #663, .F. ) ;
#295 = EDGE_CURVE ( 'NONE', #812, #568, #827, .T. ) ;
#296 = CARTESIAN_POINT ( 'NONE',  ( -59.00000000000000711, -9.000000000000000000, 6.000000000000000000 ) ) ;
#297 = CARTESIAN_POINT ( 'NONE',  ( 17.15000000000000213, 2.100269260537711104E-15, 2.200000000000000178 ) ) ;
#298 = ORIENTED_EDGE ( 'NONE', *, *, #634, .F. ) ;
#299 = DIRECTION ( 'NONE',  ( 1.000000000000000000, 0.000000000000000000, 0.000000000000000000 ) ) ;
#300 = DIRECTION ( 'NONE',  ( 1.000000000000000000, 0.000000000000000000, 0.000000000000000000 ) ) ;
#301 = VERTEX_POINT ( 'NONE', #756 ) ;
#302 = CARTESIAN_POINT ( 'NONE',  ( 11.50000000000000178, 19.91858428704208706, 0.000000000000000000 ) ) ;
#303 = AXIS2_PLACEMENT_3D ( 'NONE', #448, #737, #8 ) ;
#304 = CIRCLE ( 'NONE', #317, 2.500000000000002220 ) ;
#305 = AXIS2_PLACEMENT_3D ( 'NONE', #449, #849, #133 ) ;
#306 = LINE ( 'NONE', #730, #379 ) ;
#307 = ORIENTED_EDGE ( 'NONE', *, *, #705, .F. ) ;
#308 = CYLINDRICAL_SURFACE ( 'NONE', #904, 1.700000000000000178 ) ;
#309 = ORIENTED_EDGE ( 'NONE', *, *, #555, .T. ) ;
#310 = CC_DESIGN_PERSON_AND_ORGANIZATION_ASSIGNMENT ( #284, #85, ( #467 ) ) ;
#311 = LINE ( 'NONE', #524, #843 ) ;
#312 = FACE_OUTER_BOUND ( 'NONE', #278, .T. ) ;
#313 = EDGE_LOOP ( 'NONE', ( #655, #428, #651, #592 ) ) ;
#314 = CARTESIAN_POINT ( 'NONE',  ( 19.59999999999999787, -28.00000000000000000, 6.000000000000000000 ) ) ;
#315 = CARTESIAN_POINT ( 'NONE',  ( -11.50000000000001066, -19.91858428704208350, 6.000000000000000000 ) ) ;
#316 = ORIENTED_EDGE ( 'NONE', *, *, #123, .T. ) ;
#317 = AXIS2_PLACEMENT_3D ( 'NONE', #542, #473, #894 ) ;
#318 = AXIS2_PLACEMENT_3D ( 'NONE', #864, #645, #504 ) ;
#319 = CARTESIAN_POINT ( 'NONE',  ( -19.59999999999999787, 28.00000000000000000, 6.000000000000000000 ) ) ;
#320 = CC_DESIGN_PERSON_AND_ORGANIZATION_ASSIGNMENT ( #876, #587, ( #679 ) ) ;
#321 = CARTESIAN_POINT ( 'NONE',  ( -19.59999999999999787, 28.00000000000000000, 6.000000000000000000 ) ) ;
#322 = VERTEX_POINT ( 'NONE', #108 ) ;
#323 = DIRECTION ( 'NONE',  ( -1.000000000000000000, 0.000000000000000000, 0.000000000000000000 ) ) ;
#324 = EDGE_CURVE ( 'NONE', #537, #236, #647, .T. ) ;
#325 = DIRECTION ( 'NONE',  ( 0.000000000000000000, 0.000000000000000000, 1.000000000000000000 ) ) ;
#326 = ORIENTED_EDGE ( 'NONE', *, *, #846, .T. ) ;
#327 = LINE ( 'NONE', #460, #740 ) ;
#328 = CARTESIAN_POINT ( 'NONE',  ( 24.69999999999999929, 2.081899558550500526E-16, 0.000000000000000000 ) ) ;
#329 = AXIS2_PLACEMENT_3D ( 'NONE', #914, #285, #500 ) ;
#330 = ORIENTED_EDGE ( 'NONE', *, *, #685, .T. ) ;
#331 = VECTOR ( 'NONE', #88, 1000.000000000000000 ) ;
#332 = PERSON_AND_ORGANIZATION ( #418, #693 ) ;
#333 = FACE_OUTER_BOUND ( 'NONE', #136, .T. ) ;
#334 = CC_DESIGN_PERSON_AND_ORGANIZATION_ASSIGNMENT ( #910, #703, ( #923 ) ) ;
#335 = ORIENTED_EDGE ( 'NONE', *, *, #895, .T. ) ;
#336 = PERSON_AND_ORGANIZATION ( #418, #693 ) ;
#337 = LINE ( 'NONE', #409, #677 ) ;
#338 = CARTESIAN_POINT ( 'NONE',  ( -52.50000000000000711, 0.000000000000000000, 6.000000000000000000 ) ) ;
#339 = ORIENTED_EDGE ( 'NONE', *, *, #109, .T. ) ;
#340 = EDGE_CURVE ( 'NONE', #276, #160, #921, .T. ) ;
#341 = APPLICATION_PROTOCOL_DEFINITION ( 'international standard', 'config_control_design', 1994, #831 ) ;
#342 = FACE_BOUND ( 'NONE', #76, .T. ) ;
#343 = ADVANCED_FACE ( 'NONE', ( #189 ), #176, .F. ) ;
#344 = ORIENTED_EDGE ( 'NONE', *, *, #324, .F. ) ;
#345 = ORIENTED_EDGE ( 'NONE', *, *, #404, .F. ) ;
#346 = AXIS2_PLACEMENT_3D ( 'NONE', #721, #511, #72 ) ;
#347 = DIRECTION ( 'NONE',  ( 0.000000000000000000, 0.000000000000000000, 1.000000000000000000 ) ) ;
#348 = FACE_BOUND ( 'NONE', #821, .T. ) ;
#349 = AXIS2_PLACEMENT_3D ( 'NONE', #163, #26, #380 ) ;
#350 = CARTESIAN_POINT ( 'NONE',  ( 9.800000000000000711, -19.91858428704208706, 6.000000000000000000 ) ) ;
#351 = ORIENTED_EDGE ( 'NONE', *, *, #257, .F. ) ;
#352 = DATE_AND_TIME ( #841, #293 ) ;
#353 = FACE_OUTER_BOUND ( 'NONE', #446, .T. ) ;
#354 = CYLINDRICAL_SURFACE ( 'NONE', #44, 2.500000000000002220 ) ;
#355 = CARTESIAN_POINT ( 'NONE',  ( 9.800000000000000711, 19.91858428704208706, 6.000000000000000000 ) ) ;
#356 = EDGE_LOOP ( 'NONE', ( #61, #510 ) ) ;
#357 = LINE ( 'NONE', #643, #588 ) ;
#358 = EDGE_LOOP ( 'NONE', ( #526, #778 ) ) ;
#359 = CARTESIAN_POINT ( 'NONE',  ( -50.00000000000000000, 0.000000000000000000, 6.000000000000000000 ) ) ;
#360 = ORIENTED_EDGE ( 'NONE', *, *, #411, .T. ) ;
#361 = EDGE_CURVE ( 'NONE', #496, #53, #392, .T. ) ;
#362 = AXIS2_PLACEMENT_3D ( 'NONE', #556, #844, #142 ) ;
#363 = AXIS2_PLACEMENT_3D ( 'NONE', #536, #31, #835 ) ;
#364 = FACE_OUTER_BOUND ( 'NONE', #27, .T. ) ;
#365 = AXIS2_PLACEMENT_3D ( 'NONE', #125, #565, #413 ) ;
#366 = DIRECTION ( 'NONE',  ( -0.000000000000000000, -0.000000000000000000, -1.000000000000000000 ) ) ;
#367 = ORIENTED_EDGE ( 'NONE', *, *, #810, .T. ) ;
#368 = PERSON_AND_ORGANIZATION_ROLE ( 'design_supplier' ) ;
#369 = FACE_OUTER_BOUND ( 'NONE', #572, .T. ) ;
#370 = DIRECTION ( 'NONE',  ( 0.000000000000000000, 0.000000000000000000, 1.000000000000000000 ) ) ;
#371 = ORIENTED_EDGE ( 'NONE', *, *, #411, .F. ) ;
#372 = DATE_TIME_ROLE ( 'classification_date' ) ;
#373 = CARTESIAN_POINT ( 'NONE',  ( 21.30000000000000071, 0.000000000000000000, 0.000000000000000000 ) ) ;
#374 = LINE ( 'NONE', #870, #742 ) ;
#375 = EDGE_LOOP ( 'NONE', ( #608, #491, #888, #406 ) ) ;
#376 = CARTESIAN_POINT ( 'NONE',  ( 9.800000000000000711, 19.91858428704208706, 6.000000000000000000 ) ) ;
#377 = AXIS2_PLACEMENT_3D ( 'NONE', #567, #477, #697 ) ;
#378 = AXIS2_PLACEMENT_3D ( 'NONE', #261, #548, #834 ) ;
#379 = VECTOR ( 'NONE', #436, 1000.000000000000000 ) ;
#380 = DIRECTION ( 'NONE',  ( 1.000000000000000000, 0.000000000000000000, 0.000000000000000000 ) ) ;
#381 = VERTEX_POINT ( 'NONE', #464 ) ;
#382 = DIRECTION ( 'NONE',  ( -0.000000000000000000, -0.000000000000000000, -1.000000000000000000 ) ) ;
#383 = ORIENTED_EDGE ( 'NONE', *, *, #404, .T. ) ;
#384 = LINE ( 'NONE', #609, #87 ) ;
#385 = CARTESIAN_POINT ( 'NONE',  ( -17.15000000000000213, 0.000000000000000000, 0.000000000000000000 ) ) ;
#386 = ORIENTED_EDGE ( 'NONE', *, *, #669, .T. ) ;
#387 = EDGE_CURVE ( 'NONE', #745, #410, #39, .T. ) ;
#388 = CARTESIAN_POINT ( 'NONE',  ( -13.19999999999999396, 19.91858428704209061, 6.000000000000000000 ) ) ;
#389 = CYLINDRICAL_SURFACE ( 'NONE', #135, 1.700000000000000178 ) ;
#390 = AXIS2_PLACEMENT_3D ( 'NONE', #62, #210, #632 ) ;
#391 = ORIENTED_EDGE ( 'NONE', *, *, #64, .F. ) ;
#392 = CIRCLE ( 'NONE', #378, 2.500000000000002220 ) ;
#393 = CC_DESIGN_APPROVAL ( #795, ( #214 ) ) ;
#394 = ADVANCED_FACE ( 'NONE', ( #333 ), #689, .F. ) ;
#395 = DIRECTION ( 'NONE',  ( 0.000000000000000000, -0.000000000000000000, 1.000000000000000000 ) ) ;
#396 = DIRECTION ( 'NONE',  ( -0.000000000000000000, -0.000000000000000000, -1.000000000000000000 ) ) ;
#397 = EDGE_CURVE ( 'NONE', #217, #32, #828, .T. ) ;
#398 = CARTESIAN_POINT ( 'NONE',  ( -11.49999999999999467, 19.91858428704209061, 6.000000000000000000 ) ) ;
#399 = DIRECTION ( 'NONE',  ( 1.000000000000000000, 0.000000000000000000, 0.000000000000000000 ) ) ;
#400 = VERTEX_POINT ( 'NONE', #898 ) ;
#401 = APPROVAL_DATE_TIME ( #352, #795 ) ;
#402 = DIRECTION ( 'NONE',  ( 0.000000000000000000, 0.000000000000000000, -1.000000000000000000 ) ) ;
#403 = DIRECTION ( 'NONE',  ( -1.000000000000000000, 0.000000000000000000, 0.000000000000000000 ) ) ;
#404 = EDGE_CURVE ( 'NONE', #442, #150, #456, .T. ) ;
#405 = AXIS2_PLACEMENT_3D ( 'NONE', #262, #37, #173 ) ;
#406 = ORIENTED_EDGE ( 'NONE', *, *, #201, .F. ) ;
#407 = LOCAL_TIME ( 11, 8, 45.00000000000000000, #806 ) ;
#408 = DIRECTION ( 'NONE',  ( 0.000000000000000000, 0.000000000000000000, 1.000000000000000000 ) ) ;
#409 = CARTESIAN_POINT ( 'NONE',  ( 28.00000000000000000, 0.000000000000000000, 6.000000000000000000 ) ) ;
#410 = VERTEX_POINT ( 'NONE', #94 ) ;
#411 = EDGE_CURVE ( 'NONE', #812, #195, #800, .T. ) ;
#412 = ORIENTED_EDGE ( 'NONE', *, *, #14, .T. ) ;
#413 = DIRECTION ( 'NONE',  ( 1.000000000000000000, 0.000000000000000000, 0.000000000000000000 ) ) ;
#414 = DIRECTION ( 'NONE',  ( 0.000000000000000000, 0.000000000000000000, 1.000000000000000000 ) ) ;
#415 = ORIENTED_EDGE ( 'NONE', *, *, #387, .T. ) ;
#416 = ORIENTED_EDGE ( 'NONE', *, *, #340, .F. ) ;
#417 = CARTESIAN_POINT ( 'NONE',  ( -47.50000000000000000, 3.061616997868386099E-16, 6.000000000000000000 ) ) ;
#418 = PERSON ( 'UNSPECIFIED', 'UNSPECIFIED', 'UNSPECIFIED', ('UNSPECIFIED'), ('UNSPECIFIED'), ('UNSPECIFIED') ) ;
#419 = CARTESIAN_POINT ( 'NONE',  ( -50.00000000000000000, 0.000000000000000000, 6.000000000000000000 ) ) ;
#420 = VERTEX_POINT ( 'NONE', #775 ) ;
#421 = CIRCLE ( 'NONE', #258, 17.15000000000000213 ) ;
#422 = VECTOR ( 'NONE', #126, 1000.000000000000000 ) ;
#423 = LINE ( 'NONE', #710, #46 ) ;
#424 = EDGE_CURVE ( 'NONE', #270, #202, #215, .T. ) ;
#425 = CIRCLE ( 'NONE', #218, 1.700000000000000178 ) ;
#426 = ORIENTED_EDGE ( 'NONE', *, *, #895, .F. ) ;
#427 = DIRECTION ( 'NONE',  ( -0.000000000000000000, -0.000000000000000000, -1.000000000000000000 ) ) ;
#428 = ORIENTED_EDGE ( 'NONE', *, *, #928, .T. ) ;
#429 = CARTESIAN_POINT ( 'NONE',  ( -47.50000000000000000, 3.061616997868386099E-16, 6.000000000000000000 ) ) ;
#430 = EDGE_LOOP ( 'NONE', ( #281, #386, #207, #298 ) ) ;
#431 = CARTESIAN_POINT ( 'NONE',  ( -23.00000000000000000, 2.816687638038912352E-15, 6.000000000000000000 ) ) ;
#432 = ORIENTED_EDGE ( 'NONE', *, *, #724, .T. ) ;
#433 = APPROVAL_ROLE ( '' ) ;
#434 = DIRECTION ( 'NONE',  ( -0.2873478855663454401, 0.9578262852211513190, 0.000000000000000000 ) ) ;
#435 = DIRECTION ( 'NONE',  ( -0.9007367381234522297, 0.4343654320899896226, 0.000000000000000000 ) ) ;
#436 = DIRECTION ( 'NONE',  ( -0.000000000000000000, -0.000000000000000000, -1.000000000000000000 ) ) ;
#437 = EDGE_LOOP ( 'NONE', ( #240, #156, #213, #920 ) ) ;
#438 = VECTOR ( 'NONE', #56, 1000.000000000000000 ) ;
#439 = DIRECTION ( 'NONE',  ( -0.000000000000000000, -0.000000000000000000, -1.000000000000000000 ) ) ;
#440 =( GEOMETRIC_REPRESENTATION_CONTEXT ( 3 ) GLOBAL_UNCERTAINTY_ASSIGNED_CONTEXT ( ( #148 ) ) GLOBAL_UNIT_ASSIGNED_CONTEXT ( ( #688, #930, #487 ) ) REPRESENTATION_CONTEXT ( 'NONE', 'WORKASPACE' ) );
#441 = CARTESIAN_POINT ( 'NONE',  ( -11.49999999999999467, 19.91858428704209061, 0.000000000000000000 ) ) ;
#442 = VERTEX_POINT ( 'NONE', #860 ) ;
#443 = EDGE_CURVE ( 'NONE', #202, #616, #337, .T. ) ;
#444 = DIRECTION ( 'NONE',  ( 0.4343654320899896226, 0.9007367381234522297, -0.000000000000000000 ) ) ;
#445 = CARTESIAN_POINT ( 'NONE',  ( -59.00000000000000711, -9.000000000000000000, 6.000000000000000000 ) ) ;
#446 = EDGE_LOOP ( 'NONE', ( #47, #880, #191, #50, #788, #66, #84 ) ) ;
#447 = EDGE_CURVE ( 'NONE', #865, #168, #134, .T. ) ;
#448 = CARTESIAN_POINT ( 'NONE',  ( 0.000000000000000000, 0.000000000000000000, 2.200000000000000178 ) ) ;
#449 = CARTESIAN_POINT ( 'NONE',  ( 11.50000000000000178, 19.91858428704208706, 6.000000000000000000 ) ) ;
#450 = EDGE_LOOP ( 'NONE', ( #579, #345, #798, #367 ) ) ;
#451 = EDGE_CURVE ( 'NONE', #322, #301, #498, .T. ) ;
#452 = DIRECTION ( 'NONE',  ( -1.000000000000000000, 0.000000000000000000, 0.000000000000000000 ) ) ;
#453 = AXIS2_PLACEMENT_3D ( 'NONE', #561, #850, #554 ) ;
#454 = AXIS2_PLACEMENT_3D ( 'NONE', #431, #879, #235 ) ;
#455 = VERTEX_POINT ( 'NONE', #488 ) ;
#456 = LINE ( 'NONE', #746, #906 ) ;
#457 = DIRECTION ( 'NONE',  ( -0.9578262852211514300, -0.2873478855663454956, 0.000000000000000000 ) ) ;
#458 = ADVANCED_FACE ( 'NONE', ( #838, #855, #342, #353, #769, #764, #193, #566 ), #931, .T. ) ;
#459 = ORIENTED_EDGE ( 'NONE', *, *, #443, .T. ) ;
#460 = CARTESIAN_POINT ( 'NONE',  ( 13.20000000000000107, -19.91858428704208706, 6.000000000000000000 ) ) ;
#461 = LINE ( 'NONE', #321, #73 ) ;
#462 = ORIENTED_EDGE ( 'NONE', *, *, #485, .T. ) ;
#463 = CC_DESIGN_PERSON_AND_ORGANIZATION_ASSIGNMENT ( #332, #617, ( #214 ) ) ;
#464 = CARTESIAN_POINT ( 'NONE',  ( -24.69999999999999929, 2.816687638038912352E-15, 0.000000000000000000 ) ) ;
#465 = DIRECTION ( 'NONE',  ( -0.000000000000000000, -0.000000000000000000, -1.000000000000000000 ) ) ;
#466 = AXIS2_PLACEMENT_3D ( 'NONE', #110, #678, #399 ) ;
#467 = SECURITY_CLASSIFICATION ( '', '', #516 ) ;
#468 = ADVANCED_FACE ( 'NONE', ( #842, #624, #268, #348, #129, #696, #569, #273, #476 ), #918, .F. ) ;
#469 = EDGE_CURVE ( 'NONE', #865, #762, #48, .T. ) ;
#470 = CYLINDRICAL_SURFACE ( 'NONE', #120, 1.700000000000000178 ) ;
#471 = CARTESIAN_POINT ( 'NONE',  ( -24.69999999999999929, 2.816687638038912352E-15, 6.000000000000000000 ) ) ;
#472 = ORIENTED_EDGE ( 'NONE', *, *, #857, .T. ) ;
#473 = DIRECTION ( 'NONE',  ( 0.000000000000000000, 0.000000000000000000, 1.000000000000000000 ) ) ;
#474 = FACE_OUTER_BOUND ( 'NONE', #430, .T. ) ;
#475 = ORIENTED_EDGE ( 'NONE', *, *, #685, .F. ) ;
#476 = FACE_BOUND ( 'NONE', #80, .T. ) ;
#477 = DIRECTION ( 'NONE',  ( 0.000000000000000000, 0.000000000000000000, 1.000000000000000000 ) ) ;
#478 = EDGE_CURVE ( 'NONE', #496, #160, #204, .T. ) ;
#479 = CIRCLE ( 'NONE', #390, 1.700000000000000178 ) ;
#480 = EDGE_LOOP ( 'NONE', ( #665, #909, #220, #809 ) ) ;
#481 = AXIS2_PLACEMENT_3D ( 'NONE', #636, #408, #913 ) ;
#482 = PERSON_AND_ORGANIZATION ( #418, #693 ) ;
#483 = DIRECTION ( 'NONE',  ( 0.2873478855663454401, 0.9578262852211513190, 0.000000000000000000 ) ) ;
#484 = VERTEX_POINT ( 'NONE', #785 ) ;
#485 = EDGE_CURVE ( 'NONE', #758, #224, #479, .T. ) ;
#486 = VERTEX_POINT ( 'NONE', #140 ) ;
#487 =( NAMED_UNIT ( * ) SI_UNIT ( $, .STERADIAN. ) SOLID_ANGLE_UNIT ( ) );
#488 = CARTESIAN_POINT ( 'NONE',  ( -17.15000000000000213, 0.000000000000000000, 2.200000000000000178 ) ) ;
#489 = LINE ( 'NONE', #869, #691 ) ;
#490 = EDGE_CURVE ( 'NONE', #32, #217, #726, .T. ) ;
#491 = ORIENTED_EDGE ( 'NONE', *, *, #18, .T. ) ;
#492 = APPLICATION_CONTEXT ( 'configuration controlled 3d designs of mechanical parts and assemblies' ) ;
#493 = DIRECTION ( 'NONE',  ( 0.000000000000000000, 0.000000000000000000, 1.000000000000000000 ) ) ;
#494 = ORIENTED_EDGE ( 'NONE', *, *, #257, .T. ) ;
#495 = DIRECTION ( 'NONE',  ( -0.000000000000000000, -0.000000000000000000, -1.000000000000000000 ) ) ;
#496 = VERTEX_POINT ( 'NONE', #429 ) ;
#497 = VECTOR ( 'NONE', #439, 1000.000000000000000 ) ;
#498 = CIRCLE ( 'NONE', #90, 1.700000000000000178 ) ;
#499 = COORDINATED_UNIVERSAL_TIME_OFFSET ( 5, 30, .AHEAD. ) ;
#500 = DIRECTION ( 'NONE',  ( 1.000000000000000000, 0.000000000000000000, 0.000000000000000000 ) ) ;
#501 = VECTOR ( 'NONE', #9, 1000.000000000000227 ) ;
#502 = EDGE_CURVE ( 'NONE', #263, #616, #423, .T. ) ;
#503 = DIRECTION ( 'NONE',  ( -0.000000000000000000, -0.000000000000000000, -1.000000000000000000 ) ) ;
#504 = DIRECTION ( 'NONE',  ( 1.000000000000000000, 0.000000000000000000, 0.000000000000000000 ) ) ;
#505 = ORIENTED_EDGE ( 'NONE', *, *, #760, .F. ) ;
#506 = PLANE ( 'NONE',  #169 ) ;
#507 = ADVANCED_FACE ( 'NONE', ( #716 ), #67, .F. ) ;
#508 = DIRECTION ( 'NONE',  ( -0.000000000000000000, -0.000000000000000000, -1.000000000000000000 ) ) ;
#509 = DIRECTION ( 'NONE',  ( -1.000000000000000000, 0.000000000000000000, 0.000000000000000000 ) ) ;
#510 = ORIENTED_EDGE ( 'NONE', *, *, #397, .F. ) ;
#511 = DIRECTION ( 'NONE',  ( -0.000000000000000000, -0.000000000000000000, -1.000000000000000000 ) ) ;
#512 = ADVANCED_FACE ( 'NONE', ( #289 ), #506, .F. ) ;
#513 = EDGE_CURVE ( 'NONE', #202, #486, #867, .T. ) ;
#514 = DIRECTION ( 'NONE',  ( 0.000000000000000000, 0.000000000000000000, 1.000000000000000000 ) ) ;
#515 = ORIENTED_EDGE ( 'NONE', *, *, #771, .F. ) ;
#516 = SECURITY_CLASSIFICATION_LEVEL ( 'unclassified' ) ;
#517 = CIRCLE ( 'NONE', #781, 1.700000000000000178 ) ;
#518 = AXIS2_PLACEMENT_3D ( 'NONE', #115, #823, #750 ) ;
#519 = APPROVAL_PERSON_ORGANIZATION ( #801, #172, #11 ) ;
#520 = DIRECTION ( 'NONE',  ( 1.000000000000000000, 0.000000000000000000, 0.000000000000000000 ) ) ;
#521 = CIRCLE ( 'NONE', #91, 1.700000000000000178 ) ;
#522 = CARTESIAN_POINT ( 'NONE',  ( 13.20000000000000107, 19.91858428704208706, 0.000000000000000000 ) ) ;
#523 = ORIENTED_EDGE ( 'NONE', *, *, #97, .F. ) ;
#524 = CARTESIAN_POINT ( 'NONE',  ( -52.50000000000000711, 0.000000000000000000, 6.000000000000000000 ) ) ;
#525 = CARTESIAN_POINT ( 'NONE',  ( 13.20000000000000107, 19.91858428704208706, 6.000000000000000000 ) ) ;
#526 = ORIENTED_EDGE ( 'NONE', *, *, #14, .F. ) ;
#527 = EDGE_CURVE ( 'NONE', #168, #228, #357, .T. ) ;
#528 = DIRECTION ( 'NONE',  ( -0.000000000000000000, -0.000000000000000000, -1.000000000000000000 ) ) ;
#529 = EDGE_LOOP ( 'NONE', ( #116, #494, #29, #633 ) ) ;
#530 = DIRECTION ( 'NONE',  ( 0.9007367381234522297, 0.4343654320899896226, 0.000000000000000000 ) ) ;
#531 = EDGE_CURVE ( 'NONE', #195, #824, #177, .T. ) ;
#532 = AXIS2_PLACEMENT_3D ( 'NONE', #549, #99, #686 ) ;
#533 = LINE ( 'NONE', #256, #628 ) ;
#534 = ORIENTED_EDGE ( 'NONE', *, *, #123, .F. ) ;
#535 = DIRECTION ( 'NONE',  ( -1.000000000000000000, 0.000000000000000000, 0.000000000000000000 ) ) ;
#536 = CARTESIAN_POINT ( 'NONE',  ( -11.49999999999999467, 19.91858428704209061, 6.000000000000000000 ) ) ;
#537 = VERTEX_POINT ( 'NONE', #471 ) ;
#538 = FACE_OUTER_BOUND ( 'NONE', #871, .T. ) ;
#539 = DIRECTION ( 'NONE',  ( -0.000000000000000000, -0.000000000000000000, -1.000000000000000000 ) ) ;
#540 = ADVANCED_FACE ( 'NONE', ( #474 ), #389, .F. ) ;
#541 = ORIENTED_EDGE ( 'NONE', *, *, #810, .F. ) ;
#542 = CARTESIAN_POINT ( 'NONE',  ( -50.00000000000000000, 0.000000000000000000, 0.000000000000000000 ) ) ;
#543 = DIRECTION ( 'NONE',  ( -0.9007367381234522297, -0.4343654320899896781, 0.000000000000000000 ) ) ;
#544 = VECTOR ( 'NONE', #452, 1000.000000000000000 ) ;
#545 = AXIS2_PLACEMENT_3D ( 'NONE', #223, #20, #509 ) ;
#546 = ADVANCED_FACE ( 'NONE', ( #610 ), #761, .F. ) ;
#547 = ORIENTED_EDGE ( 'NONE', *, *, #179, .T. ) ;
#548 = DIRECTION ( 'NONE',  ( 0.000000000000000000, 0.000000000000000000, 1.000000000000000000 ) ) ;
#549 = CARTESIAN_POINT ( 'NONE',  ( -23.00000000000000000, 2.816687638038912352E-15, 0.000000000000000000 ) ) ;
#550 = VERTEX_POINT ( 'NONE', #385 ) ;
#551 = LINE ( 'NONE', #833, #893 ) ;
#552 = DIRECTION ( 'NONE',  ( 1.000000000000000000, 0.000000000000000000, 0.000000000000000000 ) ) ;
#553 = VERTEX_POINT ( 'NONE', #328 ) ;
#554 = DIRECTION ( 'NONE',  ( 1.000000000000000000, 0.000000000000000000, 0.000000000000000000 ) ) ;
#555 = EDGE_CURVE ( 'NONE', #420, #484, #862, .T. ) ;
#556 = CARTESIAN_POINT ( 'NONE',  ( 0.000000000000000000, 0.000000000000000000, 2.200000000000000178 ) ) ;
#557 = VECTOR ( 'NONE', #539, 1000.000000000000000 ) ;
#558 = EDGE_LOOP ( 'NONE', ( #260, #6 ) ) ;
#559 = APPROVAL_PERSON_ORGANIZATION ( #336, #795, #631 ) ;
#560 = APPLICATION_PROTOCOL_DEFINITION ( 'international standard', 'config_control_design', 1994, #492 ) ;
#561 = CARTESIAN_POINT ( 'NONE',  ( 0.000000000000000000, 0.000000000000000000, 0.000000000000000000 ) ) ;
#562 = ORIENTED_EDGE ( 'NONE', *, *, #25, .T. ) ;
#563 = EDGE_CURVE ( 'NONE', #150, #168, #533, .T. ) ;
#564 = EDGE_LOOP ( 'NONE', ( #687, #89, #294, #698 ) ) ;
#565 = DIRECTION ( 'NONE',  ( 0.000000000000000000, 0.000000000000000000, 1.000000000000000000 ) ) ;
#566 = FACE_BOUND ( 'NONE', #621, .T. ) ;
#567 = CARTESIAN_POINT ( 'NONE',  ( 23.00000000000000000, 0.000000000000000000, 6.000000000000000000 ) ) ;
#568 = VERTEX_POINT ( 'NONE', #830 ) ;
#569 = FACE_BOUND ( 'NONE', #804, .T. ) ;
#570 = DIRECTION ( 'NONE',  ( 0.9007367381234522297, -0.4343654320899896781, 0.000000000000000000 ) ) ;
#571 = DIRECTION ( 'NONE',  ( 1.000000000000000000, 0.000000000000000000, 0.000000000000000000 ) ) ;
#572 = EDGE_LOOP ( 'NONE', ( #547, #128, #16, #432 ) ) ;
#573 = EDGE_CURVE ( 'NONE', #442, #865, #461, .T. ) ;
#574 = AXIS2_PLACEMENT_3D ( 'NONE', #822, #905, #684 ) ;
#575 = DIRECTION ( 'NONE',  ( -0.000000000000000000, 0.000000000000000000, -1.000000000000000000 ) ) ;
#576 = CIRCLE ( 'NONE', #35, 1.700000000000000178 ) ;
#577 = CARTESIAN_POINT ( 'NONE',  ( 19.59999999999999787, 28.00000000000000000, 6.000000000000000000 ) ) ;
#578 = CARTESIAN_POINT ( 'NONE',  ( -19.59999999999999787, -28.00000000000000000, 6.000000000000000000 ) ) ;
#579 = ORIENTED_EDGE ( 'NONE', *, *, #238, .T. ) ;
#580 = EDGE_CURVE ( 'NONE', #832, #641, #232, .T. ) ;
#581 = CARTESIAN_POINT ( 'NONE',  ( 9.800000000000000711, 19.91858428704208706, 0.000000000000000000 ) ) ;
#582 = DIRECTION ( 'NONE',  ( 1.000000000000000000, 0.000000000000000000, 0.000000000000000000 ) ) ;
#583 = ORIENTED_EDGE ( 'NONE', *, *, #97, .T. ) ;
#584 = CARTESIAN_POINT ( 'NONE',  ( -19.59999999999999787, -28.00000000000000000, 6.000000000000000000 ) ) ;
#585 = DIRECTION ( 'NONE',  ( 0.000000000000000000, 0.000000000000000000, 1.000000000000000000 ) ) ;
#586 = ORIENTED_EDGE ( 'NONE', *, *, #451, .F. ) ;
#587 = PERSON_AND_ORGANIZATION_ROLE ( 'creator' ) ;
#588 = VECTOR ( 'NONE', #245, 1000.000000000000000 ) ;
#589 = CC_DESIGN_APPROVAL ( #172, ( #467 ) ) ;
#590 = FACE_OUTER_BOUND ( 'NONE', #933, .T. ) ;
#591 = DIRECTION ( 'NONE',  ( -0.000000000000000000, -0.000000000000000000, -1.000000000000000000 ) ) ;
#592 = ORIENTED_EDGE ( 'NONE', *, *, #485, .F. ) ;
#593 = DIRECTION ( 'NONE',  ( -1.000000000000000000, 0.000000000000000000, 0.000000000000000000 ) ) ;
#594 = ORIENTED_EDGE ( 'NONE', *, *, #711, .T. ) ;
#595 = EDGE_CURVE ( 'NONE', #848, #270, #186, .T. ) ;
#596 = CARTESIAN_POINT ( 'NONE',  ( 28.00000000000000000, 0.000000000000000000, 6.000000000000000000 ) ) ;
#597 = CARTESIAN_POINT ( 'NONE',  ( -9.799999999999993605, 19.91858428704209061, 6.000000000000000000 ) ) ;
#598 = EDGE_LOOP ( 'NONE', ( #330, #541, #283, #459 ) ) ;
#599 = DIRECTION ( 'NONE',  ( -0.000000000000000000, -0.000000000000000000, -1.000000000000000000 ) ) ;
#600 = VECTOR ( 'NONE', #483, 1000.000000000000227 ) ;
#601 = DIRECTION ( 'NONE',  ( -1.000000000000000000, 0.000000000000000000, 0.000000000000000000 ) ) ;
#602 = CIRCLE ( 'NONE', #137, 1.700000000000000178 ) ;
#603 = ORIENTED_EDGE ( 'NONE', *, *, #555, .F. ) ;
#604 = ADVANCED_FACE ( 'NONE', ( #253 ), #614, .F. ) ;
#605 = DIRECTION ( 'NONE',  ( 1.000000000000000000, 0.000000000000000000, 0.000000000000000000 ) ) ;
#606 = EDGE_CURVE ( 'NONE', #891, #400, #692, .T. ) ;
#607 = FACE_OUTER_BOUND ( 'NONE', #480, .T. ) ;
#608 = ORIENTED_EDGE ( 'NONE', *, *, #147, .F. ) ;
#609 = CARTESIAN_POINT ( 'NONE',  ( 19.59999999999999787, 28.00000000000000000, 0.000000000000000000 ) ) ;
#610 = FACE_OUTER_BOUND ( 'NONE', #598, .T. ) ;
#611 = ADVANCED_FACE ( 'NONE', ( #312 ), #755, .F. ) ;
#612 = ORIENTED_EDGE ( 'NONE', *, *, #478, .F. ) ;
#613 = CARTESIAN_POINT ( 'NONE',  ( -23.00000000000000000, 2.816687638038912352E-15, 6.000000000000000000 ) ) ;
#614 = CYLINDRICAL_SURFACE ( 'NONE', #291, 1.700000000000000178 ) ;
#615 = VECTOR ( 'NONE', #650, 1000.000000000000000 ) ;
#616 = VERTEX_POINT ( 'NONE', #747 ) ;
#617 = PERSON_AND_ORGANIZATION_ROLE ( 'creator' ) ;
#618 = CARTESIAN_POINT ( 'NONE',  ( 0.000000000000000000, 0.000000000000000000, 2.200000000000000178 ) ) ;
#619 = EDGE_LOOP ( 'NONE', ( #622, #929 ) ) ;
#620 = CARTESIAN_POINT ( 'NONE',  ( -59.00000000000000711, 9.000000000000000000, 6.000000000000000000 ) ) ;
#621 = EDGE_LOOP ( 'NONE', ( #144, #856 ) ) ;
#622 = ORIENTED_EDGE ( 'NONE', *, *, #760, .T. ) ;
#623 = COORDINATED_UNIVERSAL_TIME_OFFSET ( 5, 30, .AHEAD. ) ;
#624 = FACE_OUTER_BOUND ( 'NONE', #646, .T. ) ;
#625 = CC_DESIGN_PERSON_AND_ORGANIZATION_ASSIGNMENT ( #229, #368, ( #679 ) ) ;
#626 = ORIENTED_EDGE ( 'NONE', *, *, #387, .F. ) ;
#627 = CIRCLE ( 'NONE', #362, 17.15000000000000213 ) ;
#628 = VECTOR ( 'NONE', #543, 1000.000000000000000 ) ;
#629 = CIRCLE ( 'NONE', #481, 1.700000000000000178 ) ;
#630 = ORIENTED_EDGE ( 'NONE', *, *, #527, .T. ) ;
#631 = APPROVAL_ROLE ( '' ) ;
#632 = DIRECTION ( 'NONE',  ( 1.000000000000000000, 0.000000000000000000, 0.000000000000000000 ) ) ;
#633 = ORIENTED_EDGE ( 'NONE', *, *, #852, .F. ) ;
#634 = EDGE_CURVE ( 'NONE', #875, #381, #813, .T. ) ;
#635 = VERTEX_POINT ( 'NONE', #107 ) ;
#636 = CARTESIAN_POINT ( 'NONE',  ( 11.50000000000000178, 19.91858428704208706, 6.000000000000000000 ) ) ;
#637 = DIRECTION ( 'NONE',  ( 0.2873478855663454401, 0.9578262852211513190, 0.000000000000000000 ) ) ;
#638 = DIRECTION ( 'NONE',  ( -1.000000000000000000, 0.000000000000000000, 0.000000000000000000 ) ) ;
#639 = ADVANCED_FACE ( 'NONE', ( #95 ), #671, .F. ) ;
#640 = LINE ( 'NONE', #143, #331 ) ;
#641 = VERTEX_POINT ( 'NONE', #190 ) ;
#642 = ADVANCED_BREP_SHAPE_REPRESENTATION ( 'JX1_AnkleCrank', ( #241, #170 ), #440 ) ;
#643 = CARTESIAN_POINT ( 'NONE',  ( -59.00000000000000711, 9.000000000000000000, 0.000000000000000000 ) ) ;
#644 = EDGE_LOOP ( 'NONE', ( #594, #719, #416, #772 ) ) ;
#645 = DIRECTION ( 'NONE',  ( 0.000000000000000000, 0.000000000000000000, 1.000000000000000000 ) ) ;
#646 = EDGE_LOOP ( 'NONE', ( #739, #701, #672, #475, #702, #243, #391 ) ) ;
#647 = CIRCLE ( 'NONE', #574, 1.700000000000000178 ) ;
#648 = VECTOR ( 'NONE', #65, 1000.000000000000000 ) ;
#649 = PLANE ( 'NONE',  #303 ) ;
#650 = DIRECTION ( 'NONE',  ( 0.9007367381234522297, -0.4343654320899896781, 0.000000000000000000 ) ) ;
#651 = ORIENTED_EDGE ( 'NONE', *, *, #194, .T. ) ;
#652 = CC_DESIGN_DATE_AND_TIME_ASSIGNMENT ( #763, #197, ( #214 ) ) ;
#653 = CARTESIAN_POINT ( 'NONE',  ( -9.799999999999993605, 19.91858428704209061, 6.000000000000000000 ) ) ;
#654 = DIRECTION ( 'NONE',  ( -0.000000000000000000, -0.000000000000000000, -1.000000000000000000 ) ) ;
#655 = ORIENTED_EDGE ( 'NONE', *, *, #857, .F. ) ;
#656 = APPROVAL_STATUS ( 'not_yet_approved' ) ;
#657 = ADVANCED_FACE ( 'NONE', ( #607 ), #899, .F. ) ;
#658 = LINE ( 'NONE', #13, #544 ) ;
#659 = CARTESIAN_POINT ( 'NONE',  ( 28.00000000000000000, 0.000000000000000000, 0.000000000000000000 ) ) ;
#660 = ORIENTED_EDGE ( 'NONE', *, *, #606, .T. ) ;
#661 = AXIS2_PLACEMENT_3D ( 'NONE', #837, #917, #774 ) ;
#662 = CARTESIAN_POINT ( 'NONE',  ( 24.69999999999999929, 2.081899558550500526E-16, 6.000000000000000000 ) ) ;
#663 = EDGE_CURVE ( 'NONE', #762, #848, #683, .T. ) ;
#664 = LINE ( 'NONE', #525, #234 ) ;
#665 = ORIENTED_EDGE ( 'NONE', *, *, #825, .F. ) ;
#666 = EDGE_LOOP ( 'NONE', ( #371, #351 ) ) ;
#667 = CARTESIAN_POINT ( 'NONE',  ( -47.50000000000000000, 3.061616997868386099E-16, 0.000000000000000000 ) ) ;
#668 = ORIENTED_EDGE ( 'NONE', *, *, #132, .F. ) ;
#669 = EDGE_CURVE ( 'NONE', #236, #537, #103, .T. ) ;
#670 = CARTESIAN_POINT ( 'NONE',  ( -50.00000000000000000, 0.000000000000000000, 0.000000000000000000 ) ) ;
#671 = CYLINDRICAL_SURFACE ( 'NONE', #363, 1.700000000000000178 ) ;
#672 = ORIENTED_EDGE ( 'NONE', *, *, #238, .F. ) ;
#673 = EDGE_CURVE ( 'NONE', #762, #228, #718, .T. ) ;
#674 = ADVANCED_FACE ( 'NONE', ( #5 ), #155, .F. ) ;
#675 = CYLINDRICAL_SURFACE ( 'NONE', #919, 1.700000000000000178 ) ;
#676 = VECTOR ( 'NONE', #790, 1000.000000000000000 ) ;
#677 = VECTOR ( 'NONE', #700, 1000.000000000000000 ) ;
#678 = DIRECTION ( 'NONE',  ( 0.000000000000000000, 0.000000000000000000, 1.000000000000000000 ) ) ;
#679 = PRODUCT_DEFINITION_FORMATION_WITH_SPECIFIED_SOURCE ( 'ANY', '', #923, .NOT_KNOWN. ) ;
#680 = EDGE_LOOP ( 'NONE', ( #583, #415, #254, #426 ) ) ;
#681 = DIRECTION ( 'NONE',  ( -1.000000000000000000, 0.000000000000000000, 0.000000000000000000 ) ) ;
#682 = EDGE_CURVE ( 'NONE', #550, #410, #863, .T. ) ;
#683 = LINE ( 'NONE', #819, #615 ) ;
#684 = DIRECTION ( 'NONE',  ( 1.000000000000000000, 0.000000000000000000, 0.000000000000000000 ) ) ;
#685 = EDGE_CURVE ( 'NONE', #616, #635, #70, .T. ) ;
#686 = DIRECTION ( 'NONE',  ( 1.000000000000000000, 0.000000000000000000, 0.000000000000000000 ) ) ;
#687 = ORIENTED_EDGE ( 'NONE', *, *, #64, .T. ) ;
#688 =( LENGTH_UNIT ( ) NAMED_UNIT ( * ) SI_UNIT ( .MILLI., .METRE. ) );
#689 = PLANE ( 'NONE',  #782 ) ;
#690 = DIRECTION ( 'NONE',  ( 1.000000000000000000, 0.000000000000000000, 0.000000000000000000 ) ) ;
#691 = VECTOR ( 'NONE', #570, 1000.000000000000000 ) ;
#692 = CIRCLE ( 'NONE', #466, 1.700000000000000178 ) ;
#693 = ORGANIZATION ( 'UNSPECIFIED', 'UNSPECIFIED', '' ) ;
#694 = ORIENTED_EDGE ( 'NONE', *, *, #361, .T. ) ;
#695 = CARTESIAN_POINT ( 'NONE',  ( 0.000000000000000000, 0.000000000000000000, 0.000000000000000000 ) ) ;
#696 = FACE_BOUND ( 'NONE', #558, .T. ) ;
#697 = DIRECTION ( 'NONE',  ( 1.000000000000000000, 0.000000000000000000, 0.000000000000000000 ) ) ;
#698 = ORIENTED_EDGE ( 'NONE', *, *, #673, .T. ) ;
#699 = CARTESIAN_POINT ( 'NONE',  ( -19.59999999999999787, -28.00000000000000000, 0.000000000000000000 ) ) ;
#700 = DIRECTION ( 'NONE',  ( -0.000000000000000000, -0.000000000000000000, -1.000000000000000000 ) ) ;
#701 = ORIENTED_EDGE ( 'NONE', *, *, #563, .F. ) ;
#702 = ORIENTED_EDGE ( 'NONE', *, *, #502, .F. ) ;
#703 = PERSON_AND_ORGANIZATION_ROLE ( 'design_owner' ) ;
#704 = DIRECTION ( 'NONE',  ( 0.000000000000000000, 0.000000000000000000, 1.000000000000000000 ) ) ;
#705 = EDGE_CURVE ( 'NONE', #568, #824, #521, .T. ) ;
#706 = DIRECTION ( 'NONE',  ( -0.000000000000000000, -0.000000000000000000, -1.000000000000000000 ) ) ;
#707 = VECTOR ( 'NONE', #382, 1000.000000000000000 ) ;
#708 = VECTOR ( 'NONE', #185, 1000.000000000000000 ) ;
#709 = EDGE_LOOP ( 'NONE', ( #903, #714, #668, #767 ) ) ;
#710 = CARTESIAN_POINT ( 'NONE',  ( 19.59999999999999787, -28.00000000000000000, 0.000000000000000000 ) ) ;
#711 = EDGE_CURVE ( 'NONE', #53, #496, #23, .T. ) ;
#712 = ORIENTED_EDGE ( 'NONE', *, *, #295, .F. ) ;
#713 = LINE ( 'NONE', #79, #847 ) ;
#714 = ORIENTED_EDGE ( 'NONE', *, *, #825, .T. ) ;
#715 = APPROVAL_DATE_TIME ( #161, #744 ) ;
#716 = FACE_OUTER_BOUND ( 'NONE', #680, .T. ) ;
#717 = FACE_OUTER_BOUND ( 'NONE', #111, .T. ) ;
#718 = LINE ( 'NONE', #138, #247 ) ;
#719 = ORIENTED_EDGE ( 'NONE', *, *, #478, .T. ) ;
#720 = DIRECTION ( 'NONE',  ( -1.000000000000000000, 0.000000000000000000, 0.000000000000000000 ) ) ;
#721 = CARTESIAN_POINT ( 'NONE',  ( 23.00000000000000000, 0.000000000000000000, 6.000000000000000000 ) ) ;
#722 = DIRECTION ( 'NONE',  ( 0.000000000000000000, 0.000000000000000000, 1.000000000000000000 ) ) ;
#723 = ORIENTED_EDGE ( 'NONE', *, *, #248, .F. ) ;
#724 = EDGE_CURVE ( 'NONE', #848, #897, #83, .T. ) ;
#725 = CLOSED_SHELL ( 'NONE', ( #507, #12, #604, #805, #277, #104, #182, #206, #458, #468, #512, #114, #233, #343, #546, #69, #394, #872, #868, #639, #540, #657, #275, #674, #611, #208 ) ) ;
#726 = CIRCLE ( 'NONE', #34, 1.700000000000000178 ) ;
#727 = CALENDAR_DATE ( 2026, 24, 9 ) ;
#728 = AXIS2_PLACEMENT_3D ( 'NONE', #359, #783, #571 ) ;
#729 = CARTESIAN_POINT ( 'NONE',  ( 13.20000000000000107, -19.91858428704208706, 6.000000000000000000 ) ) ;
#730 = CARTESIAN_POINT ( 'NONE',  ( 19.59999999999999787, 28.00000000000000000, 6.000000000000000000 ) ) ;
#731 = ORIENTED_EDGE ( 'NONE', *, *, #248, .T. ) ;
#732 = COORDINATED_UNIVERSAL_TIME_OFFSET ( 5, 30, .AHEAD. ) ;
#733 = CARTESIAN_POINT ( 'NONE',  ( -11.50000000000001066, -19.91858428704208350, 0.000000000000000000 ) ) ;
#734 = DESIGN_CONTEXT ( 'detailed design', #492, 'design' ) ;
#735 = DIRECTION ( 'NONE',  ( 0.000000000000000000, 0.000000000000000000, 1.000000000000000000 ) ) ;
#736 = ORIENTED_EDGE ( 'NONE', *, *, #669, .F. ) ;
#737 = DIRECTION ( 'NONE',  ( 0.000000000000000000, 0.000000000000000000, 1.000000000000000000 ) ) ;
#738 = CARTESIAN_POINT ( 'NONE',  ( -19.59999999999999787, -28.00000000000000000, 6.000000000000000000 ) ) ;
#739 = ORIENTED_EDGE ( 'NONE', *, *, #527, .F. ) ;
#740 = VECTOR ( 'NONE', #599, 1000.000000000000000 ) ;
#741 = AXIS2_PLACEMENT_3D ( 'NONE', #398, #30, #752 ) ;
#742 = VECTOR ( 'NONE', #427, 1000.000000000000000 ) ;
#743 = PLANE ( 'NONE',  #290 ) ;
#744 = APPROVAL ( #279, 'UNSPECIFIED' ) ;
#745 = VERTEX_POINT ( 'NONE', #297 ) ;
#746 = CARTESIAN_POINT ( 'NONE',  ( -19.59999999999999787, 28.00000000000000000, 6.000000000000000000 ) ) ;
#747 = CARTESIAN_POINT ( 'NONE',  ( 28.00000000000000000, 0.000000000000000000, 0.000000000000000000 ) ) ;
#748 = ORIENTED_EDGE ( 'NONE', *, *, #166, .F. ) ;
#749 = CARTESIAN_POINT ( 'NONE',  ( -21.30000000000000071, 3.024877593893962183E-15, 6.000000000000000000 ) ) ;
#750 = DIRECTION ( 'NONE',  ( 1.000000000000000000, 0.000000000000000000, 0.000000000000000000 ) ) ;
#751 = EDGE_LOOP ( 'NONE', ( #853, #251 ) ) ;
#752 = DIRECTION ( 'NONE',  ( 1.000000000000000000, 0.000000000000000000, 0.000000000000000000 ) ) ;
#753 = VECTOR ( 'NONE', #690, 1000.000000000000000 ) ;
#754 = AXIS2_PLACEMENT_3D ( 'NONE', #792, #495, #803 ) ;
#755 = CYLINDRICAL_SURFACE ( 'NONE', #405, 17.15000000000000213 ) ;
#756 = CARTESIAN_POINT ( 'NONE',  ( -9.800000000000009592, -19.91858428704208350, 6.000000000000000000 ) ) ;
#757 = CARTESIAN_POINT ( 'NONE',  ( 11.50000000000000178, -19.91858428704208706, 6.000000000000000000 ) ) ;
#758 = VERTEX_POINT ( 'NONE', #522 ) ;
#759 = DIRECTION ( 'NONE',  ( -0.2873478855663454401, -0.9578262852211513190, 0.000000000000000000 ) ) ;
#760 = EDGE_CURVE ( 'NONE', #174, #553, #425, .T. ) ;
#761 = PLANE ( 'NONE',  #22 ) ;
#762 = VERTEX_POINT ( 'NONE', #445 ) ;
#763 = DATE_AND_TIME ( #272, #154 ) ;
#764 = FACE_BOUND ( 'NONE', #666, .T. ) ;
#765 = ORIENTED_EDGE ( 'NONE', *, *, #25, .F. ) ;
#766 = CIRCLE ( 'NONE', #318, 17.15000000000000213 ) ;
#767 = ORIENTED_EDGE ( 'NONE', *, *, #908, .F. ) ;
#768 = CYLINDRICAL_SURFACE ( 'NONE', #661, 1.700000000000000178 ) ;
#769 = FACE_BOUND ( 'NONE', #358, .T. ) ;
#770 = ORIENTED_EDGE ( 'NONE', *, *, #773, .F. ) ;
#771 = EDGE_CURVE ( 'NONE', #301, #322, #576, .T. ) ;
#772 = ORIENTED_EDGE ( 'NONE', *, *, #109, .F. ) ;
#773 = EDGE_CURVE ( 'NONE', #410, #550, #766, .T. ) ;
#774 = DIRECTION ( 'NONE',  ( -1.000000000000000000, 0.000000000000000000, 0.000000000000000000 ) ) ;
#775 = CARTESIAN_POINT ( 'NONE',  ( 13.20000000000000107, -19.91858428704208706, 0.000000000000000000 ) ) ;
#776 = DIRECTION ( 'NONE',  ( 0.000000000000000000, -0.000000000000000000, -1.000000000000000000 ) ) ;
#777 = PRODUCT_DEFINITION_SHAPE ( 'NONE', 'NONE',  #214 ) ;
#778 = ORIENTED_EDGE ( 'NONE', *, *, #18, .F. ) ;
#779 = DIRECTION ( 'NONE',  ( 1.000000000000000000, 0.000000000000000000, 0.000000000000000000 ) ) ;
#780 = DIRECTION ( 'NONE',  ( 1.000000000000000000, 0.000000000000000000, 0.000000000000000000 ) ) ;
#781 = AXIS2_PLACEMENT_3D ( 'NONE', #302, #146, #299 ) ;
#782 = AXIS2_PLACEMENT_3D ( 'NONE', #319, #244, #530 ) ;
#783 = DIRECTION ( 'NONE',  ( 0.000000000000000000, 0.000000000000000000, 1.000000000000000000 ) ) ;
#784 = VERTEX_POINT ( 'NONE', #797 ) ;
#785 = CARTESIAN_POINT ( 'NONE',  ( 9.800000000000000711, -19.91858428704208706, 0.000000000000000000 ) ) ;
#786 = ORIENTED_EDGE ( 'NONE', *, *, #580, .F. ) ;
#787 = FACE_OUTER_BOUND ( 'NONE', #709, .T. ) ;
#788 = ORIENTED_EDGE ( 'NONE', *, *, #513, .T. ) ;
#789 = CARTESIAN_POINT ( 'NONE',  ( 28.00000000000000000, 0.000000000000000000, 6.000000000000000000 ) ) ;
#790 = DIRECTION ( 'NONE',  ( -0.000000000000000000, -0.000000000000000000, -1.000000000000000000 ) ) ;
#791 = EDGE_CURVE ( 'NONE', #912, #174, #374, .T. ) ;
#792 = CARTESIAN_POINT ( 'NONE',  ( -50.00000000000000000, 0.000000000000000000, 6.000000000000000000 ) ) ;
#793 = ORIENTED_EDGE ( 'NONE', *, *, #469, .F. ) ;
#794 = LINE ( 'NONE', #662, #676 ) ;
#795 = APPROVAL ( #267, 'UNSPECIFIED' ) ;
#796 = VECTOR ( 'NONE', #706, 1000.000000000000000 ) ;
#797 = CARTESIAN_POINT ( 'NONE',  ( 24.69999999999999929, 2.081899558550500526E-16, 6.000000000000000000 ) ) ;
#798 = ORIENTED_EDGE ( 'NONE', *, *, #141, .F. ) ;
#799 = VECTOR ( 'NONE', #883, 1000.000000000000000 ) ;
#800 = CIRCLE ( 'NONE', #259, 1.700000000000000178 ) ;
#801 = PERSON_AND_ORGANIZATION ( #418, #693 ) ;
#802 = PLANE ( 'NONE',  #826 ) ;
#803 = DIRECTION ( 'NONE',  ( -1.000000000000000000, 0.000000000000000000, 0.000000000000000000 ) ) ;
#804 = EDGE_LOOP ( 'NONE', ( #139, #660 ) ) ;
#805 = ADVANCED_FACE ( 'NONE', ( #787 ), #149, .F. ) ;
#806 = COORDINATED_UNIVERSAL_TIME_OFFSET ( 5, 30, .AHEAD. ) ;
#807 = CARTESIAN_POINT ( 'NONE',  ( -19.59999999999999787, -28.00000000000000000, 0.000000000000000000 ) ) ;
#808 = CYLINDRICAL_SURFACE ( 'NONE', #305, 1.700000000000000178 ) ;
#809 = ORIENTED_EDGE ( 'NONE', *, *, #606, .F. ) ;
#810 = EDGE_CURVE ( 'NONE', #486, #635, #306, .T. ) ;
#811 = FACE_OUTER_BOUND ( 'NONE', #564, .T. ) ;
#812 = VERTEX_POINT ( 'NONE', #858 ) ;
#813 = CIRCLE ( 'NONE', #532, 1.700000000000000178 ) ;
#814 = LOCAL_TIME ( 11, 8, 45.00000000000000000, #732 ) ;
#815 = CARTESIAN_POINT ( 'NONE',  ( 11.50000000000000178, -19.91858428704208706, 6.000000000000000000 ) ) ;
#816 = CARTESIAN_POINT ( 'NONE',  ( -19.59999999999999787, -28.00000000000000000, 6.000000000000000000 ) ) ;
#817 = EDGE_LOOP ( 'NONE', ( #21, #309 ) ) ;
#818 = DIRECTION ( 'NONE',  ( -0.000000000000000000, -0.000000000000000000, -1.000000000000000000 ) ) ;
#819 = CARTESIAN_POINT ( 'NONE',  ( -59.00000000000000711, -9.000000000000000000, 6.000000000000000000 ) ) ;
#820 = EDGE_CURVE ( 'NONE', #381, #875, #602, .T. ) ;
#821 = EDGE_LOOP ( 'NONE', ( #316, #462 ) ) ;
#822 = CARTESIAN_POINT ( 'NONE',  ( -23.00000000000000000, 2.816687638038912352E-15, 6.000000000000000000 ) ) ;
#823 = DIRECTION ( 'NONE',  ( 0.000000000000000000, 0.000000000000000000, 1.000000000000000000 ) ) ;
#824 = VERTEX_POINT ( 'NONE', #75 ) ;
#825 = EDGE_CURVE ( 'NONE', #301, #891, #713, .T. ) ;
#826 = AXIS2_PLACEMENT_3D ( 'NONE', #584, #249, #395 ) ;
#827 = LINE ( 'NONE', #388, #708 ) ;
#828 = CIRCLE ( 'NONE', #845, 1.700000000000000178 ) ;
#829 = VECTOR ( 'NONE', #192, 1000.000000000000000 ) ;
#830 = CARTESIAN_POINT ( 'NONE',  ( -13.19999999999999396, 19.91858428704209061, 0.000000000000000000 ) ) ;
#831 = APPLICATION_CONTEXT ( 'configuration controlled 3d designs of mechanical parts and assemblies' ) ;
#832 = VERTEX_POINT ( 'NONE', #355 ) ;
#833 = CARTESIAN_POINT ( 'NONE',  ( -13.20000000000000995, -19.91858428704208350, 6.000000000000000000 ) ) ;
#834 = DIRECTION ( 'NONE',  ( 1.000000000000000000, 0.000000000000000000, 0.000000000000000000 ) ) ;
#835 = DIRECTION ( 'NONE',  ( -1.000000000000000000, 0.000000000000000000, 0.000000000000000000 ) ) ;
#836 = ORIENTED_EDGE ( 'NONE', *, *, #490, .T. ) ;
#837 = CARTESIAN_POINT ( 'NONE',  ( 23.00000000000000000, 0.000000000000000000, 6.000000000000000000 ) ) ;
#838 = FACE_BOUND ( 'NONE', #356, .T. ) ;
#839 = CC_DESIGN_DATE_AND_TIME_ASSIGNMENT ( #866, #372, ( #467 ) ) ;
#840 = ORIENTED_EDGE ( 'NONE', *, *, #282, .F. ) ;
#841 = CALENDAR_DATE ( 2026, 24, 9 ) ;
#842 = FACE_BOUND ( 'NONE', #751, .T. ) ;
#843 = VECTOR ( 'NONE', #508, 1000.000000000000000 ) ;
#844 = DIRECTION ( 'NONE',  ( 0.000000000000000000, 0.000000000000000000, 1.000000000000000000 ) ) ;
#845 = AXIS2_PLACEMENT_3D ( 'NONE', #815, #171, #605 ) ;
#846 = EDGE_CURVE ( 'NONE', #236, #875, #640, .T. ) ;
#847 = VECTOR ( 'NONE', #654, 1000.000000000000000 ) ;
#848 = VERTEX_POINT ( 'NONE', #738 ) ;
#849 = DIRECTION ( 'NONE',  ( -0.000000000000000000, -0.000000000000000000, -1.000000000000000000 ) ) ;
#850 = DIRECTION ( 'NONE',  ( -0.000000000000000000, 0.000000000000000000, 1.000000000000000000 ) ) ;
#851 = DIRECTION ( 'NONE',  ( 0.000000000000000000, 0.000000000000000000, 1.000000000000000000 ) ) ;
#852 = EDGE_CURVE ( 'NONE', #824, #568, #121, .T. ) ;
#853 = ORIENTED_EDGE ( 'NONE', *, *, #682, .T. ) ;
#854 = CARTESIAN_POINT ( 'NONE',  ( -9.800000000000009592, -19.91858428704208350, 0.000000000000000000 ) ) ;
#855 = FACE_BOUND ( 'NONE', #885, .T. ) ;
#856 = ORIENTED_EDGE ( 'NONE', *, *, #361, .F. ) ;
#857 = EDGE_CURVE ( 'NONE', #641, #758, #664, .T. ) ;
#858 = CARTESIAN_POINT ( 'NONE',  ( -13.19999999999999396, 19.91858428704209061, 6.000000000000000000 ) ) ;
#859 = ORIENTED_EDGE ( 'NONE', *, *, #580, .T. ) ;
#860 = CARTESIAN_POINT ( 'NONE',  ( -19.59999999999999787, 28.00000000000000000, 6.000000000000000000 ) ) ;
#861 = FACE_OUTER_BOUND ( 'NONE', #450, .T. ) ;
#862 = CIRCLE ( 'NONE', #518, 1.700000000000000178 ) ;
#863 = CIRCLE ( 'NONE', #74, 17.15000000000000213 ) ;
#864 = CARTESIAN_POINT ( 'NONE',  ( 0.000000000000000000, 0.000000000000000000, 0.000000000000000000 ) ) ;
#865 = VERTEX_POINT ( 'NONE', #884 ) ;
#866 = DATE_AND_TIME ( #81, #407 ) ;
#867 = LINE ( 'NONE', #789, #892 ) ;
#868 = ADVANCED_FACE ( 'NONE', ( #239 ), #808, .F. ) ;
#869 = CARTESIAN_POINT ( 'NONE',  ( -59.00000000000000711, -9.000000000000000000, 0.000000000000000000 ) ) ;
#870 = CARTESIAN_POINT ( 'NONE',  ( 21.30000000000000071, 0.000000000000000000, 6.000000000000000000 ) ) ;
#871 = EDGE_LOOP ( 'NONE', ( #723, #63, #562, #603 ) ) ;
#872 = ADVANCED_FACE ( 'NONE', ( #55 ), #768, .F. ) ;
#873 = LINE ( 'NONE', #225, #497 ) ;
#874 = CARTESIAN_POINT ( 'NONE',  ( -11.50000000000001066, -19.91858428704208350, 6.000000000000000000 ) ) ;
#875 = VERTEX_POINT ( 'NONE', #118 ) ;
#876 = PERSON_AND_ORGANIZATION ( #418, #693 ) ;
#877 = LINE ( 'NONE', #376, #707 ) ;
#878 = CIRCLE ( 'NONE', #377, 1.700000000000000178 ) ;
#879 = DIRECTION ( 'NONE',  ( 0.000000000000000000, 0.000000000000000000, 1.000000000000000000 ) ) ;
#880 = ORIENTED_EDGE ( 'NONE', *, *, #663, .T. ) ;
#881 = CC_DESIGN_APPROVAL ( #744, ( #679 ) ) ;
#882 = SHAPE_DEFINITION_REPRESENTATION ( #777, #642 ) ;
#883 = DIRECTION ( 'NONE',  ( 1.000000000000000000, 0.000000000000000000, 0.000000000000000000 ) ) ;
#884 = CARTESIAN_POINT ( 'NONE',  ( -59.00000000000000711, 9.000000000000000000, 6.000000000000000000 ) ) ;
#885 = EDGE_LOOP ( 'NONE', ( #344, #736 ) ) ;
#886 = EDGE_CURVE ( 'NONE', #484, #420, #4, .T. ) ;
#887 = DIRECTION ( 'NONE',  ( -1.000000000000000000, 0.000000000000000000, 0.000000000000000000 ) ) ;
#888 = ORIENTED_EDGE ( 'NONE', *, *, #791, .T. ) ;
#889 = DIRECTION ( 'NONE',  ( 1.000000000000000000, 0.000000000000000000, 0.000000000000000000 ) ) ;
#890 = CARTESIAN_POINT ( 'NONE',  ( -23.00000000000000000, 2.816687638038912352E-15, 6.000000000000000000 ) ) ;
#891 = VERTEX_POINT ( 'NONE', #854 ) ;
#892 = VECTOR ( 'NONE', #434, 1000.000000000000227 ) ;
#893 = VECTOR ( 'NONE', #188, 1000.000000000000000 ) ;
#894 = DIRECTION ( 'NONE',  ( 1.000000000000000000, 0.000000000000000000, 0.000000000000000000 ) ) ;
#895 = EDGE_CURVE ( 'NONE', #455, #550, #203, .T. ) ;
#896 = CARTESIAN_POINT ( 'NONE',  ( 28.00000000000000000, 0.000000000000000000, 6.000000000000000000 ) ) ;
#897 = VERTEX_POINT ( 'NONE', #699 ) ;
#898 = CARTESIAN_POINT ( 'NONE',  ( -13.20000000000000995, -19.91858428704208350, 0.000000000000000000 ) ) ;
#899 = CYLINDRICAL_SURFACE ( 'NONE', #922, 1.700000000000000178 ) ;
#900 = ORIENTED_EDGE ( 'NONE', *, *, #886, .F. ) ;
#901 = DIRECTION ( 'NONE',  ( -0.000000000000000000, -0.000000000000000000, -1.000000000000000000 ) ) ;
#902 = DIRECTION ( 'NONE',  ( 0.2873478855663454401, -0.9578262852211513190, 0.000000000000000000 ) ) ;
#903 = ORIENTED_EDGE ( 'NONE', *, *, #451, .T. ) ;
#904 = AXIS2_PLACEMENT_3D ( 'NONE', #237, #230, #593 ) ;
#905 = DIRECTION ( 'NONE',  ( 0.000000000000000000, 0.000000000000000000, 1.000000000000000000 ) ) ;
#906 = VECTOR ( 'NONE', #252, 1000.000000000000000 ) ;
#907 = DIRECTION ( 'NONE',  ( -1.000000000000000000, 0.000000000000000000, 0.000000000000000000 ) ) ;
#908 = EDGE_CURVE ( 'NONE', #322, #400, #551, .T. ) ;
#909 = ORIENTED_EDGE ( 'NONE', *, *, #771, .T. ) ;
#910 = PERSON_AND_ORGANIZATION ( #418, #693 ) ;
#911 = DIRECTION ( 'NONE',  ( 1.000000000000000000, 0.000000000000000000, 0.000000000000000000 ) ) ;
#912 = VERTEX_POINT ( 'NONE', #925 ) ;
#913 = DIRECTION ( 'NONE',  ( 1.000000000000000000, 0.000000000000000000, 0.000000000000000000 ) ) ;
#914 = CARTESIAN_POINT ( 'NONE',  ( 0.000000000000000000, 0.000000000000000000, 6.000000000000000000 ) ) ;
#915 = DIRECTION ( 'NONE',  ( 0.000000000000000000, -1.000000000000000000, 0.000000000000000000 ) ) ;
#916 = ORIENTED_EDGE ( 'NONE', *, *, #340, .T. ) ;
#917 = DIRECTION ( 'NONE',  ( -0.000000000000000000, -0.000000000000000000, -1.000000000000000000 ) ) ;
#918 = PLANE ( 'NONE',  #453 ) ;
#919 = AXIS2_PLACEMENT_3D ( 'NONE', #180, #818, #323 ) ;
#920 = ORIENTED_EDGE ( 'NONE', *, *, #226, .T. ) ;
#921 = CIRCLE ( 'NONE', #183, 2.500000000000002220 ) ;
#922 = AXIS2_PLACEMENT_3D ( 'NONE', #315, #396, #601 ) ;
#923 = PRODUCT ( 'JX1_AnkleCrank', 'JX1_AnkleCrank', '', ( #112 ) ) ;
#924 = ORIENTED_EDGE ( 'NONE', *, *, #147, .T. ) ;
#925 = CARTESIAN_POINT ( 'NONE',  ( 21.30000000000000071, 0.000000000000000000, 6.000000000000000000 ) ) ;
#926 = CARTESIAN_POINT ( 'NONE',  ( 11.50000000000000178, -19.91858428704208706, 6.000000000000000000 ) ) ;
#927 = PLANE ( 'NONE',  #117 ) ;
#928 = EDGE_CURVE ( 'NONE', #641, #832, #629, .T. ) ;
#929 = ORIENTED_EDGE ( 'NONE', *, *, #201, .T. ) ;
#930 =( NAMED_UNIT ( * ) PLANE_ANGLE_UNIT ( ) SI_UNIT ( $, .RADIAN. ) );
#931 = PLANE ( 'NONE',  #329 ) ;
#932 = DIRECTION ( 'NONE',  ( 1.000000000000000000, 0.000000000000000000, 0.000000000000000000 ) ) ;
#933 = EDGE_LOOP ( 'NONE', ( #859, #472, #534, #211 ) ) ;
#934 = DIRECTION ( 'NONE',  ( 0.000000000000000000, 0.000000000000000000, -1.000000000000000000 ) ) ;
ENDSEC;
END-ISO-10303-21;
