ISO-10303-21;
HEADER;
FILE_DESCRIPTION (( 'STEP AP203' ),
    '1' );
FILE_NAME ('JX1_Foot_L.STEP',
    '2026-09-24T05:38:21',
    ( '' ),
    ( '' ),
    'SwSTEP 2.0',
    'SolidWorks 2026',
    '' );
FILE_SCHEMA (( 'CONFIG_CONTROL_DESIGN' ));
ENDSEC;

DATA;
#1 = VERTEX_POINT ( 'NONE', #1239 ) ;
#2 = EDGE_CURVE ( 'NONE', #618, #390, #1118, .T. ) ;
#3 = ORIENTED_EDGE ( 'NONE', *, *, #1049, .F. ) ;
#4 = CARTESIAN_POINT ( 'NONE',  ( 25.50000000000000355, -8.000000000000000000, 10.00000000000000000 ) ) ;
#5 = VERTEX_POINT ( 'NONE', #146 ) ;
#6 = ORIENTED_EDGE ( 'NONE', *, *, #916, .F. ) ;
#7 = EDGE_CURVE ( 'NONE', #887, #618, #474, .T. ) ;
#8 = CARTESIAN_POINT ( 'NONE',  ( 25.50000000000000355, 13.00000000000000000, 3.000000000000000000 ) ) ;
#9 = CARTESIAN_POINT ( 'NONE',  ( -25.50000000000000000, 13.00000000000000000, 3.000000000000000000 ) ) ;
#10 = ORIENTED_EDGE ( 'NONE', *, *, #1205, .F. ) ;
#11 = ORIENTED_EDGE ( 'NONE', *, *, #216, .F. ) ;
#12 = VECTOR ( 'NONE', #1365, 1000.000000000000000 ) ;
#13 = ORIENTED_EDGE ( 'NONE', *, *, #637, .F. ) ;
#14 = LINE ( 'NONE', #645, #198 ) ;
#15 = VECTOR ( 'NONE', #1267, 1000.000000000000000 ) ;
#16 = ORIENTED_EDGE ( 'NONE', *, *, #259, .T. ) ;
#17 = DIRECTION ( 'NONE',  ( 0.000000000000000000, -1.000000000000000000, 0.000000000000000000 ) ) ;
#18 = AXIS2_PLACEMENT_3D ( 'NONE', #1208, #980, #894 ) ;
#19 = VECTOR ( 'NONE', #1092, 1000.000000000000000 ) ;
#20 = EDGE_CURVE ( 'NONE', #174, #1343, #325, .T. ) ;
#21 = PLANE ( 'NONE',  #219 ) ;
#22 = ORIENTED_EDGE ( 'NONE', *, *, #232, .F. ) ;
#23 = PLANE ( 'NONE',  #132 ) ;
#24 = VERTEX_POINT ( 'NONE', #774 ) ;
#25 = LINE ( 'NONE', #456, #820 ) ;
#26 = ADVANCED_FACE ( 'NONE', ( #340 ), #21, .F. ) ;
#27 = LINE ( 'NONE', #1259, #378 ) ;
#28 = ORIENTED_EDGE ( 'NONE', *, *, #1288, .F. ) ;
#29 = ORIENTED_EDGE ( 'NONE', *, *, #847, .T. ) ;
#30 = CARTESIAN_POINT ( 'NONE',  ( 25.50000000000000355, 0.000000000000000000, 0.000000000000000000 ) ) ;
#31 = FACE_OUTER_BOUND ( 'NONE', #1379, .T. ) ;
#32 = DIRECTION ( 'NONE',  ( 1.000000000000000000, 0.000000000000000000, 0.000000000000000000 ) ) ;
#33 = FACE_OUTER_BOUND ( 'NONE', #720, .T. ) ;
#34 = VERTEX_POINT ( 'NONE', #465 ) ;
#35 = EDGE_LOOP ( 'NONE', ( #593, #116, #741, #985, #230, #926 ) ) ;
#36 = PLANE ( 'NONE',  #823 ) ;
#37 = DIRECTION ( 'NONE',  ( 0.000000000000000000, 0.000000000000000000, -1.000000000000000000 ) ) ;
#38 = DIRECTION ( 'NONE',  ( 0.000000000000000000, 0.5812381937190964631, 0.8137334712067350040 ) ) ;
#39 = VECTOR ( 'NONE', #940, 1000.000000000000000 ) ;
#40 = AXIS2_PLACEMENT_3D ( 'NONE', #30, #1024, #591 ) ;
#41 = DIRECTION ( 'NONE',  ( 1.000000000000000000, 0.000000000000000000, 0.000000000000000000 ) ) ;
#42 = AXIS2_PLACEMENT_3D ( 'NONE', #1210, #526, #976 ) ;
#43 = ORIENTED_EDGE ( 'NONE', *, *, #259, .F. ) ;
#44 = EDGE_CURVE ( 'NONE', #59, #129, #786, .T. ) ;
#45 = ORIENTED_EDGE ( 'NONE', *, *, #1331, .F. ) ;
#46 = CARTESIAN_POINT ( 'NONE',  ( 25.50000000000000355, -8.000000000000000000, 10.00000000000000000 ) ) ;
#47 = EDGE_CURVE ( 'NONE', #262, #1373, #769, .T. ) ;
#48 = EDGE_LOOP ( 'NONE', ( #1196, #1333, #834, #1055 ) ) ;
#49 = DIRECTION ( 'NONE',  ( -0.000000000000000000, 0.000000000000000000, -1.000000000000000000 ) ) ;
#50 = CARTESIAN_POINT ( 'NONE',  ( -75.00000000000000000, 32.50000000000000000, -42.00000000000000000 ) ) ;
#51 = EDGE_CURVE ( 'NONE', #1142, #1034, #1029, .T. ) ;
#52 = VERTEX_POINT ( 'NONE', #1021 ) ;
#53 = CARTESIAN_POINT ( 'NONE',  ( -33.00000000000000000, 52.00000000000000000, -42.00000000000000000 ) ) ;
#54 = VERTEX_POINT ( 'NONE', #548 ) ;
#55 = CARTESIAN_POINT ( 'NONE',  ( -47.00000000000000000, 52.00000000000000000, -42.00000000000000000 ) ) ;
#56 = EDGE_CURVE ( 'NONE', #390, #1310, #911, .T. ) ;
#57 = CARTESIAN_POINT ( 'NONE',  ( -33.00000000000000000, 38.00000000000000000, -42.00000000000000000 ) ) ;
#58 = ORIENTED_EDGE ( 'NONE', *, *, #395, .F. ) ;
#59 = VERTEX_POINT ( 'NONE', #995 ) ;
#60 = LINE ( 'NONE', #726, #39 ) ;
#61 = VECTOR ( 'NONE', #1062, 1000.000000000000000 ) ;
#62 = VECTOR ( 'NONE', #563, 1000.000000000000114 ) ;
#63 = DATE_TIME_ROLE ( 'classification_date' ) ;
#64 = CARTESIAN_POINT ( 'NONE',  ( -33.00000000000000000, 52.00000000000000000, -3.999999999999996447 ) ) ;
#65 = VECTOR ( 'NONE', #814, 1000.000000000000000 ) ;
#66 = VECTOR ( 'NONE', #37, 1000.000000000000000 ) ;
#67 = ORIENTED_EDGE ( 'NONE', *, *, #91, .F. ) ;
#68 = CARTESIAN_POINT ( 'NONE',  ( 60.00000000000001421, 0.000000000000000000, -42.00000000000000000 ) ) ;
#69 = DIRECTION ( 'NONE',  ( -1.000000000000000000, 0.000000000000000000, 0.000000000000000000 ) ) ;
#70 = VERTEX_POINT ( 'NONE', #805 ) ;
#71 = EDGE_CURVE ( 'NONE', #722, #52, #441, .T. ) ;
#72 = LINE ( 'NONE', #398, #704 ) ;
#73 = LINE ( 'NONE', #1156, #374 ) ;
#74 = ORIENTED_EDGE ( 'NONE', *, *, #519, .F. ) ;
#75 = DIRECTION ( 'NONE',  ( -1.000000000000000000, 0.000000000000000000, 0.000000000000000000 ) ) ;
#76 = DIRECTION ( 'NONE',  ( 0.000000000000000000, 1.000000000000000000, 0.000000000000000000 ) ) ;
#77 = CARTESIAN_POINT ( 'NONE',  ( -17.49999999999999645, -13.00000000000000000, -42.00000000000000000 ) ) ;
#78 = CARTESIAN_POINT ( 'NONE',  ( 0.000000000000000000, 0.000000000000000000, -3.999999999999996447 ) ) ;
#79 = ORIENTED_EDGE ( 'NONE', *, *, #71, .F. ) ;
#80 = DIRECTION ( 'NONE',  ( -1.000000000000000000, 0.000000000000000000, 0.000000000000000000 ) ) ;
#81 = CARTESIAN_POINT ( 'NONE',  ( -25.50000000000000000, -13.00000000000000000, -42.00000000000000000 ) ) ;
#82 = AXIS2_PLACEMENT_3D ( 'NONE', #78, #934, #1270 ) ;
#83 = CARTESIAN_POINT ( 'NONE',  ( 17.50000000000000000, 8.000000000000000000, 10.00000000000000000 ) ) ;
#84 = VECTOR ( 'NONE', #76, 1000.000000000000000 ) ;
#85 = VECTOR ( 'NONE', #1400, 1000.000000000000000 ) ;
#86 = EDGE_LOOP ( 'NONE', ( #1001, #1233, #350, #884 ) ) ;
#87 = EDGE_CURVE ( 'NONE', #987, #581, #1141, .T. ) ;
#88 = APPROVAL_PERSON_ORGANIZATION ( #1187, #617, #1073 ) ;
#89 = CARTESIAN_POINT ( 'NONE',  ( -60.00000000000000000, -47.50000000000000000, -42.00000000000000000 ) ) ;
#90 = CARTESIAN_POINT ( 'NONE',  ( 25.50000000000000355, 8.000000000000000000, 10.00000000000000000 ) ) ;
#91 = EDGE_CURVE ( 'NONE', #182, #944, #826, .T. ) ;
#92 = CARTESIAN_POINT ( 'NONE',  ( -17.49999999999999645, 0.000000000000000000, 4.000000000000000000 ) ) ;
#93 = EDGE_LOOP ( 'NONE', ( #286, #1164, #372, #1391 ) ) ;
#94 = EDGE_CURVE ( 'NONE', #387, #1051, #1053, .T. ) ;
#95 = CARTESIAN_POINT ( 'NONE',  ( -47.00000000000000000, -38.00000000000000000, -3.999999999999996447 ) ) ;
#96 = DIRECTION ( 'NONE',  ( -1.000000000000000000, -0.000000000000000000, -0.000000000000000000 ) ) ;
#97 = DIRECTION ( 'NONE',  ( 0.000000000000000000, 0.000000000000000000, -1.000000000000000000 ) ) ;
#98 = ORIENTED_EDGE ( 'NONE', *, *, #127, .T. ) ;
#99 = DIRECTION ( 'NONE',  ( 0.000000000000000000, 0.000000000000000000, -1.000000000000000000 ) ) ;
#100 = DIRECTION ( 'NONE',  ( -1.000000000000000000, -0.000000000000000000, -0.000000000000000000 ) ) ;
#101 = DIRECTION ( 'NONE',  ( -0.000000000000000000, -0.000000000000000000, -1.000000000000000000 ) ) ;
#102 = ADVANCED_FACE ( 'NONE', ( #180 ), #596, .T. ) ;
#103 = ORIENTED_EDGE ( 'NONE', *, *, #503, .T. ) ;
#104 = VECTOR ( 'NONE', #953, 1000.000000000000000 ) ;
#105 = DIRECTION ( 'NONE',  ( 0.000000000000000000, 0.000000000000000000, 1.000000000000000000 ) ) ;
#106 = ORIENTED_EDGE ( 'NONE', *, *, #352, .T. ) ;
#107 = CARTESIAN_POINT ( 'NONE',  ( 25.50000000000000355, 4.898587196589412829E-16, -4.000000000000000000 ) ) ;
#108 = AXIS2_PLACEMENT_3D ( 'NONE', #667, #532, #889 ) ;
#109 = ORIENTED_EDGE ( 'NONE', *, *, #227, .T. ) ;
#110 = EDGE_CURVE ( 'NONE', #151, #54, #270, .T. ) ;
#111 = PRODUCT_RELATED_PRODUCT_CATEGORY ( 'detail', '', ( #909 ) ) ;
#112 = ORIENTED_EDGE ( 'NONE', *, *, #413, .F. ) ;
#113 = EDGE_CURVE ( 'NONE', #1102, #987, #278, .T. ) ;
#114 = CARTESIAN_POINT ( 'NONE',  ( -75.00000000000000000, -32.50000000000000000, -50.00000000000000000 ) ) ;
#115 = FACE_OUTER_BOUND ( 'NONE', #301, .T. ) ;
#116 = ORIENTED_EDGE ( 'NONE', *, *, #1328, .T. ) ;
#117 = DIRECTION ( 'NONE',  ( 0.000000000000000000, 0.8137334712067350040, -0.5812381937190964631 ) ) ;
#118 = ORIENTED_EDGE ( 'NONE', *, *, #922, .T. ) ;
#119 = LINE ( 'NONE', #530, #580 ) ;
#120 = CC_DESIGN_DATE_AND_TIME_ASSIGNMENT ( #126, #1252, ( #1112 ) ) ;
#121 = LINE ( 'NONE', #1037, #1387 ) ;
#122 = ORIENTED_EDGE ( 'NONE', *, *, #437, .T. ) ;
#123 = FACE_OUTER_BOUND ( 'NONE', #86, .T. ) ;
#124 = LINE ( 'NONE', #1003, #1272 ) ;
#125 = CARTESIAN_POINT ( 'NONE',  ( -60.00000000000000000, 47.50000000000000000, -50.00000000000000000 ) ) ;
#126 = DATE_AND_TIME ( #466, #1005 ) ;
#127 = EDGE_CURVE ( 'NONE', #1406, #54, #709, .T. ) ;
#128 = VECTOR ( 'NONE', #793, 1000.000000000000000 ) ;
#129 = VERTEX_POINT ( 'NONE', #943 ) ;
#130 = CARTESIAN_POINT ( 'NONE',  ( -33.00000000000000000, -38.00000000000000000, -3.999999999999996447 ) ) ;
#131 = CARTESIAN_POINT ( 'NONE',  ( -17.49999999999999645, -13.00000000000000000, -42.00000000000000000 ) ) ;
#132 = AXIS2_PLACEMENT_3D ( 'NONE', #342, #1255, #788 ) ;
#133 = DIRECTION ( 'NONE',  ( -0.000000000000000000, -0.000000000000000000, -1.000000000000000000 ) ) ;
#134 = ORIENTED_EDGE ( 'NONE', *, *, #1069, .F. ) ;
#135 = VERTEX_POINT ( 'NONE', #1372 ) ;
#136 = CARTESIAN_POINT ( 'NONE',  ( 17.50000000000000000, 0.000000000000000000, 0.000000000000000000 ) ) ;
#137 = DIRECTION ( 'NONE',  ( 0.000000000000000000, -0.5812381937190963521, 0.8137334712067351150 ) ) ;
#138 = PLANE ( 'NONE',  #558 ) ;
#139 = DIRECTION ( 'NONE',  ( 1.000000000000000000, 0.000000000000000000, 0.000000000000000000 ) ) ;
#140 = ORIENTED_EDGE ( 'NONE', *, *, #1151, .F. ) ;
#141 = CARTESIAN_POINT ( 'NONE',  ( 135.0000000000000000, -25.50000000000000355, -42.00000000000000000 ) ) ;
#142 = DIRECTION ( 'NONE',  ( 0.000000000000000000, 1.000000000000000000, 0.000000000000000000 ) ) ;
#143 = PLANE ( 'NONE',  #871 ) ;
#144 = EDGE_CURVE ( 'NONE', #129, #1102, #73, .T. ) ;
#145 = LINE ( 'NONE', #697, #535 ) ;
#146 = CARTESIAN_POINT ( 'NONE',  ( -17.49999999999999645, 8.000000000000000000, 10.00000000000000000 ) ) ;
#147 = EDGE_CURVE ( 'NONE', #1096, #944, #502, .T. ) ;
#148 = ORIENTED_EDGE ( 'NONE', *, *, #1331, .T. ) ;
#149 = DIRECTION ( 'NONE',  ( 0.000000000000000000, 0.000000000000000000, 1.000000000000000000 ) ) ;
#150 = DIRECTION ( 'NONE',  ( 0.000000000000000000, -0.000000000000000000, -1.000000000000000000 ) ) ;
#151 = VERTEX_POINT ( 'NONE', #1378 ) ;
#152 = DIRECTION ( 'NONE',  ( -1.000000000000000000, -0.000000000000000000, -0.000000000000000000 ) ) ;
#153 = VECTOR ( 'NONE', #1219, 999.9999999999998863 ) ;
#154 = CIRCLE ( 'NONE', #181, 6.999999999999999112 ) ;
#155 = APPLICATION_CONTEXT ( 'configuration controlled 3d designs of mechanical parts and assemblies' ) ;
#156 = EDGE_CURVE ( 'NONE', #917, #628, #386, .T. ) ;
#157 = DIRECTION ( 'NONE',  ( 0.000000000000000000, 0.000000000000000000, 1.000000000000000000 ) ) ;
#158 = VECTOR ( 'NONE', #415, 1000.000000000000000 ) ;
#159 = DIRECTION ( 'NONE',  ( 1.000000000000000000, 0.000000000000000000, -0.000000000000000000 ) ) ;
#160 = VERTEX_POINT ( 'NONE', #488 ) ;
#161 = CARTESIAN_POINT ( 'NONE',  ( 60.00000000000001421, 0.000000000000000000, -50.00000000000000000 ) ) ;
#162 = EDGE_CURVE ( 'NONE', #668, #290, #1246, .T. ) ;
#163 = ORIENTED_EDGE ( 'NONE', *, *, #1177, .F. ) ;
#164 = DIRECTION ( 'NONE',  ( 0.000000000000000000, 0.000000000000000000, 1.000000000000000000 ) ) ;
#165 = CARTESIAN_POINT ( 'NONE',  ( -47.00000000000000000, 38.00000000000000000, -42.00000000000000000 ) ) ;
#166 = DIRECTION ( 'NONE',  ( -0.000000000000000000, -0.000000000000000000, -1.000000000000000000 ) ) ;
#167 = EDGE_LOOP ( 'NONE', ( #1014, #787, #348, #1182 ) ) ;
#168 = CARTESIAN_POINT ( 'NONE',  ( 25.50000000000000355, -13.00000000000000000, 3.000000000000000000 ) ) ;
#169 = ORIENTED_EDGE ( 'NONE', *, *, #647, .T. ) ;
#170 = DIRECTION ( 'NONE',  ( -1.000000000000000000, 0.000000000000000000, 0.000000000000000000 ) ) ;
#171 = APPROVAL ( #1162, 'UNSPECIFIED' ) ;
#172 = ORIENTED_EDGE ( 'NONE', *, *, #807, .F. ) ;
#173 = CARTESIAN_POINT ( 'NONE',  ( 25.50000000000000355, 13.00000000000000000, -42.00000000000000000 ) ) ;
#174 = VERTEX_POINT ( 'NONE', #495 ) ;
#175 = ADVANCED_FACE ( 'NONE', ( #616, #1393 ), #1163, .F. ) ;
#176 = CARTESIAN_POINT ( 'NONE',  ( 45.00000000000000000, 0.000000000000000000, -42.00000000000000000 ) ) ;
#177 = AXIS2_PLACEMENT_3D ( 'NONE', #191, #17, #449 ) ;
#178 = DIRECTION ( 'NONE',  ( -1.000000000000000000, 0.000000000000000000, 0.000000000000000000 ) ) ;
#179 = PERSON_AND_ORGANIZATION_ROLE ( 'design_supplier' ) ;
#180 = FACE_OUTER_BOUND ( 'NONE', #576, .T. ) ;
#181 = AXIS2_PLACEMENT_3D ( 'NONE', #1384, #691, #1134 ) ;
#182 = VERTEX_POINT ( 'NONE', #612 ) ;
#183 = CARTESIAN_POINT ( 'NONE',  ( -33.00000000000000711, -47.50000000000000000, -42.00000000000000000 ) ) ;
#184 = DIRECTION ( 'NONE',  ( 0.000000000000000000, -0.8137334712067350040, -0.5812381937190964631 ) ) ;
#185 = ADVANCED_FACE ( 'NONE', ( #1181 ), #948, .F. ) ;
#186 = EDGE_LOOP ( 'NONE', ( #854, #947 ) ) ;
#187 = CARTESIAN_POINT ( 'NONE',  ( 52.00000000000000000, 8.572527594031472204E-16, -42.00000000000000000 ) ) ;
#188 = CARTESIAN_POINT ( 'NONE',  ( -17.49999999999999645, -8.000000000000000000, 10.00000000000000000 ) ) ;
#189 = ADVANCED_FACE ( 'NONE', ( #365 ), #698, .F. ) ;
#190 = DATE_AND_TIME ( #1411, #1150 ) ;
#191 = CARTESIAN_POINT ( 'NONE',  ( -33.00000000000000000, -38.00000000000000000, -3.999999999999996447 ) ) ;
#192 = ADVANCED_FACE ( 'NONE', ( #1264 ), #261, .F. ) ;
#193 = ORIENTED_EDGE ( 'NONE', *, *, #1095, .F. ) ;
#194 = CYLINDRICAL_SURFACE ( 'NONE', #283, 6.999999999999999112 ) ;
#195 = VECTOR ( 'NONE', #1278, 1000.000000000000000 ) ;
#196 = LINE ( 'NONE', #83, #1147 ) ;
#197 = EDGE_CURVE ( 'NONE', #34, #1308, #1040, .T. ) ;
#198 = VECTOR ( 'NONE', #551, 1000.000000000000000 ) ;
#199 = VECTOR ( 'NONE', #453, 999.9999999999998863 ) ;
#200 = ORIENTED_EDGE ( 'NONE', *, *, #1167, .F. ) ;
#201 = APPROVAL_PERSON_ORGANIZATION ( #360, #171, #1169 ) ;
#202 = DIRECTION ( 'NONE',  ( -0.000000000000000000, -0.000000000000000000, -1.000000000000000000 ) ) ;
#203 = CYLINDRICAL_SURFACE ( 'NONE', #493, 4.000000000000000000 ) ;
#204 = ORIENTED_EDGE ( 'NONE', *, *, #44, .F. ) ;
#205 = CARTESIAN_POINT ( 'NONE',  ( 135.0000000000000000, 25.50000000000000355, -42.00000000000000000 ) ) ;
#206 = PERSON_AND_ORGANIZATION_ROLE ( 'creator' ) ;
#207 = CARTESIAN_POINT ( 'NONE',  ( 25.50000000000000355, 8.000000000000000000, 10.00000000000000000 ) ) ;
#208 = ORIENTED_EDGE ( 'NONE', *, *, #1441, .T. ) ;
#209 = PLANE ( 'NONE',  #1060 ) ;
#210 = FACE_OUTER_BOUND ( 'NONE', #658, .T. ) ;
#211 = CARTESIAN_POINT ( 'NONE',  ( 45.00000000000000000, 0.000000000000000000, -50.00000000000000000 ) ) ;
#212 = CARTESIAN_POINT ( 'NONE',  ( -17.49999999999999645, 0.000000000000000000, 0.000000000000000000 ) ) ;
#213 = EDGE_LOOP ( 'NONE', ( #45, #460 ) ) ;
#214 = LINE ( 'NONE', #8, #224 ) ;
#215 = LINE ( 'NONE', #1336, #1221 ) ;
#216 = EDGE_CURVE ( 'NONE', #387, #898, #1191, .T. ) ;
#217 = EDGE_LOOP ( 'NONE', ( #169, #1299, #1388, #625 ) ) ;
#218 = ORIENTED_EDGE ( 'NONE', *, *, #1177, .T. ) ;
#219 = AXIS2_PLACEMENT_3D ( 'NONE', #556, #117, #1226 ) ;
#220 = AXIS2_PLACEMENT_3D ( 'NONE', #545, #417, #438 ) ;
#221 = APPROVAL_ROLE ( '' ) ;
#222 = PLANE ( 'NONE',  #1340 ) ;
#223 = VECTOR ( 'NONE', #619, 1000.000000000000000 ) ;
#224 = VECTOR ( 'NONE', #293, 1000.000000000000000 ) ;
#225 = ORIENTED_EDGE ( 'NONE', *, *, #785, .F. ) ;
#226 = VERTEX_POINT ( 'NONE', #207 ) ;
#227 = EDGE_CURVE ( 'NONE', #436, #135, #1314, .T. ) ;
#228 = COORDINATED_UNIVERSAL_TIME_OFFSET ( 5, 30, .AHEAD. ) ;
#229 = CARTESIAN_POINT ( 'NONE',  ( -33.00000000000000000, 52.00000000000000000, -3.999999999999996447 ) ) ;
#230 = ORIENTED_EDGE ( 'NONE', *, *, #1312, .T. ) ;
#231 = DIRECTION ( 'NONE',  ( 0.7071067811865474617, 0.7071067811865474617, 0.000000000000000000 ) ) ;
#232 = EDGE_CURVE ( 'NONE', #1161, #24, #196, .T. ) ;
#233 = ORIENTED_EDGE ( 'NONE', *, *, #615, .F. ) ;
#234 = VERTEX_POINT ( 'NONE', #1322 ) ;
#235 = LINE ( 'NONE', #1035, #872 ) ;
#236 = FACE_BOUND ( 'NONE', #409, .T. ) ;
#237 = DIRECTION ( 'NONE',  ( 1.000000000000000000, 0.000000000000000000, 0.000000000000000000 ) ) ;
#238 = ORIENTED_EDGE ( 'NONE', *, *, #419, .T. ) ;
#239 = EDGE_CURVE ( 'NONE', #879, #52, #506, .T. ) ;
#240 = DATE_AND_TIME ( #1232, #587 ) ;
#241 = VERTEX_POINT ( 'NONE', #750 ) ;
#242 = CARTESIAN_POINT ( 'NONE',  ( -47.00000000000000000, -52.00000000000000000, -3.999999999999996447 ) ) ;
#243 = CARTESIAN_POINT ( 'NONE',  ( 70.00000000000000000, 0.000000000000000000, -50.00000000000000000 ) ) ;
#244 = VECTOR ( 'NONE', #1008, 1000.000000000000000 ) ;
#245 = AXIS2_PLACEMENT_3D ( 'NONE', #803, #1258, #1237 ) ;
#246 = LINE ( 'NONE', #1039, #357 ) ;
#247 = DIRECTION ( 'NONE',  ( 1.000000000000000000, 0.000000000000000000, 0.000000000000000000 ) ) ;
#248 = ORIENTED_EDGE ( 'NONE', *, *, #1110, .F. ) ;
#249 = DIRECTION ( 'NONE',  ( 1.000000000000000000, 0.000000000000000000, 0.000000000000000000 ) ) ;
#250 = EDGE_CURVE ( 'NONE', #1034, #1142, #583, .T. ) ;
#251 = DIRECTION ( 'NONE',  ( 0.000000000000000000, -1.000000000000000000, 0.000000000000000000 ) ) ;
#252 = DIRECTION ( 'NONE',  ( 0.000000000000000000, -1.000000000000000000, 0.000000000000000000 ) ) ;
#253 = ADVANCED_FACE ( 'NONE', ( #1412, #408, #338 ), #851, .T. ) ;
#254 = CARTESIAN_POINT ( 'NONE',  ( -47.00000000000000000, 38.00000000000000000, -3.999999999999996447 ) ) ;
#255 = DIRECTION ( 'NONE',  ( -1.000000000000000000, -0.000000000000000000, -0.000000000000000000 ) ) ;
#256 = VERTEX_POINT ( 'NONE', #1305 ) ;
#257 = DIRECTION ( 'NONE',  ( -0.000000000000000000, 0.000000000000000000, 1.000000000000000000 ) ) ;
#258 = DIRECTION ( 'NONE',  ( 0.000000000000000000, 0.8137334712067350040, -0.5812381937190964631 ) ) ;
#259 = EDGE_CURVE ( 'NONE', #241, #628, #634, .T. ) ;
#260 = DIRECTION ( 'NONE',  ( 1.000000000000000000, 0.000000000000000000, 0.000000000000000000 ) ) ;
#261 = PLANE ( 'NONE',  #1361 ) ;
#262 = VERTEX_POINT ( 'NONE', #92 ) ;
#263 = LINE ( 'NONE', #703, #199 ) ;
#264 = VECTOR ( 'NONE', #729, 1000.000000000000000 ) ;
#265 = CARTESIAN_POINT ( 'NONE',  ( -75.00000000000000000, 32.50000000000000000, -50.00000000000000000 ) ) ;
#266 = AXIS2_PLACEMENT_3D ( 'NONE', #463, #684, #810 ) ;
#267 = VECTOR ( 'NONE', #296, 1000.000000000000000 ) ;
#268 = CIRCLE ( 'NONE', #964, 4.000000000000000000 ) ;
#269 = DIRECTION ( 'NONE',  ( -0.000000000000000000, -0.000000000000000000, -1.000000000000000000 ) ) ;
#270 = LINE ( 'NONE', #930, #195 ) ;
#271 = VERTEX_POINT ( 'NONE', #1211 ) ;
#272 = CARTESIAN_POINT ( 'NONE',  ( 70.00000000000000000, 0.000000000000000000, -42.00000000000000000 ) ) ;
#273 = DIRECTION ( 'NONE',  ( 0.000000000000000000, -1.000000000000000000, 0.000000000000000000 ) ) ;
#274 = CARTESIAN_POINT ( 'NONE',  ( 25.50000000000000355, -13.00000000000000000, -42.00000000000000000 ) ) ;
#275 = EDGE_CURVE ( 'NONE', #436, #581, #784, .T. ) ;
#276 = ORIENTED_EDGE ( 'NONE', *, *, #1441, .F. ) ;
#277 = CARTESIAN_POINT ( 'NONE',  ( -17.49999999999999645, -13.00000000000000000, -42.00000000000000000 ) ) ;
#278 = LINE ( 'NONE', #371, #61 ) ;
#279 = EDGE_LOOP ( 'NONE', ( #1076, #768, #134, #1350 ) ) ;
#280 = LINE ( 'NONE', #955, #423 ) ;
#281 = DIRECTION ( 'NONE',  ( 1.000000000000000000, 0.000000000000000000, 0.000000000000000000 ) ) ;
#282 = ADVANCED_FACE ( 'NONE', ( #1124, #297 ), #865, .T. ) ;
#283 = AXIS2_PLACEMENT_3D ( 'NONE', #302, #629, #69 ) ;
#284 = CARTESIAN_POINT ( 'NONE',  ( 25.50000000000000355, 13.00000000000000000, 3.000000000000000000 ) ) ;
#285 = AXIS2_PLACEMENT_3D ( 'NONE', #136, #476, #924 ) ;
#286 = ORIENTED_EDGE ( 'NONE', *, *, #1000, .T. ) ;
#287 = CARTESIAN_POINT ( 'NONE',  ( -47.00000000000000000, -52.00000000000000000, -42.00000000000000000 ) ) ;
#288 = DIRECTION ( 'NONE',  ( -0.000000000000000000, -0.000000000000000000, -1.000000000000000000 ) ) ;
#289 = ADVANCED_FACE ( 'NONE', ( #1236, #236 ), #1203, .F. ) ;
#290 = VERTEX_POINT ( 'NONE', #399 ) ;
#291 = CARTESIAN_POINT ( 'NONE',  ( 0.000000000000000000, 0.000000000000000000, -50.00000000000000000 ) ) ;
#292 = EDGE_LOOP ( 'NONE', ( #1366, #418, #321, #336 ) ) ;
#293 = DIRECTION ( 'NONE',  ( -1.000000000000000000, -0.000000000000000000, -0.000000000000000000 ) ) ;
#294 = CARTESIAN_POINT ( 'NONE',  ( 0.000000000000000000, 0.000000000000000000, -3.999999999999996447 ) ) ;
#295 = EDGE_CURVE ( 'NONE', #160, #636, #308, .T. ) ;
#296 = DIRECTION ( 'NONE',  ( 0.000000000000000000, 1.000000000000000000, 0.000000000000000000 ) ) ;
#297 = FACE_BOUND ( 'NONE', #1231, .T. ) ;
#298 = EDGE_LOOP ( 'NONE', ( #1200, #1326, #448, #1320 ) ) ;
#299 = EDGE_CURVE ( 'NONE', #887, #34, #649, .T. ) ;
#300 = LINE ( 'NONE', #114, #1224 ) ;
#301 = EDGE_LOOP ( 'NONE', ( #978, #680, #1302, #172 ) ) ;
#302 = CARTESIAN_POINT ( 'NONE',  ( 45.00000000000000000, 0.000000000000000000, -42.00000000000000000 ) ) ;
#303 = ORIENTED_EDGE ( 'NONE', *, *, #833, .F. ) ;
#304 = CARTESIAN_POINT ( 'NONE',  ( 25.50000000000000355, 13.00000000000000000, 3.000000000000000000 ) ) ;
#305 = VECTOR ( 'NONE', #1385, 1000.000000000000000 ) ;
#306 = APPROVAL_DATE_TIME ( #190, #617 ) ;
#307 = CARTESIAN_POINT ( 'NONE',  ( -47.00000000000000000, -38.00000000000000000, -42.00000000000000000 ) ) ;
#308 = CIRCLE ( 'NONE', #353, 6.999999999999999112 ) ;
#309 = AXIS2_PLACEMENT_3D ( 'NONE', #205, #641, #1089 ) ;
#310 = ORIENTED_EDGE ( 'NONE', *, *, #484, .T. ) ;
#311 = VECTOR ( 'NONE', #1107, 1000.000000000000000 ) ;
#312 = EDGE_CURVE ( 'NONE', #668, #1159, #971, .T. ) ;
#313 = CARTESIAN_POINT ( 'NONE',  ( 107.0000000000000142, -47.50000000000000000, -50.00000000000000000 ) ) ;
#314 = EDGE_LOOP ( 'NONE', ( #536, #303, #22, #74, #692, #163 ) ) ;
#315 = DIRECTION ( 'NONE',  ( -1.000000000000000000, 0.000000000000000000, -0.000000000000000000 ) ) ;
#316 = EDGE_LOOP ( 'NONE', ( #148, #923, #225, #482 ) ) ;
#317 = ADVANCED_FACE ( 'NONE', ( #123 ), #554, .F. ) ;
#318 = ORIENTED_EDGE ( 'NONE', *, *, #767, .F. ) ;
#319 = DIRECTION ( 'NONE',  ( 0.000000000000000000, 0.000000000000000000, 1.000000000000000000 ) ) ;
#320 = VERTEX_POINT ( 'NONE', #896 ) ;
#321 = ORIENTED_EDGE ( 'NONE', *, *, #1019, .F. ) ;
#322 = APPLICATION_PROTOCOL_DEFINITION ( 'international standard', 'config_control_design', 1994, #845 ) ;
#323 = ORIENTED_EDGE ( 'NONE', *, *, #1095, .T. ) ;
#324 = DIRECTION ( 'NONE',  ( 0.000000000000000000, 0.000000000000000000, 1.000000000000000000 ) ) ;
#325 = LINE ( 'NONE', #903, #842 ) ;
#326 = AXIS2_PLACEMENT_3D ( 'NONE', #291, #97, #315 ) ;
#327 = VECTOR ( 'NONE', #1061, 1000.000000000000000 ) ;
#328 = EDGE_LOOP ( 'NONE', ( #553, #6, #1109, #809 ) ) ;
#329 = DIRECTION ( 'NONE',  ( 0.000000000000000000, -1.000000000000000000, 0.000000000000000000 ) ) ;
#330 = AXIS2_PLACEMENT_3D ( 'NONE', #861, #105, #1317 ) ;
#331 = ORIENTED_EDGE ( 'NONE', *, *, #888, .T. ) ;
#332 = EDGE_CURVE ( 'NONE', #1102, #710, #1074, .T. ) ;
#333 = DIRECTION ( 'NONE',  ( 0.7071067811865475727, -0.7071067811865475727, 0.000000000000000000 ) ) ;
#334 = CC_DESIGN_DATE_AND_TIME_ASSIGNMENT ( #623, #63, ( #1082 ) ) ;
#335 = ORIENTED_EDGE ( 'NONE', *, *, #696, .F. ) ;
#336 = ORIENTED_EDGE ( 'NONE', *, *, #916, .T. ) ;
#337 = FACE_OUTER_BOUND ( 'NONE', #298, .T. ) ;
#338 = FACE_BOUND ( 'NONE', #1218, .T. ) ;
#339 = EDGE_CURVE ( 'NONE', #234, #5, #470, .T. ) ;
#340 = FACE_OUTER_BOUND ( 'NONE', #914, .T. ) ;
#341 = VERTEX_POINT ( 'NONE', #824 ) ;
#342 = CARTESIAN_POINT ( 'NONE',  ( -17.49999999999999645, -13.00000000000000000, 3.000000000000000000 ) ) ;
#343 = DIRECTION ( 'NONE',  ( -1.000000000000000000, 0.000000000000000000, -0.000000000000000000 ) ) ;
#344 = EDGE_LOOP ( 'NONE', ( #1228, #140, #875, #444 ) ) ;
#345 = DIRECTION ( 'NONE',  ( -1.000000000000000000, 0.000000000000000000, 0.000000000000000000 ) ) ;
#346 = DESIGN_CONTEXT ( 'detailed design', #155, 'design' ) ;
#347 = FACE_OUTER_BOUND ( 'NONE', #1063, .T. ) ;
#348 = ORIENTED_EDGE ( 'NONE', *, *, #1193, .F. ) ;
#349 = ADVANCED_FACE ( 'NONE', ( #1154 ), #790, .F. ) ;
#350 = ORIENTED_EDGE ( 'NONE', *, *, #856, .F. ) ;
#351 = CARTESIAN_POINT ( 'NONE',  ( -17.49999999999999645, 0.000000000000000000, 0.000000000000000000 ) ) ;
#352 = EDGE_CURVE ( 'NONE', #362, #1, #1138, .T. ) ;
#353 = AXIS2_PLACEMENT_3D ( 'NONE', #1084, #1301, #874 ) ;
#354 = DIRECTION ( 'NONE',  ( 0.000000000000000000, 0.000000000000000000, -1.000000000000000000 ) ) ;
#355 = ORIENTED_EDGE ( 'NONE', *, *, #127, .F. ) ;
#356 = CARTESIAN_POINT ( 'NONE',  ( -47.00000000000000000, -47.50000000000000000, -42.00000000000000000 ) ) ;
#357 = VECTOR ( 'NONE', #919, 1000.000000000000000 ) ;
#358 = FACE_OUTER_BOUND ( 'NONE', #35, .T. ) ;
#359 = DIRECTION ( 'NONE',  ( -0.000000000000000000, -0.000000000000000000, -1.000000000000000000 ) ) ;
#360 = PERSON_AND_ORGANIZATION ( #921, #1036 ) ;
#361 = EDGE_CURVE ( 'NONE', #290, #1189, #1275, .T. ) ;
#362 = VERTEX_POINT ( 'NONE', #1017 ) ;
#363 = FACE_OUTER_BOUND ( 'NONE', #573, .T. ) ;
#364 = CARTESIAN_POINT ( 'NONE',  ( -47.00000000000000000, 38.00000000000000000, -3.999999999999996447 ) ) ;
#365 = FACE_OUTER_BOUND ( 'NONE', #893, .T. ) ;
#366 = EDGE_LOOP ( 'NONE', ( #122, #954, #745, #1007 ) ) ;
#367 = LINE ( 'NONE', #53, #657 ) ;
#368 = FACE_OUTER_BOUND ( 'NONE', #1152, .T. ) ;
#369 = ADVANCED_FACE ( 'NONE', ( #1038 ), #689, .F. ) ;
#370 = LINE ( 'NONE', #910, #1174 ) ;
#371 = CARTESIAN_POINT ( 'NONE',  ( -33.00000000000000000, -52.00000000000000000, -3.999999999999996447 ) ) ;
#372 = ORIENTED_EDGE ( 'NONE', *, *, #1230, .F. ) ;
#373 = CARTESIAN_POINT ( 'NONE',  ( 17.50000000000000000, 13.00000000000000000, -42.00000000000000000 ) ) ;
#374 = VECTOR ( 'NONE', #1046, 1000.000000000000000 ) ;
#375 = ORIENTED_EDGE ( 'NONE', *, *, #419, .F. ) ;
#376 = LINE ( 'NONE', #1368, #1338 ) ;
#377 = AXIS2_PLACEMENT_3D ( 'NONE', #1132, #345, #164 ) ;
#378 = VECTOR ( 'NONE', #157, 1000.000000000000000 ) ;
#379 = ADVANCED_FACE ( 'NONE', ( #585 ), #143, .F. ) ;
#380 = CC_DESIGN_APPROVAL ( #617, ( #1082 ) ) ;
#381 = LINE ( 'NONE', #165, #962 ) ;
#382 = CARTESIAN_POINT ( 'NONE',  ( 25.50000000000000355, 0.000000000000000000, 0.000000000000000000 ) ) ;
#383 = ORIENTED_EDGE ( 'NONE', *, *, #1288, .T. ) ;
#384 = DIRECTION ( 'NONE',  ( 1.000000000000000000, 0.000000000000000000, 0.000000000000000000 ) ) ;
#385 = CARTESIAN_POINT ( 'NONE',  ( 107.0000000000000142, 47.50000000000000000, -42.00000000000000000 ) ) ;
#386 = LINE ( 'NONE', #1068, #305 ) ;
#387 = VERTEX_POINT ( 'NONE', #712 ) ;
#388 = LINE ( 'NONE', #1416, #400 ) ;
#389 = CARTESIAN_POINT ( 'NONE',  ( 70.00000000000000000, 0.000000000000000000, -42.00000000000000000 ) ) ;
#390 = VERTEX_POINT ( 'NONE', #265 ) ;
#391 = CARTESIAN_POINT ( 'NONE',  ( 17.50000000000000000, 8.000000000000000000, 10.00000000000000000 ) ) ;
#392 = PERSON_AND_ORGANIZATION_ROLE ( 'classification_officer' ) ;
#393 = CARTESIAN_POINT ( 'NONE',  ( 107.0000000000000142, 47.50000000000000000, -42.00000000000000000 ) ) ;
#394 = ORIENTED_EDGE ( 'NONE', *, *, #779, .T. ) ;
#395 = EDGE_CURVE ( 'NONE', #1216, #489, #1353, .T. ) ;
#396 = DIRECTION ( 'NONE',  ( 1.000000000000000000, 0.000000000000000000, 0.000000000000000000 ) ) ;
#397 = AXIS2_PLACEMENT_3D ( 'NONE', #642, #740, #736 ) ;
#398 = CARTESIAN_POINT ( 'NONE',  ( -17.49999999999999645, 8.000000000000000000, 10.00000000000000000 ) ) ;
#399 = CARTESIAN_POINT ( 'NONE',  ( 25.50000000000000355, 0.000000000000000000, 4.000000000000000000 ) ) ;
#400 = VECTOR ( 'NONE', #269, 1000.000000000000000 ) ;
#401 = CC_DESIGN_APPROVAL ( #857, ( #1112 ) ) ;
#402 = ORIENTED_EDGE ( 'NONE', *, *, #295, .T. ) ;
#403 = EDGE_CURVE ( 'NONE', #848, #990, #1316, .T. ) ;
#404 = EDGE_LOOP ( 'NONE', ( #783, #375, #28, #1093 ) ) ;
#405 = DIRECTION ( 'NONE',  ( 0.000000000000000000, -0.5812381937190963521, 0.8137334712067351150 ) ) ;
#406 = EDGE_CURVE ( 'NONE', #1415, #959, #677, .T. ) ;
#407 = LINE ( 'NONE', #188, #1363 ) ;
#408 = FACE_OUTER_BOUND ( 'NONE', #1129, .T. ) ;
#409 = EDGE_LOOP ( 'NONE', ( #515, #1265 ) ) ;
#410 = MECHANICAL_CONTEXT ( 'NONE', #845, 'mechanical' ) ;
#411 = FACE_OUTER_BOUND ( 'NONE', #48, .T. ) ;
#412 = CARTESIAN_POINT ( 'NONE',  ( 25.50000000000000355, 4.898587196589412829E-16, -4.000000000000000000 ) ) ;
#413 = EDGE_CURVE ( 'NONE', #1065, #362, #908, .T. ) ;
#414 = ORIENTED_EDGE ( 'NONE', *, *, #403, .F. ) ;
#415 = DIRECTION ( 'NONE',  ( -0.000000000000000000, -0.000000000000000000, -1.000000000000000000 ) ) ;
#416 = ORIENTED_EDGE ( 'NONE', *, *, #299, .F. ) ;
#417 = DIRECTION ( 'NONE',  ( 1.000000000000000000, 0.000000000000000000, -0.000000000000000000 ) ) ;
#418 = ORIENTED_EDGE ( 'NONE', *, *, #1425, .F. ) ;
#419 = EDGE_CURVE ( 'NONE', #529, #661, #927, .T. ) ;
#420 = VECTOR ( 'NONE', #255, 1000.000000000000000 ) ;
#421 = CARTESIAN_POINT ( 'NONE',  ( -25.50000000000000000, 0.000000000000000000, 0.000000000000000000 ) ) ;
#422 = VECTOR ( 'NONE', #396, 1000.000000000000000 ) ;
#423 = VECTOR ( 'NONE', #822, 1000.000000000000000 ) ;
#424 = ORIENTED_EDGE ( 'NONE', *, *, #2, .F. ) ;
#425 = APPROVAL_PERSON_ORGANIZATION ( #764, #857, #221 ) ;
#426 = ORIENTED_EDGE ( 'NONE', *, *, #983, .T. ) ;
#427 = CARTESIAN_POINT ( 'NONE',  ( -33.00000000000000000, -38.00000000000000000, -3.999999999999996447 ) ) ;
#428 = EDGE_LOOP ( 'NONE', ( #939, #112, #1158, #1430 ) ) ;
#429 = LINE ( 'NONE', #1097, #537 ) ;
#430 = ORIENTED_EDGE ( 'NONE', *, *, #332, .T. ) ;
#431 = APPLICATION_PROTOCOL_DEFINITION ( 'international standard', 'config_control_design', 1994, #155 ) ;
#432 = ORIENTED_EDGE ( 'NONE', *, *, #752, .T. ) ;
#433 = PLANE ( 'NONE',  #770 ) ;
#434 = EDGE_LOOP ( 'NONE', ( #455, #778, #439, #1204, #1408, #1192 ) ) ;
#435 = PLANE ( 'NONE',  #108 ) ;
#436 = VERTEX_POINT ( 'NONE', #356 ) ;
#437 = EDGE_CURVE ( 'NONE', #628, #989, #802, .T. ) ;
#438 = DIRECTION ( 'NONE',  ( -0.000000000000000000, 0.000000000000000000, -1.000000000000000000 ) ) ;
#439 = ORIENTED_EDGE ( 'NONE', *, *, #446, .F. ) ;
#440 = PLANE ( 'NONE',  #1081 ) ;
#441 = LINE ( 'NONE', #1260, #420 ) ;
#442 = VECTOR ( 'NONE', #859, 1000.000000000000000 ) ;
#443 = AXIS2_PLACEMENT_3D ( 'NONE', #915, #257, #483 ) ;
#444 = ORIENTED_EDGE ( 'NONE', *, *, #1394, .T. ) ;
#445 = DIRECTION ( 'NONE',  ( 0.000000000000000000, -0.000000000000000000, -1.000000000000000000 ) ) ;
#446 = EDGE_CURVE ( 'NONE', #973, #879, #376, .T. ) ;
#447 = DIRECTION ( 'NONE',  ( 1.000000000000000000, 0.000000000000000000, 0.000000000000000000 ) ) ;
#448 = ORIENTED_EDGE ( 'NONE', *, *, #250, .F. ) ;
#449 = DIRECTION ( 'NONE',  ( 0.000000000000000000, -0.000000000000000000, -1.000000000000000000 ) ) ;
#450 = PLANE ( 'NONE',  #245 ) ;
#451 = CARTESIAN_POINT ( 'NONE',  ( -75.00000000000000000, 32.50000000000000000, -50.00000000000000000 ) ) ;
#452 = ORIENTED_EDGE ( 'NONE', *, *, #7, .T. ) ;
#453 = DIRECTION ( 'NONE',  ( 0.000000000000000000, -0.5812381937190963521, -0.8137334712067351150 ) ) ;
#454 = DIRECTION ( 'NONE',  ( -1.000000000000000000, 0.000000000000000000, 0.000000000000000000 ) ) ;
#455 = ORIENTED_EDGE ( 'NONE', *, *, #1431, .F. ) ;
#456 = CARTESIAN_POINT ( 'NONE',  ( -33.00000000000000000, -52.00000000000000000, -42.00000000000000000 ) ) ;
#457 = CARTESIAN_POINT ( 'NONE',  ( -25.50000000000000000, 8.000000000000000000, 10.00000000000000000 ) ) ;
#458 = DIRECTION ( 'NONE',  ( -0.7071067811865474617, -0.7071067811865474617, 0.000000000000000000 ) ) ;
#459 = CC_DESIGN_PERSON_AND_ORGANIZATION_ASSIGNMENT ( #838, #179, ( #1250 ) ) ;
#460 = ORIENTED_EDGE ( 'NONE', *, *, #162, .F. ) ;
#461 = FACE_OUTER_BOUND ( 'NONE', #316, .T. ) ;
#462 = LINE ( 'NONE', #800, #775 ) ;
#463 = CARTESIAN_POINT ( 'NONE',  ( 70.00000000000000000, 0.000000000000000000, -42.00000000000000000 ) ) ;
#464 = ADVANCED_FACE ( 'NONE', ( #368 ), #1146, .F. ) ;
#465 = CARTESIAN_POINT ( 'NONE',  ( -75.00000000000000000, 32.50000000000000000, -42.00000000000000000 ) ) ;
#466 = CALENDAR_DATE ( 2026, 24, 9 ) ;
#467 = ORIENTED_EDGE ( 'NONE', *, *, #51, .F. ) ;
#468 = LINE ( 'NONE', #130, #244 ) ;
#469 = AXIS2_PLACEMENT_3D ( 'NONE', #1398, #518, #969 ) ;
#470 = LINE ( 'NONE', #918, #492 ) ;
#471 = VECTOR ( 'NONE', #1344, 1000.000000000000000 ) ;
#472 = DIRECTION ( 'NONE',  ( 0.000000000000000000, 0.000000000000000000, 1.000000000000000000 ) ) ;
#473 = CARTESIAN_POINT ( 'NONE',  ( 135.0000000000000000, -25.50000000000000355, -50.00000000000000000 ) ) ;
#474 = LINE ( 'NONE', #892, #1410 ) ;
#475 = ORIENTED_EDGE ( 'NONE', *, *, #519, .T. ) ;
#476 = DIRECTION ( 'NONE',  ( 1.000000000000000000, 0.000000000000000000, 0.000000000000000000 ) ) ;
#477 = LINE ( 'NONE', #925, #849 ) ;
#478 = DIRECTION ( 'NONE',  ( 0.000000000000000000, 0.000000000000000000, 1.000000000000000000 ) ) ;
#479 = ADVANCED_FACE ( 'NONE', ( #363 ), #695, .F. ) ;
#480 = CARTESIAN_POINT ( 'NONE',  ( 38.00000000000000000, 0.000000000000000000, -42.00000000000000000 ) ) ;
#481 = DIRECTION ( 'NONE',  ( 0.000000000000000000, -1.000000000000000000, 0.000000000000000000 ) ) ;
#482 = ORIENTED_EDGE ( 'NONE', *, *, #361, .F. ) ;
#483 = DIRECTION ( 'NONE',  ( 1.000000000000000000, 0.000000000000000000, 0.000000000000000000 ) ) ;
#484 = EDGE_CURVE ( 'NONE', #581, #715, #25, .T. ) ;
#485 = DIRECTION ( 'NONE',  ( -1.000000000000000000, -0.000000000000000000, -0.000000000000000000 ) ) ;
#486 = ADVANCED_FACE ( 'NONE', ( #1184 ), #1072, .F. ) ;
#487 = LINE ( 'NONE', #1127, #1439 ) ;
#488 = CARTESIAN_POINT ( 'NONE',  ( 52.00000000000000000, 8.572527594031472204E-16, -50.00000000000000000 ) ) ;
#489 = VERTEX_POINT ( 'NONE', #385 ) ;
#490 = LINE ( 'NONE', #600, #557 ) ;
#491 = EDGE_CURVE ( 'NONE', #661, #271, #621, .T. ) ;
#492 = VECTOR ( 'NONE', #137, 999.9999999999998863 ) ;
#493 = AXIS2_PLACEMENT_3D ( 'NONE', #883, #1094, #324 ) ;
#494 = AXIS2_PLACEMENT_3D ( 'NONE', #544, #1086, #659 ) ;
#495 = CARTESIAN_POINT ( 'NONE',  ( 135.0000000000000000, 25.50000000000000355, -50.00000000000000000 ) ) ;
#496 = ORIENTED_EDGE ( 'NONE', *, *, #1300, .F. ) ;
#497 = LINE ( 'NONE', #1274, #728 ) ;
#498 = DIRECTION ( 'NONE',  ( 0.000000000000000000, 0.000000000000000000, -1.000000000000000000 ) ) ;
#499 = ORIENTED_EDGE ( 'NONE', *, *, #662, .F. ) ;
#500 = CARTESIAN_POINT ( 'NONE',  ( -47.00000000000000000, 52.00000000000000000, -42.00000000000000000 ) ) ;
#501 = EDGE_CURVE ( 'NONE', #989, #174, #607, .T. ) ;
#502 = LINE ( 'NONE', #57, #1171 ) ;
#503 = EDGE_CURVE ( 'NONE', #581, #917, #1166, .T. ) ;
#504 = ORIENTED_EDGE ( 'NONE', *, *, #626, .T. ) ;
#505 = DIRECTION ( 'NONE',  ( 1.000000000000000000, 0.000000000000000000, 0.000000000000000000 ) ) ;
#506 = LINE ( 'NONE', #965, #1437 ) ;
#507 = ADVANCED_FACE ( 'NONE', ( #960 ), #1419, .T. ) ;
#508 = ORIENTED_EDGE ( 'NONE', *, *, #967, .F. ) ;
#509 = ORIENTED_EDGE ( 'NONE', *, *, #1328, .F. ) ;
#510 = CARTESIAN_POINT ( 'NONE',  ( -60.00000000000000000, -47.50000000000000000, -42.00000000000000000 ) ) ;
#511 = VECTOR ( 'NONE', #1257, 1000.000000000000000 ) ;
#512 = VECTOR ( 'NONE', #260, 1000.000000000000000 ) ;
#513 = CALENDAR_DATE ( 2026, 24, 9 ) ;
#514 = DIRECTION ( 'NONE',  ( 0.000000000000000000, -1.000000000000000000, 0.000000000000000000 ) ) ;
#515 = ORIENTED_EDGE ( 'NONE', *, *, #785, .T. ) ;
#516 =( LENGTH_UNIT ( ) NAMED_UNIT ( * ) SI_UNIT ( .MILLI., .METRE. ) );
#517 = ORIENTED_EDGE ( 'NONE', *, *, #144, .T. ) ;
#518 = DIRECTION ( 'NONE',  ( 0.7071067811865475727, 0.7071067811865475727, -0.000000000000000000 ) ) ;
#519 = EDGE_CURVE ( 'NONE', #525, #1161, #490, .T. ) ;
#520 = DIRECTION ( 'NONE',  ( 0.000000000000000000, 0.000000000000000000, 1.000000000000000000 ) ) ;
#521 = DIRECTION ( 'NONE',  ( 0.000000000000000000, -1.000000000000000000, 0.000000000000000000 ) ) ;
#522 = ORIENTED_EDGE ( 'NONE', *, *, #147, .T. ) ;
#523 = FACE_OUTER_BOUND ( 'NONE', #328, .T. ) ;
#524 = EDGE_CURVE ( 'NONE', #256, #1406, #614, .T. ) ;
#525 = VERTEX_POINT ( 'NONE', #855 ) ;
#526 = DIRECTION ( 'NONE',  ( 1.000000000000000000, 0.000000000000000000, 0.000000000000000000 ) ) ;
#527 = DIRECTION ( 'NONE',  ( 1.000000000000000000, 0.000000000000000000, 0.000000000000000000 ) ) ;
#528 = ORIENTED_EDGE ( 'NONE', *, *, #275, .F. ) ;
#529 = VERTEX_POINT ( 'NONE', #277 ) ;
#530 = CARTESIAN_POINT ( 'NONE',  ( 25.50000000000000355, -8.000000000000000000, 10.00000000000000000 ) ) ;
#531 = ORIENTED_EDGE ( 'NONE', *, *, #113, .T. ) ;
#532 = DIRECTION ( 'NONE',  ( 0.000000000000000000, -0.8137334712067350040, -0.5812381937190964631 ) ) ;
#533 = AXIS2_PLACEMENT_3D ( 'NONE', #284, #184, #812 ) ;
#534 = AXIS2_PLACEMENT_3D ( 'NONE', #272, #594, #1043 ) ;
#535 = VECTOR ( 'NONE', #817, 999.9999999999998863 ) ;
#536 = ORIENTED_EDGE ( 'NONE', *, *, #110, .F. ) ;
#537 = VECTOR ( 'NONE', #101, 1000.000000000000000 ) ;
#538 = CARTESIAN_POINT ( 'NONE',  ( -25.50000000000000000, -13.00000000000000000, 3.000000000000000000 ) ) ;
#539 = FACE_OUTER_BOUND ( 'NONE', #428, .T. ) ;
#540 = ORIENTED_EDGE ( 'NONE', *, *, #20, .F. ) ;
#541 = EDGE_CURVE ( 'NONE', #959, #1415, #727, .T. ) ;
#542 = ORIENTED_EDGE ( 'NONE', *, *, #1243, .F. ) ;
#543 = ADVANCED_FACE ( 'NONE', ( #411 ), #194, .F. ) ;
#544 = CARTESIAN_POINT ( 'NONE',  ( 107.0000000000000142, -47.50000000000000000, -42.00000000000000000 ) ) ;
#545 = CARTESIAN_POINT ( 'NONE',  ( -75.00000000000000000, 32.50000000000000000, -42.00000000000000000 ) ) ;
#546 = VERTEX_POINT ( 'NONE', #862 ) ;
#547 = FACE_OUTER_BOUND ( 'NONE', #1165, .T. ) ;
#548 = CARTESIAN_POINT ( 'NONE',  ( 17.50000000000000000, -13.00000000000000000, -42.00000000000000000 ) ) ;
#549 = EDGE_CURVE ( 'NONE', #226, #1161, #1080, .T. ) ;
#550 = ORIENTED_EDGE ( 'NONE', *, *, #239, .T. ) ;
#551 = DIRECTION ( 'NONE',  ( -1.000000000000000000, 0.000000000000000000, 0.000000000000000000 ) ) ;
#552 = CARTESIAN_POINT ( 'NONE',  ( 25.50000000000000355, 0.000000000000000000, 0.000000000000000000 ) ) ;
#553 = ORIENTED_EDGE ( 'NONE', *, *, #56, .T. ) ;
#554 = PLANE ( 'NONE',  #177 ) ;
#555 = ADVANCED_FACE ( 'NONE', ( #1175 ), #946, .F. ) ;
#556 = CARTESIAN_POINT ( 'NONE',  ( -17.49999999999999645, -8.000000000000000000, 10.00000000000000000 ) ) ;
#557 = VECTOR ( 'NONE', #405, 999.9999999999998863 ) ;
#558 = AXIS2_PLACEMENT_3D ( 'NONE', #811, #708, #1140 ) ;
#559 = ORIENTED_EDGE ( 'NONE', *, *, #1157, .F. ) ;
#560 = MANIFOLD_SOLID_BREP ( 'Post_Med', #1292 ) ;
#561 = DIRECTION ( 'NONE',  ( 0.000000000000000000, 1.000000000000000000, 0.000000000000000000 ) ) ;
#562 = VECTOR ( 'NONE', #454, 1000.000000000000000 ) ;
#563 = DIRECTION ( 'NONE',  ( 0.7863183388224226356, 0.6178215519319035787, 0.000000000000000000 ) ) ;
#564 = ADVANCED_FACE ( 'NONE', ( #1424 ), #1309, .F. ) ;
#565 = CARTESIAN_POINT ( 'NONE',  ( -32.99999999999994316, 47.50000000000000000, -42.00000000000000000 ) ) ;
#566 = ORIENTED_EDGE ( 'NONE', *, *, #20, .T. ) ;
#567 = ORIENTED_EDGE ( 'NONE', *, *, #719, .F. ) ;
#568 = DIRECTION ( 'NONE',  ( 0.000000000000000000, -0.5812381937190963521, -0.8137334712067351150 ) ) ;
#569 = CARTESIAN_POINT ( 'NONE',  ( -33.00000000000000000, 52.00000000000000000, -3.999999999999996447 ) ) ;
#570 = CARTESIAN_POINT ( 'NONE',  ( 25.50000000000000355, 0.000000000000000000, 4.000000000000000000 ) ) ;
#571 = EDGE_CURVE ( 'NONE', #715, #70, #60, .T. ) ;
#572 = CARTESIAN_POINT ( 'NONE',  ( -47.00000000000000000, 52.00000000000000000, -3.999999999999996447 ) ) ;
#573 = EDGE_LOOP ( 'NONE', ( #1273, #666, #504, #467 ) ) ;
#574 = ORIENTED_EDGE ( 'NONE', *, *, #7, .F. ) ;
#575 = DIRECTION ( 'NONE',  ( -1.000000000000000000, 0.000000000000000000, 0.000000000000000000 ) ) ;
#576 = EDGE_LOOP ( 'NONE', ( #899, #517, #430, #590 ) ) ;
#577 = CARTESIAN_POINT ( 'NONE',  ( -47.00000000000000000, -38.00000000000000000, -3.999999999999996447 ) ) ;
#578 = LINE ( 'NONE', #1030, #1198 ) ;
#579 = ORIENTED_EDGE ( 'NONE', *, *, #779, .F. ) ;
#580 = VECTOR ( 'NONE', #96, 1000.000000000000000 ) ;
#581 = VERTEX_POINT ( 'NONE', #183 ) ;
#582 = LINE ( 'NONE', #46, #678 ) ;
#583 = CIRCLE ( 'NONE', #1103, 4.000000000000000000 ) ;
#584 = CARTESIAN_POINT ( 'NONE',  ( -75.00000000000000000, -32.50000000000000000, -50.00000000000000000 ) ) ;
#585 = FACE_OUTER_BOUND ( 'NONE', #737, .T. ) ;
#586 = VECTOR ( 'NONE', #384, 1000.000000000000000 ) ;
#587 = LOCAL_TIME ( 11, 8, 21.00000000000000000, #1240 ) ;
#588 = DIRECTION ( 'NONE',  ( -0.000000000000000000, 0.000000000000000000, -1.000000000000000000 ) ) ;
#589 = ADVANCED_FACE ( 'NONE', ( #829, #1390, #1280, #1066, #843 ), #951, .F. ) ;
#590 = ORIENTED_EDGE ( 'NONE', *, *, #856, .T. ) ;
#591 = DIRECTION ( 'NONE',  ( 0.000000000000000000, 0.000000000000000000, 1.000000000000000000 ) ) ;
#592 = CC_DESIGN_PERSON_AND_ORGANIZATION_ASSIGNMENT ( #904, #796, ( #1112 ) ) ;
#593 = ORIENTED_EDGE ( 'NONE', *, *, #524, .T. ) ;
#594 = DIRECTION ( 'NONE',  ( -0.000000000000000000, -0.000000000000000000, -1.000000000000000000 ) ) ;
#595 = CARTESIAN_POINT ( 'NONE',  ( 80.00000000000000000, 1.224646799147352665E-15, -42.00000000000000000 ) ) ;
#596 = PLANE ( 'NONE',  #82 ) ;
#597 = EDGE_CURVE ( 'NONE', #1096, #1, #14, .T. ) ;
#598 = ORIENTED_EDGE ( 'NONE', *, *, #299, .T. ) ;
#599 = FACE_OUTER_BOUND ( 'NONE', #167, .T. ) ;
#600 = CARTESIAN_POINT ( 'NONE',  ( 17.50000000000000000, 13.00000000000000000, 3.000000000000000000 ) ) ;
#601 = ADVANCED_FACE ( 'NONE', ( #523 ), #886, .F. ) ;
#602 = ORIENTED_EDGE ( 'NONE', *, *, #1253, .T. ) ;
#603 = DIRECTION ( 'NONE',  ( 0.000000000000000000, 1.000000000000000000, 0.000000000000000000 ) ) ;
#604 = ORIENTED_EDGE ( 'NONE', *, *, #662, .T. ) ;
#605 = DIRECTION ( 'NONE',  ( 0.000000000000000000, -0.000000000000000000, -1.000000000000000000 ) ) ;
#606 = AXIS2_PLACEMENT_3D ( 'NONE', #382, #1402, #714 ) ;
#607 = LINE ( 'NONE', #1059, #1054 ) ;
#608 = VECTOR ( 'NONE', #733, 1000.000000000000000 ) ;
#609 = AXIS2_PLACEMENT_3D ( 'NONE', #1056, #731, #1071 ) ;
#610 = LOCAL_TIME ( 11, 8, 21.00000000000000000, #749 ) ;
#611 = PERSON_AND_ORGANIZATION ( #921, #1036 ) ;
#612 = CARTESIAN_POINT ( 'NONE',  ( -33.00000000000000000, 52.00000000000000000, -3.999999999999996447 ) ) ;
#613 = ORIENTED_EDGE ( 'NONE', *, *, #437, .F. ) ;
#614 = LINE ( 'NONE', #1304, #1172 ) ;
#615 = EDGE_CURVE ( 'NONE', #990, #848, #1032, .T. ) ;
#616 = FACE_OUTER_BOUND ( 'NONE', #434, .T. ) ;
#617 = APPROVAL ( #1401, 'UNSPECIFIED' ) ;
#618 = VERTEX_POINT ( 'NONE', #766 ) ;
#619 = DIRECTION ( 'NONE',  ( -0.000000000000000000, -0.000000000000000000, -1.000000000000000000 ) ) ;
#620 = ORIENTED_EDGE ( 'NONE', *, *, #332, .F. ) ;
#621 = LINE ( 'NONE', #81, #84 ) ;
#622 = LINE ( 'NONE', #858, #267 ) ;
#623 = DATE_AND_TIME ( #513, #941 ) ;
#624 = DIRECTION ( 'NONE',  ( 0.000000000000000000, 0.000000000000000000, -1.000000000000000000 ) ) ;
#625 = ORIENTED_EDGE ( 'NONE', *, *, #1286, .T. ) ;
#626 = EDGE_CURVE ( 'NONE', #262, #1034, #215, .T. ) ;
#627 = DIRECTION ( 'NONE',  ( 0.7071067811865474617, -0.7071067811865474617, 0.000000000000000000 ) ) ;
#628 = VERTEX_POINT ( 'NONE', #313 ) ;
#629 = DIRECTION ( 'NONE',  ( -0.000000000000000000, -0.000000000000000000, -1.000000000000000000 ) ) ;
#630 = AXIS2_PLACEMENT_3D ( 'NONE', #663, #139, #1013 ) ;
#631 = VECTOR ( 'NONE', #1090, 1000.000000000000000 ) ;
#632 = VECTOR ( 'NONE', #1045, 1000.000000000000000 ) ;
#633 = COORDINATED_UNIVERSAL_TIME_OFFSET ( 5, 30, .AHEAD. ) ;
#634 = LINE ( 'NONE', #1427, #442 ) ;
#635 = AXIS2_PLACEMENT_3D ( 'NONE', #1244, #354, #343 ) ;
#636 = VERTEX_POINT ( 'NONE', #1318 ) ;
#637 = EDGE_CURVE ( 'NONE', #650, #24, #119, .T. ) ;
#638 = CARTESIAN_POINT ( 'NONE',  ( -17.49999999999999645, 4.898587196589412829E-16, -4.000000000000000000 ) ) ;
#639 = CARTESIAN_POINT ( 'NONE',  ( -17.49999999999999645, 13.00000000000000000, -42.00000000000000000 ) ) ;
#640 = ORIENTED_EDGE ( 'NONE', *, *, #87, .F. ) ;
#641 = DIRECTION ( 'NONE',  ( -0.6178215519319035787, -0.7863183388224226356, 0.000000000000000000 ) ) ;
#642 = CARTESIAN_POINT ( 'NONE',  ( 17.50000000000000000, 0.000000000000000000, 0.000000000000000000 ) ) ;
#643 = ORIENTED_EDGE ( 'NONE', *, *, #406, .F. ) ;
#644 = FACE_OUTER_BOUND ( 'NONE', #1098, .T. ) ;
#645 = CARTESIAN_POINT ( 'NONE',  ( 107.0000000000000142, 47.50000000000000000, -42.00000000000000000 ) ) ;
#646 = ORIENTED_EDGE ( 'NONE', *, *, #406, .T. ) ;
#647 = EDGE_CURVE ( 'NONE', #1065, #753, #754, .T. ) ;
#648 = DIRECTION ( 'NONE',  ( 1.000000000000000000, 0.000000000000000000, 0.000000000000000000 ) ) ;
#649 = LINE ( 'NONE', #1117, #1125 ) ;
#650 = VERTEX_POINT ( 'NONE', #4 ) ;
#651 =( NAMED_UNIT ( * ) PLANE_ANGLE_UNIT ( ) SI_UNIT ( $, .RADIAN. ) );
#652 = EDGE_LOOP ( 'NONE', ( #248, #238, #686, #335 ) ) ;
#653 = DIRECTION ( 'NONE',  ( 0.000000000000000000, -1.000000000000000000, 0.000000000000000000 ) ) ;
#654 = ORIENTED_EDGE ( 'NONE', *, *, #1225, .F. ) ;
#655 = ADVANCED_FACE ( 'NONE', ( #210 ), #433, .F. ) ;
#656 = ADVANCED_FACE ( 'NONE', ( #1100 ), #203, .F. ) ;
#657 = VECTOR ( 'NONE', #575, 1000.000000000000000 ) ;
#658 = EDGE_LOOP ( 'NONE', ( #16, #780, #777, #528, #1120, #1323 ) ) ;
#659 = DIRECTION ( 'NONE',  ( -0.7863183388224226356, -0.6178215519319035787, 0.000000000000000000 ) ) ;
#660 = DIRECTION ( 'NONE',  ( -1.000000000000000000, -0.000000000000000000, -0.000000000000000000 ) ) ;
#661 = VERTEX_POINT ( 'NONE', #776 ) ;
#662 = EDGE_CURVE ( 'NONE', #1135, #722, #974, .T. ) ;
#663 = CARTESIAN_POINT ( 'NONE',  ( -25.50000000000000000, 0.000000000000000000, 0.000000000000000000 ) ) ;
#664 = ORIENTED_EDGE ( 'NONE', *, *, #1119, .T. ) ;
#665 = PLANE ( 'NONE',  #18 ) ;
#666 = ORIENTED_EDGE ( 'NONE', *, *, #1225, .T. ) ;
#667 = CARTESIAN_POINT ( 'NONE',  ( -17.49999999999999645, 13.00000000000000000, 3.000000000000000000 ) ) ;
#668 = VERTEX_POINT ( 'NONE', #107 ) ;
#669 = ORIENTED_EDGE ( 'NONE', *, *, #597, .F. ) ;
#670 = DIRECTION ( 'NONE',  ( 0.000000000000000000, -0.000000000000000000, 1.000000000000000000 ) ) ;
#671 = ADVANCED_FACE ( 'NONE', ( #539 ), #222, .F. ) ;
#672 = VERTEX_POINT ( 'NONE', #9 ) ;
#673 = DIRECTION ( 'NONE',  ( 0.000000000000000000, -0.5812381937190963521, -0.8137334712067351150 ) ) ;
#674 = FACE_BOUND ( 'NONE', #213, .T. ) ;
#675 = LINE ( 'NONE', #1364, #632 ) ;
#676 = DIRECTION ( 'NONE',  ( -0.7863183388224226356, 0.6178215519319035787, 0.000000000000000000 ) ) ;
#677 = CIRCLE ( 'NONE', #266, 9.999999999999994671 ) ;
#678 = VECTOR ( 'NONE', #568, 999.9999999999998863 ) ;
#679 = ADVANCED_FACE ( 'NONE', ( #761 ), #665, .F. ) ;
#680 = ORIENTED_EDGE ( 'NONE', *, *, #597, .T. ) ;
#681 = LINE ( 'NONE', #1048, #1386 ) ;
#682 = CIRCLE ( 'NONE', #1105, 6.999999999999999112 ) ;
#683 = CARTESIAN_POINT ( 'NONE',  ( 135.0000000000000000, 25.50000000000000355, -42.00000000000000000 ) ) ;
#684 = DIRECTION ( 'NONE',  ( 0.000000000000000000, 0.000000000000000000, 1.000000000000000000 ) ) ;
#685 = DIRECTION ( 'NONE',  ( 0.000000000000000000, 0.000000000000000000, -1.000000000000000000 ) ) ;
#686 = ORIENTED_EDGE ( 'NONE', *, *, #491, .T. ) ;
#687 = DIRECTION ( 'NONE',  ( -1.000000000000000000, -0.000000000000000000, -0.000000000000000000 ) ) ;
#688 = DIRECTION ( 'NONE',  ( -0.000000000000000000, -0.000000000000000000, -1.000000000000000000 ) ) ;
#689 = CYLINDRICAL_SURFACE ( 'NONE', #534, 9.999999999999994671 ) ;
#690 = LINE ( 'NONE', #928, #1199 ) ;
#691 = DIRECTION ( 'NONE',  ( 0.000000000000000000, 0.000000000000000000, 1.000000000000000000 ) ) ;
#692 = ORIENTED_EDGE ( 'NONE', *, *, #983, .F. ) ;
#693 = EDGE_LOOP ( 'NONE', ( #1116, #870 ) ) ;
#694 = DIRECTION ( 'NONE',  ( -0.000000000000000000, -0.000000000000000000, -1.000000000000000000 ) ) ;
#695 = CYLINDRICAL_SURFACE ( 'NONE', #701, 4.000000000000000000 ) ;
#696 = EDGE_CURVE ( 'NONE', #840, #271, #1330, .T. ) ;
#697 = CARTESIAN_POINT ( 'NONE',  ( -25.50000000000000000, 13.00000000000000000, 3.000000000000000000 ) ) ;
#698 = PLANE ( 'NONE',  #533 ) ;
#699 = CC_DESIGN_PERSON_AND_ORGANIZATION_ASSIGNMENT ( #877, #1324, ( #909 ) ) ;
#700 = VECTOR ( 'NONE', #166, 1000.000000000000000 ) ;
#701 = AXIS2_PLACEMENT_3D ( 'NONE', #933, #485, #1011 ) ;
#702 = ORIENTED_EDGE ( 'NONE', *, *, #339, .T. ) ;
#703 = CARTESIAN_POINT ( 'NONE',  ( 17.50000000000000000, -8.000000000000000000, 10.00000000000000000 ) ) ;
#704 = VECTOR ( 'NONE', #273, 1000.000000000000000 ) ;
#705 = DIRECTION ( 'NONE',  ( 1.000000000000000000, 0.000000000000000000, -0.000000000000000000 ) ) ;
#706 = CARTESIAN_POINT ( 'NONE',  ( -33.00000000000000000, 38.00000000000000000, -3.999999999999996447 ) ) ;
#707 = EDGE_CURVE ( 'NONE', #1373, #1142, #1214, .T. ) ;
#708 = DIRECTION ( 'NONE',  ( 0.000000000000000000, 0.000000000000000000, -1.000000000000000000 ) ) ;
#709 = LINE ( 'NONE', #274, #869 ) ;
#710 = VERTEX_POINT ( 'NONE', #427 ) ;
#711 = ORIENTED_EDGE ( 'NONE', *, *, #719, .T. ) ;
#712 = CARTESIAN_POINT ( 'NONE',  ( 25.50000000000000355, 13.00000000000000000, -42.00000000000000000 ) ) ;
#713 = ORIENTED_EDGE ( 'NONE', *, *, #1022, .T. ) ;
#714 = DIRECTION ( 'NONE',  ( 0.000000000000000000, 0.000000000000000000, -1.000000000000000000 ) ) ;
#715 = VERTEX_POINT ( 'NONE', #1197 ) ;
#716 = FACE_OUTER_BOUND ( 'NONE', #1306, .T. ) ;
#717 = ORIENTED_EDGE ( 'NONE', *, *, #1028, .F. ) ;
#718 = DIRECTION ( 'NONE',  ( -1.000000000000000000, 0.000000000000000000, -0.000000000000000000 ) ) ;
#719 = EDGE_CURVE ( 'NONE', #730, #1216, #1087, .T. ) ;
#720 = EDGE_LOOP ( 'NONE', ( #936, #559, #1130, #1339 ) ) ;
#721 = DIRECTION ( 'NONE',  ( 1.000000000000000000, -0.000000000000000000, 0.000000000000000000 ) ) ;
#722 = VERTEX_POINT ( 'NONE', #1108 ) ;
#723 = PLANE ( 'NONE',  #1057 ) ;
#724 = ADVANCED_FACE ( 'NONE', ( #115 ), #993, .F. ) ;
#725 = VECTOR ( 'NONE', #481, 1000.000000000000000 ) ;
#726 = CARTESIAN_POINT ( 'NONE',  ( -33.00000000000000000, -38.00000000000000000, -42.00000000000000000 ) ) ;
#727 = CIRCLE ( 'NONE', #1247, 9.999999999999994671 ) ;
#728 = VECTOR ( 'NONE', #945, 1000.000000000000000 ) ;
#729 = DIRECTION ( 'NONE',  ( 0.000000000000000000, 1.000000000000000000, 0.000000000000000000 ) ) ;
#730 = VERTEX_POINT ( 'NONE', #141 ) ;
#731 = DIRECTION ( 'NONE',  ( 0.000000000000000000, 0.000000000000000000, 1.000000000000000000 ) ) ;
#732 = ORIENTED_EDGE ( 'NONE', *, *, #647, .F. ) ;
#733 = DIRECTION ( 'NONE',  ( -1.000000000000000000, -0.000000000000000000, -0.000000000000000000 ) ) ;
#734 = DIRECTION ( 'NONE',  ( -1.000000000000000000, -0.000000000000000000, -0.000000000000000000 ) ) ;
#735 = PERSON_AND_ORGANIZATION ( #921, #1036 ) ;
#736 = DIRECTION ( 'NONE',  ( 0.000000000000000000, 0.000000000000000000, -1.000000000000000000 ) ) ;
#737 = EDGE_LOOP ( 'NONE', ( #885, #109, #508, #204, #1025 ) ) ;
#738 = CARTESIAN_POINT ( 'NONE',  ( 70.00000000000000000, 0.000000000000000000, -42.00000000000000000 ) ) ;
#739 = EDGE_CURVE ( 'NONE', #1023, #636, #235, .T. ) ;
#740 = DIRECTION ( 'NONE',  ( 1.000000000000000000, -0.000000000000000000, 0.000000000000000000 ) ) ;
#741 = ORIENTED_EDGE ( 'NONE', *, *, #94, .T. ) ;
#742 = LINE ( 'NONE', #89, #158 ) ;
#743 = EDGE_LOOP ( 'NONE', ( #1136, #1178, #952, #828 ) ) ;
#744 = CARTESIAN_POINT ( 'NONE',  ( -17.49999999999999645, 4.898587196589412829E-16, -4.000000000000000000 ) ) ;
#745 = ORIENTED_EDGE ( 'NONE', *, *, #847, .F. ) ;
#746 = AXIS2_PLACEMENT_3D ( 'NONE', #1438, #319, #1114 ) ;
#747 = VECTOR ( 'NONE', #1180, 1000.000000000000000 ) ;
#748 = CARTESIAN_POINT ( 'NONE',  ( 135.0000000000000000, 25.50000000000000355, -42.00000000000000000 ) ) ;
#749 = COORDINATED_UNIVERSAL_TIME_OFFSET ( 5, 30, .AHEAD. ) ;
#750 = CARTESIAN_POINT ( 'NONE',  ( -60.00000000000000000, -47.50000000000000000, -50.00000000000000000 ) ) ;
#751 = VECTOR ( 'NONE', #202, 1000.000000000000000 ) ;
#752 = EDGE_CURVE ( 'NONE', #1, #887, #1143, .T. ) ;
#753 = VERTEX_POINT ( 'NONE', #1131 ) ;
#754 = LINE ( 'NONE', #1325, #1413 ) ;
#755 = ADVANCED_FACE ( 'NONE', ( #337 ), #1358, .F. ) ;
#756 = ORIENTED_EDGE ( 'NONE', *, *, #395, .T. ) ;
#757 = DIRECTION ( 'NONE',  ( 0.000000000000000000, -0.5812381937190963521, 0.8137334712067351150 ) ) ;
#758 = DIRECTION ( 'NONE',  ( 1.000000000000000000, -0.000000000000000000, 0.000000000000000000 ) ) ;
#759 = ORIENTED_EDGE ( 'NONE', *, *, #637, .T. ) ;
#760 = CARTESIAN_POINT ( 'NONE',  ( -47.00000000000000000, 38.00000000000000000, -42.00000000000000000 ) ) ;
#761 = FACE_OUTER_BOUND ( 'NONE', #801, .T. ) ;
#762 = EDGE_LOOP ( 'NONE', ( #118, #968, #1123, #860 ) ) ;
#763 = ORIENTED_EDGE ( 'NONE', *, *, #1349, .F. ) ;
#764 = PERSON_AND_ORGANIZATION ( #921, #1036 ) ;
#765 = EDGE_LOOP ( 'NONE', ( #200, #1085, #1235, #103, #29, #711, #756, #1281, #496, #717, #1091, #432, #598, #1145, #1261, #1294 ) ) ;
#766 = CARTESIAN_POINT ( 'NONE',  ( -60.00000000000000000, 47.50000000000000000, -50.00000000000000000 ) ) ;
#767 = EDGE_CURVE ( 'NONE', #650, #256, #582, .T. ) ;
#768 = ORIENTED_EDGE ( 'NONE', *, *, #1253, .F. ) ;
#769 = CIRCLE ( 'NONE', #1101, 4.000000000000000000 ) ;
#770 = AXIS2_PLACEMENT_3D ( 'NONE', #998, #878, #1227 ) ;
#771 = VECTOR ( 'NONE', #1121, 1000.000000000000114 ) ;
#772 = EDGE_CURVE ( 'NONE', #1159, #1189, #1319, .T. ) ;
#773 = VECTOR ( 'NONE', #75, 1000.000000000000000 ) ;
#774 = CARTESIAN_POINT ( 'NONE',  ( 17.50000000000000000, -8.000000000000000000, 10.00000000000000000 ) ) ;
#775 = VECTOR ( 'NONE', #900, 1000.000000000000000 ) ;
#776 = CARTESIAN_POINT ( 'NONE',  ( -25.50000000000000000, -13.00000000000000000, -42.00000000000000000 ) ) ;
#777 = ORIENTED_EDGE ( 'NONE', *, *, #503, .F. ) ;
#778 = ORIENTED_EDGE ( 'NONE', *, *, #239, .F. ) ;
#779 = EDGE_CURVE ( 'NONE', #489, #1343, #1042, .T. ) ;
#780 = ORIENTED_EDGE ( 'NONE', *, *, #156, .F. ) ;
#781 = CARTESIAN_POINT ( 'NONE',  ( 17.50000000000000000, 0.000000000000000000, 0.000000000000000000 ) ) ;
#782 = DIRECTION ( 'NONE',  ( 0.000000000000000000, 0.000000000000000000, -1.000000000000000000 ) ) ;
#783 = ORIENTED_EDGE ( 'NONE', *, *, #1431, .T. ) ;
#784 = LINE ( 'NONE', #1421, #1220 ) ;
#785 = EDGE_CURVE ( 'NONE', #1189, #1159, #795, .T. ) ;
#786 = LINE ( 'NONE', #1006, #128 ) ;
#787 = ORIENTED_EDGE ( 'NONE', *, *, #1394, .F. ) ;
#788 = DIRECTION ( 'NONE',  ( 0.000000000000000000, -0.000000000000000000, 1.000000000000000000 ) ) ;
#789 = ORIENTED_EDGE ( 'NONE', *, *, #1230, .T. ) ;
#790 = PLANE ( 'NONE',  #377 ) ;
#791 = AXIS2_PLACEMENT_3D ( 'NONE', #393, #839, #920 ) ;
#792 = PLANE ( 'NONE',  #1417 ) ;
#793 = DIRECTION ( 'NONE',  ( 0.000000000000000000, -1.000000000000000000, 0.000000000000000000 ) ) ;
#794 = AXIS2_PLACEMENT_3D ( 'NONE', #212, #758, #624 ) ;
#795 = CIRCLE ( 'NONE', #1248, 4.000000000000000000 ) ;
#796 = PERSON_AND_ORGANIZATION_ROLE ( 'creator' ) ;
#797 = VERTEX_POINT ( 'NONE', #1234 ) ;
#798 = FACE_OUTER_BOUND ( 'NONE', #404, .T. ) ;
#799 = CC_DESIGN_APPROVAL ( #171, ( #1250 ) ) ;
#800 = CARTESIAN_POINT ( 'NONE',  ( -33.00000000000000000, 38.00000000000000000, -42.00000000000000000 ) ) ;
#801 = EDGE_LOOP ( 'NONE', ( #994, #310, #542, #620, #531 ) ) ;
#802 = LINE ( 'NONE', #1375, #62 ) ;
#803 = CARTESIAN_POINT ( 'NONE',  ( 25.50000000000000355, 0.000000000000000000, 0.000000000000000000 ) ) ;
#804 = CARTESIAN_POINT ( 'NONE',  ( -33.00000000000000000, -52.00000000000000000, -42.00000000000000000 ) ) ;
#805 = CARTESIAN_POINT ( 'NONE',  ( -47.00000000000000000, -38.00000000000000000, -42.00000000000000000 ) ) ;
#806 = ORIENTED_EDGE ( 'NONE', *, *, #275, .T. ) ;
#807 = EDGE_CURVE ( 'NONE', #944, #362, #367, .T. ) ;
#808 = DIRECTION ( 'NONE',  ( 0.000000000000000000, -0.000000000000000000, 1.000000000000000000 ) ) ;
#809 = ORIENTED_EDGE ( 'NONE', *, *, #1435, .T. ) ;
#810 = DIRECTION ( 'NONE',  ( 1.000000000000000000, 0.000000000000000000, 0.000000000000000000 ) ) ;
#811 = CARTESIAN_POINT ( 'NONE',  ( -17.49999999999999645, 8.000000000000000000, 10.00000000000000000 ) ) ;
#812 = DIRECTION ( 'NONE',  ( 0.000000000000000000, 0.5812381937190964631, -0.8137334712067350040 ) ) ;
#813 = ORIENTED_EDGE ( 'NONE', *, *, #1435, .F. ) ;
#814 = DIRECTION ( 'NONE',  ( -0.000000000000000000, -0.000000000000000000, -1.000000000000000000 ) ) ;
#815 = CARTESIAN_POINT ( 'NONE',  ( 25.50000000000000355, -8.000000000000000000, 10.00000000000000000 ) ) ;
#816 = ADVANCED_FACE ( 'NONE', ( #1266 ), #36, .F. ) ;
#817 = DIRECTION ( 'NONE',  ( 0.000000000000000000, -0.5812381937190963521, 0.8137334712067351150 ) ) ;
#818 = CARTESIAN_POINT ( 'NONE',  ( -33.00000000000000000, -52.00000000000000000, -42.00000000000000000 ) ) ;
#819 = VECTOR ( 'NONE', #832, 1000.000000000000000 ) ;
#820 = VECTOR ( 'NONE', #901, 1000.000000000000000 ) ;
#821 = ORIENTED_EDGE ( 'NONE', *, *, #47, .F. ) ;
#822 = DIRECTION ( 'NONE',  ( -0.000000000000000000, -0.000000000000000000, -1.000000000000000000 ) ) ;
#823 = AXIS2_PLACEMENT_3D ( 'NONE', #242, #561, #670 ) ;
#824 = CARTESIAN_POINT ( 'NONE',  ( -60.00000000000000000, -47.50000000000000000, -42.00000000000000000 ) ) ;
#825 = VECTOR ( 'NONE', #99, 1000.000000000000000 ) ;
#826 = LINE ( 'NONE', #64, #700 ) ;
#827 = ADVANCED_FACE ( 'NONE', ( #461 ), #1137, .F. ) ;
#828 = ORIENTED_EDGE ( 'NONE', *, *, #772, .F. ) ;
#829 = FACE_BOUND ( 'NONE', #652, .T. ) ;
#830 = ORIENTED_EDGE ( 'NONE', *, *, #882, .F. ) ;
#831 = SHAPE_DEFINITION_REPRESENTATION ( #880, #1078 ) ;
#832 = DIRECTION ( 'NONE',  ( 0.000000000000000000, 0.000000000000000000, 1.000000000000000000 ) ) ;
#833 = EDGE_CURVE ( 'NONE', #24, #151, #263, .T. ) ;
#834 = ORIENTED_EDGE ( 'NONE', *, *, #739, .T. ) ;
#835 = LINE ( 'NONE', #187, #223 ) ;
#836 = DIRECTION ( 'NONE',  ( -0.000000000000000000, 0.000000000000000000, 1.000000000000000000 ) ) ;
#837 = LINE ( 'NONE', #1289, #890 ) ;
#838 = PERSON_AND_ORGANIZATION ( #921, #1036 ) ;
#839 = DIRECTION ( 'NONE',  ( 0.000000000000000000, -1.000000000000000000, 0.000000000000000000 ) ) ;
#840 = VERTEX_POINT ( 'NONE', #1351 ) ;
#841 = CARTESIAN_POINT ( 'NONE',  ( 107.0000000000000142, -47.50000000000000000, -42.00000000000000000 ) ) ;
#842 = VECTOR ( 'NONE', #676, 1000.000000000000114 ) ;
#843 = FACE_OUTER_BOUND ( 'NONE', #765, .T. ) ;
#844 = AXIS2_PLACEMENT_3D ( 'NONE', #1407, #1298, #718 ) ;
#845 = APPLICATION_CONTEXT ( 'configuration controlled 3d designs of mechanical parts and assemblies' ) ;
#846 = AXIS2_PLACEMENT_3D ( 'NONE', #1389, #1405, #605 ) ;
#847 = EDGE_CURVE ( 'NONE', #917, #730, #1153, .T. ) ;
#848 = VERTEX_POINT ( 'NONE', #161 ) ;
#849 = VECTOR ( 'NONE', #907, 1000.000000000000000 ) ;
#850 = CARTESIAN_POINT ( 'NONE',  ( -17.49999999999999645, -8.000000000000000000, 10.00000000000000000 ) ) ;
#851 = PLANE ( 'NONE',  #326 ) ;
#852 = EDGE_LOOP ( 'NONE', ( #1215, #643 ) ) ;
#853 = DIRECTION ( 'NONE',  ( 1.000000000000000000, 0.000000000000000000, 0.000000000000000000 ) ) ;
#854 = ORIENTED_EDGE ( 'NONE', *, *, #403, .T. ) ;
#855 = CARTESIAN_POINT ( 'NONE',  ( 17.50000000000000000, 13.00000000000000000, 3.000000000000000000 ) ) ;
#856 = EDGE_CURVE ( 'NONE', #710, #59, #468, .T. ) ;
#857 = APPROVAL ( #1217, 'UNSPECIFIED' ) ;
#858 = CARTESIAN_POINT ( 'NONE',  ( 17.50000000000000000, -13.00000000000000000, -42.00000000000000000 ) ) ;
#859 = DIRECTION ( 'NONE',  ( 1.000000000000000000, 0.000000000000000000, 0.000000000000000000 ) ) ;
#860 = ORIENTED_EDGE ( 'NONE', *, *, #967, .T. ) ;
#861 = CARTESIAN_POINT ( 'NONE',  ( 0.000000000000000000, 0.000000000000000000, 0.000000000000000000 ) ) ;
#862 = CARTESIAN_POINT ( 'NONE',  ( -33.00000000000000000, 38.00000000000000000, -3.999999999999996447 ) ) ;
#863 = ADVANCED_FACE ( 'NONE', ( #798 ), #23, .F. ) ;
#864 = DIRECTION ( 'NONE',  ( 0.000000000000000000, 0.000000000000000000, 1.000000000000000000 ) ) ;
#865 = PLANE ( 'NONE',  #794 ) ;
#866 = ORIENTED_EDGE ( 'NONE', *, *, #549, .F. ) ;
#867 = LINE ( 'NONE', #991, #751 ) ;
#868 = DIRECTION ( 'NONE',  ( 0.000000000000000000, 1.000000000000000000, 0.000000000000000000 ) ) ;
#869 = VECTOR ( 'NONE', #1291, 1000.000000000000000 ) ;
#870 = ORIENTED_EDGE ( 'NONE', *, *, #51, .T. ) ;
#871 = AXIS2_PLACEMENT_3D ( 'NONE', #577, #705, #49 ) ;
#872 = VECTOR ( 'NONE', #694, 1000.000000000000000 ) ;
#873 = FACE_OUTER_BOUND ( 'NONE', #972, .T. ) ;
#874 = DIRECTION ( 'NONE',  ( 1.000000000000000000, 0.000000000000000000, 0.000000000000000000 ) ) ;
#875 = ORIENTED_EDGE ( 'NONE', *, *, #339, .F. ) ;
#876 = CC_DESIGN_PERSON_AND_ORGANIZATION_ASSIGNMENT ( #735, #206, ( #1250 ) ) ;
#877 = PERSON_AND_ORGANIZATION ( #921, #1036 ) ;
#878 = DIRECTION ( 'NONE',  ( 0.000000000000000000, 1.000000000000000000, 0.000000000000000000 ) ) ;
#879 = VERTEX_POINT ( 'NONE', #1242 ) ;
#880 = PRODUCT_DEFINITION_SHAPE ( 'NONE', 'NONE',  #1112 ) ;
#881 = ORIENTED_EDGE ( 'NONE', *, *, #1193, .T. ) ;
#882 = EDGE_CURVE ( 'NONE', #489, #1096, #681, .T. ) ;
#883 = CARTESIAN_POINT ( 'NONE',  ( 25.50000000000000355, 0.000000000000000000, 0.000000000000000000 ) ) ;
#884 = ORIENTED_EDGE ( 'NONE', *, *, #1243, .T. ) ;
#885 = ORIENTED_EDGE ( 'NONE', *, *, #1167, .T. ) ;
#886 = PLANE ( 'NONE',  #220 ) ;
#887 = VERTEX_POINT ( 'NONE', #1396 ) ;
#888 = EDGE_CURVE ( 'NONE', #1343, #618, #1064, .T. ) ;
#889 = DIRECTION ( 'NONE',  ( 0.000000000000000000, 0.5812381937190964631, -0.8137334712067350040 ) ) ;
#890 = VECTOR ( 'NONE', #1186, 1000.000000000000000 ) ;
#891 = CC_DESIGN_SECURITY_CLASSIFICATION ( #1082, ( #1250 ) ) ;
#892 = CARTESIAN_POINT ( 'NONE',  ( -60.00000000000000000, 47.50000000000000000, -42.00000000000000000 ) ) ;
#893 = EDGE_LOOP ( 'NONE', ( #475, #866, #10, #208 ) ) ;
#894 = DIRECTION ( 'NONE',  ( 0.000000000000000000, 0.000000000000000000, 1.000000000000000000 ) ) ;
#895 = FACE_OUTER_BOUND ( 'NONE', #1357, .T. ) ;
#896 = CARTESIAN_POINT ( 'NONE',  ( -33.00000000000000000, 38.00000000000000000, -42.00000000000000000 ) ) ;
#897 = ADVANCED_FACE ( 'NONE', ( #716 ), #723, .F. ) ;
#898 = VERTEX_POINT ( 'NONE', #373 ) ;
#899 = ORIENTED_EDGE ( 'NONE', *, *, #44, .T. ) ;
#900 = DIRECTION ( 'NONE',  ( 0.000000000000000000, 1.000000000000000000, 0.000000000000000000 ) ) ;
#901 = DIRECTION ( 'NONE',  ( 0.000000000000000000, 1.000000000000000000, 0.000000000000000000 ) ) ;
#902 = LINE ( 'NONE', #254, #512 ) ;
#903 = CARTESIAN_POINT ( 'NONE',  ( 135.0000000000000000, 25.50000000000000355, -50.00000000000000000 ) ) ;
#904 = PERSON_AND_ORGANIZATION ( #921, #1036 ) ;
#905 = EDGE_LOOP ( 'NONE', ( #193, #646, #1329, #233 ) ) ;
#906 = CARTESIAN_POINT ( 'NONE',  ( 107.0000000000000142, -47.50000000000000000, -42.00000000000000000 ) ) ;
#907 = DIRECTION ( 'NONE',  ( 0.000000000000000000, 1.000000000000000000, 0.000000000000000000 ) ) ;
#908 = LINE ( 'NONE', #1360, #1383 ) ;
#909 = PRODUCT ( 'JX1_Foot_L', 'JX1_Foot_L', '', ( #410 ) ) ;
#910 = CARTESIAN_POINT ( 'NONE',  ( -75.00000000000000000, -32.50000000000000000, -42.00000000000000000 ) ) ;
#911 = LINE ( 'NONE', #451, #12 ) ;
#912 = AXIS2_PLACEMENT_3D ( 'NONE', #389, #288, #170 ) ;
#913 = ADVANCED_FACE ( 'NONE', ( #599 ), #937, .F. ) ;
#914 = EDGE_LOOP ( 'NONE', ( #550, #79, #499, #1404 ) ) ;
#915 = CARTESIAN_POINT ( 'NONE',  ( 0.000000000000000000, 0.000000000000000000, -42.00000000000000000 ) ) ;
#916 = EDGE_CURVE ( 'NONE', #1308, #1310, #280, .T. ) ;
#917 = VERTEX_POINT ( 'NONE', #841 ) ;
#918 = CARTESIAN_POINT ( 'NONE',  ( -17.49999999999999645, 13.00000000000000000, 3.000000000000000000 ) ) ;
#919 = DIRECTION ( 'NONE',  ( -0.000000000000000000, -0.000000000000000000, -1.000000000000000000 ) ) ;
#920 = DIRECTION ( 'NONE',  ( 0.000000000000000000, -0.000000000000000000, -1.000000000000000000 ) ) ;
#921 = PERSON ( 'UNSPECIFIED', 'UNSPECIFIED', 'UNSPECIFIED', ('UNSPECIFIED'), ('UNSPECIFIED'), ('UNSPECIFIED') ) ;
#922 = EDGE_CURVE ( 'NONE', #135, #987, #1295, .T. ) ;
#923 = ORIENTED_EDGE ( 'NONE', *, *, #312, .T. ) ;
#924 = DIRECTION ( 'NONE',  ( 0.000000000000000000, 0.000000000000000000, -1.000000000000000000 ) ) ;
#925 = CARTESIAN_POINT ( 'NONE',  ( 25.50000000000000355, -13.00000000000000000, -42.00000000000000000 ) ) ;
#926 = ORIENTED_EDGE ( 'NONE', *, *, #767, .T. ) ;
#927 = LINE ( 'NONE', #131, #935 ) ;
#928 = CARTESIAN_POINT ( 'NONE',  ( -25.50000000000000000, 13.00000000000000000, -42.00000000000000000 ) ) ;
#929 = CARTESIAN_POINT ( 'NONE',  ( -25.50000000000000000, 0.000000000000000000, 4.000000000000000000 ) ) ;
#930 = CARTESIAN_POINT ( 'NONE',  ( 17.50000000000000000, -13.00000000000000000, 3.000000000000000000 ) ) ;
#931 = EDGE_LOOP ( 'NONE', ( #1348, #522, #67, #3, #602 ) ) ;
#932 = DIRECTION ( 'NONE',  ( -1.000000000000000000, 0.000000000000000000, 0.000000000000000000 ) ) ;
#933 = CARTESIAN_POINT ( 'NONE',  ( -17.49999999999999645, 0.000000000000000000, 0.000000000000000000 ) ) ;
#934 = DIRECTION ( 'NONE',  ( -0.000000000000000000, 0.000000000000000000, 1.000000000000000000 ) ) ;
#935 = VECTOR ( 'NONE', #1026, 1000.000000000000000 ) ;
#936 = ORIENTED_EDGE ( 'NONE', *, *, #446, .T. ) ;
#937 = PLANE ( 'NONE',  #846 ) ;
#938 = VECTOR ( 'NONE', #757, 999.9999999999998863 ) ;
#939 = ORIENTED_EDGE ( 'NONE', *, *, #807, .T. ) ;
#940 = DIRECTION ( 'NONE',  ( -1.000000000000000000, 0.000000000000000000, 0.000000000000000000 ) ) ;
#941 = LOCAL_TIME ( 11, 8, 21.00000000000000000, #633 ) ;
#942 = EDGE_CURVE ( 'NONE', #797, #1023, #1004, .T. ) ;
#943 = CARTESIAN_POINT ( 'NONE',  ( -47.00000000000000000, -52.00000000000000000, -3.999999999999996447 ) ) ;
#944 = VERTEX_POINT ( 'NONE', #1183 ) ;
#945 = DIRECTION ( 'NONE',  ( -0.000000000000000000, -0.000000000000000000, -1.000000000000000000 ) ) ;
#946 = PLANE ( 'NONE',  #469 ) ;
#947 = ORIENTED_EDGE ( 'NONE', *, *, #615, .T. ) ;
#948 = PLANE ( 'NONE',  #791 ) ;
#949 = ORIENTED_EDGE ( 'NONE', *, *, #110, .T. ) ;
#950 = DIRECTION ( 'NONE',  ( -0.000000000000000000, 1.000000000000000000, 0.000000000000000000 ) ) ;
#951 = PLANE ( 'NONE',  #844 ) ;
#952 = ORIENTED_EDGE ( 'NONE', *, *, #361, .T. ) ;
#953 = DIRECTION ( 'NONE',  ( -1.000000000000000000, -0.000000000000000000, -0.000000000000000000 ) ) ;
#954 = ORIENTED_EDGE ( 'NONE', *, *, #1067, .F. ) ;
#955 = CARTESIAN_POINT ( 'NONE',  ( -75.00000000000000000, -32.50000000000000000, -42.00000000000000000 ) ) ;
#956 = EDGE_CURVE ( 'NONE', #797, #160, #835, .T. ) ;
#957 = VECTOR ( 'NONE', #458, 1000.000000000000114 ) ;
#958 = AXIS2_PLACEMENT_3D ( 'NONE', #815, #258, #38 ) ;
#959 = VERTEX_POINT ( 'NONE', #68 ) ;
#960 = FACE_OUTER_BOUND ( 'NONE', #217, .T. ) ;
#961 = EDGE_CURVE ( 'NONE', #959, #848, #497, .T. ) ;
#962 = VECTOR ( 'NONE', #237, 1000.000000000000000 ) ;
#963 = VECTOR ( 'NONE', #688, 1000.000000000000000 ) ;
#964 = AXIS2_PLACEMENT_3D ( 'NONE', #552, #447, #782 ) ;
#965 = CARTESIAN_POINT ( 'NONE',  ( -25.50000000000000000, -8.000000000000000000, 10.00000000000000000 ) ) ;
#966 = ORIENTED_EDGE ( 'NONE', *, *, #1382, .F. ) ;
#967 = EDGE_CURVE ( 'NONE', #129, #135, #388, .T. ) ;
#968 = ORIENTED_EDGE ( 'NONE', *, *, #113, .F. ) ;
#969 = DIRECTION ( 'NONE',  ( -0.7071067811865474617, 0.7071067811865474617, 0.000000000000000000 ) ) ;
#970 = COORDINATED_UNIVERSAL_TIME_OFFSET ( 5, 30, .AHEAD. ) ;
#971 = LINE ( 'NONE', #412, #631 ) ;
#972 = EDGE_LOOP ( 'NONE', ( #566, #579, #58, #1113 ) ) ;
#973 = VERTEX_POINT ( 'NONE', #457 ) ;
#974 = LINE ( 'NONE', #1429, #153 ) ;
#975 = ORIENTED_EDGE ( 'NONE', *, *, #833, .T. ) ;
#976 = DIRECTION ( 'NONE',  ( 0.000000000000000000, 0.000000000000000000, -1.000000000000000000 ) ) ;
#977 = CARTESIAN_POINT ( 'NONE',  ( 25.50000000000000355, 13.00000000000000000, -42.00000000000000000 ) ) ;
#978 = ORIENTED_EDGE ( 'NONE', *, *, #147, .F. ) ;
#979 = CARTESIAN_POINT ( 'NONE',  ( 80.00000000000000000, 1.224646799147352665E-15, -42.00000000000000000 ) ) ;
#980 = DIRECTION ( 'NONE',  ( -1.000000000000000000, 0.000000000000000000, 0.000000000000000000 ) ) ;
#981 = AXIS2_PLACEMENT_3D ( 'NONE', #243, #478, #32 ) ;
#982 = VECTOR ( 'NONE', #932, 1000.000000000000000 ) ;
#983 = EDGE_CURVE ( 'NONE', #898, #525, #27, .T. ) ;
#984 = AXIS2_PLACEMENT_3D ( 'NONE', #1359, #1122, #150 ) ;
#985 = ORIENTED_EDGE ( 'NONE', *, *, #1205, .T. ) ;
#986 = FACE_OUTER_BOUND ( 'NONE', #366, .T. ) ;
#987 = VERTEX_POINT ( 'NONE', #804 ) ;
#988 = CARTESIAN_POINT ( 'NONE',  ( 135.0000000000000000, -25.50000000000000355, -42.00000000000000000 ) ) ;
#989 = VERTEX_POINT ( 'NONE', #473 ) ;
#990 = VERTEX_POINT ( 'NONE', #1249 ) ;
#991 = CARTESIAN_POINT ( 'NONE',  ( -75.00000000000000000, 32.50000000000000000, -42.00000000000000000 ) ) ;
#992 = ORIENTED_EDGE ( 'NONE', *, *, #501, .F. ) ;
#993 = PLANE ( 'NONE',  #443 ) ;
#994 = ORIENTED_EDGE ( 'NONE', *, *, #87, .T. ) ;
#995 = CARTESIAN_POINT ( 'NONE',  ( -47.00000000000000000, -38.00000000000000000, -3.999999999999996447 ) ) ;
#996 = EDGE_CURVE ( 'NONE', #341, #436, #487, .T. ) ;
#997 = ORIENTED_EDGE ( 'NONE', *, *, #216, .T. ) ;
#998 = CARTESIAN_POINT ( 'NONE',  ( -60.00000000000000000, -47.50000000000000000, -42.00000000000000000 ) ) ;
#999 = CARTESIAN_POINT ( 'NONE',  ( -75.00000000000000000, -32.50000000000000000, -42.00000000000000000 ) ) ;
#1000 = EDGE_CURVE ( 'NONE', #1023, #797, #154, .T. ) ;
#1001 = ORIENTED_EDGE ( 'NONE', *, *, #571, .T. ) ;
#1002 = DIRECTION ( 'NONE',  ( 1.000000000000000000, 0.000000000000000000, 0.000000000000000000 ) ) ;
#1003 = CARTESIAN_POINT ( 'NONE',  ( -17.49999999999999645, 13.00000000000000000, -42.00000000000000000 ) ) ;
#1004 = CIRCLE ( 'NONE', #609, 6.999999999999999112 ) ;
#1005 = LOCAL_TIME ( 11, 8, 21.00000000000000000, #228 ) ;
#1006 = CARTESIAN_POINT ( 'NONE',  ( -47.00000000000000000, -38.00000000000000000, -3.999999999999996447 ) ) ;
#1007 = ORIENTED_EDGE ( 'NONE', *, *, #156, .T. ) ;
#1008 = DIRECTION ( 'NONE',  ( -1.000000000000000000, 0.000000000000000000, 0.000000000000000000 ) ) ;
#1009 = EDGE_CURVE ( 'NONE', #753, #1422, #246, .T. ) ;
#1010 = LINE ( 'NONE', #569, #562 ) ;
#1011 = DIRECTION ( 'NONE',  ( 0.000000000000000000, 0.000000000000000000, 1.000000000000000000 ) ) ;
#1012 = DIRECTION ( 'NONE',  ( 0.000000000000000000, 1.000000000000000000, 0.000000000000000000 ) ) ;
#1013 = DIRECTION ( 'NONE',  ( 0.000000000000000000, 0.000000000000000000, -1.000000000000000000 ) ) ;
#1014 = ORIENTED_EDGE ( 'NONE', *, *, #1271, .T. ) ;
#1015 = DIRECTION ( 'NONE',  ( 0.000000000000000000, 0.000000000000000000, -1.000000000000000000 ) ) ;
#1016 = CARTESIAN_POINT ( 'NONE',  ( -17.49999999999999645, -13.00000000000000000, 3.000000000000000000 ) ) ;
#1017 = CARTESIAN_POINT ( 'NONE',  ( -47.00000000000000000, 52.00000000000000000, -42.00000000000000000 ) ) ;
#1018 = LINE ( 'NONE', #706, #1420 ) ;
#1019 = EDGE_CURVE ( 'NONE', #1308, #341, #370, .T. ) ;
#1020 = LINE ( 'NONE', #1263, #1149 ) ;
#1021 = CARTESIAN_POINT ( 'NONE',  ( -25.50000000000000000, -13.00000000000000000, 3.000000000000000000 ) ) ;
#1022 = EDGE_CURVE ( 'NONE', #256, #151, #578, .T. ) ;
#1023 = VERTEX_POINT ( 'NONE', #480 ) ;
#1024 = DIRECTION ( 'NONE',  ( -1.000000000000000000, -0.000000000000000000, -0.000000000000000000 ) ) ;
#1025 = ORIENTED_EDGE ( 'NONE', *, *, #1369, .T. ) ;
#1026 = DIRECTION ( 'NONE',  ( -1.000000000000000000, -0.000000000000000000, -0.000000000000000000 ) ) ;
#1027 = DIRECTION ( 'NONE',  ( -0.000000000000000000, -0.000000000000000000, -1.000000000000000000 ) ) ;
#1028 = EDGE_CURVE ( 'NONE', #1422, #320, #381, .T. ) ;
#1029 = CIRCLE ( 'NONE', #630, 4.000000000000000000 ) ;
#1030 = CARTESIAN_POINT ( 'NONE',  ( 25.50000000000000355, -13.00000000000000000, 3.000000000000000000 ) ) ;
#1031 = ORIENTED_EDGE ( 'NONE', *, *, #413, .T. ) ;
#1032 = CIRCLE ( 'NONE', #746, 9.999999999999994671 ) ;
#1033 = VECTOR ( 'NONE', #133, 1000.000000000000000 ) ;
#1034 = VERTEX_POINT ( 'NONE', #929 ) ;
#1035 = CARTESIAN_POINT ( 'NONE',  ( 38.00000000000000000, 0.000000000000000000, -42.00000000000000000 ) ) ;
#1036 = ORGANIZATION ( 'UNSPECIFIED', 'UNSPECIFIED', '' ) ;
#1037 = CARTESIAN_POINT ( 'NONE',  ( 25.50000000000000355, 8.000000000000000000, 10.00000000000000000 ) ) ;
#1038 = FACE_OUTER_BOUND ( 'NONE', #1397, .T. ) ;
#1039 = CARTESIAN_POINT ( 'NONE',  ( -47.00000000000000000, 38.00000000000000000, -3.999999999999996447 ) ) ;
#1040 = LINE ( 'NONE', #50, #725 ) ;
#1041 = ORIENTED_EDGE ( 'NONE', *, *, #942, .F. ) ;
#1042 = LINE ( 'NONE', #1374, #65 ) ;
#1043 = DIRECTION ( 'NONE',  ( -1.000000000000000000, 0.000000000000000000, 0.000000000000000000 ) ) ;
#1044 = ADVANCED_FACE ( 'NONE', ( #33 ), #138, .F. ) ;
#1045 = DIRECTION ( 'NONE',  ( -0.000000000000000000, -0.000000000000000000, -1.000000000000000000 ) ) ;
#1046 = DIRECTION ( 'NONE',  ( 1.000000000000000000, 0.000000000000000000, 0.000000000000000000 ) ) ;
#1047 = ORIENTED_EDGE ( 'NONE', *, *, #888, .F. ) ;
#1048 = CARTESIAN_POINT ( 'NONE',  ( 107.0000000000000142, 47.50000000000000000, -42.00000000000000000 ) ) ;
#1049 = EDGE_CURVE ( 'NONE', #546, #182, #1020, .T. ) ;
#1050 = DIRECTION ( 'NONE',  ( -1.000000000000000000, 0.000000000000000000, 0.000000000000000000 ) ) ;
#1051 = VERTEX_POINT ( 'NONE', #1377 ) ;
#1052 = LINE ( 'NONE', #77, #327 ) ;
#1053 = LINE ( 'NONE', #173, #819 ) ;
#1054 = VECTOR ( 'NONE', #1287, 1000.000000000000000 ) ;
#1055 = ORIENTED_EDGE ( 'NONE', *, *, #295, .F. ) ;
#1056 = CARTESIAN_POINT ( 'NONE',  ( 45.00000000000000000, 0.000000000000000000, -42.00000000000000000 ) ) ;
#1057 = AXIS2_PLACEMENT_3D ( 'NONE', #168, #950, #1285 ) ;
#1058 = ORIENTED_EDGE ( 'NONE', *, *, #752, .F. ) ;
#1059 = CARTESIAN_POINT ( 'NONE',  ( 135.0000000000000000, -25.50000000000000355, -50.00000000000000000 ) ) ;
#1060 = AXIS2_PLACEMENT_3D ( 'NONE', #1213, #1307, #853 ) ;
#1061 = DIRECTION ( 'NONE',  ( 0.000000000000000000, 1.000000000000000000, 0.000000000000000000 ) ) ;
#1062 = DIRECTION ( 'NONE',  ( -0.000000000000000000, -0.000000000000000000, -1.000000000000000000 ) ) ;
#1063 = EDGE_LOOP ( 'NONE', ( #1070, #763, #567, #1111 ) ) ;
#1064 = LINE ( 'NONE', #1380, #773 ) ;
#1065 = VERTEX_POINT ( 'NONE', #572 ) ;
#1066 = FACE_BOUND ( 'NONE', #1173, .T. ) ;
#1067 = EDGE_CURVE ( 'NONE', #730, #989, #675, .T. ) ;
#1068 = CARTESIAN_POINT ( 'NONE',  ( 107.0000000000000142, -47.50000000000000000, -42.00000000000000000 ) ) ;
#1069 = EDGE_CURVE ( 'NONE', #753, #546, #902, .T. ) ;
#1070 = ORIENTED_EDGE ( 'NONE', *, *, #501, .T. ) ;
#1071 = DIRECTION ( 'NONE',  ( 1.000000000000000000, 0.000000000000000000, 0.000000000000000000 ) ) ;
#1072 = CYLINDRICAL_SURFACE ( 'NONE', #912, 9.999999999999994671 ) ;
#1073 = APPROVAL_ROLE ( '' ) ;
#1074 = LINE ( 'NONE', #1346, #511 ) ;
#1075 = EDGE_CURVE ( 'NONE', #672, #973, #145, .T. ) ;
#1076 = ORIENTED_EDGE ( 'NONE', *, *, #1028, .T. ) ;
#1077 = AXIS2_PLACEMENT_3D ( 'NONE', #176, #1160, #1050 ) ;
#1078 = ADVANCED_BREP_SHAPE_REPRESENTATION ( 'JX1_Foot_L', ( #560, #330 ), #1176 ) ;
#1079 = LINE ( 'NONE', #1206, #19 ) ;
#1080 = LINE ( 'NONE', #90, #608 ) ;
#1081 = AXIS2_PLACEMENT_3D ( 'NONE', #1341, #333, #231 ) ;
#1082 = SECURITY_CLASSIFICATION ( '', '', #1290 ) ;
#1083 = LINE ( 'NONE', #1409, #85 ) ;
#1084 = CARTESIAN_POINT ( 'NONE',  ( 45.00000000000000000, 0.000000000000000000, -50.00000000000000000 ) ) ;
#1085 = ORIENTED_EDGE ( 'NONE', *, *, #571, .F. ) ;
#1086 = DIRECTION ( 'NONE',  ( -0.6178215519319035787, 0.7863183388224226356, 0.000000000000000000 ) ) ;
#1087 = LINE ( 'NONE', #988, #1414 ) ;
#1088 = ORIENTED_EDGE ( 'NONE', *, *, #549, .T. ) ;
#1089 = DIRECTION ( 'NONE',  ( 0.7863183388224226356, -0.6178215519319035787, 0.000000000000000000 ) ) ;
#1090 = DIRECTION ( 'NONE',  ( -1.000000000000000000, -0.000000000000000000, -0.000000000000000000 ) ) ;
#1091 = ORIENTED_EDGE ( 'NONE', *, *, #1139, .F. ) ;
#1092 = DIRECTION ( 'NONE',  ( -1.000000000000000000, -0.000000000000000000, -0.000000000000000000 ) ) ;
#1093 = ORIENTED_EDGE ( 'NONE', *, *, #71, .T. ) ;
#1094 = DIRECTION ( 'NONE',  ( -1.000000000000000000, -0.000000000000000000, -0.000000000000000000 ) ) ;
#1095 = EDGE_CURVE ( 'NONE', #1415, #990, #1155, .T. ) ;
#1096 = VERTEX_POINT ( 'NONE', #565 ) ;
#1097 = CARTESIAN_POINT ( 'NONE',  ( -33.00000000000000000, -38.00000000000000000, -3.999999999999996447 ) ) ;
#1098 = EDGE_LOOP ( 'NONE', ( #1284, #806, #640, #1395 ) ) ;
#1099 =( NAMED_UNIT ( * ) SI_UNIT ( $, .STERADIAN. ) SOLID_ANGLE_UNIT ( ) );
#1100 = FACE_OUTER_BOUND ( 'NONE', #743, .T. ) ;
#1101 = AXIS2_PLACEMENT_3D ( 'NONE', #1251, #247, #685 ) ;
#1102 = VERTEX_POINT ( 'NONE', #1355 ) ;
#1103 = AXIS2_PLACEMENT_3D ( 'NONE', #421, #527, #1433 ) ;
#1104 = ADVANCED_FACE ( 'NONE', ( #347 ), #792, .F. ) ;
#1105 = AXIS2_PLACEMENT_3D ( 'NONE', #211, #1432, #648 ) ;
#1106 = EDGE_LOOP ( 'NONE', ( #98, #218, #11, #509 ) ) ;
#1107 = DIRECTION ( 'NONE',  ( -0.000000000000000000, -0.000000000000000000, -1.000000000000000000 ) ) ;
#1108 = CARTESIAN_POINT ( 'NONE',  ( -17.49999999999999645, -13.00000000000000000, 3.000000000000000000 ) ) ;
#1109 = ORIENTED_EDGE ( 'NONE', *, *, #197, .F. ) ;
#1110 = EDGE_CURVE ( 'NONE', #529, #840, #1052, .T. ) ;
#1111 = ORIENTED_EDGE ( 'NONE', *, *, #1067, .T. ) ;
#1112 = PRODUCT_DEFINITION ( 'UNKNOWN', '', #1250, #346 ) ;
#1113 = ORIENTED_EDGE ( 'NONE', *, *, #1349, .T. ) ;
#1114 = DIRECTION ( 'NONE',  ( 1.000000000000000000, 0.000000000000000000, 0.000000000000000000 ) ) ;
#1115 = LINE ( 'NONE', #1016, #66 ) ;
#1116 = ORIENTED_EDGE ( 'NONE', *, *, #250, .T. ) ;
#1117 = CARTESIAN_POINT ( 'NONE',  ( -60.00000000000000000, 47.50000000000000000, -42.00000000000000000 ) ) ;
#1118 = LINE ( 'NONE', #125, #957 ) ;
#1119 = EDGE_CURVE ( 'NONE', #5, #1135, #72, .T. ) ;
#1120 = ORIENTED_EDGE ( 'NONE', *, *, #996, .F. ) ;
#1121 = DIRECTION ( 'NONE',  ( 0.7863183388224226356, 0.6178215519319035787, 0.000000000000000000 ) ) ;
#1122 = DIRECTION ( 'NONE',  ( 0.000000000000000000, -1.000000000000000000, 0.000000000000000000 ) ) ;
#1123 = ORIENTED_EDGE ( 'NONE', *, *, #144, .F. ) ;
#1124 = FACE_OUTER_BOUND ( 'NONE', #1254, .T. ) ;
#1125 = VECTOR ( 'NONE', #1188, 1000.000000000000114 ) ;
#1126 = CIRCLE ( 'NONE', #42, 4.000000000000000000 ) ;
#1127 = CARTESIAN_POINT ( 'NONE',  ( -60.00000000000000000, -47.50000000000000000, -42.00000000000000000 ) ) ;
#1128 = AXIS2_PLACEMENT_3D ( 'NONE', #364, #142, #808 ) ;
#1129 = EDGE_LOOP ( 'NONE', ( #966, #1212, #424, #1047, #540, #992, #613, #43 ) ) ;
#1130 = ORIENTED_EDGE ( 'NONE', *, *, #1119, .F. ) ;
#1131 = CARTESIAN_POINT ( 'NONE',  ( -47.00000000000000000, 38.00000000000000000, -3.999999999999996447 ) ) ;
#1132 = CARTESIAN_POINT ( 'NONE',  ( -33.00000000000000000, 38.00000000000000000, -3.999999999999996447 ) ) ;
#1133 = CC_DESIGN_PERSON_AND_ORGANIZATION_ASSIGNMENT ( #611, #392, ( #1082 ) ) ;
#1134 = DIRECTION ( 'NONE',  ( 1.000000000000000000, 0.000000000000000000, 0.000000000000000000 ) ) ;
#1135 = VERTEX_POINT ( 'NONE', #850 ) ;
#1136 = ORIENTED_EDGE ( 'NONE', *, *, #312, .F. ) ;
#1137 = CYLINDRICAL_SURFACE ( 'NONE', #40, 4.000000000000000000 ) ;
#1138 = LINE ( 'NONE', #55, #15 ) ;
#1139 = EDGE_CURVE ( 'NONE', #1, #1422, #1277, .T. ) ;
#1140 = DIRECTION ( 'NONE',  ( -1.000000000000000000, 0.000000000000000000, -0.000000000000000000 ) ) ;
#1141 = LINE ( 'NONE', #818, #264 ) ;
#1142 = VERTEX_POINT ( 'NONE', #1392 ) ;
#1143 = LINE ( 'NONE', #1367, #982 ) ;
#1144 = PLANE ( 'NONE',  #984 ) ;
#1145 = ORIENTED_EDGE ( 'NONE', *, *, #197, .T. ) ;
#1146 = PLANE ( 'NONE',  #958 ) ;
#1147 = VECTOR ( 'NONE', #521, 1000.000000000000000 ) ;
#1148 = CARTESIAN_POINT ( 'NONE',  ( -47.00000000000000000, 52.00000000000000000, -3.999999999999996447 ) ) ;
#1149 = VECTOR ( 'NONE', #1012, 1000.000000000000000 ) ;
#1150 = LOCAL_TIME ( 11, 8, 21.00000000000000000, #970 ) ;
#1151 = EDGE_CURVE ( 'NONE', #5, #973, #1083, .T. ) ;
#1152 = EDGE_LOOP ( 'NONE', ( #975, #1418, #318, #759 ) ) ;
#1153 = LINE ( 'NONE', #906, #771 ) ;
#1154 = FACE_OUTER_BOUND ( 'NONE', #931, .T. ) ;
#1155 = LINE ( 'NONE', #595, #1033 ) ;
#1156 = CARTESIAN_POINT ( 'NONE',  ( -47.00000000000000000, -52.00000000000000000, -3.999999999999996447 ) ) ;
#1157 = EDGE_CURVE ( 'NONE', #1135, #879, #407, .T. ) ;
#1158 = ORIENTED_EDGE ( 'NONE', *, *, #1286, .F. ) ;
#1159 = VERTEX_POINT ( 'NONE', #1426 ) ;
#1160 = DIRECTION ( 'NONE',  ( -0.000000000000000000, -0.000000000000000000, -1.000000000000000000 ) ) ;
#1161 = VERTEX_POINT ( 'NONE', #391 ) ;
#1162 = APPROVAL_STATUS ( 'not_yet_approved' ) ;
#1163 = PLANE ( 'NONE',  #1436 ) ;
#1164 = ORIENTED_EDGE ( 'NONE', *, *, #956, .T. ) ;
#1165 = EDGE_LOOP ( 'NONE', ( #1335, #813, #416, #452 ) ) ;
#1166 = LINE ( 'NONE', #510, #422 ) ;
#1167 = EDGE_CURVE ( 'NONE', #70, #436, #837, .T. ) ;
#1168 = CARTESIAN_POINT ( 'NONE',  ( 135.0000000000000000, -25.50000000000000355, -42.00000000000000000 ) ) ;
#1169 = APPROVAL_ROLE ( '' ) ;
#1170 = DIRECTION ( 'NONE',  ( 0.000000000000000000, 0.000000000000000000, -1.000000000000000000 ) ) ;
#1171 = VECTOR ( 'NONE', #603, 1000.000000000000000 ) ;
#1172 = VECTOR ( 'NONE', #498, 1000.000000000000000 ) ;
#1173 = EDGE_LOOP ( 'NONE', ( #1440, #1041 ) ) ;
#1174 = VECTOR ( 'NONE', #1238, 1000.000000000000114 ) ;
#1175 = FACE_OUTER_BOUND ( 'NONE', #292, .T. ) ;
#1176 =( GEOMETRIC_REPRESENTATION_CONTEXT ( 3 ) GLOBAL_UNCERTAINTY_ASSIGNED_CONTEXT ( ( #1347 ) ) GLOBAL_UNIT_ASSIGNED_CONTEXT ( ( #516, #651, #1099 ) ) REPRESENTATION_CONTEXT ( 'NONE', 'WORKASPACE' ) );
#1177 = EDGE_CURVE ( 'NONE', #54, #898, #622, .T. ) ;
#1178 = ORIENTED_EDGE ( 'NONE', *, *, #162, .T. ) ;
#1179 = ADVANCED_FACE ( 'NONE', ( #1321 ), #435, .F. ) ;
#1180 = DIRECTION ( 'NONE',  ( 0.000000000000000000, -1.000000000000000000, 0.000000000000000000 ) ) ;
#1181 = FACE_OUTER_BOUND ( 'NONE', #1399, .T. ) ;
#1182 = ORIENTED_EDGE ( 'NONE', *, *, #696, .T. ) ;
#1183 = CARTESIAN_POINT ( 'NONE',  ( -33.00000000000000000, 52.00000000000000000, -42.00000000000000000 ) ) ;
#1184 = FACE_OUTER_BOUND ( 'NONE', #905, .T. ) ;
#1185 = ADVANCED_FACE ( 'NONE', ( #547 ), #440, .F. ) ;
#1186 = DIRECTION ( 'NONE',  ( 0.000000000000000000, -1.000000000000000000, 0.000000000000000000 ) ) ;
#1187 = PERSON_AND_ORGANIZATION ( #921, #1036 ) ;
#1188 = DIRECTION ( 'NONE',  ( -0.7071067811865474617, -0.7071067811865474617, 0.000000000000000000 ) ) ;
#1189 = VERTEX_POINT ( 'NONE', #1229 ) ;
#1190 = DIRECTION ( 'NONE',  ( 0.000000000000000000, 0.000000000000000000, 1.000000000000000000 ) ) ;
#1191 = LINE ( 'NONE', #977, #104 ) ;
#1192 = ORIENTED_EDGE ( 'NONE', *, *, #491, .F. ) ;
#1193 = EDGE_CURVE ( 'NONE', #840, #234, #124, .T. ) ;
#1194 = VECTOR ( 'NONE', #1381, 1000.000000000000114 ) ;
#1195 = LINE ( 'NONE', #538, #825 ) ;
#1196 = ORIENTED_EDGE ( 'NONE', *, *, #956, .F. ) ;
#1197 = CARTESIAN_POINT ( 'NONE',  ( -33.00000000000000000, -38.00000000000000000, -42.00000000000000000 ) ) ;
#1198 = VECTOR ( 'NONE', #1371, 1000.000000000000000 ) ;
#1199 = VECTOR ( 'NONE', #472, 1000.000000000000000 ) ;
#1200 = ORIENTED_EDGE ( 'NONE', *, *, #47, .T. ) ;
#1201 = PLANE ( 'NONE',  #309 ) ;
#1202 = APPROVAL_DATE_TIME ( #1282, #171 ) ;
#1203 = PLANE ( 'NONE',  #397 ) ;
#1204 = ORIENTED_EDGE ( 'NONE', *, *, #1075, .F. ) ;
#1205 = EDGE_CURVE ( 'NONE', #1051, #226, #1311, .T. ) ;
#1206 = CARTESIAN_POINT ( 'NONE',  ( -17.49999999999999645, 13.00000000000000000, 3.000000000000000000 ) ) ;
#1207 = ORIENTED_EDGE ( 'NONE', *, *, #232, .T. ) ;
#1208 = CARTESIAN_POINT ( 'NONE',  ( -33.00000000000000000, -52.00000000000000000, -3.999999999999996447 ) ) ;
#1209 = EDGE_LOOP ( 'NONE', ( #106, #1279, #1342, #732, #1031 ) ) ;
#1210 = CARTESIAN_POINT ( 'NONE',  ( -17.49999999999999645, 0.000000000000000000, 0.000000000000000000 ) ) ;
#1211 = CARTESIAN_POINT ( 'NONE',  ( -25.50000000000000000, 13.00000000000000000, -42.00000000000000000 ) ) ;
#1212 = ORIENTED_EDGE ( 'NONE', *, *, #56, .F. ) ;
#1213 = CARTESIAN_POINT ( 'NONE',  ( 0.000000000000000000, 0.000000000000000000, -42.00000000000000000 ) ) ;
#1214 = LINE ( 'NONE', #744, #1223 ) ;
#1215 = ORIENTED_EDGE ( 'NONE', *, *, #541, .F. ) ;
#1216 = VERTEX_POINT ( 'NONE', #748 ) ;
#1217 = APPROVAL_STATUS ( 'not_yet_approved' ) ;
#1218 = EDGE_LOOP ( 'NONE', ( #789, #402 ) ) ;
#1219 = DIRECTION ( 'NONE',  ( 0.000000000000000000, -0.5812381937190963521, -0.8137334712067351150 ) ) ;
#1220 = VECTOR ( 'NONE', #1002, 1000.000000000000000 ) ;
#1221 = VECTOR ( 'NONE', #100, 1000.000000000000000 ) ;
#1222 = ADVANCED_FACE ( 'NONE', ( #873 ), #1201, .F. ) ;
#1223 = VECTOR ( 'NONE', #660, 1000.000000000000000 ) ;
#1224 = VECTOR ( 'NONE', #627, 1000.000000000000114 ) ;
#1225 = EDGE_CURVE ( 'NONE', #1373, #262, #1126, .T. ) ;
#1226 = DIRECTION ( 'NONE',  ( 0.000000000000000000, 0.5812381937190964631, 0.8137334712067350040 ) ) ;
#1227 = DIRECTION ( 'NONE',  ( 0.000000000000000000, -0.000000000000000000, 1.000000000000000000 ) ) ;
#1228 = ORIENTED_EDGE ( 'NONE', *, *, #1075, .T. ) ;
#1229 = CARTESIAN_POINT ( 'NONE',  ( 17.50000000000000000, 0.000000000000000000, 4.000000000000000000 ) ) ;
#1230 = EDGE_CURVE ( 'NONE', #636, #160, #682, .T. ) ;
#1231 = EDGE_LOOP ( 'NONE', ( #821, #654 ) ) ;
#1232 = CALENDAR_DATE ( 2026, 24, 9 ) ;
#1233 = ORIENTED_EDGE ( 'NONE', *, *, #1369, .F. ) ;
#1234 = CARTESIAN_POINT ( 'NONE',  ( 52.00000000000000000, 8.572527594031472204E-16, -42.00000000000000000 ) ) ;
#1235 = ORIENTED_EDGE ( 'NONE', *, *, #484, .F. ) ;
#1236 = FACE_OUTER_BOUND ( 'NONE', #314, .T. ) ;
#1237 = DIRECTION ( 'NONE',  ( 0.000000000000000000, 0.000000000000000000, -1.000000000000000000 ) ) ;
#1238 = DIRECTION ( 'NONE',  ( 0.7071067811865474617, -0.7071067811865474617, 0.000000000000000000 ) ) ;
#1239 = CARTESIAN_POINT ( 'NONE',  ( -46.99999999999995737, 47.50000000000000000, -42.00000000000000000 ) ) ;
#1240 = COORDINATED_UNIVERSAL_TIME_OFFSET ( 5, 30, .AHEAD. ) ;
#1241 = ORIENTED_EDGE ( 'NONE', *, *, #541, .T. ) ;
#1242 = CARTESIAN_POINT ( 'NONE',  ( -25.50000000000000000, -8.000000000000000000, 10.00000000000000000 ) ) ;
#1243 = EDGE_CURVE ( 'NONE', #710, #715, #429, .T. ) ;
#1244 = CARTESIAN_POINT ( 'NONE',  ( 25.50000000000000355, 8.000000000000000000, 10.00000000000000000 ) ) ;
#1245 = CARTESIAN_POINT ( 'NONE',  ( 135.0000000000000000, 25.50000000000000355, -42.00000000000000000 ) ) ;
#1246 = CIRCLE ( 'NONE', #606, 4.000000000000000000 ) ;
#1247 = AXIS2_PLACEMENT_3D ( 'NONE', #738, #1190, #281 ) ;
#1248 = AXIS2_PLACEMENT_3D ( 'NONE', #781, #249, #1015 ) ;
#1249 = CARTESIAN_POINT ( 'NONE',  ( 80.00000000000000000, 1.224646799147352665E-15, -50.00000000000000000 ) ) ;
#1250 = PRODUCT_DEFINITION_FORMATION_WITH_SPECIFIED_SOURCE ( 'ANY', '', #909, .NOT_KNOWN. ) ;
#1251 = CARTESIAN_POINT ( 'NONE',  ( -17.49999999999999645, 0.000000000000000000, 0.000000000000000000 ) ) ;
#1252 = DATE_TIME_ROLE ( 'creation_date' ) ;
#1253 = EDGE_CURVE ( 'NONE', #546, #320, #1018, .T. ) ;
#1254 = EDGE_LOOP ( 'NONE', ( #383, #1434, #881, #702, #664, #604 ) ) ;
#1255 = DIRECTION ( 'NONE',  ( -0.000000000000000000, 1.000000000000000000, 0.000000000000000000 ) ) ;
#1256 = LINE ( 'NONE', #683, #963 ) ;
#1257 = DIRECTION ( 'NONE',  ( 0.000000000000000000, 1.000000000000000000, 0.000000000000000000 ) ) ;
#1258 = DIRECTION ( 'NONE',  ( 1.000000000000000000, -0.000000000000000000, 0.000000000000000000 ) ) ;
#1259 = CARTESIAN_POINT ( 'NONE',  ( 17.50000000000000000, 13.00000000000000000, -42.00000000000000000 ) ) ;
#1260 = CARTESIAN_POINT ( 'NONE',  ( -17.49999999999999645, -13.00000000000000000, 3.000000000000000000 ) ) ;
#1261 = ORIENTED_EDGE ( 'NONE', *, *, #1019, .T. ) ;
#1262 = DIRECTION ( 'NONE',  ( -0.000000000000000000, -0.000000000000000000, -1.000000000000000000 ) ) ;
#1263 = CARTESIAN_POINT ( 'NONE',  ( -33.00000000000000000, 38.00000000000000000, -3.999999999999996447 ) ) ;
#1264 = FACE_OUTER_BOUND ( 'NONE', #1209, .T. ) ;
#1265 = ORIENTED_EDGE ( 'NONE', *, *, #772, .T. ) ;
#1266 = FACE_OUTER_BOUND ( 'NONE', #762, .T. ) ;
#1267 = DIRECTION ( 'NONE',  ( 0.000000000000000000, -1.000000000000000000, 0.000000000000000000 ) ) ;
#1268 = ADVANCED_FACE ( 'NONE', ( #358, #674 ), #450, .T. ) ;
#1269 = VECTOR ( 'NONE', #514, 1000.000000000000000 ) ;
#1270 = DIRECTION ( 'NONE',  ( 1.000000000000000000, 0.000000000000000000, 0.000000000000000000 ) ) ;
#1271 = EDGE_CURVE ( 'NONE', #271, #672, #690, .T. ) ;
#1272 = VECTOR ( 'NONE', #864, 1000.000000000000000 ) ;
#1273 = ORIENTED_EDGE ( 'NONE', *, *, #707, .F. ) ;
#1274 = CARTESIAN_POINT ( 'NONE',  ( 60.00000000000001421, 0.000000000000000000, -42.00000000000000000 ) ) ;
#1275 = LINE ( 'NONE', #570, #1293 ) ;
#1276 = ADVANCED_FACE ( 'NONE', ( #1376 ), #1370, .F. ) ;
#1277 = LINE ( 'NONE', #500, #747 ) ;
#1278 = DIRECTION ( 'NONE',  ( 0.000000000000000000, 0.000000000000000000, -1.000000000000000000 ) ) ;
#1279 = ORIENTED_EDGE ( 'NONE', *, *, #1139, .T. ) ;
#1280 = FACE_BOUND ( 'NONE', #852, .T. ) ;
#1281 = ORIENTED_EDGE ( 'NONE', *, *, #882, .T. ) ;
#1282 = DATE_AND_TIME ( #1313, #610 ) ;
#1283 = CARTESIAN_POINT ( 'NONE',  ( -25.50000000000000000, 0.000000000000000000, 0.000000000000000000 ) ) ;
#1284 = ORIENTED_EDGE ( 'NONE', *, *, #227, .F. ) ;
#1285 = DIRECTION ( 'NONE',  ( 0.000000000000000000, -0.000000000000000000, 1.000000000000000000 ) ) ;
#1286 = EDGE_CURVE ( 'NONE', #182, #1065, #1010, .T. ) ;
#1287 = DIRECTION ( 'NONE',  ( 0.000000000000000000, 1.000000000000000000, 0.000000000000000000 ) ) ;
#1288 = EDGE_CURVE ( 'NONE', #722, #529, #1115, .T. ) ;
#1289 = CARTESIAN_POINT ( 'NONE',  ( -47.00000000000000000, -38.00000000000000000, -42.00000000000000000 ) ) ;
#1290 = SECURITY_CLASSIFICATION_LEVEL ( 'unclassified' ) ;
#1291 = DIRECTION ( 'NONE',  ( -1.000000000000000000, -0.000000000000000000, -0.000000000000000000 ) ) ;
#1292 = CLOSED_SHELL ( 'NONE', ( #755, #827, #564, #369, #589, #253, #555, #655, #1403, #1104, #1222, #185, #1185, #601, #486, #543, #1268, #289, #897, #1297, #189, #1337, #464, #656, #282, #175, #863, #913, #1179, #1044, #26, #479, #724, #192, #1276, #349, #671, #507, #1354, #379, #816, #679, #317, #102 ) ) ;
#1293 = VECTOR ( 'NONE', #152, 1000.000000000000000 ) ;
#1294 = ORIENTED_EDGE ( 'NONE', *, *, #996, .T. ) ;
#1295 = LINE ( 'NONE', #287, #586 ) ;
#1296 = AXIS2_PLACEMENT_3D ( 'NONE', #351, #687, #149 ) ;
#1297 = ADVANCED_FACE ( 'NONE', ( #31 ), #1144, .F. ) ;
#1298 = DIRECTION ( 'NONE',  ( 0.000000000000000000, 0.000000000000000000, -1.000000000000000000 ) ) ;
#1299 = ORIENTED_EDGE ( 'NONE', *, *, #1069, .T. ) ;
#1300 = EDGE_CURVE ( 'NONE', #320, #1096, #462, .T. ) ;
#1301 = DIRECTION ( 'NONE',  ( 0.000000000000000000, 0.000000000000000000, 1.000000000000000000 ) ) ;
#1302 = ORIENTED_EDGE ( 'NONE', *, *, #352, .F. ) ;
#1303 = PLANE ( 'NONE',  #494 ) ;
#1304 = CARTESIAN_POINT ( 'NONE',  ( 25.50000000000000355, -13.00000000000000000, 3.000000000000000000 ) ) ;
#1305 = CARTESIAN_POINT ( 'NONE',  ( 25.50000000000000355, -13.00000000000000000, 3.000000000000000000 ) ) ;
#1306 = EDGE_LOOP ( 'NONE', ( #949, #355, #1428, #713 ) ) ;
#1307 = DIRECTION ( 'NONE',  ( -0.000000000000000000, 0.000000000000000000, 1.000000000000000000 ) ) ;
#1308 = VERTEX_POINT ( 'NONE', #999 ) ;
#1309 = CYLINDRICAL_SURFACE ( 'NONE', #1077, 6.999999999999999112 ) ;
#1310 = VERTEX_POINT ( 'NONE', #584 ) ;
#1311 = LINE ( 'NONE', #304, #938 ) ;
#1312 = EDGE_CURVE ( 'NONE', #226, #650, #121, .T. ) ;
#1313 = CALENDAR_DATE ( 2026, 24, 9 ) ;
#1314 = LINE ( 'NONE', #307, #1269 ) ;
#1315 = ORIENTED_EDGE ( 'NONE', *, *, #1312, .F. ) ;
#1316 = CIRCLE ( 'NONE', #981, 9.999999999999994671 ) ;
#1317 = DIRECTION ( 'NONE',  ( 1.000000000000000000, 0.000000000000000000, 0.000000000000000000 ) ) ;
#1318 = CARTESIAN_POINT ( 'NONE',  ( 38.00000000000000000, 0.000000000000000000, -50.00000000000000000 ) ) ;
#1319 = CIRCLE ( 'NONE', #285, 4.000000000000000000 ) ;
#1320 = ORIENTED_EDGE ( 'NONE', *, *, #626, .F. ) ;
#1321 = FACE_OUTER_BOUND ( 'NONE', #344, .T. ) ;
#1322 = CARTESIAN_POINT ( 'NONE',  ( -17.49999999999999645, 13.00000000000000000, 3.000000000000000000 ) ) ;
#1323 = ORIENTED_EDGE ( 'NONE', *, *, #1425, .T. ) ;
#1324 = PERSON_AND_ORGANIZATION_ROLE ( 'design_owner' ) ;
#1325 = CARTESIAN_POINT ( 'NONE',  ( -47.00000000000000000, 52.00000000000000000, -3.999999999999996447 ) ) ;
#1326 = ORIENTED_EDGE ( 'NONE', *, *, #707, .T. ) ;
#1327 = CARTESIAN_POINT ( 'NONE',  ( 25.50000000000000355, -13.00000000000000000, -42.00000000000000000 ) ) ;
#1328 = EDGE_CURVE ( 'NONE', #1406, #387, #477, .T. ) ;
#1329 = ORIENTED_EDGE ( 'NONE', *, *, #961, .T. ) ;
#1330 = LINE ( 'NONE', #639, #471 ) ;
#1331 = EDGE_CURVE ( 'NONE', #290, #668, #268, .T. ) ;
#1332 = ORIENTED_EDGE ( 'NONE', *, *, #961, .F. ) ;
#1333 = ORIENTED_EDGE ( 'NONE', *, *, #942, .T. ) ;
#1334 = APPROVAL_DATE_TIME ( #240, #857 ) ;
#1335 = ORIENTED_EDGE ( 'NONE', *, *, #2, .T. ) ;
#1336 = CARTESIAN_POINT ( 'NONE',  ( -17.49999999999999645, 0.000000000000000000, 4.000000000000000000 ) ) ;
#1337 = ADVANCED_FACE ( 'NONE', ( #895 ), #1352, .F. ) ;
#1338 = VECTOR ( 'NONE', #252, 1000.000000000000000 ) ;
#1339 = ORIENTED_EDGE ( 'NONE', *, *, #1151, .T. ) ;
#1340 = AXIS2_PLACEMENT_3D ( 'NONE', #229, #653, #445 ) ;
#1341 = CARTESIAN_POINT ( 'NONE',  ( -60.00000000000000000, 47.50000000000000000, -42.00000000000000000 ) ) ;
#1342 = ORIENTED_EDGE ( 'NONE', *, *, #1009, .F. ) ;
#1343 = VERTEX_POINT ( 'NONE', #1345 ) ;
#1344 = DIRECTION ( 'NONE',  ( -1.000000000000000000, -0.000000000000000000, -0.000000000000000000 ) ) ;
#1345 = CARTESIAN_POINT ( 'NONE',  ( 107.0000000000000142, 47.50000000000000000, -50.00000000000000000 ) ) ;
#1346 = CARTESIAN_POINT ( 'NONE',  ( -33.00000000000000000, -52.00000000000000000, -3.999999999999996447 ) ) ;
#1347 = UNCERTAINTY_MEASURE_WITH_UNIT (LENGTH_MEASURE( 1.000000000000000082E-05 ), #516, 'distance_accuracy_value', 'NONE');
#1348 = ORIENTED_EDGE ( 'NONE', *, *, #1300, .T. ) ;
#1349 = EDGE_CURVE ( 'NONE', #1216, #174, #1256, .T. ) ;
#1350 = ORIENTED_EDGE ( 'NONE', *, *, #1009, .T. ) ;
#1351 = CARTESIAN_POINT ( 'NONE',  ( -17.49999999999999645, 13.00000000000000000, -42.00000000000000000 ) ) ;
#1352 = PLANE ( 'NONE',  #635 ) ;
#1353 = LINE ( 'NONE', #1245, #1194 ) ;
#1354 = ADVANCED_FACE ( 'NONE', ( #644 ), #209, .F. ) ;
#1355 = CARTESIAN_POINT ( 'NONE',  ( -33.00000000000000000, -52.00000000000000000, -3.999999999999996447 ) ) ;
#1356 = ORIENTED_EDGE ( 'NONE', *, *, #94, .F. ) ;
#1357 = EDGE_LOOP ( 'NONE', ( #1207, #13, #1315, #1088 ) ) ;
#1358 = CYLINDRICAL_SURFACE ( 'NONE', #1296, 4.000000000000000000 ) ;
#1359 = CARTESIAN_POINT ( 'NONE',  ( 25.50000000000000355, 13.00000000000000000, -42.00000000000000000 ) ) ;
#1360 = CARTESIAN_POINT ( 'NONE',  ( -47.00000000000000000, 52.00000000000000000, -3.999999999999996447 ) ) ;
#1361 = AXIS2_PLACEMENT_3D ( 'NONE', #1148, #159, #588 ) ;
#1362 = AXIS2_PLACEMENT_3D ( 'NONE', #294, #836, #505 ) ;
#1363 = VECTOR ( 'NONE', #734, 1000.000000000000000 ) ;
#1364 = CARTESIAN_POINT ( 'NONE',  ( 135.0000000000000000, -25.50000000000000355, -42.00000000000000000 ) ) ;
#1365 = DIRECTION ( 'NONE',  ( 0.000000000000000000, -1.000000000000000000, 0.000000000000000000 ) ) ;
#1366 = ORIENTED_EDGE ( 'NONE', *, *, #1382, .T. ) ;
#1367 = CARTESIAN_POINT ( 'NONE',  ( 107.0000000000000142, 47.50000000000000000, -42.00000000000000000 ) ) ;
#1368 = CARTESIAN_POINT ( 'NONE',  ( -25.50000000000000000, 8.000000000000000000, 10.00000000000000000 ) ) ;
#1369 = EDGE_CURVE ( 'NONE', #59, #70, #1423, .T. ) ;
#1370 = PLANE ( 'NONE',  #1128 ) ;
#1371 = DIRECTION ( 'NONE',  ( -1.000000000000000000, -0.000000000000000000, -0.000000000000000000 ) ) ;
#1372 = CARTESIAN_POINT ( 'NONE',  ( -47.00000000000000000, -52.00000000000000000, -42.00000000000000000 ) ) ;
#1373 = VERTEX_POINT ( 'NONE', #638 ) ;
#1374 = CARTESIAN_POINT ( 'NONE',  ( 107.0000000000000142, 47.50000000000000000, -42.00000000000000000 ) ) ;
#1375 = CARTESIAN_POINT ( 'NONE',  ( 107.0000000000000142, -47.50000000000000000, -50.00000000000000000 ) ) ;
#1376 = FACE_OUTER_BOUND ( 'NONE', #279, .T. ) ;
#1377 = CARTESIAN_POINT ( 'NONE',  ( 25.50000000000000355, 13.00000000000000000, 3.000000000000000000 ) ) ;
#1378 = CARTESIAN_POINT ( 'NONE',  ( 17.50000000000000000, -13.00000000000000000, 3.000000000000000000 ) ) ;
#1379 = EDGE_LOOP ( 'NONE', ( #426, #276, #1356, #997 ) ) ;
#1380 = CARTESIAN_POINT ( 'NONE',  ( 107.0000000000000142, 47.50000000000000000, -50.00000000000000000 ) ) ;
#1381 = DIRECTION ( 'NONE',  ( -0.7863183388224226356, 0.6178215519319035787, 0.000000000000000000 ) ) ;
#1382 = EDGE_CURVE ( 'NONE', #1310, #241, #300, .T. ) ;
#1383 = VECTOR ( 'NONE', #1262, 1000.000000000000000 ) ;
#1384 = CARTESIAN_POINT ( 'NONE',  ( 45.00000000000000000, 0.000000000000000000, -42.00000000000000000 ) ) ;
#1385 = DIRECTION ( 'NONE',  ( -0.000000000000000000, -0.000000000000000000, -1.000000000000000000 ) ) ;
#1386 = VECTOR ( 'NONE', #80, 1000.000000000000000 ) ;
#1387 = VECTOR ( 'NONE', #251, 1000.000000000000000 ) ;
#1388 = ORIENTED_EDGE ( 'NONE', *, *, #1049, .T. ) ;
#1389 = CARTESIAN_POINT ( 'NONE',  ( -17.49999999999999645, 13.00000000000000000, -42.00000000000000000 ) ) ;
#1390 = FACE_BOUND ( 'NONE', #1106, .T. ) ;
#1391 = ORIENTED_EDGE ( 'NONE', *, *, #739, .F. ) ;
#1392 = CARTESIAN_POINT ( 'NONE',  ( -25.50000000000000000, 4.898587196589412829E-16, -4.000000000000000000 ) ) ;
#1393 = FACE_BOUND ( 'NONE', #693, .T. ) ;
#1394 = EDGE_CURVE ( 'NONE', #234, #672, #1079, .T. ) ;
#1395 = ORIENTED_EDGE ( 'NONE', *, *, #922, .F. ) ;
#1396 = CARTESIAN_POINT ( 'NONE',  ( -60.00000000000000000, 47.50000000000000000, -42.00000000000000000 ) ) ;
#1397 = EDGE_LOOP ( 'NONE', ( #1241, #323, #414, #1332 ) ) ;
#1398 = CARTESIAN_POINT ( 'NONE',  ( -75.00000000000000000, -32.50000000000000000, -42.00000000000000000 ) ) ;
#1399 = EDGE_LOOP ( 'NONE', ( #331, #574, #1058, #669, #830, #394 ) ) ;
#1400 = DIRECTION ( 'NONE',  ( -1.000000000000000000, -0.000000000000000000, -0.000000000000000000 ) ) ;
#1401 = APPROVAL_STATUS ( 'not_yet_approved' ) ;
#1402 = DIRECTION ( 'NONE',  ( 1.000000000000000000, 0.000000000000000000, 0.000000000000000000 ) ) ;
#1403 = ADVANCED_FACE ( 'NONE', ( #986 ), #1303, .F. ) ;
#1404 = ORIENTED_EDGE ( 'NONE', *, *, #1157, .T. ) ;
#1405 = DIRECTION ( 'NONE',  ( 0.000000000000000000, -1.000000000000000000, 0.000000000000000000 ) ) ;
#1406 = VERTEX_POINT ( 'NONE', #1327 ) ;
#1407 = CARTESIAN_POINT ( 'NONE',  ( 0.000000000000000000, 0.000000000000000000, -42.00000000000000000 ) ) ;
#1408 = ORIENTED_EDGE ( 'NONE', *, *, #1271, .F. ) ;
#1409 = CARTESIAN_POINT ( 'NONE',  ( -17.49999999999999645, 8.000000000000000000, 10.00000000000000000 ) ) ;
#1410 = VECTOR ( 'NONE', #359, 1000.000000000000000 ) ;
#1411 = CALENDAR_DATE ( 2026, 24, 9 ) ;
#1412 = FACE_BOUND ( 'NONE', #186, .T. ) ;
#1413 = VECTOR ( 'NONE', #329, 1000.000000000000000 ) ;
#1414 = VECTOR ( 'NONE', #868, 1000.000000000000000 ) ;
#1415 = VERTEX_POINT ( 'NONE', #979 ) ;
#1416 = CARTESIAN_POINT ( 'NONE',  ( -47.00000000000000000, -52.00000000000000000, -3.999999999999996447 ) ) ;
#1417 = AXIS2_PLACEMENT_3D ( 'NONE', #1168, #178, #520 ) ;
#1418 = ORIENTED_EDGE ( 'NONE', *, *, #1022, .F. ) ;
#1419 = PLANE ( 'NONE',  #1362 ) ;
#1420 = VECTOR ( 'NONE', #1027, 1000.000000000000000 ) ;
#1421 = CARTESIAN_POINT ( 'NONE',  ( -60.00000000000000000, -47.50000000000000000, -42.00000000000000000 ) ) ;
#1422 = VERTEX_POINT ( 'NONE', #760 ) ;
#1423 = LINE ( 'NONE', #95, #311 ) ;
#1424 = FACE_OUTER_BOUND ( 'NONE', #93, .T. ) ;
#1425 = EDGE_CURVE ( 'NONE', #341, #241, #742, .T. ) ;
#1426 = CARTESIAN_POINT ( 'NONE',  ( 17.50000000000000000, 4.898587196589412829E-16, -4.000000000000000000 ) ) ;
#1427 = CARTESIAN_POINT ( 'NONE',  ( -60.00000000000000000, -47.50000000000000000, -50.00000000000000000 ) ) ;
#1428 = ORIENTED_EDGE ( 'NONE', *, *, #524, .F. ) ;
#1429 = CARTESIAN_POINT ( 'NONE',  ( -17.49999999999999645, -8.000000000000000000, 10.00000000000000000 ) ) ;
#1430 = ORIENTED_EDGE ( 'NONE', *, *, #91, .T. ) ;
#1431 = EDGE_CURVE ( 'NONE', #52, #661, #1195, .T. ) ;
#1432 = DIRECTION ( 'NONE',  ( 0.000000000000000000, 0.000000000000000000, 1.000000000000000000 ) ) ;
#1433 = DIRECTION ( 'NONE',  ( 0.000000000000000000, 0.000000000000000000, -1.000000000000000000 ) ) ;
#1434 = ORIENTED_EDGE ( 'NONE', *, *, #1110, .T. ) ;
#1435 = EDGE_CURVE ( 'NONE', #34, #390, #867, .T. ) ;
#1436 = AXIS2_PLACEMENT_3D ( 'NONE', #1283, #721, #1170 ) ;
#1437 = VECTOR ( 'NONE', #673, 999.9999999999998863 ) ;
#1438 = CARTESIAN_POINT ( 'NONE',  ( 70.00000000000000000, 0.000000000000000000, -50.00000000000000000 ) ) ;
#1439 = VECTOR ( 'NONE', #41, 1000.000000000000000 ) ;
#1440 = ORIENTED_EDGE ( 'NONE', *, *, #1000, .F. ) ;
#1441 = EDGE_CURVE ( 'NONE', #1051, #525, #214, .T. ) ;
ENDSEC;
END-ISO-10303-21;
