ISO-10303-21;
HEADER;
FILE_DESCRIPTION (( 'STEP AP203' ),
    '1' );
FILE_NAME ('JX1_Forearm_L.STEP',
    '2026-09-24T05:40:06',
    ( '' ),
    ( '' ),
    'SwSTEP 2.0',
    'SolidWorks 2026',
    '' );
FILE_SCHEMA (( 'CONFIG_CONTROL_DESIGN' ));
ENDSEC;

DATA;
#1 = ORIENTED_EDGE ( 'NONE', *, *, #703, .T. ) ;
#2 = LINE ( 'NONE', #759, #280 ) ;
#3 = EDGE_CURVE ( 'NONE', #149, #954, #793, .T. ) ;
#4 = AXIS2_PLACEMENT_3D ( 'NONE', #812, #579, #576 ) ;
#5 = ORIENTED_EDGE ( 'NONE', *, *, #776, .F. ) ;
#6 = DIRECTION ( 'NONE',  ( 0.000000000000000000, 0.000000000000000000, 1.000000000000000000 ) ) ;
#7 = VECTOR ( 'NONE', #582, 1000.000000000000000 ) ;
#8 = CARTESIAN_POINT ( 'NONE',  ( -16.00000000000000000, 31.50000000000000000, 1.699999999999998179 ) ) ;
#9 = ORIENTED_EDGE ( 'NONE', *, *, #446, .F. ) ;
#10 = CARTESIAN_POINT ( 'NONE',  ( 16.00000000000000000, 31.50000000000000000, 1.700000000000000178 ) ) ;
#11 = ORIENTED_EDGE ( 'NONE', *, *, #311, .F. ) ;
#12 = DIRECTION ( 'NONE',  ( 0.000000000000000000, 1.000000000000000000, 0.000000000000000000 ) ) ;
#13 = ORIENTED_EDGE ( 'NONE', *, *, #595, .T. ) ;
#14 = LINE ( 'NONE', #614, #740 ) ;
#15 = DIRECTION ( 'NONE',  ( -0.000000000000000000, 0.000000000000000000, 1.000000000000000000 ) ) ;
#16 = ORIENTED_EDGE ( 'NONE', *, *, #946, .F. ) ;
#17 = ORIENTED_EDGE ( 'NONE', *, *, #453, .F. ) ;
#18 = EDGE_LOOP ( 'NONE', ( #400, #392 ) ) ;
#19 = DIRECTION ( 'NONE',  ( 0.000000000000000000, 0.000000000000000000, -1.000000000000000000 ) ) ;
#20 = EDGE_CURVE ( 'NONE', #853, #413, #824, .T. ) ;
#21 = VERTEX_POINT ( 'NONE', #734 ) ;
#22 = PRODUCT ( 'JX1_Forearm_L', 'JX1_Forearm_L', '', ( #862 ) ) ;
#23 = EDGE_LOOP ( 'NONE', ( #558, #612 ) ) ;
#24 = DIRECTION ( 'NONE',  ( -0.000000000000000000, -0.000000000000000000, -1.000000000000000000 ) ) ;
#25 = ORIENTED_EDGE ( 'NONE', *, *, #581, .F. ) ;
#26 = DIRECTION ( 'NONE',  ( -0.000000000000000000, -1.000000000000000000, -0.000000000000000000 ) ) ;
#27 = AXIS2_PLACEMENT_3D ( 'NONE', #949, #339, #631 ) ;
#28 = EDGE_CURVE ( 'NONE', #867, #695, #323, .T. ) ;
#29 = FACE_BOUND ( 'NONE', #18, .T. ) ;
#30 = VERTEX_POINT ( 'NONE', #500 ) ;
#31 = CARTESIAN_POINT ( 'NONE',  ( 8.000000000000001776, 25.50000000000000000, -15.55640646055101683 ) ) ;
#32 = ORIENTED_EDGE ( 'NONE', *, *, #251, .T. ) ;
#33 = FACE_BOUND ( 'NONE', #454, .T. ) ;
#34 = LINE ( 'NONE', #111, #160 ) ;
#35 = ORIENTED_EDGE ( 'NONE', *, *, #140, .F. ) ;
#36 = EDGE_CURVE ( 'NONE', #447, #378, #131, .T. ) ;
#37 = DIRECTION ( 'NONE',  ( 0.000000000000000000, 0.000000000000000000, -1.000000000000000000 ) ) ;
#38 = VERTEX_POINT ( 'NONE', #195 ) ;
#39 = AXIS2_PLACEMENT_3D ( 'NONE', #720, #495, #724 ) ;
#40 = CYLINDRICAL_SURFACE ( 'NONE', #224, 3.000000000000000000 ) ;
#41 = CIRCLE ( 'NONE', #795, 1.700000000000000178 ) ;
#42 = AXIS2_PLACEMENT_3D ( 'NONE', #669, #373, #592 ) ;
#43 = CC_DESIGN_APPROVAL ( #589, ( #571 ) ) ;
#44 = CARTESIAN_POINT ( 'NONE',  ( 0.000000000000000000, 25.50000000000000000, -12.15000000000000036 ) ) ;
#45 = DIRECTION ( 'NONE',  ( -0.000000000000000000, -1.000000000000000000, -0.000000000000000000 ) ) ;
#46 = PLANE ( 'NONE',  #698 ) ;
#47 = DIRECTION ( 'NONE',  ( 0.000000000000000000, 0.000000000000000000, 1.000000000000000000 ) ) ;
#48 = CARTESIAN_POINT ( 'NONE',  ( -16.00000000000000000, 31.50000000000000000, -1.959434878635765131E-15 ) ) ;
#49 = PERSON_AND_ORGANIZATION_ROLE ( 'creator' ) ;
#50 = LINE ( 'NONE', #809, #374 ) ;
#51 = EDGE_CURVE ( 'NONE', #835, #332, #428, .T. ) ;
#52 = CARTESIAN_POINT ( 'NONE',  ( -8.000000000000007105, 31.50000000000000000, 13.85640646055101577 ) ) ;
#53 = DIRECTION ( 'NONE',  ( 0.000000000000000000, 0.000000000000000000, 1.000000000000000000 ) ) ;
#54 = PERSON_AND_ORGANIZATION_ROLE ( 'design_supplier' ) ;
#55 = AXIS2_PLACEMENT_3D ( 'NONE', #791, #53, #434 ) ;
#56 = DIRECTION ( 'NONE',  ( -0.000000000000000000, -1.000000000000000000, -0.000000000000000000 ) ) ;
#57 = AXIS2_PLACEMENT_3D ( 'NONE', #204, #560, #807 ) ;
#58 = CC_DESIGN_PERSON_AND_ORGANIZATION_ASSIGNMENT ( #272, #54, ( #571 ) ) ;
#59 = AXIS2_PLACEMENT_3D ( 'NONE', #158, #15, #464 ) ;
#60 = DIRECTION ( 'NONE',  ( 0.000000000000000000, 0.000000000000000000, 1.000000000000000000 ) ) ;
#61 = DIRECTION ( 'NONE',  ( 0.000000000000000000, 0.000000000000000000, -1.000000000000000000 ) ) ;
#62 = DIRECTION ( 'NONE',  ( 0.000000000000000000, 0.000000000000000000, 1.000000000000000000 ) ) ;
#63 = ADVANCED_FACE ( 'NONE', ( #369 ), #802, .F. ) ;
#64 = EDGE_LOOP ( 'NONE', ( #476, #596 ) ) ;
#65 = CARTESIAN_POINT ( 'NONE',  ( 16.00000000000000000, 25.50000000000000000, 0.000000000000000000 ) ) ;
#66 = EDGE_CURVE ( 'NONE', #482, #835, #421, .T. ) ;
#67 = DIRECTION ( 'NONE',  ( 0.000000000000000000, 0.000000000000000000, 1.000000000000000000 ) ) ;
#68 = ORIENTED_EDGE ( 'NONE', *, *, #513, .F. ) ;
#69 = CARTESIAN_POINT ( 'NONE',  ( -16.00000000000000000, 25.50000000000000000, -1.959434878635765131E-15 ) ) ;
#70 = AXIS2_PLACEMENT_3D ( 'NONE', #962, #871, #645 ) ;
#71 = VECTOR ( 'NONE', #640, 1000.000000000000000 ) ;
#72 = AXIS2_PLACEMENT_3D ( 'NONE', #647, #370, #881 ) ;
#73 = LOCAL_TIME ( 11, 10, 6.000000000000000000, #573 ) ;
#74 = DIRECTION ( 'NONE',  ( 1.000000000000000000, 0.000000000000000000, 0.000000000000000000 ) ) ;
#75 = EDGE_CURVE ( 'NONE', #30, #186, #660, .T. ) ;
#76 = VERTEX_POINT ( 'NONE', #798 ) ;
#77 = DIRECTION ( 'NONE',  ( -0.000000000000000000, -1.000000000000000000, -0.000000000000000000 ) ) ;
#78 = CC_DESIGN_DATE_AND_TIME_ASSIGNMENT ( #278, #887, ( #363 ) ) ;
#79 = ORIENTED_EDGE ( 'NONE', *, *, #804, .T. ) ;
#80 = CYLINDRICAL_SURFACE ( 'NONE', #873, 4.000000000000000000 ) ;
#81 = DIRECTION ( 'NONE',  ( 0.000000000000000000, 1.000000000000000000, 0.000000000000000000 ) ) ;
#82 = ORIENTED_EDGE ( 'NONE', *, *, #135, .T. ) ;
#83 = CYLINDRICAL_SURFACE ( 'NONE', #541, 1.700000000000000178 ) ;
#84 = VERTEX_POINT ( 'NONE', #276 ) ;
#85 = AXIS2_PLACEMENT_3D ( 'NONE', #144, #231, #67 ) ;
#86 = AXIS2_PLACEMENT_3D ( 'NONE', #836, #452, #752 ) ;
#87 = ORIENTED_EDGE ( 'NONE', *, *, #942, .T. ) ;
#88 = LINE ( 'NONE', #391, #668 ) ;
#89 = EDGE_LOOP ( 'NONE', ( #25, #845 ) ) ;
#90 = EDGE_CURVE ( 'NONE', #413, #853, #241, .T. ) ;
#91 = EDGE_LOOP ( 'NONE', ( #897, #32, #468, #479 ) ) ;
#92 = DIRECTION ( 'NONE',  ( 0.000000000000000000, 1.000000000000000000, 0.000000000000000000 ) ) ;
#93 = EDGE_LOOP ( 'NONE', ( #484, #918 ) ) ;
#94 = DIRECTION ( 'NONE',  ( 0.000000000000000000, 0.000000000000000000, 1.000000000000000000 ) ) ;
#95 = ORIENTED_EDGE ( 'NONE', *, *, #201, .T. ) ;
#96 = ORIENTED_EDGE ( 'NONE', *, *, #236, .T. ) ;
#97 = DIRECTION ( 'NONE',  ( -1.000000000000000000, 0.000000000000000000, 0.000000000000000000 ) ) ;
#98 = ORIENTED_EDGE ( 'NONE', *, *, #36, .F. ) ;
#99 = DIRECTION ( 'NONE',  ( -0.000000000000000000, -0.000000000000000000, -1.000000000000000000 ) ) ;
#100 = ORIENTED_EDGE ( 'NONE', *, *, #753, .F. ) ;
#101 = VECTOR ( 'NONE', #45, 1000.000000000000000 ) ;
#102 = LINE ( 'NONE', #537, #117 ) ;
#103 = ORIENTED_EDGE ( 'NONE', *, *, #66, .T. ) ;
#104 = DIRECTION ( 'NONE',  ( -1.000000000000000000, 0.000000000000000000, 0.000000000000000000 ) ) ;
#105 = LINE ( 'NONE', #192, #875 ) ;
#106 = VERTEX_POINT ( 'NONE', #664 ) ;
#107 = DIRECTION ( 'NONE',  ( 0.000000000000000000, 1.000000000000000000, 0.000000000000000000 ) ) ;
#108 = ADVANCED_FACE ( 'NONE', ( #289 ), #205, .F. ) ;
#109 = ORIENTED_EDGE ( 'NONE', *, *, #432, .F. ) ;
#110 = DIRECTION ( 'NONE',  ( -0.000000000000000000, -1.000000000000000000, -0.000000000000000000 ) ) ;
#111 = CARTESIAN_POINT ( 'NONE',  ( -24.00000000000000000, 31.50000000000000000, -180.0000000000000000 ) ) ;
#112 = EDGE_LOOP ( 'NONE', ( #542, #416, #587, #861 ) ) ;
#113 = CARTESIAN_POINT ( 'NONE',  ( 0.000000000000000000, 0.000000000000000000, 0.000000000000000000 ) ) ;
#114 = EDGE_CURVE ( 'NONE', #830, #76, #651, .T. ) ;
#115 = CARTESIAN_POINT ( 'NONE',  ( -24.00000000000000000, -22.00000000000000000, -186.0000000000000000 ) ) ;
#116 = DIRECTION ( 'NONE',  ( 0.000000000000000000, 0.000000000000000000, 1.000000000000000000 ) ) ;
#117 = VECTOR ( 'NONE', #181, 1000.000000000000000 ) ;
#118 = CALENDAR_DATE ( 2026, 24, 9 ) ;
#119 = AXIS2_PLACEMENT_3D ( 'NONE', #141, #56, #442 ) ;
#120 = CARTESIAN_POINT ( 'NONE',  ( 8.000000000000001776, 25.50000000000000000, 13.85640646055101755 ) ) ;
#121 = AXIS2_PLACEMENT_3D ( 'NONE', #788, #548, #94 ) ;
#122 = CARTESIAN_POINT ( 'NONE',  ( 24.00000000000000000, 25.50000000000000000, -180.0000000000000000 ) ) ;
#123 = ORIENTED_EDGE ( 'NONE', *, *, #28, .T. ) ;
#124 = CALENDAR_DATE ( 2026, 24, 9 ) ;
#125 = CARTESIAN_POINT ( 'NONE',  ( 0.000000000000000000, 31.50000000000000000, -4.000000000000000000 ) ) ;
#126 = DIRECTION ( 'NONE',  ( -0.000000000000000000, -1.000000000000000000, -0.000000000000000000 ) ) ;
#127 = DIRECTION ( 'NONE',  ( 0.000000000000000000, 0.000000000000000000, 1.000000000000000000 ) ) ;
#128 = DIRECTION ( 'NONE',  ( -0.000000000000000000, -1.000000000000000000, -0.000000000000000000 ) ) ;
#129 = EDGE_CURVE ( 'NONE', #695, #867, #616, .T. ) ;
#130 = DIRECTION ( 'NONE',  ( -0.000000000000000000, -1.000000000000000000, -0.000000000000000000 ) ) ;
#131 = LINE ( 'NONE', #965, #371 ) ;
#132 = PERSON_AND_ORGANIZATION ( #882, #876 ) ;
#133 = DIRECTION ( 'NONE',  ( -0.000000000000000000, -0.000000000000000000, -1.000000000000000000 ) ) ;
#134 = VECTOR ( 'NONE', #233, 1000.000000000000000 ) ;
#135 = EDGE_CURVE ( 'NONE', #684, #837, #341, .T. ) ;
#136 = AXIS2_PLACEMENT_3D ( 'NONE', #687, #239, #747 ) ;
#137 = FACE_BOUND ( 'NONE', #679, .T. ) ;
#138 = DIRECTION ( 'NONE',  ( 0.000000000000000000, 0.000000000000000000, 1.000000000000000000 ) ) ;
#139 = PERSON_AND_ORGANIZATION ( #882, #876 ) ;
#140 = EDGE_CURVE ( 'NONE', #635, #630, #673, .T. ) ;
#141 = CARTESIAN_POINT ( 'NONE',  ( -7.999999999999996447, 31.50000000000000000, -13.85640646055101932 ) ) ;
#142 = DIRECTION ( 'NONE',  ( -1.000000000000000000, 0.000000000000000000, -0.000000000000000000 ) ) ;
#143 = CARTESIAN_POINT ( 'NONE',  ( -8.000000000000007105, 25.50000000000000000, 13.85640646055101577 ) ) ;
#144 = CARTESIAN_POINT ( 'NONE',  ( 24.00000000000000000, 31.50000000000000000, 28.00000000000000000 ) ) ;
#145 = CARTESIAN_POINT ( 'NONE',  ( 3.000000000000000000, 3.673940397442059868E-16, -180.0000000000000000 ) ) ;
#146 = AXIS2_PLACEMENT_3D ( 'NONE', #366, #951, #580 ) ;
#147 = EDGE_CURVE ( 'NONE', #232, #150, #225, .T. ) ;
#148 = LOCAL_TIME ( 11, 10, 6.000000000000000000, #202 ) ;
#149 = VERTEX_POINT ( 'NONE', #822 ) ;
#150 = VERTEX_POINT ( 'NONE', #593 ) ;
#151 = DIRECTION ( 'NONE',  ( 0.000000000000000000, 0.000000000000000000, 1.000000000000000000 ) ) ;
#152 = EDGE_LOOP ( 'NONE', ( #604, #13, #528, #686 ) ) ;
#153 = VERTEX_POINT ( 'NONE', #217 ) ;
#154 = DIRECTION ( 'NONE',  ( -0.000000000000000000, -1.000000000000000000, -0.000000000000000000 ) ) ;
#155 = ORIENTED_EDGE ( 'NONE', *, *, #825, .F. ) ;
#156 = DIRECTION ( 'NONE',  ( 0.000000000000000000, 1.000000000000000000, 0.000000000000000000 ) ) ;
#157 = ORIENTED_EDGE ( 'NONE', *, *, #432, .T. ) ;
#158 = CARTESIAN_POINT ( 'NONE',  ( 0.000000000000000000, 0.000000000000000000, -186.0000000000000000 ) ) ;
#159 = ADVANCED_FACE ( 'NONE', ( #912 ), #755, .F. ) ;
#160 = VECTOR ( 'NONE', #469, 1000.000000000000000 ) ;
#161 = ORIENTED_EDGE ( 'NONE', *, *, #3, .F. ) ;
#162 = ORIENTED_EDGE ( 'NONE', *, *, #526, .T. ) ;
#163 = PLANE ( 'NONE',  #969 ) ;
#164 = DIRECTION ( 'NONE',  ( 0.000000000000000000, 0.000000000000000000, 1.000000000000000000 ) ) ;
#165 = PRODUCT_DEFINITION ( 'UNKNOWN', '', #571, #234 ) ;
#166 = EDGE_LOOP ( 'NONE', ( #917, #749, #252, #543 ) ) ;
#167 = ADVANCED_FACE ( 'NONE', ( #308 ), #895, .F. ) ;
#168 = ORIENTED_EDGE ( 'NONE', *, *, #806, .T. ) ;
#169 = APPLICATION_PROTOCOL_DEFINITION ( 'international standard', 'config_control_design', 1994, #770 ) ;
#170 = CARTESIAN_POINT ( 'NONE',  ( 0.000000000000000000, 27.69999999999999929, 0.000000000000000000 ) ) ;
#171 = EDGE_LOOP ( 'NONE', ( #921, #162, #11, #100 ) ) ;
#172 = ADVANCED_FACE ( 'NONE', ( #518 ), #80, .F. ) ;
#173 = CARTESIAN_POINT ( 'NONE',  ( 8.000000000000001776, 31.50000000000000000, 13.85640646055101755 ) ) ;
#174 = ORIENTED_EDGE ( 'NONE', *, *, #663, .F. ) ;
#175 = ADVANCED_FACE ( 'NONE', ( #531 ), #449, .F. ) ;
#176 = APPLICATION_PROTOCOL_DEFINITION ( 'international standard', 'config_control_design', 1994, #613 ) ;
#177 = FACE_BOUND ( 'NONE', #23, .T. ) ;
#178 = EDGE_CURVE ( 'NONE', #853, #607, #14, .T. ) ;
#179 = AXIS2_PLACEMENT_3D ( 'NONE', #890, #211, #138 ) ;
#180 = AXIS2_PLACEMENT_3D ( 'NONE', #52, #354, #950 ) ;
#181 = DIRECTION ( 'NONE',  ( -0.000000000000000000, -1.000000000000000000, -0.000000000000000000 ) ) ;
#182 = CIRCLE ( 'NONE', #524, 1.700000000000000178 ) ;
#183 = VERTEX_POINT ( 'NONE', #258 ) ;
#184 =( LENGTH_UNIT ( ) NAMED_UNIT ( * ) SI_UNIT ( .MILLI., .METRE. ) );
#185 = FACE_OUTER_BOUND ( 'NONE', #627, .T. ) ;
#186 = VERTEX_POINT ( 'NONE', #765 ) ;
#187 = PERSON_AND_ORGANIZATION ( #882, #876 ) ;
#188 = FACE_OUTER_BOUND ( 'NONE', #691, .T. ) ;
#189 = DIRECTION ( 'NONE',  ( -1.000000000000000000, 0.000000000000000000, 0.000000000000000000 ) ) ;
#190 = VERTEX_POINT ( 'NONE', #474 ) ;
#191 = FACE_OUTER_BOUND ( 'NONE', #735, .T. ) ;
#192 = CARTESIAN_POINT ( 'NONE',  ( 1.487945860964034377E-15, 27.69999999999999929, 12.15000000000000036 ) ) ;
#193 = EDGE_CURVE ( 'NONE', #635, #769, #697, .T. ) ;
#194 = LINE ( 'NONE', #122, #404 ) ;
#195 = CARTESIAN_POINT ( 'NONE',  ( 4.898587196589412829E-16, 31.50000000000000000, 4.000000000000000000 ) ) ;
#196 = LOCAL_TIME ( 11, 10, 6.000000000000000000, #505 ) ;
#197 = DIRECTION ( 'NONE',  ( 0.000000000000000000, 0.000000000000000000, -1.000000000000000000 ) ) ;
#198 = CIRCLE ( 'NONE', #27, 1.700000000000000178 ) ;
#199 = LINE ( 'NONE', #499, #422 ) ;
#200 = DIRECTION ( 'NONE',  ( 0.000000000000000000, 1.000000000000000000, 0.000000000000000000 ) ) ;
#201 = EDGE_CURVE ( 'NONE', #30, #856, #34, .T. ) ;
#202 = COORDINATED_UNIVERSAL_TIME_OFFSET ( 5, 30, .AHEAD. ) ;
#203 = CARTESIAN_POINT ( 'NONE',  ( -24.00000000000000000, 31.50000000000000000, 28.00000000000000000 ) ) ;
#204 = CARTESIAN_POINT ( 'NONE',  ( 16.00000000000000000, 31.50000000000000000, 0.000000000000000000 ) ) ;
#205 = CYLINDRICAL_SURFACE ( 'NONE', #539, 1.700000000000000178 ) ;
#206 = PERSON_AND_ORGANIZATION_ROLE ( 'creator' ) ;
#207 = ADVANCED_FACE ( 'NONE', ( #238, #327 ), #163, .T. ) ;
#208 = DIRECTION ( 'NONE',  ( 0.000000000000000000, 0.000000000000000000, 1.000000000000000000 ) ) ;
#209 = EDGE_CURVE ( 'NONE', #482, #545, #102, .T. ) ;
#210 = CARTESIAN_POINT ( 'NONE',  ( -24.00000000000000000, 31.50000000000000000, -186.0000000000000000 ) ) ;
#211 = DIRECTION ( 'NONE',  ( 0.000000000000000000, 1.000000000000000000, 0.000000000000000000 ) ) ;
#212 = AXIS2_PLACEMENT_3D ( 'NONE', #829, #745, #833 ) ;
#213 = FACE_OUTER_BOUND ( 'NONE', #320, .T. ) ;
#214 = CIRCLE ( 'NONE', #42, 1.700000000000000178 ) ;
#215 = DIRECTION ( 'NONE',  ( -0.000000000000000000, -1.000000000000000000, -0.000000000000000000 ) ) ;
#216 = CARTESIAN_POINT ( 'NONE',  ( -7.999999999999996447, 31.50000000000000000, -13.85640646055101932 ) ) ;
#217 = CARTESIAN_POINT ( 'NONE',  ( -7.999999999999996447, 31.50000000000000000, -12.15640646055101826 ) ) ;
#218 = CARTESIAN_POINT ( 'NONE',  ( 0.000000000000000000, 0.000000000000000000, -180.0000000000000000 ) ) ;
#219 = ADVANCED_FACE ( 'NONE', ( #185 ), #634, .F. ) ;
#220 = FACE_BOUND ( 'NONE', #707, .T. ) ;
#221 = ORIENTED_EDGE ( 'NONE', *, *, #269, .T. ) ;
#222 = CARTESIAN_POINT ( 'NONE',  ( 8.000000000000001776, 31.50000000000000000, -15.55640646055101683 ) ) ;
#223 = AXIS2_PLACEMENT_3D ( 'NONE', #246, #107, #261 ) ;
#224 = AXIS2_PLACEMENT_3D ( 'NONE', #779, #705, #104 ) ;
#225 = LINE ( 'NONE', #301, #567 ) ;
#226 = ORIENTED_EDGE ( 'NONE', *, *, #362, .F. ) ;
#227 = ORIENTED_EDGE ( 'NONE', *, *, #883, .T. ) ;
#228 = CARTESIAN_POINT ( 'NONE',  ( -7.999999999999996447, 25.50000000000000000, -12.15640646055101826 ) ) ;
#229 = ORIENTED_EDGE ( 'NONE', *, *, #700, .T. ) ;
#230 = CARTESIAN_POINT ( 'NONE',  ( -24.00000000000000000, 31.50000000000000000, 28.00000000000000000 ) ) ;
#231 = DIRECTION ( 'NONE',  ( -1.000000000000000000, 0.000000000000000000, 0.000000000000000000 ) ) ;
#232 = VERTEX_POINT ( 'NONE', #412 ) ;
#233 = DIRECTION ( 'NONE',  ( 0.000000000000000000, -1.000000000000000000, 0.000000000000000000 ) ) ;
#234 = DESIGN_CONTEXT ( 'detailed design', #613, 'design' ) ;
#235 = EDGE_LOOP ( 'NONE', ( #601, #535 ) ) ;
#236 = EDGE_CURVE ( 'NONE', #839, #298, #667, .T. ) ;
#237 = ORIENTED_EDGE ( 'NONE', *, *, #703, .F. ) ;
#238 = FACE_OUTER_BOUND ( 'NONE', #473, .T. ) ;
#239 = DIRECTION ( 'NONE',  ( -0.000000000000000000, -1.000000000000000000, -0.000000000000000000 ) ) ;
#240 = VERTEX_POINT ( 'NONE', #31 ) ;
#241 = CIRCLE ( 'NONE', #55, 3.000000000000000000 ) ;
#242 = EDGE_LOOP ( 'NONE', ( #79, #778 ) ) ;
#243 = AXIS2_PLACEMENT_3D ( 'NONE', #423, #715, #570 ) ;
#244 = VERTEX_POINT ( 'NONE', #485 ) ;
#245 =( GEOMETRIC_REPRESENTATION_CONTEXT ( 3 ) GLOBAL_UNCERTAINTY_ASSIGNED_CONTEXT ( ( #397 ) ) GLOBAL_UNIT_ASSIGNED_CONTEXT ( ( #184, #926, #854 ) ) REPRESENTATION_CONTEXT ( 'NONE', 'WORKASPACE' ) );
#246 = CARTESIAN_POINT ( 'NONE',  ( -24.00000000000000000, -22.00000000000000000, -180.0000000000000000 ) ) ;
#247 = ORIENTED_EDGE ( 'NONE', *, *, #178, .F. ) ;
#248 = CARTESIAN_POINT ( 'NONE',  ( 8.000000000000001776, 31.50000000000000000, 13.85640646055101755 ) ) ;
#249 = DIRECTION ( 'NONE',  ( 0.000000000000000000, 0.000000000000000000, -1.000000000000000000 ) ) ;
#250 = EDGE_LOOP ( 'NONE', ( #764, #157 ) ) ;
#251 = EDGE_CURVE ( 'NONE', #76, #534, #608, .T. ) ;
#252 = ORIENTED_EDGE ( 'NONE', *, *, #402, .T. ) ;
#253 = LINE ( 'NONE', #636, #348 ) ;
#254 = EDGE_CURVE ( 'NONE', #911, #381, #919, .T. ) ;
#255 = DIRECTION ( 'NONE',  ( 0.000000000000000000, -1.000000000000000000, 0.000000000000000000 ) ) ;
#256 = ORIENTED_EDGE ( 'NONE', *, *, #193, .T. ) ;
#257 = ORIENTED_EDGE ( 'NONE', *, *, #732, .T. ) ;
#258 = CARTESIAN_POINT ( 'NONE',  ( 24.00000000000000000, 25.50000000000000000, -180.0000000000000000 ) ) ;
#259 = ORIENTED_EDGE ( 'NONE', *, *, #761, .T. ) ;
#260 = CARTESIAN_POINT ( 'NONE',  ( 0.000000000000000000, 27.69999999999999929, 0.000000000000000000 ) ) ;
#261 = DIRECTION ( 'NONE',  ( 0.000000000000000000, -0.000000000000000000, 1.000000000000000000 ) ) ;
#262 = AXIS2_PLACEMENT_3D ( 'NONE', #69, #304, #379 ) ;
#263 = ORIENTED_EDGE ( 'NONE', *, *, #420, .T. ) ;
#264 = CYLINDRICAL_SURFACE ( 'NONE', #521, 12.15000000000000036 ) ;
#265 = CARTESIAN_POINT ( 'NONE',  ( 24.00000000000000000, 31.50000000000000000, 28.00000000000000000 ) ) ;
#266 = VERTEX_POINT ( 'NONE', #407 ) ;
#267 = CARTESIAN_POINT ( 'NONE',  ( 24.00000000000000000, 25.50000000000000000, 28.00000000000000000 ) ) ;
#268 = LINE ( 'NONE', #637, #652 ) ;
#269 = EDGE_CURVE ( 'NONE', #696, #232, #394, .T. ) ;
#270 = CARTESIAN_POINT ( 'NONE',  ( 24.00000000000000000, -22.00000000000000000, -180.0000000000000000 ) ) ;
#271 = DIRECTION ( 'NONE',  ( 0.000000000000000000, 1.000000000000000000, 0.000000000000000000 ) ) ;
#272 = PERSON_AND_ORGANIZATION ( #882, #876 ) ;
#273 = DIRECTION ( 'NONE',  ( 0.000000000000000000, 1.000000000000000000, 0.000000000000000000 ) ) ;
#274 = AXIS2_PLACEMENT_3D ( 'NONE', #656, #200, #808 ) ;
#275 = DIRECTION ( 'NONE',  ( 0.000000000000000000, 1.000000000000000000, 0.000000000000000000 ) ) ;
#276 = CARTESIAN_POINT ( 'NONE',  ( -24.00000000000000000, -22.00000000000000000, -186.0000000000000000 ) ) ;
#277 = CIRCLE ( 'NONE', #905, 12.15000000000000036 ) ;
#278 = DATE_AND_TIME ( #118, #406 ) ;
#279 = VECTOR ( 'NONE', #448, 1000.000000000000000 ) ;
#280 = VECTOR ( 'NONE', #74, 1000.000000000000000 ) ;
#281 = CARTESIAN_POINT ( 'NONE',  ( 0.000000000000000000, 31.50000000000000000, -4.000000000000000000 ) ) ;
#282 = EDGE_CURVE ( 'NONE', #38, #701, #893, .T. ) ;
#283 = CARTESIAN_POINT ( 'NONE',  ( 8.000000000000001776, 31.50000000000000000, -13.85640646055101755 ) ) ;
#284 = ORIENTED_EDGE ( 'NONE', *, *, #383, .T. ) ;
#285 = PERSON_AND_ORGANIZATION ( #882, #876 ) ;
#286 = FACE_OUTER_BOUND ( 'NONE', #166, .T. ) ;
#287 = ADVANCED_FACE ( 'NONE', ( #319 ), #483, .F. ) ;
#288 = DIRECTION ( 'NONE',  ( 1.000000000000000000, 0.000000000000000000, 0.000000000000000000 ) ) ;
#289 = FACE_OUTER_BOUND ( 'NONE', #91, .T. ) ;
#290 = DATE_AND_TIME ( #880, #655 ) ;
#291 = CARTESIAN_POINT ( 'NONE',  ( 16.00000000000000000, 31.50000000000000000, -1.700000000000000178 ) ) ;
#292 = DIRECTION ( 'NONE',  ( 0.000000000000000000, 1.000000000000000000, 0.000000000000000000 ) ) ;
#293 = PERSON_AND_ORGANIZATION_ROLE ( 'classification_officer' ) ;
#294 = ORIENTED_EDGE ( 'NONE', *, *, #906, .F. ) ;
#295 = AXIS2_PLACEMENT_3D ( 'NONE', #48, #271, #716 ) ;
#296 = CYLINDRICAL_SURFACE ( 'NONE', #780, 1.700000000000000178 ) ;
#297 = CARTESIAN_POINT ( 'NONE',  ( 24.00000000000000000, -22.00000000000000000, -180.0000000000000000 ) ) ;
#298 = VERTEX_POINT ( 'NONE', #44 ) ;
#299 = CARTESIAN_POINT ( 'NONE',  ( 0.000000000000000000, 27.69999999999999929, -12.15000000000000036 ) ) ;
#300 = EDGE_CURVE ( 'NONE', #232, #911, #801, .T. ) ;
#301 = CARTESIAN_POINT ( 'NONE',  ( 24.00000000000000000, 31.50000000000000000, 28.00000000000000000 ) ) ;
#302 = DIRECTION ( 'NONE',  ( -1.000000000000000000, 0.000000000000000000, 0.000000000000000000 ) ) ;
#303 = ORIENTED_EDGE ( 'NONE', *, *, #129, .T. ) ;
#304 = DIRECTION ( 'NONE',  ( 0.000000000000000000, 1.000000000000000000, 0.000000000000000000 ) ) ;
#305 = CIRCLE ( 'NONE', #4, 1.700000000000000178 ) ;
#306 = VECTOR ( 'NONE', #662, 1000.000000000000000 ) ;
#307 = EDGE_LOOP ( 'NONE', ( #303, #462, #294, #751 ) ) ;
#308 = FACE_OUTER_BOUND ( 'NONE', #377, .T. ) ;
#309 = VERTEX_POINT ( 'NONE', #489 ) ;
#310 = CARTESIAN_POINT ( 'NONE',  ( -16.00000000000000000, 31.50000000000000000, -1.959434878635765131E-15 ) ) ;
#311 = EDGE_CURVE ( 'NONE', #298, #839, #904, .T. ) ;
#312 = ORIENTED_EDGE ( 'NONE', *, *, #597, .F. ) ;
#313 = FACE_OUTER_BOUND ( 'NONE', #925, .T. ) ;
#314 = EDGE_LOOP ( 'NONE', ( #257, #338, #966, #855 ) ) ;
#315 = DIRECTION ( 'NONE',  ( 0.000000000000000000, 0.000000000000000000, 1.000000000000000000 ) ) ;
#316 = DIRECTION ( 'NONE',  ( 0.000000000000000000, 0.000000000000000000, 1.000000000000000000 ) ) ;
#317 = ORIENTED_EDGE ( 'NONE', *, *, #28, .F. ) ;
#318 = ORIENTED_EDGE ( 'NONE', *, *, #147, .F. ) ;
#319 = FACE_OUTER_BOUND ( 'NONE', #520, .T. ) ;
#320 = EDGE_LOOP ( 'NONE', ( #768, #168, #929, #683 ) ) ;
#321 = CARTESIAN_POINT ( 'NONE',  ( 16.00000000000000000, 25.50000000000000000, -1.700000000000000178 ) ) ;
#322 = ADVANCED_FACE ( 'NONE', ( #350 ), #878, .F. ) ;
#323 = CIRCLE ( 'NONE', #678, 1.700000000000000178 ) ;
#324 = AXIS2_PLACEMENT_3D ( 'NONE', #343, #953, #47 ) ;
#325 = ORIENTED_EDGE ( 'NONE', *, *, #486, .T. ) ;
#326 = ORIENTED_EDGE ( 'NONE', *, *, #583, .F. ) ;
#327 = FACE_BOUND ( 'NONE', #931, .T. ) ;
#328 = EDGE_CURVE ( 'NONE', #309, #378, #305, .T. ) ;
#329 = ORIENTED_EDGE ( 'NONE', *, *, #717, .T. ) ;
#330 = PERSON_AND_ORGANIZATION ( #882, #876 ) ;
#331 = DIRECTION ( 'NONE',  ( 0.000000000000000000, 1.000000000000000000, 0.000000000000000000 ) ) ;
#332 = VERTEX_POINT ( 'NONE', #889 ) ;
#333 = DIRECTION ( 'NONE',  ( 1.000000000000000000, 0.000000000000000000, 0.000000000000000000 ) ) ;
#334 = ORIENTED_EDGE ( 'NONE', *, *, #383, .F. ) ;
#335 = DIRECTION ( 'NONE',  ( 0.000000000000000000, 0.000000000000000000, 1.000000000000000000 ) ) ;
#336 = FACE_OUTER_BOUND ( 'NONE', #171, .T. ) ;
#337 = DIRECTION ( 'NONE',  ( 0.000000000000000000, 0.000000000000000000, 1.000000000000000000 ) ) ;
#338 = ORIENTED_EDGE ( 'NONE', *, *, #209, .T. ) ;
#339 = DIRECTION ( 'NONE',  ( 0.000000000000000000, 1.000000000000000000, 0.000000000000000000 ) ) ;
#340 = FACE_BOUND ( 'NONE', #235, .T. ) ;
#341 = CIRCLE ( 'NONE', #728, 1.700000000000000178 ) ;
#342 = AXIS2_PLACEMENT_3D ( 'NONE', #865, #503, #427 ) ;
#343 = CARTESIAN_POINT ( 'NONE',  ( 8.000000000000001776, 25.50000000000000000, -13.85640646055101755 ) ) ;
#344 = CIRCLE ( 'NONE', #440, 4.000000000000000000 ) ;
#345 = ORIENTED_EDGE ( 'NONE', *, *, #967, .T. ) ;
#346 = EDGE_CURVE ( 'NONE', #769, #635, #712, .T. ) ;
#347 = LINE ( 'NONE', #414, #971 ) ;
#348 = VECTOR ( 'NONE', #642, 1000.000000000000000 ) ;
#349 = FACE_BOUND ( 'NONE', #475, .T. ) ;
#350 = FACE_OUTER_BOUND ( 'NONE', #959, .T. ) ;
#351 = EDGE_LOOP ( 'NONE', ( #540, #933, #746, #937 ) ) ;
#352 = APPROVAL_STATUS ( 'not_yet_approved' ) ;
#353 = DIRECTION ( 'NONE',  ( 0.000000000000000000, 1.000000000000000000, 0.000000000000000000 ) ) ;
#354 = DIRECTION ( 'NONE',  ( 0.000000000000000000, 1.000000000000000000, 0.000000000000000000 ) ) ;
#355 = CARTESIAN_POINT ( 'NONE',  ( -16.00000000000000000, 31.50000000000000000, -1.700000000000002176 ) ) ;
#356 = CALENDAR_DATE ( 2026, 24, 9 ) ;
#357 = CARTESIAN_POINT ( 'NONE',  ( -8.000000000000007105, 31.50000000000000000, 15.55640646055101506 ) ) ;
#358 = EDGE_CURVE ( 'NONE', #240, #534, #481, .T. ) ;
#359 = VECTOR ( 'NONE', #958, 1000.000000000000000 ) ;
#360 = LINE ( 'NONE', #115, #970 ) ;
#361 = EDGE_LOOP ( 'NONE', ( #470, #326, #828, #329, #174, #754 ) ) ;
#362 = EDGE_CURVE ( 'NONE', #704, #572, #644, .T. ) ;
#363 = SECURITY_CLASSIFICATION ( '', '', #815 ) ;
#364 = DIRECTION ( 'NONE',  ( -0.000000000000000000, -1.000000000000000000, -0.000000000000000000 ) ) ;
#365 = CARTESIAN_POINT ( 'NONE',  ( 24.00000000000000000, -22.00000000000000000, -186.0000000000000000 ) ) ;
#366 = CARTESIAN_POINT ( 'NONE',  ( 8.000000000000001776, 31.50000000000000000, -13.85640646055101755 ) ) ;
#367 = APPROVAL_STATUS ( 'not_yet_approved' ) ;
#368 = CARTESIAN_POINT ( 'NONE',  ( -8.000000000000007105, 31.50000000000000000, 13.85640646055101577 ) ) ;
#369 = FACE_OUTER_BOUND ( 'NONE', #152, .T. ) ;
#370 = DIRECTION ( 'NONE',  ( 0.000000000000000000, 1.000000000000000000, 0.000000000000000000 ) ) ;
#371 = VECTOR ( 'NONE', #565, 1000.000000000000000 ) ;
#372 = ADVANCED_FACE ( 'NONE', ( #508 ), #947, .F. ) ;
#373 = DIRECTION ( 'NONE',  ( 0.000000000000000000, 1.000000000000000000, 0.000000000000000000 ) ) ;
#374 = VECTOR ( 'NONE', #133, 1000.000000000000000 ) ;
#375 = CIRCLE ( 'NONE', #121, 1.700000000000000178 ) ;
#376 = DIRECTION ( 'NONE',  ( 0.000000000000000000, 1.000000000000000000, 0.000000000000000000 ) ) ;
#377 = EDGE_LOOP ( 'NONE', ( #771, #318, #846, #766 ) ) ;
#378 = VERTEX_POINT ( 'NONE', #564 ) ;
#379 = DIRECTION ( 'NONE',  ( 0.000000000000000000, 0.000000000000000000, 1.000000000000000000 ) ) ;
#380 = ORIENTED_EDGE ( 'NONE', *, *, #743, .F. ) ;
#381 = VERTEX_POINT ( 'NONE', #210 ) ;
#382 = CARTESIAN_POINT ( 'NONE',  ( -24.00000000000000000, -22.00000000000000000, -180.0000000000000000 ) ) ;
#383 = EDGE_CURVE ( 'NONE', #183, #30, #194, .T. ) ;
#384 = VECTOR ( 'NONE', #333, 1000.000000000000000 ) ;
#385 = CIRCLE ( 'NONE', #180, 1.700000000000000178 ) ;
#386 = CIRCLE ( 'NONE', #811, 1.700000000000000178 ) ;
#387 = ORIENTED_EDGE ( 'NONE', *, *, #251, .F. ) ;
#388 = AXIS2_PLACEMENT_3D ( 'NONE', #915, #376, #151 ) ;
#389 = DIRECTION ( 'NONE',  ( 0.000000000000000000, 0.000000000000000000, -1.000000000000000000 ) ) ;
#390 = EDGE_LOOP ( 'NONE', ( #418, #907 ) ) ;
#391 = CARTESIAN_POINT ( 'NONE',  ( -7.999999999999996447, 31.50000000000000000, -12.15640646055101826 ) ) ;
#392 = ORIENTED_EDGE ( 'NONE', *, *, #486, .F. ) ;
#393 = ORIENTED_EDGE ( 'NONE', *, *, #51, .T. ) ;
#394 = LINE ( 'NONE', #702, #384 ) ;
#395 = ORIENTED_EDGE ( 'NONE', *, *, #550, .F. ) ;
#396 = EDGE_CURVE ( 'NONE', #572, #911, #790, .T. ) ;
#397 = UNCERTAINTY_MEASURE_WITH_UNIT (LENGTH_MEASURE( 1.000000000000000082E-05 ), #184, 'distance_accuracy_value', 'NONE');
#398 = EDGE_LOOP ( 'NONE', ( #237, #325, #757, #924 ) ) ;
#399 = EDGE_LOOP ( 'NONE', ( #693, #317 ) ) ;
#400 = ORIENTED_EDGE ( 'NONE', *, *, #420, .F. ) ;
#401 = DIRECTION ( 'NONE',  ( 0.000000000000000000, 1.000000000000000000, 0.000000000000000000 ) ) ;
#402 = EDGE_CURVE ( 'NONE', #106, #684, #493, .T. ) ;
#403 = VECTOR ( 'NONE', #127, 1000.000000000000000 ) ;
#404 = VECTOR ( 'NONE', #189, 1000.000000000000000 ) ;
#405 = ORIENTED_EDGE ( 'NONE', *, *, #3, .T. ) ;
#406 = LOCAL_TIME ( 11, 10, 6.000000000000000000, #792 ) ;
#407 = CARTESIAN_POINT ( 'NONE',  ( -8.000000000000007105, 31.50000000000000000, 15.55640646055101506 ) ) ;
#408 = ORIENTED_EDGE ( 'NONE', *, *, #899, .F. ) ;
#409 = CARTESIAN_POINT ( 'NONE',  ( -16.00000000000000000, 25.50000000000000000, 1.699999999999998179 ) ) ;
#410 = EDGE_CURVE ( 'NONE', #84, #572, #360, .T. ) ;
#411 = ORIENTED_EDGE ( 'NONE', *, *, #396, .T. ) ;
#412 = CARTESIAN_POINT ( 'NONE',  ( 24.00000000000000000, 31.50000000000000000, 28.00000000000000000 ) ) ;
#413 = VERTEX_POINT ( 'NONE', #961 ) ;
#414 = CARTESIAN_POINT ( 'NONE',  ( 16.00000000000000000, 31.50000000000000000, 1.700000000000000178 ) ) ;
#415 = CARTESIAN_POINT ( 'NONE',  ( 8.000000000000001776, 25.50000000000000000, 15.55640646055101683 ) ) ;
#416 = ORIENTED_EDGE ( 'NONE', *, *, #866, .T. ) ;
#417 = DIRECTION ( 'NONE',  ( -0.000000000000000000, -1.000000000000000000, -0.000000000000000000 ) ) ;
#418 = ORIENTED_EDGE ( 'NONE', *, *, #774, .T. ) ;
#419 = CARTESIAN_POINT ( 'NONE',  ( 0.000000000000000000, 27.69999999999999929, 0.000000000000000000 ) ) ;
#420 = EDGE_CURVE ( 'NONE', #447, #266, #385, .T. ) ;
#421 = CIRCLE ( 'NONE', #295, 1.700000000000000178 ) ;
#422 = VECTOR ( 'NONE', #126, 1000.000000000000000 ) ;
#423 = CARTESIAN_POINT ( 'NONE',  ( 0.000000000000000000, 27.69999999999999929, 0.000000000000000000 ) ) ;
#424 = ORIENTED_EDGE ( 'NONE', *, *, #761, .F. ) ;
#425 = COORDINATED_UNIVERSAL_TIME_OFFSET ( 5, 30, .AHEAD. ) ;
#426 = ADVANCED_FACE ( 'NONE', ( #137, #648 ), #438, .F. ) ;
#427 = DIRECTION ( 'NONE',  ( 0.000000000000000000, 0.000000000000000000, 1.000000000000000000 ) ) ;
#428 = LINE ( 'NONE', #355, #101 ) ;
#429 = APPROVAL_DATE_TIME ( #491, #665 ) ;
#430 = EDGE_CURVE ( 'NONE', #695, #914, #199, .T. ) ;
#431 = LINE ( 'NONE', #722, #7 ) ;
#432 = EDGE_CURVE ( 'NONE', #545, #332, #858, .T. ) ;
#433 = DIRECTION ( 'NONE',  ( 1.000000000000000000, 0.000000000000000000, 0.000000000000000000 ) ) ;
#434 = DIRECTION ( 'NONE',  ( 1.000000000000000000, 0.000000000000000000, 0.000000000000000000 ) ) ;
#435 = CALENDAR_DATE ( 2026, 24, 9 ) ;
#436 = CARTESIAN_POINT ( 'NONE',  ( -7.999999999999996447, 25.50000000000000000, -15.55640646055101861 ) ) ;
#437 = AXIS2_PLACEMENT_3D ( 'NONE', #629, #936, #337 ) ;
#438 = PLANE ( 'NONE',  #243 ) ;
#439 = ORIENTED_EDGE ( 'NONE', *, *, #311, .T. ) ;
#440 = AXIS2_PLACEMENT_3D ( 'NONE', #952, #273, #62 ) ;
#441 = AXIS2_PLACEMENT_3D ( 'NONE', #218, #823, #302 ) ;
#442 = DIRECTION ( 'NONE',  ( 0.000000000000000000, 0.000000000000000000, -1.000000000000000000 ) ) ;
#443 = CARTESIAN_POINT ( 'NONE',  ( -7.999999999999996447, 25.50000000000000000, -13.85640646055101932 ) ) ;
#444 = APPROVAL_ROLE ( '' ) ;
#445 = FACE_OUTER_BOUND ( 'NONE', #398, .T. ) ;
#446 = EDGE_CURVE ( 'NONE', #607, #21, #510, .T. ) ;
#447 = VERTEX_POINT ( 'NONE', #603 ) ;
#448 = DIRECTION ( 'NONE',  ( -0.000000000000000000, -1.000000000000000000, -0.000000000000000000 ) ) ;
#449 = PLANE ( 'NONE',  #212 ) ;
#450 = VECTOR ( 'NONE', #97, 1000.000000000000000 ) ;
#451 = DIRECTION ( 'NONE',  ( 0.000000000000000000, 0.000000000000000000, 1.000000000000000000 ) ) ;
#452 = DIRECTION ( 'NONE',  ( 0.000000000000000000, 1.000000000000000000, 0.000000000000000000 ) ) ;
#453 = EDGE_CURVE ( 'NONE', #704, #183, #458, .T. ) ;
#454 = EDGE_LOOP ( 'NONE', ( #585, #783 ) ) ;
#455 = ORIENTED_EDGE ( 'NONE', *, *, #114, .F. ) ;
#456 = CARTESIAN_POINT ( 'NONE',  ( 8.000000000000001776, 31.50000000000000000, 15.55640646055101683 ) ) ;
#457 = ADVANCED_FACE ( 'NONE', ( #818 ), #902, .F. ) ;
#458 = LINE ( 'NONE', #297, #758 ) ;
#459 = ORIENTED_EDGE ( 'NONE', *, *, #362, .T. ) ;
#460 = FACE_OUTER_BOUND ( 'NONE', #307, .T. ) ;
#461 = FACE_BOUND ( 'NONE', #64, .T. ) ;
#462 = ORIENTED_EDGE ( 'NONE', *, *, #899, .T. ) ;
#463 = ORIENTED_EDGE ( 'NONE', *, *, #864, .T. ) ;
#464 = DIRECTION ( 'NONE',  ( 1.000000000000000000, 0.000000000000000000, 0.000000000000000000 ) ) ;
#465 = AXIS2_PLACEMENT_3D ( 'NONE', #884, #60, #288 ) ;
#466 = AXIS2_PLACEMENT_3D ( 'NONE', #368, #874, #197 ) ;
#467 = EDGE_LOOP ( 'NONE', ( #87, #17, #459, #411, #591, #688 ) ) ;
#468 = ORIENTED_EDGE ( 'NONE', *, *, #358, .F. ) ;
#469 = DIRECTION ( 'NONE',  ( 0.000000000000000000, -1.000000000000000000, 0.000000000000000000 ) ) ;
#470 = ORIENTED_EDGE ( 'NONE', *, *, #75, .T. ) ;
#471 = CARTESIAN_POINT ( 'NONE',  ( 1.487945860964034377E-15, 25.50000000000000000, 12.15000000000000036 ) ) ;
#472 = EDGE_LOOP ( 'NONE', ( #5, #826 ) ) ;
#473 = EDGE_LOOP ( 'NONE', ( #611, #284, #95, #847 ) ) ;
#474 = CARTESIAN_POINT ( 'NONE',  ( 0.000000000000000000, 27.69999999999999929, -12.15000000000000036 ) ) ;
#475 = EDGE_LOOP ( 'NONE', ( #82, #787 ) ) ;
#476 = ORIENTED_EDGE ( 'NONE', *, *, #906, .T. ) ;
#477 = CC_DESIGN_PERSON_AND_ORGANIZATION_ASSIGNMENT ( #330, #625, ( #22 ) ) ;
#478 = CARTESIAN_POINT ( 'NONE',  ( 0.000000000000000000, 31.50000000000000000, 0.000000000000000000 ) ) ;
#479 = ORIENTED_EDGE ( 'NONE', *, *, #700, .F. ) ;
#480 = CARTESIAN_POINT ( 'NONE',  ( 16.00000000000000000, 31.50000000000000000, 0.000000000000000000 ) ) ;
#481 = CIRCLE ( 'NONE', #324, 1.700000000000000178 ) ;
#482 = VERTEX_POINT ( 'NONE', #8 ) ;
#483 = PLANE ( 'NONE',  #223 ) ;
#484 = ORIENTED_EDGE ( 'NONE', *, *, #193, .F. ) ;
#485 = CARTESIAN_POINT ( 'NONE',  ( 16.00000000000000000, 25.50000000000000000, 1.700000000000000178 ) ) ;
#486 = EDGE_CURVE ( 'NONE', #266, #447, #923, .T. ) ;
#487 = ORIENTED_EDGE ( 'NONE', *, *, #946, .T. ) ;
#488 = LINE ( 'NONE', #267, #682 ) ;
#489 = CARTESIAN_POINT ( 'NONE',  ( -8.000000000000007105, 25.50000000000000000, 15.55640646055101506 ) ) ;
#490 = ORIENTED_EDGE ( 'NONE', *, *, #358, .T. ) ;
#491 = DATE_AND_TIME ( #124, #73 ) ;
#492 = CIRCLE ( 'NONE', #894, 1.700000000000000178 ) ;
#493 = LINE ( 'NONE', #659, #598 ) ;
#494 = VECTOR ( 'NONE', #744, 1000.000000000000000 ) ;
#495 = DIRECTION ( 'NONE',  ( 0.000000000000000000, -1.000000000000000000, 0.000000000000000000 ) ) ;
#496 = AXIS2_PLACEMENT_3D ( 'NONE', #113, #335, #848 ) ;
#497 = CYLINDRICAL_SURFACE ( 'NONE', #119, 1.700000000000000178 ) ;
#498 = EDGE_CURVE ( 'NONE', #153, #106, #492, .T. ) ;
#499 = CARTESIAN_POINT ( 'NONE',  ( 16.00000000000000000, 31.50000000000000000, -1.700000000000000178 ) ) ;
#500 = CARTESIAN_POINT ( 'NONE',  ( -24.00000000000000000, 25.50000000000000000, -180.0000000000000000 ) ) ;
#501 = ADVANCED_FACE ( 'NONE', ( #220, #313, #461, #916, #349, #939, #177, #859 ), #643, .F. ) ;
#502 = CARTESIAN_POINT ( 'NONE',  ( 8.000000000000001776, 25.50000000000000000, 12.15640646055101648 ) ) ;
#503 = DIRECTION ( 'NONE',  ( 0.000000000000000000, 1.000000000000000000, 0.000000000000000000 ) ) ;
#504 = DIRECTION ( 'NONE',  ( -0.000000000000000000, -1.000000000000000000, -0.000000000000000000 ) ) ;
#505 = COORDINATED_UNIVERSAL_TIME_OFFSET ( 5, 30, .AHEAD. ) ;
#506 = CARTESIAN_POINT ( 'NONE',  ( -16.00000000000000000, 31.50000000000000000, -1.959434878635765131E-15 ) ) ;
#507 = AXIS2_PLACEMENT_3D ( 'NONE', #230, #527, #142 ) ;
#508 = FACE_OUTER_BOUND ( 'NONE', #676, .T. ) ;
#509 = VERTEX_POINT ( 'NONE', #415 ) ;
#510 = CIRCLE ( 'NONE', #465, 3.000000000000000000 ) ;
#511 = CARTESIAN_POINT ( 'NONE',  ( 24.00000000000000000, -22.00000000000000000, -180.0000000000000000 ) ) ;
#512 = ADVANCED_BREP_SHAPE_REPRESENTATION ( 'JX1_Forearm_L', ( #819, #496 ), #245 ) ;
#513 = EDGE_CURVE ( 'NONE', #186, #150, #268, .T. ) ;
#514 = CARTESIAN_POINT ( 'NONE',  ( 0.000000000000000000, 31.50000000000000000, 0.000000000000000000 ) ) ;
#515 = DIRECTION ( 'NONE',  ( 0.000000000000000000, 0.000000000000000000, -1.000000000000000000 ) ) ;
#516 = DIRECTION ( 'NONE',  ( 0.000000000000000000, 0.000000000000000000, -1.000000000000000000 ) ) ;
#517 = DIRECTION ( 'NONE',  ( 0.000000000000000000, 0.000000000000000000, 1.000000000000000000 ) ) ;
#518 = FACE_OUTER_BOUND ( 'NONE', #112, .T. ) ;
#519 = AXIS2_PLACEMENT_3D ( 'NONE', #478, #417, #930 ) ;
#520 = EDGE_LOOP ( 'NONE', ( #832, #226, #155, #561 ) ) ;
#521 = AXIS2_PLACEMENT_3D ( 'NONE', #260, #552, #249 ) ;
#522 = ORIENTED_EDGE ( 'NONE', *, *, #804, .F. ) ;
#523 = LINE ( 'NONE', #456, #621 ) ;
#524 = AXIS2_PLACEMENT_3D ( 'NONE', #143, #353, #208 ) ;
#525 = AXIS2_PLACEMENT_3D ( 'NONE', #419, #401, #932 ) ;
#526 = EDGE_CURVE ( 'NONE', #674, #839, #105, .T. ) ;
#527 = DIRECTION ( 'NONE',  ( 0.000000000000000000, 0.000000000000000000, -1.000000000000000000 ) ) ;
#528 = ORIENTED_EDGE ( 'NONE', *, *, #753, .T. ) ;
#529 = LINE ( 'NONE', #831, #639 ) ;
#530 = EDGE_LOOP ( 'NONE', ( #263, #1, #312, #98 ) ) ;
#531 = FACE_OUTER_BOUND ( 'NONE', #361, .T. ) ;
#532 = ORIENTED_EDGE ( 'NONE', *, *, #670, .F. ) ;
#533 = FACE_OUTER_BOUND ( 'NONE', #351, .T. ) ;
#534 = VERTEX_POINT ( 'NONE', #794 ) ;
#535 = ORIENTED_EDGE ( 'NONE', *, *, #66, .F. ) ;
#536 = ORIENTED_EDGE ( 'NONE', *, *, #866, .F. ) ;
#537 = CARTESIAN_POINT ( 'NONE',  ( -16.00000000000000000, 31.50000000000000000, 1.699999999999998179 ) ) ;
#538 = CARTESIAN_POINT ( 'NONE',  ( -16.00000000000000000, 31.50000000000000000, -1.700000000000002176 ) ) ;
#539 = AXIS2_PLACEMENT_3D ( 'NONE', #885, #504, #61 ) ;
#540 = ORIENTED_EDGE ( 'NONE', *, *, #717, .F. ) ;
#541 = AXIS2_PLACEMENT_3D ( 'NONE', #480, #562, #767 ) ;
#542 = ORIENTED_EDGE ( 'NONE', *, *, #672, .T. ) ;
#543 = ORIENTED_EDGE ( 'NONE', *, *, #974, .F. ) ;
#544 = FACE_BOUND ( 'NONE', #935, .T. ) ;
#545 = VERTEX_POINT ( 'NONE', #409 ) ;
#546 = DIRECTION ( 'NONE',  ( -0.000000000000000000, -1.000000000000000000, -0.000000000000000000 ) ) ;
#547 = EDGE_LOOP ( 'NONE', ( #490, #259 ) ) ;
#548 = DIRECTION ( 'NONE',  ( 0.000000000000000000, 1.000000000000000000, 0.000000000000000000 ) ) ;
#549 = EDGE_LOOP ( 'NONE', ( #948, #628, #773, #395 ) ) ;
#550 = EDGE_CURVE ( 'NONE', #509, #630, #41, .T. ) ;
#551 = CARTESIAN_POINT ( 'NONE',  ( -3.000000000000000000, 0.000000000000000000, -180.0000000000000000 ) ) ;
#552 = DIRECTION ( 'NONE',  ( 0.000000000000000000, -1.000000000000000000, 0.000000000000000000 ) ) ;
#553 = AXIS2_PLACEMENT_3D ( 'NONE', #870, #275, #797 ) ;
#554 = VECTOR ( 'NONE', #719, 1000.000000000000000 ) ;
#555 = CIRCLE ( 'NONE', #72, 12.15000000000000036 ) ;
#556 = ADVANCED_FACE ( 'NONE', ( #706, #340, #544, #188, #626, #945, #29, #33 ), #46, .T. ) ;
#557 = CC_DESIGN_SECURITY_CLASSIFICATION ( #363, ( #571 ) ) ;
#558 = ORIENTED_EDGE ( 'NONE', *, *, #597, .T. ) ;
#559 = CARTESIAN_POINT ( 'NONE',  ( 0.000000000000000000, 25.50000000000000000, 0.000000000000000000 ) ) ;
#560 = DIRECTION ( 'NONE',  ( -0.000000000000000000, -1.000000000000000000, -0.000000000000000000 ) ) ;
#561 = ORIENTED_EDGE ( 'NONE', *, *, #663, .T. ) ;
#562 = DIRECTION ( 'NONE',  ( -0.000000000000000000, -1.000000000000000000, -0.000000000000000000 ) ) ;
#563 = DIRECTION ( 'NONE',  ( 1.000000000000000000, 0.000000000000000000, 0.000000000000000000 ) ) ;
#564 = CARTESIAN_POINT ( 'NONE',  ( -8.000000000000007105, 25.50000000000000000, 12.15640646055101470 ) ) ;
#565 = DIRECTION ( 'NONE',  ( -0.000000000000000000, -1.000000000000000000, -0.000000000000000000 ) ) ;
#566 = DIRECTION ( 'NONE',  ( 0.000000000000000000, 0.000000000000000000, 1.000000000000000000 ) ) ;
#567 = VECTOR ( 'NONE', #817, 1000.000000000000000 ) ;
#568 = ADVANCED_FACE ( 'NONE', ( #336 ), #264, .F. ) ;
#569 = AXIS2_PLACEMENT_3D ( 'NONE', #559, #781, #699 ) ;
#570 = DIRECTION ( 'NONE',  ( 0.000000000000000000, -0.000000000000000000, 1.000000000000000000 ) ) ;
#571 = PRODUCT_DEFINITION_FORMATION_WITH_SPECIFIED_SOURCE ( 'ANY', '', #22, .NOT_KNOWN. ) ;
#572 = VERTEX_POINT ( 'NONE', #849 ) ;
#573 = COORDINATED_UNIVERSAL_TIME_OFFSET ( 5, 30, .AHEAD. ) ;
#574 = CARTESIAN_POINT ( 'NONE',  ( 8.000000000000001776, 31.50000000000000000, 12.15640646055101648 ) ) ;
#575 = PRODUCT_RELATED_PRODUCT_CATEGORY ( 'detail', '', ( #22 ) ) ;
#576 = DIRECTION ( 'NONE',  ( 0.000000000000000000, 0.000000000000000000, 1.000000000000000000 ) ) ;
#577 = DIRECTION ( 'NONE',  ( 0.000000000000000000, 1.000000000000000000, 0.000000000000000000 ) ) ;
#578 = CYLINDRICAL_SURFACE ( 'NONE', #653, 1.700000000000000178 ) ;
#579 = DIRECTION ( 'NONE',  ( 0.000000000000000000, 1.000000000000000000, 0.000000000000000000 ) ) ;
#580 = DIRECTION ( 'NONE',  ( 0.000000000000000000, 0.000000000000000000, 1.000000000000000000 ) ) ;
#581 = EDGE_CURVE ( 'NONE', #190, #674, #277, .T. ) ;
#582 = DIRECTION ( 'NONE',  ( -0.000000000000000000, -1.000000000000000000, -0.000000000000000000 ) ) ;
#583 = EDGE_CURVE ( 'NONE', #696, #186, #968, .T. ) ;
#584 = AXIS2_PLACEMENT_3D ( 'NONE', #602, #901, #389 ) ;
#585 = ORIENTED_EDGE ( 'NONE', *, *, #672, .F. ) ;
#586 = APPROVAL_ROLE ( '' ) ;
#587 = ORIENTED_EDGE ( 'NONE', *, *, #967, .F. ) ;
#588 = CYLINDRICAL_SURFACE ( 'NONE', #713, 1.700000000000000178 ) ;
#589 = APPROVAL ( #963, 'UNSPECIFIED' ) ;
#590 = DIRECTION ( 'NONE',  ( 0.000000000000000000, 0.000000000000000000, 1.000000000000000000 ) ) ;
#591 = ORIENTED_EDGE ( 'NONE', *, *, #300, .F. ) ;
#592 = DIRECTION ( 'NONE',  ( 0.000000000000000000, 0.000000000000000000, 1.000000000000000000 ) ) ;
#593 = CARTESIAN_POINT ( 'NONE',  ( 24.00000000000000000, 25.50000000000000000, 28.00000000000000000 ) ) ;
#594 = DIRECTION ( 'NONE',  ( 0.000000000000000000, 1.000000000000000000, 0.000000000000000000 ) ) ;
#595 = EDGE_CURVE ( 'NONE', #674, #190, #555, .T. ) ;
#596 = ORIENTED_EDGE ( 'NONE', *, *, #670, .T. ) ;
#597 = EDGE_CURVE ( 'NONE', #378, #309, #182, .T. ) ;
#598 = VECTOR ( 'NONE', #130, 1000.000000000000000 ) ;
#599 = FACE_OUTER_BOUND ( 'NONE', #530, .T. ) ;
#600 = APPROVAL_PERSON_ORGANIZATION ( #187, #665, #799 ) ;
#601 = ORIENTED_EDGE ( 'NONE', *, *, #732, .F. ) ;
#602 = CARTESIAN_POINT ( 'NONE',  ( -16.00000000000000000, 31.50000000000000000, -1.959434878635765131E-15 ) ) ;
#603 = CARTESIAN_POINT ( 'NONE',  ( -8.000000000000007105, 31.50000000000000000, 12.15640646055101470 ) ) ;
#604 = ORIENTED_EDGE ( 'NONE', *, *, #526, .F. ) ;
#605 = CARTESIAN_POINT ( 'NONE',  ( -7.999999999999996447, 31.50000000000000000, -13.85640646055101932 ) ) ;
#606 = ORIENTED_EDGE ( 'NONE', *, *, #282, .T. ) ;
#607 = VERTEX_POINT ( 'NONE', #805 ) ;
#608 = LINE ( 'NONE', #777, #756 ) ;
#609 = CARTESIAN_POINT ( 'NONE',  ( 8.000000000000001776, 31.50000000000000000, 15.55640646055101683 ) ) ;
#610 = ADVANCED_FACE ( 'NONE', ( #898 ), #296, .F. ) ;
#611 = ORIENTED_EDGE ( 'NONE', *, *, #453, .T. ) ;
#612 = ORIENTED_EDGE ( 'NONE', *, *, #328, .T. ) ;
#613 = APPLICATION_CONTEXT ( 'configuration controlled 3d designs of mechanical parts and assemblies' ) ;
#614 = CARTESIAN_POINT ( 'NONE',  ( 3.000000000000000000, 3.673940397442059868E-16, -180.0000000000000000 ) ) ;
#615 = ORIENTED_EDGE ( 'NONE', *, *, #254, .T. ) ;
#616 = CIRCLE ( 'NONE', #179, 1.700000000000000178 ) ;
#617 = CARTESIAN_POINT ( 'NONE',  ( 0.000000000000000000, 27.69999999999999929, -4.000000000000000000 ) ) ;
#618 = CIRCLE ( 'NONE', #742, 1.700000000000000178 ) ;
#619 = CIRCLE ( 'NONE', #760, 1.700000000000000178 ) ;
#620 = EDGE_LOOP ( 'NONE', ( #775, #103, #393, #109 ) ) ;
#621 = VECTOR ( 'NONE', #77, 1000.000000000000000 ) ;
#622 = EDGE_LOOP ( 'NONE', ( #247, #879, #487, #9 ) ) ;
#623 = DIRECTION ( 'NONE',  ( -0.000000000000000000, 0.000000000000000000, 1.000000000000000000 ) ) ;
#624 = ORIENTED_EDGE ( 'NONE', *, *, #743, .T. ) ;
#625 = PERSON_AND_ORGANIZATION_ROLE ( 'design_owner' ) ;
#626 = FACE_BOUND ( 'NONE', #399, .T. ) ;
#627 = EDGE_LOOP ( 'NONE', ( #536, #606, #689, #161 ) ) ;
#628 = ORIENTED_EDGE ( 'NONE', *, *, #346, .T. ) ;
#629 = CARTESIAN_POINT ( 'NONE',  ( 0.000000000000000000, 31.50000000000000000, 0.000000000000000000 ) ) ;
#630 = VERTEX_POINT ( 'NONE', #502 ) ;
#631 = DIRECTION ( 'NONE',  ( 0.000000000000000000, 0.000000000000000000, 1.000000000000000000 ) ) ;
#632 = ADVANCED_FACE ( 'NONE', ( #286 ), #497, .F. ) ;
#633 = ORIENTED_EDGE ( 'NONE', *, *, #20, .F. ) ;
#634 = CYLINDRICAL_SURFACE ( 'NONE', #519, 4.000000000000000000 ) ;
#635 = VERTEX_POINT ( 'NONE', #574 ) ;
#636 = CARTESIAN_POINT ( 'NONE',  ( -24.00000000000000000, 31.50000000000000000, -180.0000000000000000 ) ) ;
#637 = CARTESIAN_POINT ( 'NONE',  ( -24.00000000000000000, 25.50000000000000000, 28.00000000000000000 ) ) ;
#638 = AXIS2_PLACEMENT_3D ( 'NONE', #913, #156, #590 ) ;
#639 = VECTOR ( 'NONE', #154, 1000.000000000000000 ) ;
#640 = DIRECTION ( 'NONE',  ( -0.000000000000000000, -0.000000000000000000, -1.000000000000000000 ) ) ;
#641 = EDGE_LOOP ( 'NONE', ( #710, #750, #814, #16 ) ) ;
#642 = DIRECTION ( 'NONE',  ( 0.000000000000000000, 0.000000000000000000, 1.000000000000000000 ) ) ;
#643 = PLANE ( 'NONE',  #569 ) ;
#644 = LINE ( 'NONE', #270, #71 ) ;
#645 = DIRECTION ( 'NONE',  ( 1.000000000000000000, 0.000000000000000000, 0.000000000000000000 ) ) ;
#646 = APPROVAL_DATE_TIME ( #290, #748 ) ;
#647 = CARTESIAN_POINT ( 'NONE',  ( 0.000000000000000000, 27.69999999999999929, 0.000000000000000000 ) ) ;
#648 = FACE_OUTER_BOUND ( 'NONE', #89, .T. ) ;
#649 = CARTESIAN_POINT ( 'NONE',  ( -24.00000000000000000, 25.50000000000000000, -180.0000000000000000 ) ) ;
#650 = DIRECTION ( 'NONE',  ( -0.000000000000000000, -1.000000000000000000, -0.000000000000000000 ) ) ;
#651 = CIRCLE ( 'NONE', #146, 1.700000000000000178 ) ;
#652 = VECTOR ( 'NONE', #563, 1000.000000000000000 ) ;
#653 = AXIS2_PLACEMENT_3D ( 'NONE', #666, #650, #657 ) ;
#654 = DIRECTION ( 'NONE',  ( 0.000000000000000000, 1.000000000000000000, 0.000000000000000000 ) ) ;
#655 = LOCAL_TIME ( 11, 10, 6.000000000000000000, #425 ) ;
#656 = CARTESIAN_POINT ( 'NONE',  ( 0.000000000000000000, 27.69999999999999929, 0.000000000000000000 ) ) ;
#657 = DIRECTION ( 'NONE',  ( 0.000000000000000000, 0.000000000000000000, -1.000000000000000000 ) ) ;
#658 = ADVANCED_FACE ( 'NONE', ( #957 ), #578, .F. ) ;
#659 = CARTESIAN_POINT ( 'NONE',  ( -7.999999999999996447, 31.50000000000000000, -15.55640646055101861 ) ) ;
#660 = LINE ( 'NONE', #649, #403 ) ;
#661 = PERSON_AND_ORGANIZATION ( #882, #876 ) ;
#662 = DIRECTION ( 'NONE',  ( -0.000000000000000000, -1.000000000000000000, -0.000000000000000000 ) ) ;
#663 = EDGE_CURVE ( 'NONE', #856, #84, #50, .T. ) ;
#664 = CARTESIAN_POINT ( 'NONE',  ( -7.999999999999996447, 31.50000000000000000, -15.55640646055101861 ) ) ;
#665 = APPROVAL ( #367, 'UNSPECIFIED' ) ;
#666 = CARTESIAN_POINT ( 'NONE',  ( 8.000000000000001776, 31.50000000000000000, 13.85640646055101755 ) ) ;
#667 = CIRCLE ( 'NONE', #922, 12.15000000000000036 ) ;
#668 = VECTOR ( 'NONE', #842, 1000.000000000000000 ) ;
#669 = CARTESIAN_POINT ( 'NONE',  ( 8.000000000000001776, 25.50000000000000000, -13.85640646055101755 ) ) ;
#670 = EDGE_CURVE ( 'NONE', #244, #914, #619, .T. ) ;
#671 = LINE ( 'NONE', #299, #494 ) ;
#672 = EDGE_CURVE ( 'NONE', #701, #38, #344, .T. ) ;
#673 = LINE ( 'NONE', #741, #838 ) ;
#674 = VERTEX_POINT ( 'NONE', #888 ) ;
#675 = DIRECTION ( 'NONE',  ( 1.000000000000000000, 0.000000000000000000, 0.000000000000000000 ) ) ;
#676 = EDGE_LOOP ( 'NONE', ( #408, #123, #763, #532 ) ) ;
#677 = ADVANCED_FACE ( 'NONE', ( #213 ), #588, .F. ) ;
#678 = AXIS2_PLACEMENT_3D ( 'NONE', #731, #577, #116 ) ;
#679 = EDGE_LOOP ( 'NONE', ( #345, #405 ) ) ;
#680 = CYLINDRICAL_SURFACE ( 'NONE', #441, 3.000000000000000000 ) ;
#681 = CIRCLE ( 'NONE', #262, 1.700000000000000178 ) ;
#682 = VECTOR ( 'NONE', #868, 1000.000000000000000 ) ;
#683 = ORIENTED_EDGE ( 'NONE', *, *, #402, .F. ) ;
#684 = VERTEX_POINT ( 'NONE', #436 ) ;
#685 = CARTESIAN_POINT ( 'NONE',  ( -7.999999999999996447, 31.50000000000000000, -13.85640646055101932 ) ) ;
#686 = ORIENTED_EDGE ( 'NONE', *, *, #236, .F. ) ;
#687 = CARTESIAN_POINT ( 'NONE',  ( -8.000000000000007105, 31.50000000000000000, 13.85640646055101577 ) ) ;
#688 = ORIENTED_EDGE ( 'NONE', *, *, #147, .T. ) ;
#689 = ORIENTED_EDGE ( 'NONE', *, *, #694, .T. ) ;
#690 = CARTESIAN_POINT ( 'NONE',  ( 24.00000000000000000, 31.50000000000000000, -186.0000000000000000 ) ) ;
#691 = EDGE_LOOP ( 'NONE', ( #227, #221, #738, #615 ) ) ;
#692 = ADVANCED_FACE ( 'NONE', ( #445 ), #726, .F. ) ;
#693 = ORIENTED_EDGE ( 'NONE', *, *, #129, .F. ) ;
#694 = EDGE_CURVE ( 'NONE', #701, #954, #800, .T. ) ;
#695 = VERTEX_POINT ( 'NONE', #291 ) ;
#696 = VERTEX_POINT ( 'NONE', #820 ) ;
#697 = CIRCLE ( 'NONE', #956, 1.700000000000000178 ) ;
#698 = AXIS2_PLACEMENT_3D ( 'NONE', #863, #331, #789 ) ;
#699 = DIRECTION ( 'NONE',  ( 0.000000000000000000, -0.000000000000000000, 1.000000000000000000 ) ) ;
#700 = EDGE_CURVE ( 'NONE', #830, #240, #431, .T. ) ;
#701 = VERTEX_POINT ( 'NONE', #281 ) ;
#702 = CARTESIAN_POINT ( 'NONE',  ( -24.00000000000000000, 31.50000000000000000, 28.00000000000000000 ) ) ;
#703 = EDGE_CURVE ( 'NONE', #266, #309, #892, .T. ) ;
#704 = VERTEX_POINT ( 'NONE', #511 ) ;
#705 = DIRECTION ( 'NONE',  ( -0.000000000000000000, -0.000000000000000000, -1.000000000000000000 ) ) ;
#706 = FACE_BOUND ( 'NONE', #93, .T. ) ;
#707 = EDGE_LOOP ( 'NONE', ( #439, #96 ) ) ;
#708 = DIRECTION ( 'NONE',  ( 0.000000000000000000, 1.000000000000000000, 0.000000000000000000 ) ) ;
#709 = DIRECTION ( 'NONE',  ( -0.000000000000000000, -1.000000000000000000, -0.000000000000000000 ) ) ;
#710 = ORIENTED_EDGE ( 'NONE', *, *, #90, .T. ) ;
#711 = FACE_OUTER_BOUND ( 'NONE', #641, .T. ) ;
#712 = CIRCLE ( 'NONE', #342, 1.700000000000000178 ) ;
#713 = AXIS2_PLACEMENT_3D ( 'NONE', #216, #128, #515 ) ;
#714 = AXIS2_PLACEMENT_3D ( 'NONE', #248, #110, #19 ) ;
#715 = DIRECTION ( 'NONE',  ( 0.000000000000000000, 1.000000000000000000, 0.000000000000000000 ) ) ;
#716 = DIRECTION ( 'NONE',  ( 0.000000000000000000, 0.000000000000000000, 1.000000000000000000 ) ) ;
#717 = EDGE_CURVE ( 'NONE', #381, #84, #816, .T. ) ;
#718 = DIRECTION ( 'NONE',  ( 0.000000000000000000, 0.000000000000000000, 1.000000000000000000 ) ) ;
#719 = DIRECTION ( 'NONE',  ( 0.000000000000000000, 1.000000000000000000, 0.000000000000000000 ) ) ;
#720 = CARTESIAN_POINT ( 'NONE',  ( 0.000000000000000000, 27.69999999999999929, 0.000000000000000000 ) ) ;
#721 = SHAPE_DEFINITION_REPRESENTATION ( #850, #512 ) ;
#722 = CARTESIAN_POINT ( 'NONE',  ( 8.000000000000001776, 31.50000000000000000, -15.55640646055101683 ) ) ;
#723 = CARTESIAN_POINT ( 'NONE',  ( -16.00000000000000000, 25.50000000000000000, -1.959434878635765131E-15 ) ) ;
#724 = DIRECTION ( 'NONE',  ( 0.000000000000000000, 0.000000000000000000, -1.000000000000000000 ) ) ;
#725 = PERSON_AND_ORGANIZATION ( #882, #876 ) ;
#726 = CYLINDRICAL_SURFACE ( 'NONE', #466, 1.700000000000000178 ) ;
#727 = EDGE_CURVE ( 'NONE', #332, #545, #681, .T. ) ;
#728 = AXIS2_PLACEMENT_3D ( 'NONE', #443, #292, #6 ) ;
#729 = DIRECTION ( 'NONE',  ( 0.000000000000000000, 0.000000000000000000, 1.000000000000000000 ) ) ;
#730 = CC_DESIGN_APPROVAL ( #748, ( #363 ) ) ;
#731 = CARTESIAN_POINT ( 'NONE',  ( 16.00000000000000000, 31.50000000000000000, 0.000000000000000000 ) ) ;
#732 = EDGE_CURVE ( 'NONE', #835, #482, #386, .T. ) ;
#733 = DIRECTION ( 'NONE',  ( 0.000000000000000000, 1.000000000000000000, 0.000000000000000000 ) ) ;
#734 = CARTESIAN_POINT ( 'NONE',  ( -3.000000000000000000, 0.000000000000000000, -186.0000000000000000 ) ) ;
#735 = EDGE_LOOP ( 'NONE', ( #256, #463, #522, #35 ) ) ;
#736 = DIRECTION ( 'NONE',  ( 0.000000000000000000, 0.000000000000000000, 1.000000000000000000 ) ) ;
#737 = DIRECTION ( 'NONE',  ( -0.000000000000000000, -1.000000000000000000, -0.000000000000000000 ) ) ;
#738 = ORIENTED_EDGE ( 'NONE', *, *, #300, .T. ) ;
#739 = DIRECTION ( 'NONE',  ( -0.000000000000000000, -1.000000000000000000, -0.000000000000000000 ) ) ;
#740 = VECTOR ( 'NONE', #24, 1000.000000000000000 ) ;
#741 = CARTESIAN_POINT ( 'NONE',  ( 8.000000000000001776, 31.50000000000000000, 12.15640646055101648 ) ) ;
#742 = AXIS2_PLACEMENT_3D ( 'NONE', #605, #903, #517 ) ;
#743 = EDGE_CURVE ( 'NONE', #76, #830, #944, .T. ) ;
#744 = DIRECTION ( 'NONE',  ( 0.000000000000000000, -1.000000000000000000, 0.000000000000000000 ) ) ;
#745 = DIRECTION ( 'NONE',  ( 1.000000000000000000, 0.000000000000000000, 0.000000000000000000 ) ) ;
#746 = ORIENTED_EDGE ( 'NONE', *, *, #396, .F. ) ;
#747 = DIRECTION ( 'NONE',  ( 0.000000000000000000, 0.000000000000000000, -1.000000000000000000 ) ) ;
#748 = APPROVAL ( #352, 'UNSPECIFIED' ) ;
#749 = ORIENTED_EDGE ( 'NONE', *, *, #498, .T. ) ;
#750 = ORIENTED_EDGE ( 'NONE', *, *, #178, .T. ) ;
#751 = ORIENTED_EDGE ( 'NONE', *, *, #430, .F. ) ;
#752 = DIRECTION ( 'NONE',  ( 0.000000000000000000, 0.000000000000000000, 1.000000000000000000 ) ) ;
#753 = EDGE_CURVE ( 'NONE', #190, #298, #671, .T. ) ;
#754 = ORIENTED_EDGE ( 'NONE', *, *, #201, .F. ) ;
#755 = CYLINDRICAL_SURFACE ( 'NONE', #584, 1.700000000000000178 ) ;
#756 = VECTOR ( 'NONE', #546, 1000.000000000000000 ) ;
#757 = ORIENTED_EDGE ( 'NONE', *, *, #36, .T. ) ;
#758 = VECTOR ( 'NONE', #81, 1000.000000000000000 ) ;
#759 = CARTESIAN_POINT ( 'NONE',  ( -24.00000000000000000, -22.00000000000000000, -180.0000000000000000 ) ) ;
#760 = AXIS2_PLACEMENT_3D ( 'NONE', #65, #733, #566 ) ;
#761 = EDGE_CURVE ( 'NONE', #534, #240, #214, .T. ) ;
#762 = CIRCLE ( 'NONE', #388, 1.700000000000000178 ) ;
#763 = ORIENTED_EDGE ( 'NONE', *, *, #430, .T. ) ;
#764 = ORIENTED_EDGE ( 'NONE', *, *, #727, .T. ) ;
#765 = CARTESIAN_POINT ( 'NONE',  ( -24.00000000000000000, 25.50000000000000000, 28.00000000000000000 ) ) ;
#766 = ORIENTED_EDGE ( 'NONE', *, *, #583, .T. ) ;
#767 = DIRECTION ( 'NONE',  ( 0.000000000000000000, 0.000000000000000000, -1.000000000000000000 ) ) ;
#768 = ORIENTED_EDGE ( 'NONE', *, *, #776, .T. ) ;
#769 = VERTEX_POINT ( 'NONE', #609 ) ;
#770 = APPLICATION_CONTEXT ( 'configuration controlled 3d designs of mechanical parts and assemblies' ) ;
#771 = ORIENTED_EDGE ( 'NONE', *, *, #513, .T. ) ;
#772 = CARTESIAN_POINT ( 'NONE',  ( 0.000000000000000000, 25.50000000000000000, 0.000000000000000000 ) ) ;
#773 = ORIENTED_EDGE ( 'NONE', *, *, #140, .T. ) ;
#774 = EDGE_CURVE ( 'NONE', #21, #607, #796, .T. ) ;
#775 = ORIENTED_EDGE ( 'NONE', *, *, #209, .F. ) ;
#776 = EDGE_CURVE ( 'NONE', #106, #153, #618, .T. ) ;
#777 = CARTESIAN_POINT ( 'NONE',  ( 8.000000000000001776, 31.50000000000000000, -12.15640646055101648 ) ) ;
#778 = ORIENTED_EDGE ( 'NONE', *, *, #550, .T. ) ;
#779 = CARTESIAN_POINT ( 'NONE',  ( 0.000000000000000000, 0.000000000000000000, -180.0000000000000000 ) ) ;
#780 = AXIS2_PLACEMENT_3D ( 'NONE', #506, #739, #960 ) ;
#781 = DIRECTION ( 'NONE',  ( 0.000000000000000000, 1.000000000000000000, 0.000000000000000000 ) ) ;
#782 = APPROVAL_PERSON_ORGANIZATION ( #725, #589, #444 ) ;
#783 = ORIENTED_EDGE ( 'NONE', *, *, #282, .F. ) ;
#784 = CARTESIAN_POINT ( 'NONE',  ( 0.000000000000000000, 0.000000000000000000, -180.0000000000000000 ) ) ;
#785 = ORIENTED_EDGE ( 'NONE', *, *, #90, .F. ) ;
#786 = CYLINDRICAL_SURFACE ( 'NONE', #714, 1.700000000000000178 ) ;
#787 = ORIENTED_EDGE ( 'NONE', *, *, #974, .T. ) ;
#788 = CARTESIAN_POINT ( 'NONE',  ( -7.999999999999996447, 25.50000000000000000, -13.85640646055101932 ) ) ;
#789 = DIRECTION ( 'NONE',  ( 0.000000000000000000, -0.000000000000000000, 1.000000000000000000 ) ) ;
#790 = LINE ( 'NONE', #365, #554 ) ;
#791 = CARTESIAN_POINT ( 'NONE',  ( 0.000000000000000000, 0.000000000000000000, -180.0000000000000000 ) ) ;
#792 = COORDINATED_UNIVERSAL_TIME_OFFSET ( 5, 30, .AHEAD. ) ;
#793 = CIRCLE ( 'NONE', #274, 4.000000000000000000 ) ;
#794 = CARTESIAN_POINT ( 'NONE',  ( 8.000000000000001776, 25.50000000000000000, -12.15640646055101648 ) ) ;
#795 = AXIS2_PLACEMENT_3D ( 'NONE', #120, #708, #718 ) ;
#796 = CIRCLE ( 'NONE', #843, 3.000000000000000000 ) ;
#797 = DIRECTION ( 'NONE',  ( 0.000000000000000000, 0.000000000000000000, 1.000000000000000000 ) ) ;
#798 = CARTESIAN_POINT ( 'NONE',  ( 8.000000000000001776, 31.50000000000000000, -12.15640646055101648 ) ) ;
#799 = APPROVAL_ROLE ( '' ) ;
#800 = LINE ( 'NONE', #125, #306 ) ;
#801 = LINE ( 'NONE', #265, #359 ) ;
#802 = CYLINDRICAL_SURFACE ( 'NONE', #39, 12.15000000000000036 ) ;
#803 = APPROVAL_DATE_TIME ( #872, #589 ) ;
#804 = EDGE_CURVE ( 'NONE', #630, #509, #762, .T. ) ;
#805 = CARTESIAN_POINT ( 'NONE',  ( 3.000000000000000000, 3.673940397442059868E-16, -186.0000000000000000 ) ) ;
#806 = EDGE_CURVE ( 'NONE', #153, #837, #88, .T. ) ;
#807 = DIRECTION ( 'NONE',  ( 0.000000000000000000, 0.000000000000000000, -1.000000000000000000 ) ) ;
#808 = DIRECTION ( 'NONE',  ( 0.000000000000000000, 0.000000000000000000, 1.000000000000000000 ) ) ;
#809 = CARTESIAN_POINT ( 'NONE',  ( -24.00000000000000000, -22.00000000000000000, -180.0000000000000000 ) ) ;
#810 = CLOSED_SHELL ( 'NONE', ( #955, #568, #172, #910, #834, #610, #677, #108, #877, #556, #501, #175, #167, #457, #372, #322, #632, #159, #692, #658, #219, #63, #426, #207, #821, #287, #852 ) ) ;
#811 = AXIS2_PLACEMENT_3D ( 'NONE', #310, #594, #316 ) ;
#812 = CARTESIAN_POINT ( 'NONE',  ( -8.000000000000007105, 25.50000000000000000, 13.85640646055101577 ) ) ;
#813 = CC_DESIGN_APPROVAL ( #665, ( #165 ) ) ;
#814 = ORIENTED_EDGE ( 'NONE', *, *, #774, .F. ) ;
#815 = SECURITY_CLASSIFICATION_LEVEL ( 'unclassified' ) ;
#816 = LINE ( 'NONE', #827, #134 ) ;
#817 = DIRECTION ( 'NONE',  ( -0.000000000000000000, -1.000000000000000000, -0.000000000000000000 ) ) ;
#818 = FACE_OUTER_BOUND ( 'NONE', #467, .T. ) ;
#819 = MANIFOLD_SOLID_BREP ( 'Hand_Plate', #810 ) ;
#820 = CARTESIAN_POINT ( 'NONE',  ( -24.00000000000000000, 31.50000000000000000, 28.00000000000000000 ) ) ;
#821 = ADVANCED_FACE ( 'NONE', ( #533, #975 ), #972, .F. ) ;
#822 = CARTESIAN_POINT ( 'NONE',  ( 4.898587196589412829E-16, 27.69999999999999929, 4.000000000000000000 ) ) ;
#823 = DIRECTION ( 'NONE',  ( -0.000000000000000000, -0.000000000000000000, -1.000000000000000000 ) ) ;
#824 = CIRCLE ( 'NONE', #70, 3.000000000000000000 ) ;
#825 = EDGE_CURVE ( 'NONE', #856, #704, #2, .T. ) ;
#826 = ORIENTED_EDGE ( 'NONE', *, *, #498, .F. ) ;
#827 = CARTESIAN_POINT ( 'NONE',  ( -24.00000000000000000, 31.50000000000000000, -186.0000000000000000 ) ) ;
#828 = ORIENTED_EDGE ( 'NONE', *, *, #883, .F. ) ;
#829 = CARTESIAN_POINT ( 'NONE',  ( -24.00000000000000000, 31.50000000000000000, -180.0000000000000000 ) ) ;
#830 = VERTEX_POINT ( 'NONE', #222 ) ;
#831 = CARTESIAN_POINT ( 'NONE',  ( 4.898587196589412829E-16, 31.50000000000000000, 4.000000000000000000 ) ) ;
#832 = ORIENTED_EDGE ( 'NONE', *, *, #410, .T. ) ;
#833 = DIRECTION ( 'NONE',  ( 0.000000000000000000, 0.000000000000000000, -1.000000000000000000 ) ) ;
#834 = ADVANCED_FACE ( 'NONE', ( #599 ), #920, .F. ) ;
#835 = VERTEX_POINT ( 'NONE', #538 ) ;
#836 = CARTESIAN_POINT ( 'NONE',  ( 8.000000000000001776, 31.50000000000000000, -13.85640646055101755 ) ) ;
#837 = VERTEX_POINT ( 'NONE', #228 ) ;
#838 = VECTOR ( 'NONE', #215, 1000.000000000000000 ) ;
#839 = VERTEX_POINT ( 'NONE', #471 ) ;
#840 = DIRECTION ( 'NONE',  ( 0.000000000000000000, 0.000000000000000000, 1.000000000000000000 ) ) ;
#841 = AXIS2_PLACEMENT_3D ( 'NONE', #723, #654, #729 ) ;
#842 = DIRECTION ( 'NONE',  ( -0.000000000000000000, -1.000000000000000000, -0.000000000000000000 ) ) ;
#843 = AXIS2_PLACEMENT_3D ( 'NONE', #909, #164, #675 ) ;
#844 = CIRCLE ( 'NONE', #525, 4.000000000000000000 ) ;
#845 = ORIENTED_EDGE ( 'NONE', *, *, #595, .F. ) ;
#846 = ORIENTED_EDGE ( 'NONE', *, *, #269, .F. ) ;
#847 = ORIENTED_EDGE ( 'NONE', *, *, #825, .T. ) ;
#848 = DIRECTION ( 'NONE',  ( 1.000000000000000000, 0.000000000000000000, 0.000000000000000000 ) ) ;
#849 = CARTESIAN_POINT ( 'NONE',  ( 24.00000000000000000, -22.00000000000000000, -186.0000000000000000 ) ) ;
#850 = PRODUCT_DEFINITION_SHAPE ( 'NONE', 'NONE',  #165 ) ;
#851 = ORIENTED_EDGE ( 'NONE', *, *, #75, .F. ) ;
#852 = ADVANCED_FACE ( 'NONE', ( #900 ), #680, .F. ) ;
#853 = VERTEX_POINT ( 'NONE', #145 ) ;
#854 =( NAMED_UNIT ( * ) SI_UNIT ( $, .STERADIAN. ) SOLID_ANGLE_UNIT ( ) );
#855 = ORIENTED_EDGE ( 'NONE', *, *, #51, .F. ) ;
#856 = VERTEX_POINT ( 'NONE', #382 ) ;
#857 = AXIS2_PLACEMENT_3D ( 'NONE', #283, #709, #37 ) ;
#858 = CIRCLE ( 'NONE', #841, 1.700000000000000178 ) ;
#859 = FACE_BOUND ( 'NONE', #242, .T. ) ;
#860 = DIRECTION ( 'NONE',  ( 1.000000000000000000, 0.000000000000000000, 0.000000000000000000 ) ) ;
#861 = ORIENTED_EDGE ( 'NONE', *, *, #694, .F. ) ;
#862 = MECHANICAL_CONTEXT ( 'NONE', #770, 'mechanical' ) ;
#863 = CARTESIAN_POINT ( 'NONE',  ( 0.000000000000000000, 31.50000000000000000, 0.000000000000000000 ) ) ;
#864 = EDGE_CURVE ( 'NONE', #769, #509, #523, .T. ) ;
#865 = CARTESIAN_POINT ( 'NONE',  ( 8.000000000000001776, 31.50000000000000000, 13.85640646055101755 ) ) ;
#866 = EDGE_CURVE ( 'NONE', #38, #149, #529, .T. ) ;
#867 = VERTEX_POINT ( 'NONE', #10 ) ;
#868 = DIRECTION ( 'NONE',  ( 0.000000000000000000, 0.000000000000000000, -1.000000000000000000 ) ) ;
#869 = CC_DESIGN_PERSON_AND_ORGANIZATION_ASSIGNMENT ( #139, #293, ( #363 ) ) ;
#870 = CARTESIAN_POINT ( 'NONE',  ( 0.000000000000000000, 25.50000000000000000, 0.000000000000000000 ) ) ;
#871 = DIRECTION ( 'NONE',  ( 0.000000000000000000, 0.000000000000000000, 1.000000000000000000 ) ) ;
#872 = DATE_AND_TIME ( #435, #148 ) ;
#873 = AXIS2_PLACEMENT_3D ( 'NONE', #514, #737, #516 ) ;
#874 = DIRECTION ( 'NONE',  ( -0.000000000000000000, -1.000000000000000000, -0.000000000000000000 ) ) ;
#875 = VECTOR ( 'NONE', #255, 1000.000000000000000 ) ;
#876 = ORGANIZATION ( 'UNSPECIFIED', 'UNSPECIFIED', '' ) ;
#877 = ADVANCED_FACE ( 'NONE', ( #460 ), #83, .F. ) ;
#878 = CYLINDRICAL_SURFACE ( 'NONE', #857, 1.700000000000000178 ) ;
#879 = ORIENTED_EDGE ( 'NONE', *, *, #20, .T. ) ;
#880 = CALENDAR_DATE ( 2026, 24, 9 ) ;
#881 = DIRECTION ( 'NONE',  ( 0.000000000000000000, 0.000000000000000000, 1.000000000000000000 ) ) ;
#882 = PERSON ( 'UNSPECIFIED', 'UNSPECIFIED', 'UNSPECIFIED', ('UNSPECIFIED'), ('UNSPECIFIED'), ('UNSPECIFIED') ) ;
#883 = EDGE_CURVE ( 'NONE', #381, #696, #253, .T. ) ;
#884 = CARTESIAN_POINT ( 'NONE',  ( 0.000000000000000000, 0.000000000000000000, -186.0000000000000000 ) ) ;
#885 = CARTESIAN_POINT ( 'NONE',  ( 8.000000000000001776, 31.50000000000000000, -13.85640646055101755 ) ) ;
#886 = CC_DESIGN_PERSON_AND_ORGANIZATION_ASSIGNMENT ( #132, #206, ( #165 ) ) ;
#887 = DATE_TIME_ROLE ( 'classification_date' ) ;
#888 = CARTESIAN_POINT ( 'NONE',  ( 1.487945860964034377E-15, 27.69999999999999929, 12.15000000000000036 ) ) ;
#889 = CARTESIAN_POINT ( 'NONE',  ( -16.00000000000000000, 25.50000000000000000, -1.700000000000002176 ) ) ;
#890 = CARTESIAN_POINT ( 'NONE',  ( 16.00000000000000000, 31.50000000000000000, 0.000000000000000000 ) ) ;
#891 = DATE_TIME_ROLE ( 'creation_date' ) ;
#892 = LINE ( 'NONE', #357, #927 ) ;
#893 = CIRCLE ( 'NONE', #437, 4.000000000000000000 ) ;
#894 = AXIS2_PLACEMENT_3D ( 'NONE', #685, #12, #451 ) ;
#895 = PLANE ( 'NONE',  #507 ) ;
#896 = DATE_AND_TIME ( #356, #196 ) ;
#897 = ORIENTED_EDGE ( 'NONE', *, *, #114, .T. ) ;
#898 = FACE_OUTER_BOUND ( 'NONE', #314, .T. ) ;
#899 = EDGE_CURVE ( 'NONE', #867, #244, #347, .T. ) ;
#900 = FACE_OUTER_BOUND ( 'NONE', #622, .T. ) ;
#901 = DIRECTION ( 'NONE',  ( -0.000000000000000000, -1.000000000000000000, -0.000000000000000000 ) ) ;
#902 = PLANE ( 'NONE',  #85 ) ;
#903 = DIRECTION ( 'NONE',  ( 0.000000000000000000, 1.000000000000000000, 0.000000000000000000 ) ) ;
#904 = CIRCLE ( 'NONE', #553, 12.15000000000000036 ) ;
#905 = AXIS2_PLACEMENT_3D ( 'NONE', #170, #964, #736 ) ;
#906 = EDGE_CURVE ( 'NONE', #914, #244, #198, .T. ) ;
#907 = ORIENTED_EDGE ( 'NONE', *, *, #446, .T. ) ;
#908 = APPROVAL_PERSON_ORGANIZATION ( #661, #748, #586 ) ;
#909 = CARTESIAN_POINT ( 'NONE',  ( 0.000000000000000000, 0.000000000000000000, -186.0000000000000000 ) ) ;
#910 = ADVANCED_FACE ( 'NONE', ( #191 ), #786, .F. ) ;
#911 = VERTEX_POINT ( 'NONE', #938 ) ;
#912 = FACE_OUTER_BOUND ( 'NONE', #620, .T. ) ;
#913 = CARTESIAN_POINT ( 'NONE',  ( -8.000000000000007105, 31.50000000000000000, 13.85640646055101577 ) ) ;
#914 = VERTEX_POINT ( 'NONE', #321 ) ;
#915 = CARTESIAN_POINT ( 'NONE',  ( 8.000000000000001776, 25.50000000000000000, 13.85640646055101755 ) ) ;
#916 = FACE_BOUND ( 'NONE', #547, .T. ) ;
#917 = ORIENTED_EDGE ( 'NONE', *, *, #806, .F. ) ;
#918 = ORIENTED_EDGE ( 'NONE', *, *, #346, .F. ) ;
#919 = LINE ( 'NONE', #690, #450 ) ;
#920 = CYLINDRICAL_SURFACE ( 'NONE', #136, 1.700000000000000178 ) ;
#921 = ORIENTED_EDGE ( 'NONE', *, *, #581, .T. ) ;
#922 = AXIS2_PLACEMENT_3D ( 'NONE', #772, #92, #840 ) ;
#923 = CIRCLE ( 'NONE', #638, 1.700000000000000178 ) ;
#924 = ORIENTED_EDGE ( 'NONE', *, *, #328, .F. ) ;
#925 = EDGE_LOOP ( 'NONE', ( #851, #334, #941, #68 ) ) ;
#926 =( NAMED_UNIT ( * ) PLANE_ANGLE_UNIT ( ) SI_UNIT ( $, .RADIAN. ) );
#927 = VECTOR ( 'NONE', #364, 1000.000000000000000 ) ;
#928 = VECTOR ( 'NONE', #99, 1000.000000000000000 ) ;
#929 = ORIENTED_EDGE ( 'NONE', *, *, #135, .F. ) ;
#930 = DIRECTION ( 'NONE',  ( 0.000000000000000000, 0.000000000000000000, -1.000000000000000000 ) ) ;
#931 = EDGE_LOOP ( 'NONE', ( #785, #633 ) ) ;
#932 = DIRECTION ( 'NONE',  ( 0.000000000000000000, 0.000000000000000000, 1.000000000000000000 ) ) ;
#933 = ORIENTED_EDGE ( 'NONE', *, *, #254, .F. ) ;
#934 = CC_DESIGN_PERSON_AND_ORGANIZATION_ASSIGNMENT ( #285, #49, ( #571 ) ) ;
#935 = EDGE_LOOP ( 'NONE', ( #455, #380 ) ) ;
#936 = DIRECTION ( 'NONE',  ( 0.000000000000000000, 1.000000000000000000, 0.000000000000000000 ) ) ;
#937 = ORIENTED_EDGE ( 'NONE', *, *, #410, .F. ) ;
#938 = CARTESIAN_POINT ( 'NONE',  ( 24.00000000000000000, 31.50000000000000000, -186.0000000000000000 ) ) ;
#939 = FACE_BOUND ( 'NONE', #250, .T. ) ;
#940 = DIRECTION ( 'NONE',  ( 0.000000000000000000, 1.000000000000000000, 0.000000000000000000 ) ) ;
#941 = ORIENTED_EDGE ( 'NONE', *, *, #942, .F. ) ;
#942 = EDGE_CURVE ( 'NONE', #150, #183, #488, .T. ) ;
#943 = LINE ( 'NONE', #551, #928 ) ;
#944 = CIRCLE ( 'NONE', #86, 1.700000000000000178 ) ;
#945 = FACE_BOUND ( 'NONE', #472, .T. ) ;
#946 = EDGE_CURVE ( 'NONE', #413, #21, #943, .T. ) ;
#947 = CYLINDRICAL_SURFACE ( 'NONE', #57, 1.700000000000000178 ) ;
#948 = ORIENTED_EDGE ( 'NONE', *, *, #864, .F. ) ;
#949 = CARTESIAN_POINT ( 'NONE',  ( 16.00000000000000000, 25.50000000000000000, 0.000000000000000000 ) ) ;
#950 = DIRECTION ( 'NONE',  ( 0.000000000000000000, 0.000000000000000000, 1.000000000000000000 ) ) ;
#951 = DIRECTION ( 'NONE',  ( 0.000000000000000000, 1.000000000000000000, 0.000000000000000000 ) ) ;
#952 = CARTESIAN_POINT ( 'NONE',  ( 0.000000000000000000, 31.50000000000000000, 0.000000000000000000 ) ) ;
#953 = DIRECTION ( 'NONE',  ( 0.000000000000000000, 1.000000000000000000, 0.000000000000000000 ) ) ;
#954 = VERTEX_POINT ( 'NONE', #617 ) ;
#955 = ADVANCED_FACE ( 'NONE', ( #711 ), #40, .F. ) ;
#956 = AXIS2_PLACEMENT_3D ( 'NONE', #173, #940, #315 ) ;
#957 = FACE_OUTER_BOUND ( 'NONE', #549, .T. ) ;
#958 = DIRECTION ( 'NONE',  ( 0.000000000000000000, 0.000000000000000000, -1.000000000000000000 ) ) ;
#959 = EDGE_LOOP ( 'NONE', ( #387, #624, #229, #424 ) ) ;
#960 = DIRECTION ( 'NONE',  ( 0.000000000000000000, 0.000000000000000000, -1.000000000000000000 ) ) ;
#961 = CARTESIAN_POINT ( 'NONE',  ( -3.000000000000000000, 0.000000000000000000, -180.0000000000000000 ) ) ;
#962 = CARTESIAN_POINT ( 'NONE',  ( 0.000000000000000000, 0.000000000000000000, -180.0000000000000000 ) ) ;
#963 = APPROVAL_STATUS ( 'not_yet_approved' ) ;
#964 = DIRECTION ( 'NONE',  ( 0.000000000000000000, 1.000000000000000000, 0.000000000000000000 ) ) ;
#965 = CARTESIAN_POINT ( 'NONE',  ( -8.000000000000007105, 31.50000000000000000, 12.15640646055101470 ) ) ;
#966 = ORIENTED_EDGE ( 'NONE', *, *, #727, .F. ) ;
#967 = EDGE_CURVE ( 'NONE', #954, #149, #844, .T. ) ;
#968 = LINE ( 'NONE', #203, #279 ) ;
#969 = AXIS2_PLACEMENT_3D ( 'NONE', #784, #623, #860 ) ;
#970 = VECTOR ( 'NONE', #433, 1000.000000000000000 ) ;
#971 = VECTOR ( 'NONE', #26, 1000.000000000000000 ) ;
#972 = PLANE ( 'NONE',  #59 ) ;
#973 = CC_DESIGN_DATE_AND_TIME_ASSIGNMENT ( #896, #891, ( #165 ) ) ;
#974 = EDGE_CURVE ( 'NONE', #837, #684, #375, .T. ) ;
#975 = FACE_BOUND ( 'NONE', #390, .T. ) ;
ENDSEC;
END-ISO-10303-21;
