ISO-10303-21;
HEADER;
FILE_DESCRIPTION (( 'STEP AP203' ),
    '1' );
FILE_NAME ('JX1_AnkleRod_B.STEP',
    '2026-09-24T05:39:11',
    ( '' ),
    ( '' ),
    'SwSTEP 2.0',
    'SolidWorks 2026',
    '' );
FILE_SCHEMA (( 'CONFIG_CONTROL_DESIGN' ));
ENDSEC;

DATA;
#1 = EDGE_CURVE ( 'NONE', #139, #310, #320, .T. ) ;
#2 = AXIS2_PLACEMENT_3D ( 'NONE', #307, #277, #170 ) ;
#3 = CALENDAR_DATE ( 2026, 24, 9 ) ;
#4 = APPLICATION_PROTOCOL_DEFINITION ( 'international standard', 'config_control_design', 1994, #8 ) ;
#5 = CARTESIAN_POINT ( 'NONE',  ( 0.000000000000000000, 0.000000000000000000, -88.28903399657275486 ) ) ;
#6 = APPROVAL_STATUS ( 'not_yet_approved' ) ;
#7 = CC_DESIGN_PERSON_AND_ORGANIZATION_ASSIGNMENT ( #108, #175, ( #166 ) ) ;
#8 = APPLICATION_CONTEXT ( 'configuration controlled 3d designs of mechanical parts and assemblies' ) ;
#9 = CARTESIAN_POINT ( 'NONE',  ( 0.000000000000000000, 0.000000000000000000, 10.00000000000000000 ) ) ;
#10 = DIRECTION ( 'NONE',  ( 1.000000000000000000, 0.000000000000000000, 0.000000000000000000 ) ) ;
#11 = CLOSED_SHELL ( 'NONE', ( #305, #49, #183, #217, #243, #301, #123, #135, #157, #261 ) ) ;
#12 = CC_DESIGN_APPROVAL ( #254, ( #101 ) ) ;
#13 = DIRECTION ( 'NONE',  ( -0.000000000000000000, -0.000000000000000000, 1.000000000000000000 ) ) ;
#14 = CARTESIAN_POINT ( 'NONE',  ( 0.000000000000000000, 0.000000000000000000, 10.00000000000000000 ) ) ;
#15 = CARTESIAN_POINT ( 'NONE',  ( 4.000000000000000000, 0.000000000000000000, -88.28903399657275486 ) ) ;
#16 = EDGE_CURVE ( 'NONE', #159, #139, #278, .T. ) ;
#17 = CARTESIAN_POINT ( 'NONE',  ( 0.000000000000000000, 0.000000000000000000, -7.000000000000000888 ) ) ;
#18 = PERSON_AND_ORGANIZATION_ROLE ( 'design_supplier' ) ;
#19 = DIRECTION ( 'NONE',  ( 1.000000000000000000, 0.000000000000000000, 0.000000000000000000 ) ) ;
#20 = CARTESIAN_POINT ( 'NONE',  ( 0.000000000000000000, 0.000000000000000000, -88.28903399657275486 ) ) ;
#21 = DIRECTION ( 'NONE',  ( -0.000000000000000000, -0.000000000000000000, 1.000000000000000000 ) ) ;
#22 = AXIS2_PLACEMENT_3D ( 'NONE', #328, #42, #92 ) ;
#23 = DIRECTION ( 'NONE',  ( 1.000000000000000000, 0.000000000000000000, 0.000000000000000000 ) ) ;
#24 = DIRECTION ( 'NONE',  ( 1.000000000000000000, 0.000000000000000000, 0.000000000000000000 ) ) ;
#25 = ORIENTED_EDGE ( 'NONE', *, *, #1, .T. ) ;
#26 = EDGE_CURVE ( 'NONE', #159, #260, #86, .T. ) ;
#27 = ORIENTED_EDGE ( 'NONE', *, *, #110, .T. ) ;
#28 = APPROVAL ( #221, 'UNSPECIFIED' ) ;
#29 = ORIENTED_EDGE ( 'NONE', *, *, #201, .F. ) ;
#30 = CIRCLE ( 'NONE', #2, 7.000000000000000000 ) ;
#31 = ORIENTED_EDGE ( 'NONE', *, *, #265, .T. ) ;
#32 = DIRECTION ( 'NONE',  ( 0.000000000000000000, 0.000000000000000000, 1.000000000000000000 ) ) ;
#33 = ORIENTED_EDGE ( 'NONE', *, *, #276, .T. ) ;
#34 = FACE_OUTER_BOUND ( 'NONE', #231, .T. ) ;
#35 = AXIS2_PLACEMENT_3D ( 'NONE', #20, #147, #249 ) ;
#36 = ORIENTED_EDGE ( 'NONE', *, *, #211, .T. ) ;
#37 = DIRECTION ( 'NONE',  ( 1.000000000000000000, 0.000000000000000000, 0.000000000000000000 ) ) ;
#38 = CALENDAR_DATE ( 2026, 24, 9 ) ;
#39 = MANIFOLD_SOLID_BREP ( 'Rod_Body', #11 ) ;
#40 = DIRECTION ( 'NONE',  ( -0.000000000000000000, -0.000000000000000000, 1.000000000000000000 ) ) ;
#41 = AXIS2_PLACEMENT_3D ( 'NONE', #132, #296, #298 ) ;
#42 = DIRECTION ( 'NONE',  ( -0.000000000000000000, -0.000000000000000000, 1.000000000000000000 ) ) ;
#43 = AXIS2_PLACEMENT_3D ( 'NONE', #122, #52, #174 ) ;
#44 = DIRECTION ( 'NONE',  ( 1.000000000000000000, 0.000000000000000000, 0.000000000000000000 ) ) ;
#45 = LINE ( 'NONE', #198, #115 ) ;
#46 = DIRECTION ( 'NONE',  ( 1.000000000000000000, 0.000000000000000000, 0.000000000000000000 ) ) ;
#47 = CIRCLE ( 'NONE', #88, 4.000000000000000000 ) ;
#48 = PERSON_AND_ORGANIZATION ( #66, #178 ) ;
#49 = ADVANCED_FACE ( 'NONE', ( #34 ), #181, .T. ) ;
#50 = CIRCLE ( 'NONE', #72, 4.000000000000000000 ) ;
#51 = AXIS2_PLACEMENT_3D ( 'NONE', #69, #65, #172 ) ;
#52 = DIRECTION ( 'NONE',  ( 0.000000000000000000, 0.000000000000000000, -1.000000000000000000 ) ) ;
#53 = EDGE_LOOP ( 'NONE', ( #125, #309, #150, #228 ) ) ;
#54 = AXIS2_PLACEMENT_3D ( 'NONE', #222, #327, #71 ) ;
#55 =( NAMED_UNIT ( * ) PLANE_ANGLE_UNIT ( ) SI_UNIT ( $, .RADIAN. ) );
#56 = ORIENTED_EDGE ( 'NONE', *, *, #90, .F. ) ;
#57 = DATE_AND_TIME ( #317, #138 ) ;
#58 = ORIENTED_EDGE ( 'NONE', *, *, #26, .T. ) ;
#59 = LINE ( 'NONE', #160, #281 ) ;
#60 = AXIS2_PLACEMENT_3D ( 'NONE', #235, #32, #81 ) ;
#61 = EDGE_CURVE ( 'NONE', #74, #152, #299, .T. ) ;
#62 = FACE_BOUND ( 'NONE', #263, .T. ) ;
#63 = EDGE_LOOP ( 'NONE', ( #98, #316, #25, #257 ) ) ;
#64 = PRODUCT_DEFINITION_SHAPE ( 'NONE', 'NONE',  #280 ) ;
#65 = DIRECTION ( 'NONE',  ( -0.000000000000000000, -0.000000000000000000, 1.000000000000000000 ) ) ;
#66 = PERSON ( 'UNSPECIFIED', 'UNSPECIFIED', 'UNSPECIFIED', ('UNSPECIFIED'), ('UNSPECIFIED'), ('UNSPECIFIED') ) ;
#67 = CARTESIAN_POINT ( 'NONE',  ( 0.000000000000000000, 0.000000000000000000, 10.00000000000000000 ) ) ;
#68 = CC_DESIGN_SECURITY_CLASSIFICATION ( #272, ( #101 ) ) ;
#69 = CARTESIAN_POINT ( 'NONE',  ( 0.000000000000000000, 0.000000000000000000, -7.000000000000000888 ) ) ;
#70 = APPLICATION_CONTEXT ( 'configuration controlled 3d designs of mechanical parts and assemblies' ) ;
#71 = DIRECTION ( 'NONE',  ( 1.000000000000000000, 0.000000000000000000, 0.000000000000000000 ) ) ;
#72 = AXIS2_PLACEMENT_3D ( 'NONE', #5, #109, #37 ) ;
#73 = COORDINATED_UNIVERSAL_TIME_OFFSET ( 5, 30, .AHEAD. ) ;
#74 = VERTEX_POINT ( 'NONE', #293 ) ;
#75 = ORIENTED_EDGE ( 'NONE', *, *, #330, .T. ) ;
#76 = LOCAL_TIME ( 11, 9, 11.00000000000000000, #83 ) ;
#77 = PERSON_AND_ORGANIZATION ( #66, #178 ) ;
#78 = CALENDAR_DATE ( 2026, 24, 9 ) ;
#79 = DIRECTION ( 'NONE',  ( 1.000000000000000000, 0.000000000000000000, 0.000000000000000000 ) ) ;
#80 = AXIS2_PLACEMENT_3D ( 'NONE', #96, #223, #23 ) ;
#81 = DIRECTION ( 'NONE',  ( 1.000000000000000000, 0.000000000000000000, 0.000000000000000000 ) ) ;
#82 = CARTESIAN_POINT ( 'NONE',  ( 4.000000000000000000, 0.000000000000000000, 10.00000000000000000 ) ) ;
#83 = COORDINATED_UNIVERSAL_TIME_OFFSET ( 5, 30, .AHEAD. ) ;
#84 = ORIENTED_EDGE ( 'NONE', *, *, #294, .T. ) ;
#85 = CC_DESIGN_DATE_AND_TIME_ASSIGNMENT ( #113, #187, ( #272 ) ) ;
#86 = LINE ( 'NONE', #318, #200 ) ;
#87 = SHAPE_DEFINITION_REPRESENTATION ( #64, #203 ) ;
#88 = AXIS2_PLACEMENT_3D ( 'NONE', #253, #21, #302 ) ;
#89 = CARTESIAN_POINT ( 'NONE',  ( 7.000000000000000000, 0.000000000000000000, 10.00000000000000000 ) ) ;
#90 = EDGE_CURVE ( 'NONE', #105, #74, #50, .T. ) ;
#91 = CARTESIAN_POINT ( 'NONE',  ( 0.000000000000000000, 0.000000000000000000, -102.2890339965727691 ) ) ;
#92 = DIRECTION ( 'NONE',  ( 1.000000000000000000, 0.000000000000000000, 0.000000000000000000 ) ) ;
#93 = VECTOR ( 'NONE', #163, 1000.000000000000000 ) ;
#94 = CIRCLE ( 'NONE', #279, 7.000000000000000000 ) ;
#95 = CARTESIAN_POINT ( 'NONE',  ( -7.000000000000000000, 8.572527594031473190E-16, -102.2890339965727691 ) ) ;
#96 = CARTESIAN_POINT ( 'NONE',  ( 0.000000000000000000, 0.000000000000000000, 7.000000000000000000 ) ) ;
#97 = PLANE ( 'NONE',  #311 ) ;
#98 = ORIENTED_EDGE ( 'NONE', *, *, #26, .F. ) ;
#99 = APPROVAL ( #333, 'UNSPECIFIED' ) ;
#100 = VERTEX_POINT ( 'NONE', #191 ) ;
#101 = PRODUCT_DEFINITION_FORMATION_WITH_SPECIFIED_SOURCE ( 'ANY', '', #166, .NOT_KNOWN. ) ;
#102 = DATE_AND_TIME ( #3, #241 ) ;
#103 = EDGE_LOOP ( 'NONE', ( #130, #31, #75, #153 ) ) ;
#104 = FACE_OUTER_BOUND ( 'NONE', #258, .T. ) ;
#105 = VERTEX_POINT ( 'NONE', #236 ) ;
#106 = COORDINATED_UNIVERSAL_TIME_OFFSET ( 5, 30, .AHEAD. ) ;
#107 = ORIENTED_EDGE ( 'NONE', *, *, #330, .F. ) ;
#108 = PERSON_AND_ORGANIZATION ( #66, #178 ) ;
#109 = DIRECTION ( 'NONE',  ( -0.000000000000000000, -0.000000000000000000, 1.000000000000000000 ) ) ;
#110 = EDGE_CURVE ( 'NONE', #219, #267, #59, .T. ) ;
#111 = DATE_AND_TIME ( #38, #76 ) ;
#112 = DIRECTION ( 'NONE',  ( 1.000000000000000000, 0.000000000000000000, 0.000000000000000000 ) ) ;
#113 = DATE_AND_TIME ( #168, #169 ) ;
#114 = EDGE_LOOP ( 'NONE', ( #291, #264 ) ) ;
#115 = VECTOR ( 'NONE', #119, 1000.000000000000000 ) ;
#116 = AXIS2_PLACEMENT_3D ( 'NONE', #154, #227, #24 ) ;
#117 = DIRECTION ( 'NONE',  ( 1.000000000000000000, 0.000000000000000000, 0.000000000000000000 ) ) ;
#118 = CARTESIAN_POINT ( 'NONE',  ( -7.000000000000000000, 8.572527594031473190E-16, -7.000000000000000888 ) ) ;
#119 = DIRECTION ( 'NONE',  ( -0.000000000000000000, -0.000000000000000000, 1.000000000000000000 ) ) ;
#120 = PLANE ( 'NONE',  #80 ) ;
#121 = DIRECTION ( 'NONE',  ( -0.000000000000000000, -0.000000000000000000, 1.000000000000000000 ) ) ;
#122 = CARTESIAN_POINT ( 'NONE',  ( 7.000000000000000000, 0.000000000000000000, -7.000000000000000000 ) ) ;
#123 = ADVANCED_FACE ( 'NONE', ( #266 ), #242, .T. ) ;
#124 = AXIS2_PLACEMENT_3D ( 'NONE', #225, #40, #117 ) ;
#125 = ORIENTED_EDGE ( 'NONE', *, *, #142, .F. ) ;
#126 = VERTEX_POINT ( 'NONE', #216 ) ;
#127 = APPROVAL_PERSON_ORGANIZATION ( #48, #99, #202 ) ;
#128 = PRODUCT_RELATED_PRODUCT_CATEGORY ( 'detail', '', ( #166 ) ) ;
#129 =( LENGTH_UNIT ( ) NAMED_UNIT ( * ) SI_UNIT ( .MILLI., .METRE. ) );
#130 = ORIENTED_EDGE ( 'NONE', *, *, #110, .F. ) ;
#131 = DATE_TIME_ROLE ( 'creation_date' ) ;
#132 = CARTESIAN_POINT ( 'NONE',  ( 0.000000000000000000, 0.000000000000000000, -102.2890339965727691 ) ) ;
#133 = CARTESIAN_POINT ( 'NONE',  ( 0.000000000000000000, 0.000000000000000000, -7.000000000000000888 ) ) ;
#134 = UNCERTAINTY_MEASURE_WITH_UNIT (LENGTH_MEASURE( 1.000000000000000082E-05 ), #129, 'distance_accuracy_value', 'NONE');
#135 = ADVANCED_FACE ( 'NONE', ( #322, #62 ), #244, .T. ) ;
#136 = ORIENTED_EDGE ( 'NONE', *, *, #205, .T. ) ;
#137 = CIRCLE ( 'NONE', #22, 7.000000000000000000 ) ;
#138 = LOCAL_TIME ( 11, 9, 11.00000000000000000, #106 ) ;
#139 = VERTEX_POINT ( 'NONE', #270 ) ;
#140 = DIRECTION ( 'NONE',  ( -0.000000000000000000, -0.000000000000000000, 1.000000000000000000 ) ) ;
#141 = FACE_OUTER_BOUND ( 'NONE', #232, .T. ) ;
#142 = EDGE_CURVE ( 'NONE', #105, #283, #45, .T. ) ;
#143 = FACE_OUTER_BOUND ( 'NONE', #190, .T. ) ;
#144 = DIRECTION ( 'NONE',  ( -0.000000000000000000, -0.000000000000000000, 1.000000000000000000 ) ) ;
#145 = DIRECTION ( 'NONE',  ( 1.000000000000000000, 0.000000000000000000, 0.000000000000000000 ) ) ;
#146 = AXIS2_PLACEMENT_3D ( 'NONE', #252, #144, #46 ) ;
#147 = DIRECTION ( 'NONE',  ( -0.000000000000000000, -0.000000000000000000, 1.000000000000000000 ) ) ;
#148 = DIRECTION ( 'NONE',  ( -0.000000000000000000, -0.000000000000000000, 1.000000000000000000 ) ) ;
#149 = EDGE_CURVE ( 'NONE', #267, #126, #182, .T. ) ;
#150 = ORIENTED_EDGE ( 'NONE', *, *, #61, .T. ) ;
#151 = DESIGN_CONTEXT ( 'detailed design', #70, 'design' ) ;
#152 = VERTEX_POINT ( 'NONE', #332 ) ;
#153 = ORIENTED_EDGE ( 'NONE', *, *, #149, .F. ) ;
#154 = CARTESIAN_POINT ( 'NONE',  ( 0.000000000000000000, 0.000000000000000000, 10.00000000000000000 ) ) ;
#155 = CIRCLE ( 'NONE', #289, 4.000000000000000000 ) ;
#156 = ORIENTED_EDGE ( 'NONE', *, *, #142, .T. ) ;
#157 = ADVANCED_FACE ( 'NONE', ( #173 ), #164, .T. ) ;
#158 = APPROVAL_DATE_TIME ( #57, #254 ) ;
#159 = VERTEX_POINT ( 'NONE', #95 ) ;
#160 = CARTESIAN_POINT ( 'NONE',  ( -7.000000000000000000, 8.572527594031473190E-16, 10.00000000000000000 ) ) ;
#161 = CC_DESIGN_APPROVAL ( #28, ( #272 ) ) ;
#162 = SECURITY_CLASSIFICATION_LEVEL ( 'unclassified' ) ;
#163 = DIRECTION ( 'NONE',  ( -0.000000000000000000, -0.000000000000000000, 1.000000000000000000 ) ) ;
#164 = CYLINDRICAL_SURFACE ( 'NONE', #177, 7.000000000000000000 ) ;
#165 = EDGE_CURVE ( 'NONE', #126, #267, #137, .T. ) ;
#166 = PRODUCT ( 'JX1_AnkleRod_B', 'JX1_AnkleRod_B', '', ( #315 ) ) ;
#167 = CYLINDRICAL_SURFACE ( 'NONE', #124, 7.000000000000000000 ) ;
#168 = CALENDAR_DATE ( 2026, 24, 9 ) ;
#169 = LOCAL_TIME ( 11, 9, 11.00000000000000000, #321 ) ;
#170 = DIRECTION ( 'NONE',  ( 1.000000000000000000, 0.000000000000000000, 0.000000000000000000 ) ) ;
#171 = CC_DESIGN_PERSON_AND_ORGANIZATION_ASSIGNMENT ( #250, #273, ( #101 ) ) ;
#172 = DIRECTION ( 'NONE',  ( 1.000000000000000000, 0.000000000000000000, 0.000000000000000000 ) ) ;
#173 = FACE_OUTER_BOUND ( 'NONE', #63, .T. ) ;
#174 = DIRECTION ( 'NONE',  ( -1.000000000000000000, 0.000000000000000000, -0.000000000000000000 ) ) ;
#175 = PERSON_AND_ORGANIZATION_ROLE ( 'design_owner' ) ;
#176 = EDGE_LOOP ( 'NONE', ( #204, #312 ) ) ;
#177 = AXIS2_PLACEMENT_3D ( 'NONE', #197, #121, #331 ) ;
#178 = ORGANIZATION ( 'UNSPECIFIED', 'UNSPECIFIED', '' ) ;
#179 = COORDINATED_UNIVERSAL_TIME_OFFSET ( 5, 30, .AHEAD. ) ;
#180 = CARTESIAN_POINT ( 'NONE',  ( 7.000000000000000000, 0.000000000000000000, 10.00000000000000000 ) ) ;
#181 = CYLINDRICAL_SURFACE ( 'NONE', #324, 4.000000000000000000 ) ;
#182 = CIRCLE ( 'NONE', #146, 7.000000000000000000 ) ;
#183 = ADVANCED_FACE ( 'NONE', ( #143 ), #306, .T. ) ;
#184 =( GEOMETRIC_REPRESENTATION_CONTEXT ( 3 ) GLOBAL_UNCERTAINTY_ASSIGNED_CONTEXT ( ( #134 ) ) GLOBAL_UNIT_ASSIGNED_CONTEXT ( ( #129, #55, #288 ) ) REPRESENTATION_CONTEXT ( 'NONE', 'WORKASPACE' ) );
#185 = PERSON_AND_ORGANIZATION ( #66, #178 ) ;
#186 = DIRECTION ( 'NONE',  ( -0.000000000000000000, -0.000000000000000000, 1.000000000000000000 ) ) ;
#187 = DATE_TIME_ROLE ( 'classification_date' ) ;
#188 = ORIENTED_EDGE ( 'NONE', *, *, #61, .F. ) ;
#189 = APPROVAL_DATE_TIME ( #111, #28 ) ;
#190 = EDGE_LOOP ( 'NONE', ( #84, #27, #285, #107 ) ) ;
#191 = CARTESIAN_POINT ( 'NONE',  ( 7.000000000000000000, 0.000000000000000000, -7.000000000000000888 ) ) ;
#192 = PERSON_AND_ORGANIZATION ( #66, #178 ) ;
#193 = DIRECTION ( 'NONE',  ( -0.000000000000000000, -0.000000000000000000, 1.000000000000000000 ) ) ;
#194 = DIRECTION ( 'NONE',  ( -0.000000000000000000, -0.000000000000000000, 1.000000000000000000 ) ) ;
#195 = CC_DESIGN_PERSON_AND_ORGANIZATION_ASSIGNMENT ( #218, #295, ( #272 ) ) ;
#196 = APPROVAL_PERSON_ORGANIZATION ( #268, #28, #323 ) ;
#197 = CARTESIAN_POINT ( 'NONE',  ( 0.000000000000000000, 0.000000000000000000, 10.00000000000000000 ) ) ;
#198 = CARTESIAN_POINT ( 'NONE',  ( -4.000000000000000000, 4.898587196589412829E-16, 10.00000000000000000 ) ) ;
#199 = DIRECTION ( 'NONE',  ( -1.000000000000000000, 0.000000000000000000, -0.000000000000000000 ) ) ;
#200 = VECTOR ( 'NONE', #240, 1000.000000000000000 ) ;
#201 = EDGE_CURVE ( 'NONE', #152, #283, #155, .T. ) ;
#202 = APPROVAL_ROLE ( '' ) ;
#203 = ADVANCED_BREP_SHAPE_REPRESENTATION ( 'JX1_AnkleRod_B', ( #39, #60 ), #184 ) ;
#204 = ORIENTED_EDGE ( 'NONE', *, *, #201, .T. ) ;
#205 = EDGE_CURVE ( 'NONE', #260, #310, #271, .T. ) ;
#206 = AXIS2_PLACEMENT_3D ( 'NONE', #14, #140, #112 ) ;
#207 = APPROVAL_PERSON_ORGANIZATION ( #185, #254, #292 ) ;
#208 = ORIENTED_EDGE ( 'NONE', *, *, #165, .T. ) ;
#209 = APPROVAL_DATE_TIME ( #102, #99 ) ;
#210 = ORIENTED_EDGE ( 'NONE', *, *, #276, .F. ) ;
#211 = EDGE_CURVE ( 'NONE', #74, #105, #47, .T. ) ;
#212 = DIRECTION ( 'NONE',  ( -0.000000000000000000, -0.000000000000000000, 1.000000000000000000 ) ) ;
#213 = DIRECTION ( 'NONE',  ( -0.000000000000000000, -0.000000000000000000, 1.000000000000000000 ) ) ;
#214 = ORIENTED_EDGE ( 'NONE', *, *, #149, .T. ) ;
#215 = EDGE_LOOP ( 'NONE', ( #210, #255 ) ) ;
#216 = CARTESIAN_POINT ( 'NONE',  ( 7.000000000000000000, 0.000000000000000000, 7.000000000000000000 ) ) ;
#217 = ADVANCED_FACE ( 'NONE', ( #141 ), #120, .T. ) ;
#218 = PERSON_AND_ORGANIZATION ( #66, #178 ) ;
#219 = VERTEX_POINT ( 'NONE', #118 ) ;
#220 = CARTESIAN_POINT ( 'NONE',  ( -7.000000000000000000, 8.572527594031473190E-16, -88.28903399657275486 ) ) ;
#221 = APPROVAL_STATUS ( 'not_yet_approved' ) ;
#222 = CARTESIAN_POINT ( 'NONE',  ( 0.000000000000000000, 0.000000000000000000, -88.28903399657275486 ) ) ;
#223 = DIRECTION ( 'NONE',  ( 0.000000000000000000, -0.000000000000000000, 1.000000000000000000 ) ) ;
#224 = DIRECTION ( 'NONE',  ( 0.000000000000000000, 0.000000000000000000, -1.000000000000000000 ) ) ;
#225 = CARTESIAN_POINT ( 'NONE',  ( 0.000000000000000000, 0.000000000000000000, 10.00000000000000000 ) ) ;
#226 = CC_DESIGN_PERSON_AND_ORGANIZATION_ASSIGNMENT ( #77, #237, ( #280 ) ) ;
#227 = DIRECTION ( 'NONE',  ( -0.000000000000000000, -0.000000000000000000, 1.000000000000000000 ) ) ;
#228 = ORIENTED_EDGE ( 'NONE', *, *, #287, .F. ) ;
#229 = AXIS2_PLACEMENT_3D ( 'NONE', #67, #194, #251 ) ;
#230 = ORIENTED_EDGE ( 'NONE', *, *, #248, .F. ) ;
#231 = EDGE_LOOP ( 'NONE', ( #36, #156, #29, #188 ) ) ;
#232 = EDGE_LOOP ( 'NONE', ( #208, #214 ) ) ;
#233 = APPLICATION_PROTOCOL_DEFINITION ( 'international standard', 'config_control_design', 1994, #70 ) ;
#234 = ORIENTED_EDGE ( 'NONE', *, *, #248, .T. ) ;
#235 = CARTESIAN_POINT ( 'NONE',  ( 0.000000000000000000, 0.000000000000000000, 0.000000000000000000 ) ) ;
#236 = CARTESIAN_POINT ( 'NONE',  ( -4.000000000000000000, 4.898587196589412829E-16, -88.28903399657275486 ) ) ;
#237 = PERSON_AND_ORGANIZATION_ROLE ( 'creator' ) ;
#238 = EDGE_LOOP ( 'NONE', ( #234, #136 ) ) ;
#239 = LINE ( 'NONE', #180, #334 ) ;
#240 = DIRECTION ( 'NONE',  ( -0.000000000000000000, -0.000000000000000000, 1.000000000000000000 ) ) ;
#241 = LOCAL_TIME ( 11, 9, 11.00000000000000000, #73 ) ;
#242 = CYLINDRICAL_SURFACE ( 'NONE', #206, 4.000000000000000000 ) ;
#243 = ADVANCED_FACE ( 'NONE', ( #275 ), #167, .T. ) ;
#244 = PLANE ( 'NONE',  #297 ) ;
#245 = DIRECTION ( 'NONE',  ( -0.000000000000000000, -0.000000000000000000, 1.000000000000000000 ) ) ;
#246 = VECTOR ( 'NONE', #186, 1000.000000000000000 ) ;
#247 = LOCAL_TIME ( 11, 9, 11.00000000000000000, #179 ) ;
#248 = EDGE_CURVE ( 'NONE', #310, #260, #329, .T. ) ;
#249 = DIRECTION ( 'NONE',  ( 1.000000000000000000, 0.000000000000000000, 0.000000000000000000 ) ) ;
#250 = PERSON_AND_ORGANIZATION ( #66, #178 ) ;
#251 = DIRECTION ( 'NONE',  ( 1.000000000000000000, 0.000000000000000000, 0.000000000000000000 ) ) ;
#252 = CARTESIAN_POINT ( 'NONE',  ( 0.000000000000000000, 0.000000000000000000, 7.000000000000000000 ) ) ;
#253 = CARTESIAN_POINT ( 'NONE',  ( 0.000000000000000000, 0.000000000000000000, -88.28903399657275486 ) ) ;
#254 = APPROVAL ( #6, 'UNSPECIFIED' ) ;
#255 = ORIENTED_EDGE ( 'NONE', *, *, #16, .F. ) ;
#256 = CIRCLE ( 'NONE', #290, 7.000000000000000000 ) ;
#257 = ORIENTED_EDGE ( 'NONE', *, *, #205, .F. ) ;
#258 = EDGE_LOOP ( 'NONE', ( #33, #58, #230, #325 ) ) ;
#259 = PLANE ( 'NONE',  #43 ) ;
#260 = VERTEX_POINT ( 'NONE', #220 ) ;
#261 = ADVANCED_FACE ( 'NONE', ( #326 ), #97, .T. ) ;
#262 = DATE_AND_TIME ( #78, #247 ) ;
#263 = EDGE_LOOP ( 'NONE', ( #335, #56 ) ) ;
#264 = ORIENTED_EDGE ( 'NONE', *, *, #265, .F. ) ;
#265 = EDGE_CURVE ( 'NONE', #219, #100, #30, .T. ) ;
#266 = FACE_OUTER_BOUND ( 'NONE', #53, .T. ) ;
#267 = VERTEX_POINT ( 'NONE', #269 ) ;
#268 = PERSON_AND_ORGANIZATION ( #66, #178 ) ;
#269 = CARTESIAN_POINT ( 'NONE',  ( -7.000000000000000000, 8.572527594031473190E-16, 7.000000000000000000 ) ) ;
#270 = CARTESIAN_POINT ( 'NONE',  ( 7.000000000000000000, 0.000000000000000000, -102.2890339965727691 ) ) ;
#271 = CIRCLE ( 'NONE', #35, 7.000000000000000000 ) ;
#272 = SECURITY_CLASSIFICATION ( '', '', #162 ) ;
#273 = PERSON_AND_ORGANIZATION_ROLE ( 'creator' ) ;
#274 = DIRECTION ( 'NONE',  ( 0.000000000000000000, -0.000000000000000000, 1.000000000000000000 ) ) ;
#275 = FACE_OUTER_BOUND ( 'NONE', #103, .T. ) ;
#276 = EDGE_CURVE ( 'NONE', #139, #159, #256, .T. ) ;
#277 = DIRECTION ( 'NONE',  ( -0.000000000000000000, -0.000000000000000000, 1.000000000000000000 ) ) ;
#278 = CIRCLE ( 'NONE', #41, 7.000000000000000000 ) ;
#279 = AXIS2_PLACEMENT_3D ( 'NONE', #133, #213, #10 ) ;
#280 = PRODUCT_DEFINITION ( 'UNKNOWN', '', #101, #151 ) ;
#281 = VECTOR ( 'NONE', #212, 1000.000000000000000 ) ;
#282 = CC_DESIGN_APPROVAL ( #99, ( #280 ) ) ;
#283 = VERTEX_POINT ( 'NONE', #300 ) ;
#284 = FACE_OUTER_BOUND ( 'NONE', #114, .T. ) ;
#285 = ORIENTED_EDGE ( 'NONE', *, *, #165, .F. ) ;
#286 = FACE_BOUND ( 'NONE', #176, .T. ) ;
#287 = EDGE_CURVE ( 'NONE', #283, #152, #303, .T. ) ;
#288 =( NAMED_UNIT ( * ) SI_UNIT ( $, .STERADIAN. ) SOLID_ANGLE_UNIT ( ) );
#289 = AXIS2_PLACEMENT_3D ( 'NONE', #17, #245, #145 ) ;
#290 = AXIS2_PLACEMENT_3D ( 'NONE', #91, #193, #44 ) ;
#291 = ORIENTED_EDGE ( 'NONE', *, *, #294, .F. ) ;
#292 = APPROVAL_ROLE ( '' ) ;
#293 = CARTESIAN_POINT ( 'NONE',  ( 4.000000000000000000, 0.000000000000000000, -88.28903399657275486 ) ) ;
#294 = EDGE_CURVE ( 'NONE', #100, #219, #94, .T. ) ;
#295 = PERSON_AND_ORGANIZATION_ROLE ( 'classification_officer' ) ;
#296 = DIRECTION ( 'NONE',  ( -0.000000000000000000, -0.000000000000000000, 1.000000000000000000 ) ) ;
#297 = AXIS2_PLACEMENT_3D ( 'NONE', #15, #274, #19 ) ;
#298 = DIRECTION ( 'NONE',  ( 1.000000000000000000, 0.000000000000000000, 0.000000000000000000 ) ) ;
#299 = LINE ( 'NONE', #82, #246 ) ;
#300 = CARTESIAN_POINT ( 'NONE',  ( -4.000000000000000000, 4.898587196589412829E-16, -7.000000000000000888 ) ) ;
#301 = ADVANCED_FACE ( 'NONE', ( #286, #284 ), #259, .T. ) ;
#302 = DIRECTION ( 'NONE',  ( 1.000000000000000000, 0.000000000000000000, 0.000000000000000000 ) ) ;
#303 = CIRCLE ( 'NONE', #51, 4.000000000000000000 ) ;
#304 = CARTESIAN_POINT ( 'NONE',  ( 7.000000000000000000, 0.000000000000000000, -102.2890339965727691 ) ) ;
#305 = ADVANCED_FACE ( 'NONE', ( #104 ), #308, .T. ) ;
#306 = CYLINDRICAL_SURFACE ( 'NONE', #229, 7.000000000000000000 ) ;
#307 = CARTESIAN_POINT ( 'NONE',  ( 0.000000000000000000, 0.000000000000000000, -7.000000000000000888 ) ) ;
#308 = CYLINDRICAL_SURFACE ( 'NONE', #116, 7.000000000000000000 ) ;
#309 = ORIENTED_EDGE ( 'NONE', *, *, #90, .T. ) ;
#310 = VERTEX_POINT ( 'NONE', #313 ) ;
#311 = AXIS2_PLACEMENT_3D ( 'NONE', #304, #224, #199 ) ;
#312 = ORIENTED_EDGE ( 'NONE', *, *, #287, .T. ) ;
#313 = CARTESIAN_POINT ( 'NONE',  ( 7.000000000000000000, 0.000000000000000000, -88.28903399657275486 ) ) ;
#314 = CC_DESIGN_DATE_AND_TIME_ASSIGNMENT ( #262, #131, ( #280 ) ) ;
#315 = MECHANICAL_CONTEXT ( 'NONE', #8, 'mechanical' ) ;
#316 = ORIENTED_EDGE ( 'NONE', *, *, #16, .T. ) ;
#317 = CALENDAR_DATE ( 2026, 24, 9 ) ;
#318 = CARTESIAN_POINT ( 'NONE',  ( -7.000000000000000000, 8.572527594031473190E-16, 10.00000000000000000 ) ) ;
#319 = CC_DESIGN_PERSON_AND_ORGANIZATION_ASSIGNMENT ( #192, #18, ( #101 ) ) ;
#320 = LINE ( 'NONE', #89, #93 ) ;
#321 = COORDINATED_UNIVERSAL_TIME_OFFSET ( 5, 30, .AHEAD. ) ;
#322 = FACE_OUTER_BOUND ( 'NONE', #238, .T. ) ;
#323 = APPROVAL_ROLE ( '' ) ;
#324 = AXIS2_PLACEMENT_3D ( 'NONE', #9, #13, #79 ) ;
#325 = ORIENTED_EDGE ( 'NONE', *, *, #1, .F. ) ;
#326 = FACE_OUTER_BOUND ( 'NONE', #215, .T. ) ;
#327 = DIRECTION ( 'NONE',  ( -0.000000000000000000, -0.000000000000000000, 1.000000000000000000 ) ) ;
#328 = CARTESIAN_POINT ( 'NONE',  ( 0.000000000000000000, 0.000000000000000000, 7.000000000000000000 ) ) ;
#329 = CIRCLE ( 'NONE', #54, 7.000000000000000000 ) ;
#330 = EDGE_CURVE ( 'NONE', #100, #126, #239, .T. ) ;
#331 = DIRECTION ( 'NONE',  ( 1.000000000000000000, 0.000000000000000000, 0.000000000000000000 ) ) ;
#332 = CARTESIAN_POINT ( 'NONE',  ( 4.000000000000000000, 0.000000000000000000, -7.000000000000000888 ) ) ;
#333 = APPROVAL_STATUS ( 'not_yet_approved' ) ;
#334 = VECTOR ( 'NONE', #148, 1000.000000000000000 ) ;
#335 = ORIENTED_EDGE ( 'NONE', *, *, #211, .F. ) ;
ENDSEC;
END-ISO-10303-21;
