ISO-10303-21;
HEADER;
FILE_DESCRIPTION (( 'STEP AP203' ),
    '1' );
FILE_NAME ('JX1_AnkleRod_A.STEP',
    '2026-09-24T05:39:02',
    ( '' ),
    ( '' ),
    'SwSTEP 2.0',
    'SolidWorks 2026',
    '' );
FILE_SCHEMA (( 'CONFIG_CONTROL_DESIGN' ));
ENDSEC;

DATA;
#1 = ORIENTED_EDGE ( 'NONE', *, *, #316, .T. ) ;
#2 = DATE_AND_TIME ( #57, #183 ) ;
#3 = AXIS2_PLACEMENT_3D ( 'NONE', #89, #174, #249 ) ;
#4 = ORIENTED_EDGE ( 'NONE', *, *, #86, .T. ) ;
#5 = ORIENTED_EDGE ( 'NONE', *, *, #267, .F. ) ;
#6 = EDGE_CURVE ( 'NONE', #295, #205, #299, .T. ) ;
#7 = ORIENTED_EDGE ( 'NONE', *, *, #110, .T. ) ;
#8 = DIRECTION ( 'NONE',  ( -0.000000000000000000, -0.000000000000000000, 1.000000000000000000 ) ) ;
#9 = ADVANCED_FACE ( 'NONE', ( #35 ), #302, .T. ) ;
#10 = DIRECTION ( 'NONE',  ( 1.000000000000000000, 0.000000000000000000, 0.000000000000000000 ) ) ;
#11 = FACE_BOUND ( 'NONE', #321, .T. ) ;
#12 = AXIS2_PLACEMENT_3D ( 'NONE', #281, #202, #48 ) ;
#13 = PLANE ( 'NONE',  #220 ) ;
#14 = FACE_OUTER_BOUND ( 'NONE', #139, .T. ) ;
#15 = DIRECTION ( 'NONE',  ( 0.000000000000000000, 0.000000000000000000, -1.000000000000000000 ) ) ;
#16 = VECTOR ( 'NONE', #219, 1000.000000000000000 ) ;
#17 = APPROVAL_PERSON_ORGANIZATION ( #81, #224, #136 ) ;
#18 = EDGE_CURVE ( 'NONE', #262, #318, #328, .T. ) ;
#19 = DIRECTION ( 'NONE',  ( -0.000000000000000000, -0.000000000000000000, 1.000000000000000000 ) ) ;
#20 = DIRECTION ( 'NONE',  ( -0.000000000000000000, -0.000000000000000000, 1.000000000000000000 ) ) ;
#21 = CARTESIAN_POINT ( 'NONE',  ( 7.000000000000000000, 0.000000000000000000, 7.000000000000000000 ) ) ;
#22 = AXIS2_PLACEMENT_3D ( 'NONE', #306, #76, #221 ) ;
#23 = DIRECTION ( 'NONE',  ( 1.000000000000000000, 0.000000000000000000, 0.000000000000000000 ) ) ;
#24 = ADVANCED_FACE ( 'NONE', ( #14, #11 ), #13, .T. ) ;
#25 = COORDINATED_UNIVERSAL_TIME_OFFSET ( 5, 30, .AHEAD. ) ;
#26 = VERTEX_POINT ( 'NONE', #88 ) ;
#27 = AXIS2_PLACEMENT_3D ( 'NONE', #68, #171, #198 ) ;
#28 = ORIENTED_EDGE ( 'NONE', *, *, #172, .F. ) ;
#29 = CIRCLE ( 'NONE', #307, 7.000000000000000000 ) ;
#30 = DIRECTION ( 'NONE',  ( 0.000000000000000000, 0.000000000000000000, 1.000000000000000000 ) ) ;
#31 = ORIENTED_EDGE ( 'NONE', *, *, #293, .T. ) ;
#32 = PERSON_AND_ORGANIZATION_ROLE ( 'creator' ) ;
#33 = ORIENTED_EDGE ( 'NONE', *, *, #86, .F. ) ;
#34 = ADVANCED_FACE ( 'NONE', ( #40 ), #148, .T. ) ;
#35 = FACE_OUTER_BOUND ( 'NONE', #109, .T. ) ;
#36 = ORIENTED_EDGE ( 'NONE', *, *, #327, .T. ) ;
#37 = FACE_OUTER_BOUND ( 'NONE', #164, .T. ) ;
#38 = AXIS2_PLACEMENT_3D ( 'NONE', #273, #296, #121 ) ;
#39 = CC_DESIGN_SECURITY_CLASSIFICATION ( #248, ( #65 ) ) ;
#40 = FACE_OUTER_BOUND ( 'NONE', #187, .T. ) ;
#41 = PRODUCT_DEFINITION_SHAPE ( 'NONE', 'NONE',  #182 ) ;
#42 = DIRECTION ( 'NONE',  ( -0.000000000000000000, -0.000000000000000000, 1.000000000000000000 ) ) ;
#43 = DIRECTION ( 'NONE',  ( -0.000000000000000000, -0.000000000000000000, 1.000000000000000000 ) ) ;
#44 = AXIS2_PLACEMENT_3D ( 'NONE', #270, #142, #214 ) ;
#45 = EDGE_CURVE ( 'NONE', #236, #210, #84, .T. ) ;
#46 = CARTESIAN_POINT ( 'NONE',  ( 0.000000000000000000, 0.000000000000000000, 7.000000000000000000 ) ) ;
#47 = DIRECTION ( 'NONE',  ( -0.000000000000000000, -0.000000000000000000, 1.000000000000000000 ) ) ;
#48 = DIRECTION ( 'NONE',  ( 1.000000000000000000, 0.000000000000000000, 0.000000000000000000 ) ) ;
#49 = EDGE_CURVE ( 'NONE', #205, #188, #233, .T. ) ;
#50 = VECTOR ( 'NONE', #43, 1000.000000000000000 ) ;
#51 = DESIGN_CONTEXT ( 'detailed design', #152, 'design' ) ;
#52 = PERSON_AND_ORGANIZATION ( #312, #165 ) ;
#53 = EDGE_CURVE ( 'NONE', #26, #262, #268, .T. ) ;
#54 = PERSON_AND_ORGANIZATION_ROLE ( 'design_supplier' ) ;
#55 = ORIENTED_EDGE ( 'NONE', *, *, #271, .T. ) ;
#56 = APPROVAL ( #264, 'UNSPECIFIED' ) ;
#57 = CALENDAR_DATE ( 2026, 24, 9 ) ;
#58 = DATE_AND_TIME ( #130, #334 ) ;
#59 = AXIS2_PLACEMENT_3D ( 'NONE', #323, #325, #63 ) ;
#60 = ORIENTED_EDGE ( 'NONE', *, *, #72, .F. ) ;
#61 = PERSON_AND_ORGANIZATION_ROLE ( 'design_owner' ) ;
#62 = EDGE_LOOP ( 'NONE', ( #36, #266 ) ) ;
#63 = DIRECTION ( 'NONE',  ( 1.000000000000000000, 0.000000000000000000, 0.000000000000000000 ) ) ;
#64 = CIRCLE ( 'NONE', #113, 7.000000000000000000 ) ;
#65 = PRODUCT_DEFINITION_FORMATION_WITH_SPECIFIED_SOURCE ( 'ANY', '', #225, .NOT_KNOWN. ) ;
#66 = CARTESIAN_POINT ( 'NONE',  ( 7.000000000000000000, 0.000000000000000000, -175.6690997404870416 ) ) ;
#67 = DIRECTION ( 'NONE',  ( -0.000000000000000000, -0.000000000000000000, 1.000000000000000000 ) ) ;
#68 = CARTESIAN_POINT ( 'NONE',  ( 7.000000000000000000, 0.000000000000000000, -7.000000000000000000 ) ) ;
#69 = AXIS2_PLACEMENT_3D ( 'NONE', #218, #145, #93 ) ;
#70 = LINE ( 'NONE', #275, #159 ) ;
#71 = CARTESIAN_POINT ( 'NONE',  ( 0.000000000000000000, 0.000000000000000000, -175.6690997404870416 ) ) ;
#72 = EDGE_CURVE ( 'NONE', #210, #132, #91, .T. ) ;
#73 = CARTESIAN_POINT ( 'NONE',  ( 7.000000000000000000, 0.000000000000000000, -7.000000000000000888 ) ) ;
#74 = CARTESIAN_POINT ( 'NONE',  ( 4.000000000000000000, 0.000000000000000000, -175.6690997404870416 ) ) ;
#75 = CYLINDRICAL_SURFACE ( 'NONE', #22, 7.000000000000000000 ) ;
#76 = DIRECTION ( 'NONE',  ( -0.000000000000000000, -0.000000000000000000, 1.000000000000000000 ) ) ;
#77 = PERSON_AND_ORGANIZATION ( #312, #165 ) ;
#78 = ORIENTED_EDGE ( 'NONE', *, *, #72, .T. ) ;
#79 = DATE_AND_TIME ( #101, #319 ) ;
#80 = VERTEX_POINT ( 'NONE', #196 ) ;
#81 = PERSON_AND_ORGANIZATION ( #312, #165 ) ;
#82 = ORIENTED_EDGE ( 'NONE', *, *, #49, .F. ) ;
#83 = COORDINATED_UNIVERSAL_TIME_OFFSET ( 5, 30, .AHEAD. ) ;
#84 = CIRCLE ( 'NONE', #252, 7.000000000000000000 ) ;
#85 = EDGE_LOOP ( 'NONE', ( #114, #137 ) ) ;
#86 = EDGE_CURVE ( 'NONE', #245, #188, #70, .T. ) ;
#87 = EDGE_LOOP ( 'NONE', ( #313, #208 ) ) ;
#88 = CARTESIAN_POINT ( 'NONE',  ( -7.000000000000000000, 8.572527594031473190E-16, -7.000000000000000888 ) ) ;
#89 = CARTESIAN_POINT ( 'NONE',  ( 0.000000000000000000, 0.000000000000000000, 7.000000000000000000 ) ) ;
#90 = EDGE_CURVE ( 'NONE', #318, #287, #278, .T. ) ;
#91 = LINE ( 'NONE', #122, #146 ) ;
#92 = PLANE ( 'NONE',  #27 ) ;
#93 = DIRECTION ( 'NONE',  ( 1.000000000000000000, 0.000000000000000000, 0.000000000000000000 ) ) ;
#94 = AXIS2_PLACEMENT_3D ( 'NONE', #96, #305, #129 ) ;
#95 = LOCAL_TIME ( 11, 9, 2.000000000000000000, #83 ) ;
#96 = CARTESIAN_POINT ( 'NONE',  ( 0.000000000000000000, 0.000000000000000000, -175.6690997404870416 ) ) ;
#97 = DIRECTION ( 'NONE',  ( 1.000000000000000000, 0.000000000000000000, 0.000000000000000000 ) ) ;
#98 = CARTESIAN_POINT ( 'NONE',  ( 7.000000000000000000, 0.000000000000000000, -189.6690997404870416 ) ) ;
#99 = DIRECTION ( 'NONE',  ( 1.000000000000000000, 0.000000000000000000, 0.000000000000000000 ) ) ;
#100 = CARTESIAN_POINT ( 'NONE',  ( -7.000000000000000000, 8.572527594031473190E-16, 10.00000000000000000 ) ) ;
#101 = CALENDAR_DATE ( 2026, 24, 9 ) ;
#102 = ORIENTED_EDGE ( 'NONE', *, *, #267, .T. ) ;
#103 = CIRCLE ( 'NONE', #298, 4.000000000000000000 ) ;
#104 = DATE_TIME_ROLE ( 'classification_date' ) ;
#105 = ORIENTED_EDGE ( 'NONE', *, *, #293, .F. ) ;
#106 = CC_DESIGN_DATE_AND_TIME_ASSIGNMENT ( #138, #311, ( #182 ) ) ;
#107 = EDGE_LOOP ( 'NONE', ( #7, #265, #247, #60 ) ) ;
#108 = MECHANICAL_CONTEXT ( 'NONE', #250, 'mechanical' ) ;
#109 = EDGE_LOOP ( 'NONE', ( #294, #102 ) ) ;
#110 = EDGE_CURVE ( 'NONE', #210, #236, #332, .T. ) ;
#111 = APPLICATION_PROTOCOL_DEFINITION ( 'international standard', 'config_control_design', 1994, #250 ) ;
#112 = AXIS2_PLACEMENT_3D ( 'NONE', #280, #15, #153 ) ;
#113 = AXIS2_PLACEMENT_3D ( 'NONE', #46, #199, #330 ) ;
#114 = ORIENTED_EDGE ( 'NONE', *, *, #110, .F. ) ;
#115 = ORIENTED_EDGE ( 'NONE', *, *, #297, .F. ) ;
#116 = DIRECTION ( 'NONE',  ( -0.000000000000000000, -0.000000000000000000, 1.000000000000000000 ) ) ;
#117 = CC_DESIGN_DATE_AND_TIME_ASSIGNMENT ( #2, #104, ( #248 ) ) ;
#118 = ADVANCED_BREP_SHAPE_REPRESENTATION ( 'JX1_AnkleRod_A', ( #335, #133 ), #222 ) ;
#119 = CARTESIAN_POINT ( 'NONE',  ( 0.000000000000000000, 0.000000000000000000, -189.6690997404870416 ) ) ;
#120 = CC_DESIGN_APPROVAL ( #224, ( #182 ) ) ;
#121 = DIRECTION ( 'NONE',  ( 1.000000000000000000, 0.000000000000000000, 0.000000000000000000 ) ) ;
#122 = CARTESIAN_POINT ( 'NONE',  ( 7.000000000000000000, 0.000000000000000000, 10.00000000000000000 ) ) ;
#123 = CARTESIAN_POINT ( 'NONE',  ( -7.000000000000000000, 8.572527594031473190E-16, -189.6690997404870416 ) ) ;
#124 = AXIS2_PLACEMENT_3D ( 'NONE', #300, #8, #194 ) ;
#125 = CARTESIAN_POINT ( 'NONE',  ( -4.000000000000000000, 4.898587196589412829E-16, -175.6690997404870416 ) ) ;
#126 = FACE_OUTER_BOUND ( 'NONE', #85, .T. ) ;
#127 = CYLINDRICAL_SURFACE ( 'NONE', #216, 7.000000000000000000 ) ;
#128 = VECTOR ( 'NONE', #255, 1000.000000000000000 ) ;
#129 = DIRECTION ( 'NONE',  ( 1.000000000000000000, 0.000000000000000000, 0.000000000000000000 ) ) ;
#130 = CALENDAR_DATE ( 2026, 24, 9 ) ;
#131 = COORDINATED_UNIVERSAL_TIME_OFFSET ( 5, 30, .AHEAD. ) ;
#132 = VERTEX_POINT ( 'NONE', #66 ) ;
#133 = AXIS2_PLACEMENT_3D ( 'NONE', #239, #30, #189 ) ;
#134 = DATE_AND_TIME ( #286, #95 ) ;
#135 = ORIENTED_EDGE ( 'NONE', *, *, #45, .T. ) ;
#136 = APPROVAL_ROLE ( '' ) ;
#137 = ORIENTED_EDGE ( 'NONE', *, *, #45, .F. ) ;
#138 = DATE_AND_TIME ( #320, #160 ) ;
#139 = EDGE_LOOP ( 'NONE', ( #1, #31 ) ) ;
#140 = CIRCLE ( 'NONE', #290, 7.000000000000000000 ) ;
#141 = EDGE_LOOP ( 'NONE', ( #115, #135, #78, #105 ) ) ;
#142 = DIRECTION ( 'NONE',  ( 0.000000000000000000, -0.000000000000000000, 1.000000000000000000 ) ) ;
#143 = CC_DESIGN_PERSON_AND_ORGANIZATION_ASSIGNMENT ( #283, #54, ( #65 ) ) ;
#144 = DIRECTION ( 'NONE',  ( -0.000000000000000000, -0.000000000000000000, 1.000000000000000000 ) ) ;
#145 = DIRECTION ( 'NONE',  ( -0.000000000000000000, -0.000000000000000000, 1.000000000000000000 ) ) ;
#146 = VECTOR ( 'NONE', #67, 1000.000000000000000 ) ;
#147 = APPROVAL_PERSON_ORGANIZATION ( #52, #261, #156 ) ;
#148 = CYLINDRICAL_SURFACE ( 'NONE', #289, 7.000000000000000000 ) ;
#149 = CARTESIAN_POINT ( 'NONE',  ( -7.000000000000000000, 8.572527594031473190E-16, 7.000000000000000000 ) ) ;
#150 = CARTESIAN_POINT ( 'NONE',  ( 4.000000000000000000, 0.000000000000000000, -7.000000000000000888 ) ) ;
#151 = LINE ( 'NONE', #100, #128 ) ;
#152 = APPLICATION_CONTEXT ( 'configuration controlled 3d designs of mechanical parts and assemblies' ) ;
#153 = DIRECTION ( 'NONE',  ( -1.000000000000000000, 0.000000000000000000, -0.000000000000000000 ) ) ;
#154 = DIRECTION ( 'NONE',  ( 1.000000000000000000, 0.000000000000000000, 0.000000000000000000 ) ) ;
#155 = CIRCLE ( 'NONE', #257, 4.000000000000000000 ) ;
#156 = APPROVAL_ROLE ( '' ) ;
#157 = ADVANCED_FACE ( 'NONE', ( #37 ), #301, .T. ) ;
#158 = SECURITY_CLASSIFICATION_LEVEL ( 'unclassified' ) ;
#159 = VECTOR ( 'NONE', #272, 1000.000000000000000 ) ;
#160 = LOCAL_TIME ( 11, 9, 2.000000000000000000, #131 ) ;
#161 =( NAMED_UNIT ( * ) PLANE_ANGLE_UNIT ( ) SI_UNIT ( $, .RADIAN. ) );
#162 = ADVANCED_FACE ( 'NONE', ( #326, #168 ), #92, .T. ) ;
#163 = ORIENTED_EDGE ( 'NONE', *, *, #53, .T. ) ;
#164 = EDGE_LOOP ( 'NONE', ( #284, #212, #4, #82 ) ) ;
#165 = ORGANIZATION ( 'UNSPECIFIED', 'UNSPECIFIED', '' ) ;
#166 = DIRECTION ( 'NONE',  ( 0.000000000000000000, -0.000000000000000000, 1.000000000000000000 ) ) ;
#167 = CC_DESIGN_PERSON_AND_ORGANIZATION_ASSIGNMENT ( #204, #32, ( #182 ) ) ;
#168 = FACE_OUTER_BOUND ( 'NONE', #87, .T. ) ;
#169 = DIRECTION ( 'NONE',  ( -0.000000000000000000, -0.000000000000000000, 1.000000000000000000 ) ) ;
#170 = VECTOR ( 'NONE', #144, 1000.000000000000000 ) ;
#171 = DIRECTION ( 'NONE',  ( 0.000000000000000000, 0.000000000000000000, -1.000000000000000000 ) ) ;
#172 = EDGE_CURVE ( 'NONE', #295, #245, #155, .T. ) ;
#173 = CC_DESIGN_APPROVAL ( #261, ( #65 ) ) ;
#174 = DIRECTION ( 'NONE',  ( -0.000000000000000000, -0.000000000000000000, 1.000000000000000000 ) ) ;
#175 = CYLINDRICAL_SURFACE ( 'NONE', #12, 7.000000000000000000 ) ;
#176 = CC_DESIGN_PERSON_AND_ORGANIZATION_ASSIGNMENT ( #259, #317, ( #248 ) ) ;
#177 = DIRECTION ( 'NONE',  ( 1.000000000000000000, 0.000000000000000000, 0.000000000000000000 ) ) ;
#178 = AXIS2_PLACEMENT_3D ( 'NONE', #277, #19, #304 ) ;
#179 = PLANE ( 'NONE',  #112 ) ;
#180 = DIRECTION ( 'NONE',  ( 1.000000000000000000, 0.000000000000000000, 0.000000000000000000 ) ) ;
#181 = DIRECTION ( 'NONE',  ( -0.000000000000000000, -0.000000000000000000, 1.000000000000000000 ) ) ;
#182 = PRODUCT_DEFINITION ( 'UNKNOWN', '', #65, #51 ) ;
#183 = LOCAL_TIME ( 11, 9, 2.000000000000000000, #25 ) ;
#184 = PERSON_AND_ORGANIZATION_ROLE ( 'creator' ) ;
#185 = ORIENTED_EDGE ( 'NONE', *, *, #327, .F. ) ;
#186 = PERSON_AND_ORGANIZATION ( #312, #165 ) ;
#187 = EDGE_LOOP ( 'NONE', ( #55, #207, #238, #244 ) ) ;
#188 = VERTEX_POINT ( 'NONE', #150 ) ;
#189 = DIRECTION ( 'NONE',  ( 1.000000000000000000, 0.000000000000000000, 0.000000000000000000 ) ) ;
#190 = ORIENTED_EDGE ( 'NONE', *, *, #6, .T. ) ;
#191 = PERSON_AND_ORGANIZATION ( #312, #165 ) ;
#192 = ORIENTED_EDGE ( 'NONE', *, *, #241, .F. ) ;
#193 = CARTESIAN_POINT ( 'NONE',  ( 0.000000000000000000, 0.000000000000000000, 10.00000000000000000 ) ) ;
#194 = DIRECTION ( 'NONE',  ( 1.000000000000000000, 0.000000000000000000, 0.000000000000000000 ) ) ;
#195 = CARTESIAN_POINT ( 'NONE',  ( 7.000000000000000000, 0.000000000000000000, 10.00000000000000000 ) ) ;
#196 = CARTESIAN_POINT ( 'NONE',  ( -7.000000000000000000, 8.572527594031473190E-16, -175.6690997404870416 ) ) ;
#197 = CLOSED_SHELL ( 'NONE', ( #324, #303, #34, #9, #269, #162, #157, #24, #285, #213 ) ) ;
#198 = DIRECTION ( 'NONE',  ( -1.000000000000000000, 0.000000000000000000, -0.000000000000000000 ) ) ;
#199 = DIRECTION ( 'NONE',  ( -0.000000000000000000, -0.000000000000000000, 1.000000000000000000 ) ) ;
#200 =( LENGTH_UNIT ( ) NAMED_UNIT ( * ) SI_UNIT ( .MILLI., .METRE. ) );
#201 = CC_DESIGN_PERSON_AND_ORGANIZATION_ASSIGNMENT ( #77, #184, ( #65 ) ) ;
#202 = DIRECTION ( 'NONE',  ( -0.000000000000000000, -0.000000000000000000, 1.000000000000000000 ) ) ;
#203 = FACE_OUTER_BOUND ( 'NONE', #141, .T. ) ;
#204 = PERSON_AND_ORGANIZATION ( #312, #165 ) ;
#205 = VERTEX_POINT ( 'NONE', #229 ) ;
#206 = APPROVAL_ROLE ( '' ) ;
#207 = ORIENTED_EDGE ( 'NONE', *, *, #241, .T. ) ;
#208 = ORIENTED_EDGE ( 'NONE', *, *, #53, .F. ) ;
#209 =( NAMED_UNIT ( * ) SI_UNIT ( $, .STERADIAN. ) SOLID_ANGLE_UNIT ( ) );
#210 = VERTEX_POINT ( 'NONE', #98 ) ;
#211 = APPROVAL_STATUS ( 'not_yet_approved' ) ;
#212 = ORIENTED_EDGE ( 'NONE', *, *, #172, .T. ) ;
#213 = ADVANCED_FACE ( 'NONE', ( #126 ), #179, .T. ) ;
#214 = DIRECTION ( 'NONE',  ( 1.000000000000000000, 0.000000000000000000, 0.000000000000000000 ) ) ;
#215 = DIRECTION ( 'NONE',  ( 1.000000000000000000, 0.000000000000000000, 0.000000000000000000 ) ) ;
#216 = AXIS2_PLACEMENT_3D ( 'NONE', #223, #181, #23 ) ;
#217 = CARTESIAN_POINT ( 'NONE',  ( -4.000000000000000000, 4.898587196589412829E-16, 10.00000000000000000 ) ) ;
#218 = CARTESIAN_POINT ( 'NONE',  ( 0.000000000000000000, 0.000000000000000000, 10.00000000000000000 ) ) ;
#219 = DIRECTION ( 'NONE',  ( -0.000000000000000000, -0.000000000000000000, 1.000000000000000000 ) ) ;
#220 = AXIS2_PLACEMENT_3D ( 'NONE', #246, #166, #322 ) ;
#221 = DIRECTION ( 'NONE',  ( 1.000000000000000000, 0.000000000000000000, 0.000000000000000000 ) ) ;
#222 =( GEOMETRIC_REPRESENTATION_CONTEXT ( 3 ) GLOBAL_UNCERTAINTY_ASSIGNED_CONTEXT ( ( #243 ) ) GLOBAL_UNIT_ASSIGNED_CONTEXT ( ( #200, #161, #209 ) ) REPRESENTATION_CONTEXT ( 'NONE', 'WORKASPACE' ) );
#223 = CARTESIAN_POINT ( 'NONE',  ( 0.000000000000000000, 0.000000000000000000, 10.00000000000000000 ) ) ;
#224 = APPROVAL ( #211, 'UNSPECIFIED' ) ;
#225 = PRODUCT ( 'JX1_AnkleRod_A', 'JX1_AnkleRod_A', '', ( #108 ) ) ;
#226 = CARTESIAN_POINT ( 'NONE',  ( 0.000000000000000000, 0.000000000000000000, -7.000000000000000888 ) ) ;
#227 = PRODUCT_RELATED_PRODUCT_CATEGORY ( 'detail', '', ( #225 ) ) ;
#228 = FACE_OUTER_BOUND ( 'NONE', #107, .T. ) ;
#229 = CARTESIAN_POINT ( 'NONE',  ( -4.000000000000000000, 4.898587196589412829E-16, -7.000000000000000888 ) ) ;
#230 = COORDINATED_UNIVERSAL_TIME_OFFSET ( 5, 30, .AHEAD. ) ;
#231 = APPROVAL_STATUS ( 'not_yet_approved' ) ;
#232 = EDGE_LOOP ( 'NONE', ( #192, #163, #315, #5 ) ) ;
#233 = CIRCLE ( 'NONE', #38, 4.000000000000000000 ) ;
#234 = CC_DESIGN_APPROVAL ( #56, ( #248 ) ) ;
#235 = APPROVAL_DATE_TIME ( #134, #56 ) ;
#236 = VERTEX_POINT ( 'NONE', #123 ) ;
#237 = SHAPE_DEFINITION_REPRESENTATION ( #41, #118 ) ;
#238 = ORIENTED_EDGE ( 'NONE', *, *, #90, .F. ) ;
#239 = CARTESIAN_POINT ( 'NONE',  ( 0.000000000000000000, 0.000000000000000000, 0.000000000000000000 ) ) ;
#240 = ORIENTED_EDGE ( 'NONE', *, *, #251, .F. ) ;
#241 = EDGE_CURVE ( 'NONE', #26, #287, #279, .T. ) ;
#242 = CIRCLE ( 'NONE', #94, 7.000000000000000000 ) ;
#243 = UNCERTAINTY_MEASURE_WITH_UNIT (LENGTH_MEASURE( 1.000000000000000082E-05 ), #200, 'distance_accuracy_value', 'NONE');
#244 = ORIENTED_EDGE ( 'NONE', *, *, #18, .F. ) ;
#245 = VERTEX_POINT ( 'NONE', #74 ) ;
#246 = CARTESIAN_POINT ( 'NONE',  ( 4.000000000000000000, 0.000000000000000000, -175.6690997404870416 ) ) ;
#247 = ORIENTED_EDGE ( 'NONE', *, *, #316, .F. ) ;
#248 = SECURITY_CLASSIFICATION ( '', '', #158 ) ;
#249 = DIRECTION ( 'NONE',  ( 1.000000000000000000, 0.000000000000000000, 0.000000000000000000 ) ) ;
#250 = APPLICATION_CONTEXT ( 'configuration controlled 3d designs of mechanical parts and assemblies' ) ;
#251 = EDGE_CURVE ( 'NONE', #245, #295, #103, .T. ) ;
#252 = AXIS2_PLACEMENT_3D ( 'NONE', #119, #116, #215 ) ;
#253 = FACE_OUTER_BOUND ( 'NONE', #232, .T. ) ;
#254 = FACE_OUTER_BOUND ( 'NONE', #288, .T. ) ;
#255 = DIRECTION ( 'NONE',  ( -0.000000000000000000, -0.000000000000000000, 1.000000000000000000 ) ) ;
#256 = DIRECTION ( 'NONE',  ( -0.000000000000000000, -0.000000000000000000, 1.000000000000000000 ) ) ;
#257 = AXIS2_PLACEMENT_3D ( 'NONE', #276, #42, #177 ) ;
#258 = APPLICATION_PROTOCOL_DEFINITION ( 'international standard', 'config_control_design', 1994, #152 ) ;
#259 = PERSON_AND_ORGANIZATION ( #312, #165 ) ;
#260 = ORIENTED_EDGE ( 'NONE', *, *, #251, .T. ) ;
#261 = APPROVAL ( #231, 'UNSPECIFIED' ) ;
#262 = VERTEX_POINT ( 'NONE', #73 ) ;
#263 = AXIS2_PLACEMENT_3D ( 'NONE', #282, #333, #97 ) ;
#264 = APPROVAL_STATUS ( 'not_yet_approved' ) ;
#265 = ORIENTED_EDGE ( 'NONE', *, *, #297, .T. ) ;
#266 = ORIENTED_EDGE ( 'NONE', *, *, #49, .T. ) ;
#267 = EDGE_CURVE ( 'NONE', #287, #318, #64, .T. ) ;
#268 = CIRCLE ( 'NONE', #59, 7.000000000000000000 ) ;
#269 = ADVANCED_FACE ( 'NONE', ( #253 ), #175, .T. ) ;
#270 = CARTESIAN_POINT ( 'NONE',  ( 0.000000000000000000, 0.000000000000000000, 7.000000000000000000 ) ) ;
#271 = EDGE_CURVE ( 'NONE', #262, #26, #140, .T. ) ;
#272 = DIRECTION ( 'NONE',  ( -0.000000000000000000, -0.000000000000000000, 1.000000000000000000 ) ) ;
#273 = CARTESIAN_POINT ( 'NONE',  ( 0.000000000000000000, 0.000000000000000000, -7.000000000000000888 ) ) ;
#274 = CIRCLE ( 'NONE', #263, 4.000000000000000000 ) ;
#275 = CARTESIAN_POINT ( 'NONE',  ( 4.000000000000000000, 0.000000000000000000, 10.00000000000000000 ) ) ;
#276 = CARTESIAN_POINT ( 'NONE',  ( 0.000000000000000000, 0.000000000000000000, -175.6690997404870416 ) ) ;
#277 = CARTESIAN_POINT ( 'NONE',  ( 0.000000000000000000, 0.000000000000000000, 10.00000000000000000 ) ) ;
#278 = CIRCLE ( 'NONE', #3, 7.000000000000000000 ) ;
#279 = LINE ( 'NONE', #329, #50 ) ;
#280 = CARTESIAN_POINT ( 'NONE',  ( 7.000000000000000000, 0.000000000000000000, -189.6690997404870416 ) ) ;
#281 = CARTESIAN_POINT ( 'NONE',  ( 0.000000000000000000, 0.000000000000000000, 10.00000000000000000 ) ) ;
#282 = CARTESIAN_POINT ( 'NONE',  ( 0.000000000000000000, 0.000000000000000000, -7.000000000000000888 ) ) ;
#283 = PERSON_AND_ORGANIZATION ( #312, #165 ) ;
#284 = ORIENTED_EDGE ( 'NONE', *, *, #6, .F. ) ;
#285 = ADVANCED_FACE ( 'NONE', ( #203 ), #75, .T. ) ;
#286 = CALENDAR_DATE ( 2026, 24, 9 ) ;
#287 = VERTEX_POINT ( 'NONE', #149 ) ;
#288 = EDGE_LOOP ( 'NONE', ( #260, #190, #185, #33 ) ) ;
#289 = AXIS2_PLACEMENT_3D ( 'NONE', #193, #169, #10 ) ;
#290 = AXIS2_PLACEMENT_3D ( 'NONE', #226, #256, #99 ) ;
#291 = APPROVAL_PERSON_ORGANIZATION ( #186, #56, #206 ) ;
#292 = COORDINATED_UNIVERSAL_TIME_OFFSET ( 5, 30, .AHEAD. ) ;
#293 = EDGE_CURVE ( 'NONE', #80, #132, #242, .T. ) ;
#294 = ORIENTED_EDGE ( 'NONE', *, *, #90, .T. ) ;
#295 = VERTEX_POINT ( 'NONE', #125 ) ;
#296 = DIRECTION ( 'NONE',  ( -0.000000000000000000, -0.000000000000000000, 1.000000000000000000 ) ) ;
#297 = EDGE_CURVE ( 'NONE', #236, #80, #151, .T. ) ;
#298 = AXIS2_PLACEMENT_3D ( 'NONE', #331, #47, #180 ) ;
#299 = LINE ( 'NONE', #217, #170 ) ;
#300 = CARTESIAN_POINT ( 'NONE',  ( 0.000000000000000000, 0.000000000000000000, -189.6690997404870416 ) ) ;
#301 = CYLINDRICAL_SURFACE ( 'NONE', #69, 4.000000000000000000 ) ;
#302 = PLANE ( 'NONE',  #44 ) ;
#303 = ADVANCED_FACE ( 'NONE', ( #254 ), #308, .T. ) ;
#304 = DIRECTION ( 'NONE',  ( 1.000000000000000000, 0.000000000000000000, 0.000000000000000000 ) ) ;
#305 = DIRECTION ( 'NONE',  ( -0.000000000000000000, -0.000000000000000000, 1.000000000000000000 ) ) ;
#306 = CARTESIAN_POINT ( 'NONE',  ( 0.000000000000000000, 0.000000000000000000, 10.00000000000000000 ) ) ;
#307 = AXIS2_PLACEMENT_3D ( 'NONE', #71, #20, #154 ) ;
#308 = CYLINDRICAL_SURFACE ( 'NONE', #178, 4.000000000000000000 ) ;
#309 = APPROVAL_DATE_TIME ( #79, #261 ) ;
#310 = CC_DESIGN_PERSON_AND_ORGANIZATION_ASSIGNMENT ( #191, #61, ( #225 ) ) ;
#311 = DATE_TIME_ROLE ( 'creation_date' ) ;
#312 = PERSON ( 'UNSPECIFIED', 'UNSPECIFIED', 'UNSPECIFIED', ('UNSPECIFIED'), ('UNSPECIFIED'), ('UNSPECIFIED') ) ;
#313 = ORIENTED_EDGE ( 'NONE', *, *, #271, .F. ) ;
#314 = APPROVAL_DATE_TIME ( #58, #224 ) ;
#315 = ORIENTED_EDGE ( 'NONE', *, *, #18, .T. ) ;
#316 = EDGE_CURVE ( 'NONE', #132, #80, #29, .T. ) ;
#317 = PERSON_AND_ORGANIZATION_ROLE ( 'classification_officer' ) ;
#318 = VERTEX_POINT ( 'NONE', #21 ) ;
#319 = LOCAL_TIME ( 11, 9, 2.000000000000000000, #230 ) ;
#320 = CALENDAR_DATE ( 2026, 24, 9 ) ;
#321 = EDGE_LOOP ( 'NONE', ( #240, #28 ) ) ;
#322 = DIRECTION ( 'NONE',  ( 1.000000000000000000, 0.000000000000000000, 0.000000000000000000 ) ) ;
#323 = CARTESIAN_POINT ( 'NONE',  ( 0.000000000000000000, 0.000000000000000000, -7.000000000000000888 ) ) ;
#324 = ADVANCED_FACE ( 'NONE', ( #228 ), #127, .T. ) ;
#325 = DIRECTION ( 'NONE',  ( -0.000000000000000000, -0.000000000000000000, 1.000000000000000000 ) ) ;
#326 = FACE_BOUND ( 'NONE', #62, .T. ) ;
#327 = EDGE_CURVE ( 'NONE', #188, #205, #274, .T. ) ;
#328 = LINE ( 'NONE', #195, #16 ) ;
#329 = CARTESIAN_POINT ( 'NONE',  ( -7.000000000000000000, 8.572527594031473190E-16, 10.00000000000000000 ) ) ;
#330 = DIRECTION ( 'NONE',  ( 1.000000000000000000, 0.000000000000000000, 0.000000000000000000 ) ) ;
#331 = CARTESIAN_POINT ( 'NONE',  ( 0.000000000000000000, 0.000000000000000000, -175.6690997404870416 ) ) ;
#332 = CIRCLE ( 'NONE', #124, 7.000000000000000000 ) ;
#333 = DIRECTION ( 'NONE',  ( -0.000000000000000000, -0.000000000000000000, 1.000000000000000000 ) ) ;
#334 = LOCAL_TIME ( 11, 9, 2.000000000000000000, #292 ) ;
#335 = MANIFOLD_SOLID_BREP ( 'Rod_Body', #197 ) ;
ENDSEC;
END-ISO-10303-21;
