ISO-10303-21;
HEADER;
FILE_DESCRIPTION (( 'STEP AP203' ),
    '1' );
FILE_NAME ('JX1_AnkleCross.STEP',
    '2026-09-24T05:38:54',
    ( '' ),
    ( '' ),
    'SwSTEP 2.0',
    'SolidWorks 2026',
    '' );
FILE_SCHEMA (( 'CONFIG_CONTROL_DESIGN' ));
ENDSEC;

DATA;
#1 = ORIENTED_EDGE ( 'NONE', *, *, #239, .F. ) ;
#2 = LINE ( 'NONE', #175, #128 ) ;
#3 = ORIENTED_EDGE ( 'NONE', *, *, #88, .T. ) ;
#4 = FACE_OUTER_BOUND ( 'NONE', #263, .T. ) ;
#5 = EDGE_LOOP ( 'NONE', ( #44, #408 ) ) ;
#6 = EDGE_CURVE ( 'NONE', #57, #174, #179, .T. ) ;
#7 = VECTOR ( 'NONE', #286, 1000.000000000000000 ) ;
#8 = LINE ( 'NONE', #450, #220 ) ;
#9 = CC_DESIGN_DATE_AND_TIME_ASSIGNMENT ( #464, #353, ( #254 ) ) ;
#10 = CARTESIAN_POINT ( 'NONE',  ( -16.00000000000000000, 16.50000000000000000, -13.00000000000000000 ) ) ;
#11 = DIRECTION ( 'NONE',  ( 1.000000000000000000, -0.000000000000000000, -0.000000000000000000 ) ) ;
#12 = DIRECTION ( 'NONE',  ( -0.000000000000000000, 0.000000000000000000, -1.000000000000000000 ) ) ;
#13 = SECURITY_CLASSIFICATION ( '', '', #311 ) ;
#14 = CARTESIAN_POINT ( 'NONE',  ( 0.000000000000000000, 0.000000000000000000, 0.000000000000000000 ) ) ;
#15 = DIRECTION ( 'NONE',  ( 0.000000000000000000, 0.000000000000000000, -1.000000000000000000 ) ) ;
#16 = VERTEX_POINT ( 'NONE', #79 ) ;
#17 = PERSON_AND_ORGANIZATION ( #117, #470 ) ;
#18 = DIRECTION ( 'NONE',  ( -0.000000000000000000, 0.000000000000000000, 1.000000000000000000 ) ) ;
#19 = PERSON_AND_ORGANIZATION_ROLE ( 'classification_officer' ) ;
#20 = LINE ( 'NONE', #358, #31 ) ;
#21 = AXIS2_PLACEMENT_3D ( 'NONE', #182, #332, #445 ) ;
#22 = ORIENTED_EDGE ( 'NONE', *, *, #391, .T. ) ;
#23 = AXIS2_PLACEMENT_3D ( 'NONE', #363, #38, #107 ) ;
#24 = APPROVAL_ROLE ( '' ) ;
#25 = DIRECTION ( 'NONE',  ( 0.000000000000000000, 0.000000000000000000, 1.000000000000000000 ) ) ;
#26 = CALENDAR_DATE ( 2026, 24, 9 ) ;
#27 = LINE ( 'NONE', #468, #211 ) ;
#28 = ADVANCED_FACE ( 'NONE', ( #447 ), #415, .F. ) ;
#29 = LINE ( 'NONE', #393, #70 ) ;
#30 = ADVANCED_FACE ( 'NONE', ( #39 ), #336, .F. ) ;
#31 = VECTOR ( 'NONE', #209, 1000.000000000000000 ) ;
#32 = ORIENTED_EDGE ( 'NONE', *, *, #193, .F. ) ;
#33 = DIRECTION ( 'NONE',  ( 1.000000000000000000, 0.000000000000000000, 0.000000000000000000 ) ) ;
#34 = EDGE_LOOP ( 'NONE', ( #177, #222, #416, #365 ) ) ;
#35 = FACE_BOUND ( 'NONE', #111, .T. ) ;
#36 = ORIENTED_EDGE ( 'NONE', *, *, #300, .T. ) ;
#37 = ORIENTED_EDGE ( 'NONE', *, *, #373, .T. ) ;
#38 = DIRECTION ( 'NONE',  ( -1.000000000000000000, 0.000000000000000000, 0.000000000000000000 ) ) ;
#39 = FACE_OUTER_BOUND ( 'NONE', #374, .T. ) ;
#40 = ORIENTED_EDGE ( 'NONE', *, *, #50, .F. ) ;
#41 = VECTOR ( 'NONE', #89, 1000.000000000000000 ) ;
#42 = CARTESIAN_POINT ( 'NONE',  ( 0.000000000000000000, 20.00000000000000000, -4.000000000000000000 ) ) ;
#43 = DIRECTION ( 'NONE',  ( 0.000000000000000000, -0.000000000000000000, -1.000000000000000000 ) ) ;
#44 = ORIENTED_EDGE ( 'NONE', *, *, #395, .F. ) ;
#45 = DIRECTION ( 'NONE',  ( -1.000000000000000000, 0.000000000000000000, 0.000000000000000000 ) ) ;
#46 = CARTESIAN_POINT ( 'NONE',  ( -7.999999999999996447, 7.999999999999996447, 4.000000000000000000 ) ) ;
#47 = CC_DESIGN_PERSON_AND_ORGANIZATION_ASSIGNMENT ( #384, #241, ( #480 ) ) ;
#48 = VECTOR ( 'NONE', #66, 1000.000000000000000 ) ;
#49 = FACE_OUTER_BOUND ( 'NONE', #458, .T. ) ;
#50 = EDGE_CURVE ( 'NONE', #394, #443, #364, .T. ) ;
#51 = DIRECTION ( 'NONE',  ( -1.000000000000000000, -0.000000000000000000, 0.000000000000000000 ) ) ;
#52 = CC_DESIGN_PERSON_AND_ORGANIZATION_ASSIGNMENT ( #459, #213, ( #480 ) ) ;
#53 = CARTESIAN_POINT ( 'NONE',  ( 0.000000000000000000, 0.000000000000000000, -4.000000000000000000 ) ) ;
#54 = PERSON_AND_ORGANIZATION ( #117, #470 ) ;
#55 = CARTESIAN_POINT ( 'NONE',  ( 0.000000000000000000, 0.000000000000000000, 4.000000000000000000 ) ) ;
#56 = APPROVAL_PERSON_ORGANIZATION ( #158, #330, #24 ) ;
#57 = VERTEX_POINT ( 'NONE', #138 ) ;
#58 = PERSON_AND_ORGANIZATION ( #117, #470 ) ;
#59 = CARTESIAN_POINT ( 'NONE',  ( 0.000000000000000000, 0.000000000000000000, -13.00000000000000000 ) ) ;
#60 = DIRECTION ( 'NONE',  ( -1.000000000000000000, 0.000000000000000000, 0.000000000000000000 ) ) ;
#61 = MECHANICAL_CONTEXT ( 'NONE', #381, 'mechanical' ) ;
#62 = LINE ( 'NONE', #283, #63 ) ;
#63 = VECTOR ( 'NONE', #167, 1000.000000000000000 ) ;
#64 = APPROVAL_PERSON_ORGANIZATION ( #392, #281, #94 ) ;
#65 = COORDINATED_UNIVERSAL_TIME_OFFSET ( 5, 30, .AHEAD. ) ;
#66 = DIRECTION ( 'NONE',  ( 0.000000000000000000, 1.000000000000000000, 0.000000000000000000 ) ) ;
#67 = CARTESIAN_POINT ( 'NONE',  ( -16.00000000000000355, 0.000000000000000000, 0.000000000000000000 ) ) ;
#68 =( BOUNDED_CURVE ( )  B_SPLINE_CURVE ( 3, ( #278, #101, #324, #93 ),
 .UNSPECIFIED., .F., .T. ) 
 B_SPLINE_CURVE_WITH_KNOTS ( ( 4, 4 ),
 ( 4.712388980384689674, 7.853981633974482790 ),
 .UNSPECIFIED. ) 
 CURVE ( )  GEOMETRIC_REPRESENTATION_ITEM ( )  RATIONAL_B_SPLINE_CURVE ( ( 1.000000000000000000, 0.3333333333333333703, 0.3333333333333333703, 1.000000000000000000 ) ) 
 REPRESENTATION_ITEM ( '' )  );
#69 = CYLINDRICAL_SURFACE ( 'NONE', #23, 4.000000000000000000 ) ;
#70 = VECTOR ( 'NONE', #316, 1000.000000000000000 ) ;
#71 = AXIS2_PLACEMENT_3D ( 'NONE', #59, #18, #159 ) ;
#72 = ORIENTED_EDGE ( 'NONE', *, *, #197, .T. ) ;
#73 = DIRECTION ( 'NONE',  ( -1.000000000000000000, 0.000000000000000000, 0.000000000000000000 ) ) ;
#74 = CARTESIAN_POINT ( 'NONE',  ( -16.00000000000000000, 16.50000000000000000, 13.00000000000000000 ) ) ;
#75 = ORIENTED_EDGE ( 'NONE', *, *, #252, .T. ) ;
#76 =( LENGTH_UNIT ( ) NAMED_UNIT ( * ) SI_UNIT ( .MILLI., .METRE. ) );
#77 = ORIENTED_EDGE ( 'NONE', *, *, #432, .T. ) ;
#78 = EDGE_LOOP ( 'NONE', ( #75, #329, #334, #410 ) ) ;
#79 = CARTESIAN_POINT ( 'NONE',  ( 16.00000000000000000, 16.50000000000000000, -13.00000000000000000 ) ) ;
#80 = ORIENTED_EDGE ( 'NONE', *, *, #340, .F. ) ;
#81 = AXIS2_PLACEMENT_3D ( 'NONE', #321, #249, #98 ) ;
#82 = AXIS2_PLACEMENT_3D ( 'NONE', #14, #388, #168 ) ;
#83 = DIRECTION ( 'NONE',  ( 0.000000000000000000, 1.000000000000000000, 0.000000000000000000 ) ) ;
#84 = CARTESIAN_POINT ( 'NONE',  ( 0.000000000000000000, 20.00000000000000000, 0.000000000000000000 ) ) ;
#85 = ADVANCED_FACE ( 'NONE', ( #191, #439 ), #258, .F. ) ;
#86 = DIRECTION ( 'NONE',  ( -1.000000000000000000, 0.000000000000000000, 0.000000000000000000 ) ) ;
#87 = FACE_BOUND ( 'NONE', #5, .T. ) ;
#88 = EDGE_CURVE ( 'NONE', #57, #116, #187, .T. ) ;
#89 = DIRECTION ( 'NONE',  ( -0.000000000000000000, -0.000000000000000000, -1.000000000000000000 ) ) ;
#90 = CARTESIAN_POINT ( 'NONE',  ( 4.898587196589412829E-16, -16.50000000000000355, 4.000000000000000000 ) ) ;
#91 = DESIGN_CONTEXT ( 'detailed design', #199, 'design' ) ;
#92 = EDGE_CURVE ( 'NONE', #267, #160, #314, .T. ) ;
#93 = CARTESIAN_POINT ( 'NONE',  ( 0.000000000000000000, 0.000000000000000000, 4.000000000000000000 ) ) ;
#94 = APPROVAL_ROLE ( '' ) ;
#95 = LINE ( 'NONE', #356, #7 ) ;
#96 = EDGE_CURVE ( 'NONE', #228, #279, #125, .T. ) ;
#97 = VERTEX_POINT ( 'NONE', #198 ) ;
#98 = DIRECTION ( 'NONE',  ( 1.000000000000000000, 0.000000000000000000, 0.000000000000000000 ) ) ;
#99 = ADVANCED_FACE ( 'NONE', ( #200 ), #423, .F. ) ;
#100 = SHAPE_DEFINITION_REPRESENTATION ( #412, #309 ) ;
#101 = CARTESIAN_POINT ( 'NONE',  ( -7.999999999999996447, -7.999999999999996447, -4.000000000000000888 ) ) ;
#102 = CIRCLE ( 'NONE', #479, 4.000000000000000000 ) ;
#103 =( BOUNDED_CURVE ( )  B_SPLINE_CURVE ( 3, ( #304, #46, #417, #53 ),
 .UNSPECIFIED., .F., .T. ) 
 B_SPLINE_CURVE_WITH_KNOTS ( ( 4, 4 ),
 ( 1.570796326794896558, 4.712388980384689674 ),
 .UNSPECIFIED. ) 
 CURVE ( )  GEOMETRIC_REPRESENTATION_ITEM ( )  RATIONAL_B_SPLINE_CURVE ( ( 1.000000000000000000, 0.3333333333333333703, 0.3333333333333333703, 1.000000000000000000 ) ) 
 REPRESENTATION_ITEM ( '' )  );
#104 = CC_DESIGN_PERSON_AND_ORGANIZATION_ASSIGNMENT ( #54, #19, ( #13 ) ) ;
#105 = DIRECTION ( 'NONE',  ( 0.000000000000000000, 0.000000000000000000, 1.000000000000000000 ) ) ;
#106 = ORIENTED_EDGE ( 'NONE', *, *, #373, .F. ) ;
#107 = DIRECTION ( 'NONE',  ( 0.000000000000000000, 0.000000000000000000, 1.000000000000000000 ) ) ;
#108 = VERTEX_POINT ( 'NONE', #235 ) ;
#109 = CARTESIAN_POINT ( 'NONE',  ( 0.000000000000000000, 20.00000000000000000, 0.000000000000000000 ) ) ;
#110 = ORIENTED_EDGE ( 'NONE', *, *, #292, .F. ) ;
#111 = EDGE_LOOP ( 'NONE', ( #217, #80 ) ) ;
#112 = CARTESIAN_POINT ( 'NONE',  ( 16.00000000000000000, 16.50000000000000000, 13.00000000000000000 ) ) ;
#113 = ORIENTED_EDGE ( 'NONE', *, *, #472, .T. ) ;
#114 = ORIENTED_EDGE ( 'NONE', *, *, #6, .T. ) ;
#115 = EDGE_CURVE ( 'NONE', #370, #261, #469, .T. ) ;
#116 = VERTEX_POINT ( 'NONE', #377 ) ;
#117 = PERSON ( 'UNSPECIFIED', 'UNSPECIFIED', 'UNSPECIFIED', ('UNSPECIFIED'), ('UNSPECIFIED'), ('UNSPECIFIED') ) ;
#118 = AXIS2_PLACEMENT_3D ( 'NONE', #335, #83, #144 ) ;
#119 = VERTEX_POINT ( 'NONE', #349 ) ;
#120 = DIRECTION ( 'NONE',  ( 0.000000000000000000, -1.000000000000000000, 0.000000000000000000 ) ) ;
#121 = PLANE ( 'NONE',  #237 ) ;
#122 = ADVANCED_FACE ( 'NONE', ( #87, #123 ), #121, .F. ) ;
#123 = FACE_OUTER_BOUND ( 'NONE', #402, .T. ) ;
#124 = DIRECTION ( 'NONE',  ( -0.000000000000000000, -0.000000000000000000, -1.000000000000000000 ) ) ;
#125 = LINE ( 'NONE', #273, #271 ) ;
#126 = PERSON_AND_ORGANIZATION ( #117, #470 ) ;
#127 = CARTESIAN_POINT ( 'NONE',  ( 0.000000000000000000, 16.50000000000000000, 0.000000000000000000 ) ) ;
#128 = VECTOR ( 'NONE', #438, 1000.000000000000000 ) ;
#129 = EDGE_CURVE ( 'NONE', #174, #394, #301, .T. ) ;
#130 = ORIENTED_EDGE ( 'NONE', *, *, #345, .T. ) ;
#131 = DATE_AND_TIME ( #26, #266 ) ;
#132 = CARTESIAN_POINT ( 'NONE',  ( 16.00000000000000000, -16.50000000000000000, -13.00000000000000000 ) ) ;
#133 = APPLICATION_PROTOCOL_DEFINITION ( 'international standard', 'config_control_design', 1994, #199 ) ;
#134 = CARTESIAN_POINT ( 'NONE',  ( 20.00000000000000000, 0.000000000000000000, 0.000000000000000000 ) ) ;
#135 = AXIS2_PLACEMENT_3D ( 'NONE', #178, #73, #223 ) ;
#136 = CARTESIAN_POINT ( 'NONE',  ( 0.000000000000000000, 0.000000000000000000, 4.000000000000000000 ) ) ;
#137 = ORIENTED_EDGE ( 'NONE', *, *, #395, .T. ) ;
#138 = CARTESIAN_POINT ( 'NONE',  ( -16.00000000000000000, 16.50000000000000000, 13.00000000000000000 ) ) ;
#139 = ORIENTED_EDGE ( 'NONE', *, *, #173, .T. ) ;
#140 = CC_DESIGN_PERSON_AND_ORGANIZATION_ASSIGNMENT ( #58, #205, ( #254 ) ) ;
#141 = DIRECTION ( 'NONE',  ( -1.000000000000000000, 0.000000000000000000, 0.000000000000000000 ) ) ;
#142 = ORIENTED_EDGE ( 'NONE', *, *, #420, .F. ) ;
#143 = ORIENTED_EDGE ( 'NONE', *, *, #92, .T. ) ;
#144 = DIRECTION ( 'NONE',  ( 0.000000000000000000, -0.000000000000000000, 1.000000000000000000 ) ) ;
#145 = EDGE_LOOP ( 'NONE', ( #36, #429, #478, #255 ) ) ;
#146 = FACE_OUTER_BOUND ( 'NONE', #34, .T. ) ;
#147 = ORIENTED_EDGE ( 'NONE', *, *, #305, .T. ) ;
#148 = AXIS2_PLACEMENT_3D ( 'NONE', #134, #163, #312 ) ;
#149 = CARTESIAN_POINT ( 'NONE',  ( 16.00000000000000000, 0.000000000000000000, 0.000000000000000000 ) ) ;
#150 = CARTESIAN_POINT ( 'NONE',  ( 0.000000000000000000, 20.00000000000000000, 0.000000000000000000 ) ) ;
#151 = DIRECTION ( 'NONE',  ( 1.000000000000000000, 0.000000000000000000, -0.000000000000000000 ) ) ;
#152 = AXIS2_PLACEMENT_3D ( 'NONE', #242, #238, #347 ) ;
#153 = DIRECTION ( 'NONE',  ( -1.000000000000000000, 0.000000000000000000, 0.000000000000000000 ) ) ;
#154 = PERSON_AND_ORGANIZATION_ROLE ( 'design_owner' ) ;
#155 = CARTESIAN_POINT ( 'NONE',  ( 0.000000000000000000, 0.000000000000000000, -4.000000000000000000 ) ) ;
#156 = EDGE_LOOP ( 'NONE', ( #139, #207, #189, #130 ) ) ;
#157 = CC_DESIGN_DATE_AND_TIME_ASSIGNMENT ( #427, #357, ( #13 ) ) ;
#158 = PERSON_AND_ORGANIZATION ( #117, #470 ) ;
#159 = DIRECTION ( 'NONE',  ( 1.000000000000000000, 0.000000000000000000, 0.000000000000000000 ) ) ;
#160 = VERTEX_POINT ( 'NONE', #90 ) ;
#161 = DATE_AND_TIME ( #201, #380 ) ;
#162 = AXIS2_PLACEMENT_3D ( 'NONE', #396, #319, #105 ) ;
#163 = DIRECTION ( 'NONE',  ( -1.000000000000000000, 0.000000000000000000, 0.000000000000000000 ) ) ;
#164 = ORIENTED_EDGE ( 'NONE', *, *, #472, .F. ) ;
#165 = CALENDAR_DATE ( 2026, 24, 9 ) ;
#166 = EDGE_CURVE ( 'NONE', #119, #228, #386, .T. ) ;
#167 = DIRECTION ( 'NONE',  ( 0.000000000000000000, -1.000000000000000000, 0.000000000000000000 ) ) ;
#168 = DIRECTION ( 'NONE',  ( 1.000000000000000000, 0.000000000000000000, 0.000000000000000000 ) ) ;
#169 = DIRECTION ( 'NONE',  ( 0.000000000000000000, 0.000000000000000000, 1.000000000000000000 ) ) ;
#170 = FACE_OUTER_BOUND ( 'NONE', #426, .T. ) ;
#171 = CLOSED_SHELL ( 'NONE', ( #30, #302, #203, #99, #28, #424, #122, #405, #466, #85, #268, #401, #451, #337 ) ) ;
#172 = LOCAL_TIME ( 11, 8, 54.00000000000000000, #433 ) ;
#173 = EDGE_CURVE ( 'NONE', #16, #116, #385, .T. ) ;
#174 = VERTEX_POINT ( 'NONE', #378 ) ;
#175 = CARTESIAN_POINT ( 'NONE',  ( 4.898587196589412829E-16, 20.00000000000000000, 4.000000000000000000 ) ) ;
#176 = APPROVAL ( #434, 'UNSPECIFIED' ) ;
#177 = ORIENTED_EDGE ( 'NONE', *, *, #96, .F. ) ;
#178 = CARTESIAN_POINT ( 'NONE',  ( 16.00000000000000000, -16.50000000000000000, 13.00000000000000000 ) ) ;
#179 = LINE ( 'NONE', #74, #331 ) ;
#180 = ORIENTED_EDGE ( 'NONE', *, *, #115, .F. ) ;
#181 = DIRECTION ( 'NONE',  ( 0.000000000000000000, 0.000000000000000000, -1.000000000000000000 ) ) ;
#182 = CARTESIAN_POINT ( 'NONE',  ( 20.00000000000000000, 0.000000000000000000, 0.000000000000000000 ) ) ;
#183 = AXIS2_PLACEMENT_3D ( 'NONE', #112, #411, #43 ) ;
#184 = VECTOR ( 'NONE', #376, 1000.000000000000000 ) ;
#185 = VERTEX_POINT ( 'NONE', #308 ) ;
#186 = CYLINDRICAL_SURFACE ( 'NONE', #307, 4.000000000000000000 ) ;
#187 = LINE ( 'NONE', #456, #285 ) ;
#188 = PRODUCT ( 'JX1_AnkleCross', 'JX1_AnkleCross', '', ( #61 ) ) ;
#189 = ORIENTED_EDGE ( 'NONE', *, *, #409, .F. ) ;
#190 = FACE_OUTER_BOUND ( 'NONE', #476, .T. ) ;
#191 = FACE_BOUND ( 'NONE', #360, .T. ) ;
#192 = CYLINDRICAL_SURFACE ( 'NONE', #194, 4.000000000000000000 ) ;
#193 = EDGE_CURVE ( 'NONE', #279, #414, #348, .T. ) ;
#194 = AXIS2_PLACEMENT_3D ( 'NONE', #303, #453, #341 ) ;
#195 = LOCAL_TIME ( 11, 8, 54.00000000000000000, #318 ) ;
#196 = DIRECTION ( 'NONE',  ( 0.000000000000000000, 0.000000000000000000, 1.000000000000000000 ) ) ;
#197 = EDGE_CURVE ( 'NONE', #279, #414, #103, .T. ) ;
#198 = CARTESIAN_POINT ( 'NONE',  ( 16.00000000000000000, 16.50000000000000000, 13.00000000000000000 ) ) ;
#199 = APPLICATION_CONTEXT ( 'configuration controlled 3d designs of mechanical parts and assemblies' ) ;
#200 = FACE_OUTER_BOUND ( 'NONE', #145, .T. ) ;
#201 = CALENDAR_DATE ( 2026, 24, 9 ) ;
#202 = DIRECTION ( 'NONE',  ( 0.000000000000000000, -1.000000000000000000, 0.000000000000000000 ) ) ;
#203 = ADVANCED_FACE ( 'NONE', ( #49 ), #192, .F. ) ;
#204 = ORIENTED_EDGE ( 'NONE', *, *, #197, .F. ) ;
#205 = PERSON_AND_ORGANIZATION_ROLE ( 'creator' ) ;
#206 = DIRECTION ( 'NONE',  ( -1.000000000000000000, -0.000000000000000000, 0.000000000000000000 ) ) ;
#207 = ORIENTED_EDGE ( 'NONE', *, *, #88, .F. ) ;
#208 = COORDINATED_UNIVERSAL_TIME_OFFSET ( 5, 30, .AHEAD. ) ;
#209 = DIRECTION ( 'NONE',  ( -1.000000000000000000, 0.000000000000000000, 0.000000000000000000 ) ) ;
#210 = APPROVAL_DATE_TIME ( #131, #330 ) ;
#211 = VECTOR ( 'NONE', #428, 1000.000000000000000 ) ;
#212 = CARTESIAN_POINT ( 'NONE',  ( 20.00000000000000000, 0.000000000000000000, 0.000000000000000000 ) ) ;
#213 = PERSON_AND_ORGANIZATION_ROLE ( 'creator' ) ;
#214 = FACE_OUTER_BOUND ( 'NONE', #437, .T. ) ;
#215 = MANIFOLD_SOLID_BREP ( 'Roll_Bore', #171 ) ;
#216 = DIRECTION ( 'NONE',  ( 0.000000000000000000, 0.000000000000000000, -1.000000000000000000 ) ) ;
#217 = ORIENTED_EDGE ( 'NONE', *, *, #92, .F. ) ;
#218 =( BOUNDED_CURVE ( )  B_SPLINE_CURVE ( 3, ( #435, #399, #280, #136 ),
 .UNSPECIFIED., .F., .F. ) 
 B_SPLINE_CURVE_WITH_KNOTS ( ( 4, 4 ),
 ( 1.570796326794896558, 4.712388980384689674 ),
 .UNSPECIFIED. ) 
 CURVE ( )  GEOMETRIC_REPRESENTATION_ITEM ( )  RATIONAL_B_SPLINE_CURVE ( ( 1.000000000000000000, 0.3333333333333333703, 0.3333333333333333703, 1.000000000000000000 ) ) 
 REPRESENTATION_ITEM ( '' )  );
#219 = DIRECTION ( 'NONE',  ( 0.000000000000000000, -1.000000000000000000, 0.000000000000000000 ) ) ;
#220 = VECTOR ( 'NONE', #86, 1000.000000000000000 ) ;
#221 = EDGE_CURVE ( 'NONE', #261, #279, #8, .T. ) ;
#222 = ORIENTED_EDGE ( 'NONE', *, *, #292, .T. ) ;
#223 = DIRECTION ( 'NONE',  ( 0.000000000000000000, 0.000000000000000000, 1.000000000000000000 ) ) ;
#224 = EDGE_CURVE ( 'NONE', #406, #185, #244, .T. ) ;
#225 = ORIENTED_EDGE ( 'NONE', *, *, #224, .T. ) ;
#226 = CARTESIAN_POINT ( 'NONE',  ( 0.000000000000000000, 0.000000000000000000, -4.000000000000000000 ) ) ;
#227 = DIRECTION ( 'NONE',  ( 0.000000000000000000, -1.000000000000000000, 0.000000000000000000 ) ) ;
#228 = VERTEX_POINT ( 'NONE', #344 ) ;
#229 = UNCERTAINTY_MEASURE_WITH_UNIT (LENGTH_MEASURE( 1.000000000000000082E-05 ), #76, 'distance_accuracy_value', 'NONE');
#230 = PLANE ( 'NONE',  #118 ) ;
#231 = APPROVAL_PERSON_ORGANIZATION ( #126, #176, #355 ) ;
#232 = ORIENTED_EDGE ( 'NONE', *, *, #6, .F. ) ;
#233 = CARTESIAN_POINT ( 'NONE',  ( -16.00000000000000355, 4.898587196589412829E-16, -4.000000000000000000 ) ) ;
#234 = CARTESIAN_POINT ( 'NONE',  ( -16.00000000000000000, -16.50000000000000000, -13.00000000000000000 ) ) ;
#235 = CARTESIAN_POINT ( 'NONE',  ( 16.00000000000000000, -16.50000000000000000, 13.00000000000000000 ) ) ;
#236 = CARTESIAN_POINT ( 'NONE',  ( -16.00000000000000355, 0.000000000000000000, 0.000000000000000000 ) ) ;
#237 = AXIS2_PLACEMENT_3D ( 'NONE', #269, #151, #12 ) ;
#238 = DIRECTION ( 'NONE',  ( -0.000000000000000000, 1.000000000000000000, -0.000000000000000000 ) ) ;
#239 = EDGE_CURVE ( 'NONE', #116, #394, #272, .T. ) ;
#240 = CARTESIAN_POINT ( 'NONE',  ( 7.999999999999996447, -7.999999999999996447, 4.000000000000000888 ) ) ;
#241 = PERSON_AND_ORGANIZATION_ROLE ( 'design_supplier' ) ;
#242 = CARTESIAN_POINT ( 'NONE',  ( 0.000000000000000000, 16.50000000000000000, 0.000000000000000000 ) ) ;
#243 =( NAMED_UNIT ( * ) SI_UNIT ( $, .STERADIAN. ) SOLID_ANGLE_UNIT ( ) );
#244 = CIRCLE ( 'NONE', #323, 4.000000000000000000 ) ;
#245 = CARTESIAN_POINT ( 'NONE',  ( 16.00000000000000000, 0.000000000000000000, 4.000000000000000000 ) ) ;
#246 = ORIENTED_EDGE ( 'NONE', *, *, #50, .T. ) ;
#247 = DIRECTION ( 'NONE',  ( 1.000000000000000000, -0.000000000000000000, -0.000000000000000000 ) ) ;
#248 = APPROVAL_STATUS ( 'not_yet_approved' ) ;
#249 = DIRECTION ( 'NONE',  ( -0.000000000000000000, 0.000000000000000000, 1.000000000000000000 ) ) ;
#250 = AXIS2_PLACEMENT_3D ( 'NONE', #212, #60, #169 ) ;
#251 = FACE_OUTER_BOUND ( 'NONE', #387, .T. ) ;
#252 = EDGE_CURVE ( 'NONE', #443, #16, #419, .T. ) ;
#253 = CYLINDRICAL_SURFACE ( 'NONE', #148, 4.000000000000000000 ) ;
#254 = PRODUCT_DEFINITION ( 'UNKNOWN', '', #480, #91 ) ;
#255 = ORIENTED_EDGE ( 'NONE', *, *, #391, .F. ) ;
#256 = DIRECTION ( 'NONE',  ( 0.000000000000000000, 1.000000000000000000, 0.000000000000000000 ) ) ;
#257 = CIRCLE ( 'NONE', #277, 4.000000000000000000 ) ;
#258 = PLANE ( 'NONE',  #183 ) ;
#259 = ORIENTED_EDGE ( 'NONE', *, *, #193, .T. ) ;
#260 = ORIENTED_EDGE ( 'NONE', *, *, #129, .T. ) ;
#261 = VERTEX_POINT ( 'NONE', #245 ) ;
#262 = ORIENTED_EDGE ( 'NONE', *, *, #115, .T. ) ;
#263 = EDGE_LOOP ( 'NONE', ( #246, #339, #106, #260 ) ) ;
#264 = FACE_OUTER_BOUND ( 'NONE', #78, .T. ) ;
#265 = VECTOR ( 'NONE', #153, 1000.000000000000000 ) ;
#266 = LOCAL_TIME ( 11, 8, 54.00000000000000000, #397 ) ;
#267 = VERTEX_POINT ( 'NONE', #431 ) ;
#268 = ADVANCED_FACE ( 'NONE', ( #460 ), #354, .T. ) ;
#269 = CARTESIAN_POINT ( 'NONE',  ( -16.00000000000000000, 16.50000000000000000, 13.00000000000000000 ) ) ;
#270 = DIRECTION ( 'NONE',  ( 0.000000000000000000, -1.000000000000000000, 0.000000000000000000 ) ) ;
#271 = VECTOR ( 'NONE', #202, 1000.000000000000000 ) ;
#272 = LINE ( 'NONE', #10, #306 ) ;
#273 = CARTESIAN_POINT ( 'NONE',  ( 4.898587196589412829E-16, 20.00000000000000000, 4.000000000000000000 ) ) ;
#274 = DIRECTION ( 'NONE',  ( 0.000000000000000000, 0.000000000000000000, 1.000000000000000000 ) ) ;
#275 = CALENDAR_DATE ( 2026, 24, 9 ) ;
#276 = AXIS2_PLACEMENT_3D ( 'NONE', #84, #227, #475 ) ;
#277 = AXIS2_PLACEMENT_3D ( 'NONE', #67, #206, #216 ) ;
#278 = CARTESIAN_POINT ( 'NONE',  ( 0.000000000000000000, 0.000000000000000000, -4.000000000000000000 ) ) ;
#279 = VERTEX_POINT ( 'NONE', #390 ) ;
#280 = CARTESIAN_POINT ( 'NONE',  ( 7.999999999999996447, 7.999999999999996447, 3.999999999999997335 ) ) ;
#281 = APPROVAL ( #430, 'UNSPECIFIED' ) ;
#282 = CALENDAR_DATE ( 2026, 24, 9 ) ;
#283 = CARTESIAN_POINT ( 'NONE',  ( 0.000000000000000000, 20.00000000000000000, -4.000000000000000000 ) ) ;
#284 = DATE_AND_TIME ( #165, #343 ) ;
#285 = VECTOR ( 'NONE', #124, 1000.000000000000000 ) ;
#286 = DIRECTION ( 'NONE',  ( -0.000000000000000000, -0.000000000000000000, -1.000000000000000000 ) ) ;
#287 = VECTOR ( 'NONE', #219, 1000.000000000000000 ) ;
#288 = PRODUCT_RELATED_PRODUCT_CATEGORY ( 'detail', '', ( #188 ) ) ;
#289 = PLANE ( 'NONE',  #71 ) ;
#290 = ORIENTED_EDGE ( 'NONE', *, *, #300, .F. ) ;
#291 = EDGE_LOOP ( 'NONE', ( #368, #259, #22, #143 ) ) ;
#292 = EDGE_CURVE ( 'NONE', #228, #119, #361, .T. ) ;
#293 = CIRCLE ( 'NONE', #162, 4.000000000000000000 ) ;
#294 = CC_DESIGN_APPROVAL ( #330, ( #480 ) ) ;
#295 = ORIENTED_EDGE ( 'NONE', *, *, #382, .F. ) ;
#296 = DIRECTION ( 'NONE',  ( 0.000000000000000000, -1.000000000000000000, 0.000000000000000000 ) ) ;
#297 = ORIENTED_EDGE ( 'NONE', *, *, #305, .F. ) ;
#298 = FACE_BOUND ( 'NONE', #350, .T. ) ;
#299 = ORIENTED_EDGE ( 'NONE', *, *, #432, .F. ) ;
#300 = EDGE_CURVE ( 'NONE', #414, #279, #68, .T. ) ;
#301 = LINE ( 'NONE', #425, #41 ) ;
#302 = ADVANCED_FACE ( 'NONE', ( #214 ), #471, .F. ) ;
#303 = CARTESIAN_POINT ( 'NONE',  ( 0.000000000000000000, 20.00000000000000000, 0.000000000000000000 ) ) ;
#304 = CARTESIAN_POINT ( 'NONE',  ( 0.000000000000000000, 0.000000000000000000, 4.000000000000000000 ) ) ;
#305 = EDGE_CURVE ( 'NONE', #370, #414, #20, .T. ) ;
#306 = VECTOR ( 'NONE', #270, 1000.000000000000000 ) ;
#307 = AXIS2_PLACEMENT_3D ( 'NONE', #109, #442, #181 ) ;
#308 = CARTESIAN_POINT ( 'NONE',  ( -16.00000000000000355, 0.000000000000000000, 4.000000000000000000 ) ) ;
#309 = ADVANCED_BREP_SHAPE_REPRESENTATION ( 'JX1_AnkleCross', ( #215, #82 ), #333 ) ;
#310 = ORIENTED_EDGE ( 'NONE', *, *, #409, .T. ) ;
#311 = SECURITY_CLASSIFICATION_LEVEL ( 'unclassified' ) ;
#312 = DIRECTION ( 'NONE',  ( 0.000000000000000000, 0.000000000000000000, 1.000000000000000000 ) ) ;
#313 = ORIENTED_EDGE ( 'NONE', *, *, #352, .F. ) ;
#314 = CIRCLE ( 'NONE', #449, 4.000000000000000000 ) ;
#315 = CC_DESIGN_APPROVAL ( #281, ( #13 ) ) ;
#316 = DIRECTION ( 'NONE',  ( 1.000000000000000000, 0.000000000000000000, 0.000000000000000000 ) ) ;
#317 = ORIENTED_EDGE ( 'NONE', *, *, #166, .T. ) ;
#318 = COORDINATED_UNIVERSAL_TIME_OFFSET ( 5, 30, .AHEAD. ) ;
#319 = DIRECTION ( 'NONE',  ( -0.000000000000000000, -1.000000000000000000, -0.000000000000000000 ) ) ;
#320 = APPROVAL_DATE_TIME ( #161, #281 ) ;
#321 = CARTESIAN_POINT ( 'NONE',  ( 0.000000000000000000, 0.000000000000000000, 13.00000000000000000 ) ) ;
#322 = CC_DESIGN_PERSON_AND_ORGANIZATION_ASSIGNMENT ( #17, #154, ( #188 ) ) ;
#323 = AXIS2_PLACEMENT_3D ( 'NONE', #236, #51, #452 ) ;
#324 = CARTESIAN_POINT ( 'NONE',  ( -7.999999999999996447, -7.999999999999996447, 3.999999999999998224 ) ) ;
#325 = ORIENTED_EDGE ( 'NONE', *, *, #173, .F. ) ;
#326 = EDGE_CURVE ( 'NONE', #108, #443, #27, .T. ) ;
#327 = ORIENTED_EDGE ( 'NONE', *, *, #221, .T. ) ;
#328 = LINE ( 'NONE', #477, #403 ) ;
#329 = ORIENTED_EDGE ( 'NONE', *, *, #345, .F. ) ;
#330 = APPROVAL ( #248, 'UNSPECIFIED' ) ;
#331 = VECTOR ( 'NONE', #296, 1000.000000000000000 ) ;
#332 = DIRECTION ( 'NONE',  ( -1.000000000000000000, 0.000000000000000000, 0.000000000000000000 ) ) ;
#333 =( GEOMETRIC_REPRESENTATION_CONTEXT ( 3 ) GLOBAL_UNCERTAINTY_ASSIGNED_CONTEXT ( ( #229 ) ) GLOBAL_UNIT_ASSIGNED_CONTEXT ( ( #76, #444, #243 ) ) REPRESENTATION_CONTEXT ( 'NONE', 'WORKASPACE' ) );
#334 = ORIENTED_EDGE ( 'NONE', *, *, #418, .F. ) ;
#335 = CARTESIAN_POINT ( 'NONE',  ( -16.00000000000000000, -16.50000000000000000, 13.00000000000000000 ) ) ;
#336 = CYLINDRICAL_SURFACE ( 'NONE', #21, 4.000000000000000000 ) ;
#337 = ADVANCED_FACE ( 'NONE', ( #251 ), #253, .F. ) ;
#338 = ORIENTED_EDGE ( 'NONE', *, *, #352, .T. ) ;
#339 = ORIENTED_EDGE ( 'NONE', *, *, #326, .F. ) ;
#340 = EDGE_CURVE ( 'NONE', #160, #267, #293, .T. ) ;
#341 = DIRECTION ( 'NONE',  ( 0.000000000000000000, 0.000000000000000000, -1.000000000000000000 ) ) ;
#342 = AXIS2_PLACEMENT_3D ( 'NONE', #150, #120, #15 ) ;
#343 = LOCAL_TIME ( 11, 8, 54.00000000000000000, #208 ) ;
#344 = CARTESIAN_POINT ( 'NONE',  ( 4.898587196589412829E-16, 16.50000000000000000, 4.000000000000000000 ) ) ;
#345 = EDGE_CURVE ( 'NONE', #97, #16, #95, .T. ) ;
#346 = DIRECTION ( 'NONE',  ( -0.000000000000000000, -1.000000000000000000, -0.000000000000000000 ) ) ;
#347 = DIRECTION ( 'NONE',  ( 0.000000000000000000, 0.000000000000000000, -1.000000000000000000 ) ) ;
#348 =( BOUNDED_CURVE ( )  B_SPLINE_CURVE ( 3, ( #55, #240, #383, #155 ),
 .UNSPECIFIED., .F., .F. ) 
 B_SPLINE_CURVE_WITH_KNOTS ( ( 4, 4 ),
 ( 4.712388980384689674, 7.853981633974482790 ),
 .UNSPECIFIED. ) 
 CURVE ( )  GEOMETRIC_REPRESENTATION_ITEM ( )  RATIONAL_B_SPLINE_CURVE ( ( 1.000000000000000000, 0.3333333333333333703, 0.3333333333333333703, 1.000000000000000000 ) ) 
 REPRESENTATION_ITEM ( '' )  );
#349 = CARTESIAN_POINT ( 'NONE',  ( 0.000000000000000000, 16.50000000000000000, -4.000000000000000000 ) ) ;
#350 = EDGE_LOOP ( 'NONE', ( #313, #180 ) ) ;
#351 = CARTESIAN_POINT ( 'NONE',  ( 16.00000000000000000, 4.898587196589412829E-16, -4.000000000000000000 ) ) ;
#352 = EDGE_CURVE ( 'NONE', #261, #370, #102, .T. ) ;
#353 = DATE_TIME_ROLE ( 'creation_date' ) ;
#354 = PLANE ( 'NONE',  #81 ) ;
#355 = APPROVAL_ROLE ( '' ) ;
#356 = CARTESIAN_POINT ( 'NONE',  ( 16.00000000000000000, 16.50000000000000000, 13.00000000000000000 ) ) ;
#357 = DATE_TIME_ROLE ( 'classification_date' ) ;
#358 = CARTESIAN_POINT ( 'NONE',  ( 20.00000000000000000, 4.898587196589412829E-16, -4.000000000000000000 ) ) ;
#359 = DIRECTION ( 'NONE',  ( -0.000000000000000000, 1.000000000000000000, -0.000000000000000000 ) ) ;
#360 = EDGE_LOOP ( 'NONE', ( #461, #110 ) ) ;
#361 = CIRCLE ( 'NONE', #454, 4.000000000000000000 ) ;
#362 = CC_DESIGN_SECURITY_CLASSIFICATION ( #13, ( #480 ) ) ;
#363 = CARTESIAN_POINT ( 'NONE',  ( 20.00000000000000000, 0.000000000000000000, 0.000000000000000000 ) ) ;
#364 = LINE ( 'NONE', #234, #379 ) ;
#365 = ORIENTED_EDGE ( 'NONE', *, *, #382, .T. ) ;
#366 = LINE ( 'NONE', #42, #287 ) ;
#367 = ORIENTED_EDGE ( 'NONE', *, *, #129, .F. ) ;
#368 = ORIENTED_EDGE ( 'NONE', *, *, #413, .F. ) ;
#369 = LINE ( 'NONE', #372, #421 ) ;
#370 = VERTEX_POINT ( 'NONE', #351 ) ;
#371 = ORIENTED_EDGE ( 'NONE', *, *, #252, .F. ) ;
#372 = CARTESIAN_POINT ( 'NONE',  ( 16.00000000000000000, -16.50000000000000000, 13.00000000000000000 ) ) ;
#373 = EDGE_CURVE ( 'NONE', #174, #108, #29, .T. ) ;
#374 = EDGE_LOOP ( 'NONE', ( #338, #147, #32, #440 ) ) ;
#375 = ORIENTED_EDGE ( 'NONE', *, *, #418, .T. ) ;
#376 = DIRECTION ( 'NONE',  ( -1.000000000000000000, 0.000000000000000000, 0.000000000000000000 ) ) ;
#377 = CARTESIAN_POINT ( 'NONE',  ( -16.00000000000000000, 16.50000000000000000, -13.00000000000000000 ) ) ;
#378 = CARTESIAN_POINT ( 'NONE',  ( -16.00000000000000000, -16.50000000000000000, 13.00000000000000000 ) ) ;
#379 = VECTOR ( 'NONE', #33, 1000.000000000000000 ) ;
#380 = LOCAL_TIME ( 11, 8, 54.00000000000000000, #65 ) ;
#381 = APPLICATION_CONTEXT ( 'configuration controlled 3d designs of mechanical parts and assemblies' ) ;
#382 = EDGE_CURVE ( 'NONE', #414, #279, #218, .T. ) ;
#383 = CARTESIAN_POINT ( 'NONE',  ( 7.999999999999996447, -7.999999999999996447, -3.999999999999998224 ) ) ;
#384 = PERSON_AND_ORGANIZATION ( #117, #470 ) ;
#385 = LINE ( 'NONE', #422, #265 ) ;
#386 = CIRCLE ( 'NONE', #152, 4.000000000000000000 ) ;
#387 = EDGE_LOOP ( 'NONE', ( #297, #262, #327, #295 ) ) ;
#388 = DIRECTION ( 'NONE',  ( 0.000000000000000000, 0.000000000000000000, 1.000000000000000000 ) ) ;
#389 = CC_DESIGN_APPROVAL ( #176, ( #254 ) ) ;
#390 = CARTESIAN_POINT ( 'NONE',  ( 0.000000000000000000, 0.000000000000000000, 4.000000000000000000 ) ) ;
#391 = EDGE_CURVE ( 'NONE', #414, #267, #62, .T. ) ;
#392 = PERSON_AND_ORGANIZATION ( #117, #470 ) ;
#393 = CARTESIAN_POINT ( 'NONE',  ( -16.00000000000000000, -16.50000000000000000, 13.00000000000000000 ) ) ;
#394 = VERTEX_POINT ( 'NONE', #465 ) ;
#395 = EDGE_CURVE ( 'NONE', #185, #406, #257, .T. ) ;
#396 = CARTESIAN_POINT ( 'NONE',  ( 0.000000000000000000, -16.50000000000000355, 0.000000000000000000 ) ) ;
#397 = COORDINATED_UNIVERSAL_TIME_OFFSET ( 5, 30, .AHEAD. ) ;
#398 = DIRECTION ( 'NONE',  ( 0.000000000000000000, 0.000000000000000000, -1.000000000000000000 ) ) ;
#399 = CARTESIAN_POINT ( 'NONE',  ( 7.999999999999996447, 7.999999999999996447, -4.000000000000000000 ) ) ;
#400 = LINE ( 'NONE', #407, #455 ) ;
#401 = ADVANCED_FACE ( 'NONE', ( #170 ), #289, .F. ) ;
#402 = EDGE_LOOP ( 'NONE', ( #448, #367, #232, #3 ) ) ;
#403 = VECTOR ( 'NONE', #141, 1000.000000000000000 ) ;
#404 = CARTESIAN_POINT ( 'NONE',  ( 16.00000000000000000, 16.50000000000000000, 13.00000000000000000 ) ) ;
#405 = ADVANCED_FACE ( 'NONE', ( #35, #4 ), #230, .F. ) ;
#406 = VERTEX_POINT ( 'NONE', #233 ) ;
#407 = CARTESIAN_POINT ( 'NONE',  ( 20.00000000000000000, 4.898587196589412829E-16, -4.000000000000000000 ) ) ;
#408 = ORIENTED_EDGE ( 'NONE', *, *, #224, .F. ) ;
#409 = EDGE_CURVE ( 'NONE', #97, #57, #436, .T. ) ;
#410 = ORIENTED_EDGE ( 'NONE', *, *, #326, .T. ) ;
#411 = DIRECTION ( 'NONE',  ( 0.000000000000000000, -1.000000000000000000, 0.000000000000000000 ) ) ;
#412 = PRODUCT_DEFINITION_SHAPE ( 'NONE', 'NONE',  #254 ) ;
#413 = EDGE_CURVE ( 'NONE', #279, #160, #2, .T. ) ;
#414 = VERTEX_POINT ( 'NONE', #226 ) ;
#415 = CYLINDRICAL_SURFACE ( 'NONE', #276, 4.000000000000000000 ) ;
#416 = ORIENTED_EDGE ( 'NONE', *, *, #420, .T. ) ;
#417 = CARTESIAN_POINT ( 'NONE',  ( -7.999999999999996447, 7.999999999999996447, -3.999999999999997335 ) ) ;
#418 = EDGE_CURVE ( 'NONE', #108, #97, #369, .T. ) ;
#419 = LINE ( 'NONE', #132, #48 ) ;
#420 = EDGE_CURVE ( 'NONE', #119, #414, #366, .T. ) ;
#421 = VECTOR ( 'NONE', #256, 1000.000000000000000 ) ;
#422 = CARTESIAN_POINT ( 'NONE',  ( 16.00000000000000000, 16.50000000000000000, -13.00000000000000000 ) ) ;
#423 = CYLINDRICAL_SURFACE ( 'NONE', #342, 4.000000000000000000 ) ;
#424 = ADVANCED_FACE ( 'NONE', ( #146 ), #186, .F. ) ;
#425 = CARTESIAN_POINT ( 'NONE',  ( -16.00000000000000000, -16.50000000000000000, 13.00000000000000000 ) ) ;
#426 = EDGE_LOOP ( 'NONE', ( #1, #325, #371, #40 ) ) ;
#427 = DATE_AND_TIME ( #275, #172 ) ;
#428 = DIRECTION ( 'NONE',  ( -0.000000000000000000, -0.000000000000000000, -1.000000000000000000 ) ) ;
#429 = ORIENTED_EDGE ( 'NONE', *, *, #413, .T. ) ;
#430 = APPROVAL_STATUS ( 'not_yet_approved' ) ;
#431 = CARTESIAN_POINT ( 'NONE',  ( 0.000000000000000000, -16.50000000000000355, -4.000000000000000000 ) ) ;
#432 = EDGE_CURVE ( 'NONE', #414, #406, #400, .T. ) ;
#433 = COORDINATED_UNIVERSAL_TIME_OFFSET ( 5, 30, .AHEAD. ) ;
#434 = APPROVAL_STATUS ( 'not_yet_approved' ) ;
#435 = CARTESIAN_POINT ( 'NONE',  ( 0.000000000000000000, 0.000000000000000000, -4.000000000000000000 ) ) ;
#436 = LINE ( 'NONE', #404, #184 ) ;
#437 = EDGE_LOOP ( 'NONE', ( #290, #77, #225, #164 ) ) ;
#438 = DIRECTION ( 'NONE',  ( 0.000000000000000000, -1.000000000000000000, 0.000000000000000000 ) ) ;
#439 = FACE_OUTER_BOUND ( 'NONE', #156, .T. ) ;
#440 = ORIENTED_EDGE ( 'NONE', *, *, #221, .F. ) ;
#441 = AXIS2_PLACEMENT_3D ( 'NONE', #149, #11, #274 ) ;
#442 = DIRECTION ( 'NONE',  ( 0.000000000000000000, -1.000000000000000000, 0.000000000000000000 ) ) ;
#443 = VERTEX_POINT ( 'NONE', #474 ) ;
#444 =( NAMED_UNIT ( * ) PLANE_ANGLE_UNIT ( ) SI_UNIT ( $, .RADIAN. ) );
#445 = DIRECTION ( 'NONE',  ( 0.000000000000000000, 0.000000000000000000, 1.000000000000000000 ) ) ;
#446 = ORIENTED_EDGE ( 'NONE', *, *, #96, .T. ) ;
#447 = FACE_OUTER_BOUND ( 'NONE', #291, .T. ) ;
#448 = ORIENTED_EDGE ( 'NONE', *, *, #239, .T. ) ;
#449 = AXIS2_PLACEMENT_3D ( 'NONE', #457, #346, #196 ) ;
#450 = CARTESIAN_POINT ( 'NONE',  ( 20.00000000000000000, 0.000000000000000000, 4.000000000000000000 ) ) ;
#451 = ADVANCED_FACE ( 'NONE', ( #190 ), #69, .F. ) ;
#452 = DIRECTION ( 'NONE',  ( 0.000000000000000000, 0.000000000000000000, -1.000000000000000000 ) ) ;
#453 = DIRECTION ( 'NONE',  ( 0.000000000000000000, -1.000000000000000000, 0.000000000000000000 ) ) ;
#454 = AXIS2_PLACEMENT_3D ( 'NONE', #127, #359, #398 ) ;
#455 = VECTOR ( 'NONE', #45, 1000.000000000000000 ) ;
#456 = CARTESIAN_POINT ( 'NONE',  ( -16.00000000000000000, 16.50000000000000000, 13.00000000000000000 ) ) ;
#457 = CARTESIAN_POINT ( 'NONE',  ( 0.000000000000000000, -16.50000000000000355, 0.000000000000000000 ) ) ;
#458 = EDGE_LOOP ( 'NONE', ( #317, #446, #72, #142 ) ) ;
#459 = PERSON_AND_ORGANIZATION ( #117, #470 ) ;
#460 = FACE_OUTER_BOUND ( 'NONE', #473, .T. ) ;
#461 = ORIENTED_EDGE ( 'NONE', *, *, #166, .F. ) ;
#462 = APPROVAL_DATE_TIME ( #284, #176 ) ;
#463 = CARTESIAN_POINT ( 'NONE',  ( 16.00000000000000000, 0.000000000000000000, 0.000000000000000000 ) ) ;
#464 = DATE_AND_TIME ( #282, #195 ) ;
#465 = CARTESIAN_POINT ( 'NONE',  ( -16.00000000000000000, -16.50000000000000000, -13.00000000000000000 ) ) ;
#466 = ADVANCED_FACE ( 'NONE', ( #298, #264 ), #481, .F. ) ;
#467 = APPLICATION_PROTOCOL_DEFINITION ( 'international standard', 'config_control_design', 1994, #381 ) ;
#468 = CARTESIAN_POINT ( 'NONE',  ( 16.00000000000000000, -16.50000000000000000, 13.00000000000000000 ) ) ;
#469 = CIRCLE ( 'NONE', #441, 4.000000000000000000 ) ;
#470 = ORGANIZATION ( 'UNSPECIFIED', 'UNSPECIFIED', '' ) ;
#471 = CYLINDRICAL_SURFACE ( 'NONE', #250, 4.000000000000000000 ) ;
#472 = EDGE_CURVE ( 'NONE', #279, #185, #328, .T. ) ;
#473 = EDGE_LOOP ( 'NONE', ( #114, #37, #375, #310 ) ) ;
#474 = CARTESIAN_POINT ( 'NONE',  ( 16.00000000000000000, -16.50000000000000000, -13.00000000000000000 ) ) ;
#475 = DIRECTION ( 'NONE',  ( 0.000000000000000000, 0.000000000000000000, -1.000000000000000000 ) ) ;
#476 = EDGE_LOOP ( 'NONE', ( #299, #204, #113, #137 ) ) ;
#477 = CARTESIAN_POINT ( 'NONE',  ( 20.00000000000000000, 0.000000000000000000, 4.000000000000000000 ) ) ;
#478 = ORIENTED_EDGE ( 'NONE', *, *, #340, .T. ) ;
#479 = AXIS2_PLACEMENT_3D ( 'NONE', #463, #247, #25 ) ;
#480 = PRODUCT_DEFINITION_FORMATION_WITH_SPECIFIED_SOURCE ( 'ANY', '', #188, .NOT_KNOWN. ) ;
#481 = PLANE ( 'NONE',  #135 ) ;
ENDSEC;
END-ISO-10303-21;
